<?xml version="1.0" encoding="utf-8"?>
<!-- Generator: Adobe Illustrator 19.0.0, SVG Export Plug-In . SVG Version: 6.00 Build 0)  -->
<svg version="1.1" id="图层_1" xmlns="http://www.w3.org/2000/svg" xmlns:xlink="http://www.w3.org/1999/xlink" x="0px" y="0px"
	 viewBox="0 0 64 64" style="enable-background:new 0 0 64 64;" xml:space="preserve">
<g id="XMLID_2_">
	<path id="XMLID_11_" d="M32,0C14.3,0,0,14.3,0,32s14.3,32,32,32s32-14.3,32-32S49.7,0,32,0z M32,60C16.6,60,4,47.4,4,32
		S16.6,4,32,4s28,12.6,28,28S47.4,60,32,60z"/>
	<path id="XMLID_14_" d="M32.9,14l-0.9,0c-2.9,0-5.3,0.7-6.9,2.2c-1.7,1.5-2.6,3.5-2.8,6v19.1v0c0,2.9,0.9,5.1,2.7,6.4
		c1.8,1.4,3.8,2.1,6.1,2.1H32c0.2,0,0.3,0,0.5,0s0.3,0,0.5,0c2.1-0.1,4-0.7,5.8-1.9c1.8-1.2,2.7-3.4,2.9-6.6V22.1
		c0-2.1-0.6-3.9-1.9-5.5C38.4,14.9,36.1,14.1,32.9,14z M33.8,23.1v18.5c0,0.8-0.2,1.4-0.6,1.9c-0.4,0.4-0.8,0.7-1.3,0.7
		c-0.1,0-0.1,0-0.2,0s-0.1,0-0.2,0c-0.4-0.1-0.8-0.4-1.1-0.9c-0.3-0.5-0.5-1.2-0.5-2.1v-18c0-0.8,0.2-1.4,0.5-1.9
		c0.3-0.5,0.7-0.7,1.1-0.8c0.1,0,0.1,0,0.2,0s0.1,0,0.2,0c0.1,0,0.1,0,0.2,0c0.1,0,0.1,0,0.2,0c0.4,0.1,0.7,0.4,1.1,0.8
		c0.3,0.4,0.5,0.9,0.5,1.5V23.1z"/>
</g>
</svg>
