<?xml version="1.0" encoding="utf-8"?>
<!-- Generator: Adobe Illustrator 19.0.0, SVG Export Plug-In . SVG Version: 6.00 Build 0)  -->
<svg version="1.1" id="图层_1" xmlns="http://www.w3.org/2000/svg" xmlns:xlink="http://www.w3.org/1999/xlink" x="0px" y="0px"
	 viewBox="0 0 64 64" style="enable-background:new 0 0 64 64;" xml:space="preserve">
<g id="XMLID_2_">
	<path id="XMLID_9_" d="M32,0C14.3,0,0,14.3,0,32c0,17.7,14.3,32,32,32s32-14.3,32-32C64,14.3,49.7,0,32,0z M41.6,41.4
		c-0.2,3.2-1.1,5.4-2.9,6.6c-1.8,1.2-3.7,1.8-5.8,1.9c-0.2,0-0.3,0-0.5,0s-0.3,0-0.5,0h-0.9c-2.3,0-4.3-0.7-6.1-2.1
		c-1.8-1.4-2.7-3.5-2.7-6.4v0V22.4c0.2-2.5,1.1-4.5,2.8-6c1.7-1.5,4-2.2,6.9-2.2l0.9,0c3.2,0,5.5,0.9,6.8,2.5
		c1.3,1.6,1.9,3.5,1.9,5.5V41.4z"/>
	<path id="XMLID_10_" d="M32.2,20.4c-0.1,0-0.1,0-0.2,0c-0.1,0-0.1,0-0.2,0c-0.1,0-0.1,0-0.2,0s-0.1,0-0.2,0
		c-0.4,0.1-0.8,0.4-1.1,0.8c-0.3,0.5-0.5,1.1-0.5,1.9v18c0,0.9,0.2,1.6,0.5,2.1c0.3,0.5,0.7,0.8,1.1,0.9c0.1,0,0.1,0,0.2,0
		s0.1,0,0.2,0c0.5,0,0.9-0.2,1.3-0.7c0.4-0.4,0.6-1.1,0.6-1.9V23.1v-0.4c0-0.6-0.2-1.1-0.5-1.5C33,20.8,32.6,20.5,32.2,20.4z"/>
</g>
</svg>
