<?xml version="1.0" encoding="utf-8"?>
<!-- Generator: Adobe Illustrator 19.0.0, SVG Export Plug-In . SVG Version: 6.00 Build 0)  -->
<svg version="1.1" id="图层_1" xmlns="http://www.w3.org/2000/svg" xmlns:xlink="http://www.w3.org/1999/xlink" x="0px" y="0px"
	 viewBox="0 0 64 64" style="enable-background:new 0 0 64 64;" xml:space="preserve">
<path id="XMLID_1_" d="M52.1,4.1c4.3,0,7.9,3.5,7.9,7.9v40.3c0,4.3-3.5,7.9-7.9,7.9H11.9c-4.3,0-7.9-3.5-7.9-7.9V11.9
	c0-4.3,3.5-7.9,7.9-7.9H52.1 M52.1,0.1H11.9C5.3,0.1,0,5.4,0,11.9v40.3c0,6.5,5.3,11.9,11.9,11.9h40.3c6.5,0,11.9-5.3,11.9-11.9
	V11.9C64,5.4,58.7,0.1,52.1,0.1L52.1,0.1z"/>
<g id="XMLID_3_">
	<path id="XMLID_6_" d="M32.1,14.8h6.3v34.5h-7.6V23.5h-5.1v-4.8c0,0,0.1,0.1,0.1,0.1s0.1,0,0.2,0c0.1,0,0.1,0,0.2,0
		c0,0,0.1,0,0.1,0c0.3,0,0.5,0,0.8-0.1c0.3,0,0.6-0.1,0.8-0.2c1-0.3,1.9-0.8,2.7-1.4C31.3,16.5,31.9,15.7,32.1,14.8L32.1,14.8z"/>
</g>
</svg>
