<?xml version="1.0" encoding="utf-8"?>
<!-- Generator: Adobe Illustrator 19.0.0, SVG Export Plug-In . SVG Version: 6.00 Build 0)  -->
<svg version="1.1" id="图层_1" xmlns="http://www.w3.org/2000/svg" xmlns:xlink="http://www.w3.org/1999/xlink" x="0px" y="0px"
	 viewBox="0 0 64 64" style="enable-background:new 0 0 64 64;" xml:space="preserve">
<g id="XMLID_2_">
	<path id="XMLID_10_" d="M32,0C14.3,0,0,14.3,0,32s14.3,32,32,32s32-14.3,32-32S49.7,0,32,0z M32,60C16.6,60,4,47.4,4,32
		S16.6,4,32,4s28,12.6,28,28S47.4,60,32,60z"/>
	<path id="XMLID_11_" d="M32.5,14.4c-3.4,0-5.9,1-7.5,3c-1.6,2-2.4,4.6-2.4,7.7c0,0.2,0,0.3,0,0.5c0,0.2,0,0.3,0.1,0.5
		c0,0,0,0.1,0,0.1c0,0,0,0.1,0,0.1c0,0.1,0,0.3,0,0.4c0,0.1,0,0.3,0,0.4l7.2,0c0-0.2,0.1-0.4,0.1-0.7c0-0.3,0-0.6,0.1-0.9
		c0-0.2,0-0.4,0-0.7c0-0.2,0-0.4,0-0.7c0.1-0.9,0.2-1.7,0.5-2.4c0.2-0.7,0.7-1.1,1.5-1.1c0.8,0,1.3,0.3,1.7,0.8
		c0.4,0.5,0.5,1.2,0.5,2c0,0.4-0.1,0.9-0.2,1.5c-0.1,0.5-0.3,1.1-0.5,1.6c-0.3,0.8-0.7,1.5-1.2,2.2c-0.4,0.7-1,1.4-1.5,1.9
		c-0.3,0.3-0.5,0.5-0.8,0.7c-0.3,0.2-0.6,0.5-0.8,0.7c-2,1.8-3.7,3.9-5.3,6.4c-1.6,2.4-2.4,5.8-2.4,10.2c0,0.1,0,0.1,0,0.2
		c0,0.1,0,0.2,0,0.2c0,0.1,0,0.2,0,0.3s0,0.1,0,0.2h20v-6.5l-11.8,0c0.1-0.6,0.4-1.3,0.9-2c0.5-0.7,1-1.4,1.7-2.2
		c0.4-0.4,0.7-0.8,1.2-1.2c0.4-0.4,0.8-0.8,1.2-1.2c1-0.9,1.9-1.8,2.8-2.6c0.9-0.8,1.5-1.5,1.9-2c0.7-0.9,1.3-2,1.8-3.3
		c0.5-1.4,0.8-2.8,0.8-4.2c0-0.1,0-0.2,0-0.3c0-0.1,0-0.2,0-0.3c0-0.1,0-0.1,0-0.2c0-0.1,0-0.1,0-0.2c-0.1-2.2-0.8-4.2-2.3-6
		C38.6,15.3,36.1,14.4,32.5,14.4z"/>
</g>
</svg>
