<?xml version="1.0" encoding="utf-8"?>
<!-- Generator: Adobe Illustrator 19.0.0, SVG Export Plug-In . SVG Version: 6.00 Build 0)  -->
<svg version="1.1" id="图层_1" xmlns="http://www.w3.org/2000/svg" xmlns:xlink="http://www.w3.org/1999/xlink" x="0px" y="0px"
	 viewBox="0 0 64 64" style="enable-background:new 0 0 64 64;" xml:space="preserve">
<g id="XMLID_2_">
	<path id="XMLID_10_" d="M32,0C14.3,0,0,14.3,0,32s14.3,32,32,32s32-14.3,32-32S49.7,0,32,0z M32,60C16.6,60,4,47.4,4,32
		S16.6,4,32,4s28,12.6,28,28S47.4,60,32,60z"/>
	<path id="XMLID_11_" d="M40.6,28.3c0.8-1.5,1.2-3.1,1.2-4.9c0-0.3,0-0.5,0-0.7c0-0.2,0-0.5-0.1-0.7c-0.3-1.9-1.1-3.7-2.5-5.3
		c-1.4-1.6-3.5-2.4-6.4-2.5l-0.7,0c-3.3,0-5.6,0.7-6.9,2.2c-1.3,1.5-2.2,3.1-2.5,4.9c-0.1,0.6-0.2,1.3-0.2,1.9c0,0.6,0,1.2,0,1.8
		l7.5,0c0-0.2,0.1-0.4,0.1-0.7c0-0.2,0-0.5,0.1-0.7c0,0,0-0.1,0-0.1s0,0,0-0.1c0-0.7,0.2-1.4,0.4-2c0.2-0.6,0.8-0.9,1.7-1l0.1,0
		c0.4,0,0.8,0.3,1,1c0.3,0.6,0.4,1.3,0.4,2.1c0,0.1,0,0.2,0,0.4c0,0.1,0,0.2,0,0.3c-0.1,1-0.4,1.9-1,2.7s-1.5,1.2-2.7,1.2
		c0,0-0.1,0-0.1,0s-0.1,0-0.2,0c-0.1,0-0.1,0-0.2,0s-0.1,0-0.1,0v5.5c0.1,0,0.2,0,0.3,0c0.1,0,0.2,0,0.3,0c1.4,0.2,2.5,0.5,3.2,1
		c0.7,0.5,1.1,1.9,1.1,4.2v1.3c0,1.3-0.2,2.2-0.6,2.9c-0.4,0.6-0.9,1-1.4,1c-0.8,0-1.4-0.4-1.8-1.2s-0.6-1.7-0.6-2.6
		c0-0.5-0.1-1-0.1-1.5c0-0.5,0-0.9,0-1.3l-7.2,0c0,0.2,0,0.4,0,0.6s0,0.5-0.1,0.7c0,0.1,0,0.3,0,0.4c0,0.1,0,0.3,0,0.5
		c0,0.1,0,0.2,0,0.3c0,0.1,0,0.2,0,0.4c0,0.4,0,0.8,0,1.2c0,0.4,0.1,0.9,0.1,1.3c0.3,1.8,1,3.4,2.2,4.8c1.2,1.5,3.4,2.2,6.4,2.2h0.6
		c0.5,0,1.1,0,1.7,0c0.6,0,1.2-0.1,1.8-0.2c1.6-0.3,3.1-1.1,4.5-2.5c1.4-1.4,2-4,2-7.9c0-2.1-0.2-3.9-0.6-5.4
		c-0.4-1.5-1.6-2.6-3.5-3.3C38.8,30.5,39.8,29.8,40.6,28.3z"/>
</g>
</svg>
