<?xml version="1.0" encoding="utf-8"?>
<!-- Generator: Adobe Illustrator 19.0.0, SVG Export Plug-In . SVG Version: 6.00 Build 0)  -->
<svg version="1.1" id="图层_1" xmlns="http://www.w3.org/2000/svg" xmlns:xlink="http://www.w3.org/1999/xlink" x="0px" y="0px"
	 viewBox="0 0 64 64" style="enable-background:new 0 0 64 64;" xml:space="preserve">
<g id="XMLID_2_">
	<path id="XMLID_10_" d="M32,0C14.3,0,0,14.3,0,32s14.3,32,32,32s32-14.3,32-32S49.7,0,32,0z M32,60C16.6,60,4,47.4,4,32
		S16.6,4,32,4s28,12.6,28,28S47.4,60,32,60z"/>
	<path id="XMLID_11_" d="M39.4,21.7h-3.1V22c0,0.5-0.1,1.2-0.4,2c-0.3,0.9-0.6,1.8-1.1,2.7c-0.2,0.4-0.4,0.8-0.6,1.2
		c-0.2,0.4-0.4,0.8-0.6,1.2c-0.3,0.6-0.6,1.1-0.9,1.6c-0.3,0.5-0.6,0.8-0.8,1v4.8h-5.6c0.5-0.6,1-1.4,1.7-2.5c0.7-1.1,1.3-2.3,2-3.7
		c0.5-0.9,1-1.9,1.4-3c0.5-1.1,0.9-2.1,1.3-3.2c0.6-1.6,1.2-3.2,1.6-4.8c0.4-1.6,0.6-3,0.6-4.2v-0.5h-8v0.7c0,1.1-0.1,2.3-0.4,3.9
		c-0.3,1.5-0.6,3.1-1,4.7c-0.2,1-0.5,2-0.8,3c-0.3,1-0.6,1.9-0.9,2.8c-0.4,1.2-0.8,2.3-1.2,3.2c-0.4,0.9-0.7,1.5-1,1.8v8h10v6.5h7.5
		v-6.5h2.7v-6.2h-2.7V21.7z"/>
</g>
</svg>
