<?xml version="1.0" encoding="utf-8"?>
<!-- Generator: Adobe Illustrator 19.0.0, SVG Export Plug-In . SVG Version: 6.00 Build 0)  -->
<svg version="1.1" id="图层_1" xmlns="http://www.w3.org/2000/svg" xmlns:xlink="http://www.w3.org/1999/xlink" x="0px" y="0px"
	 viewBox="0 0 64 64" style="enable-background:new 0 0 64 64;" xml:space="preserve">
<path id="XMLID_8_" d="M32,0C14.3,0,0,14.3,0,32c0,17.7,14.3,32,32,32s32-14.3,32-32C64,14.3,49.7,0,32,0z M39.8,45.8
	c-1.1,2.5-3.8,3.8-8.1,3.8c-3.6,0-6-0.9-7.4-2.8c-1.4-1.8-2.1-4.1-2.1-6.8c0-0.2,0-0.4,0-0.6c0-0.2,0-0.4,0-0.6
	c0-0.2,0.1-0.4,0.1-0.6c0-0.2,0-0.4,0.1-0.6l7.5,0c0,0.1,0,0.2,0,0.2c0,0.1,0,0.1,0,0.2c0,0.1,0,0.1,0,0.2s0,0.1,0,0.1
	c0,0.4-0.1,0.7-0.1,1c0,0.3,0,0.6,0,0.9c0,1.3,0.2,2.3,0.6,2.9c0.4,0.6,0.9,0.9,1.4,0.9c0.1,0,0.2,0,0.4,0c0.1,0,0.2-0.1,0.4-0.1
	c0.4-0.2,0.8-0.6,1.2-1.2c0.4-0.5,0.6-1.2,0.6-1.8v-6.7c0-0.8-0.2-1.5-0.6-2.1c-0.4-0.5-0.8-0.9-1.2-1c-0.1,0-0.1,0-0.2,0
	s-0.1,0-0.2,0c-0.1,0-0.1,0-0.2,0s-0.1,0-0.1,0c-0.4,0.1-0.8,0.3-1.1,0.7c-0.4,0.4-0.6,1-0.7,1.8l-6.5,0v-19H41v6.9H29.6v5.1
	c0.4-0.2,0.8-0.4,1.2-0.6c0.5-0.2,0.9-0.3,1.4-0.4c0.5-0.1,0.9-0.2,1.4-0.2s0.8-0.1,1.2-0.1c2.8,0.3,4.6,1.4,5.5,3.4s1.4,4.6,1.4,8
	C41.6,40.2,41,43.3,39.8,45.8z"/>
</svg>
