<?xml version="1.0" encoding="utf-8"?>
<!-- Generator: Adobe Illustrator 19.0.0, SVG Export Plug-In . SVG Version: 6.00 Build 0)  -->
<svg version="1.1" id="图层_1" xmlns="http://www.w3.org/2000/svg" xmlns:xlink="http://www.w3.org/1999/xlink" x="0px" y="0px"
	 viewBox="0 0 64 64" style="enable-background:new 0 0 64 64;" xml:space="preserve">
<g id="XMLID_1_">
	<path id="XMLID_3_" d="M45.5,5.6v10.4H28.5v7.7c0.5-0.3,1.1-0.6,1.8-0.9c0.7-0.3,1.4-0.5,2.1-0.6c0.7-0.1,1.4-0.3,2.1-0.3
		c0.7-0.1,1.3-0.1,1.8-0.1c4.1,0.5,6.9,2.2,8.2,5c1.4,2.9,2.1,6.9,2.1,12c-0.2,5.5-1.2,10.1-2.8,13.9c-1.7,3.8-5.7,5.7-12.2,5.7
		c-5.3,0-9-1.4-11.1-4.1c-2.1-2.8-3.1-6.2-3.1-10.3c0-0.3,0-0.6,0-0.9c0-0.3,0-0.6,0-1c0-0.3,0.1-0.6,0.1-0.9c0-0.3,0.1-0.6,0.1-0.9
		L29,40.3c0,0.1,0,0.3,0,0.4c0,0.1,0,0.2,0,0.3c0,0.1,0,0.2,0,0.3c0,0.1,0,0.1-0.1,0.2c0,0.5-0.1,1-0.1,1.5c0,0.5-0.1,0.9-0.1,1.3
		c0,2,0.3,3.5,0.9,4.4c0.6,0.9,1.3,1.3,2.1,1.3c0.2,0,0.4,0,0.5-0.1c0.2,0,0.3-0.1,0.5-0.2c0.6-0.3,1.2-0.9,1.8-1.7
		c0.6-0.8,0.9-1.7,0.9-2.7v-10c0-1.2-0.3-2.3-0.9-3.1c-0.6-0.8-1.2-1.3-1.9-1.5c-0.1,0-0.2-0.1-0.3-0.1c-0.1,0-0.2,0-0.3,0
		c-0.1,0-0.2,0-0.3,0c-0.1,0-0.1,0-0.2,0.1c-0.6,0.1-1.1,0.4-1.7,1c-0.5,0.6-0.9,1.5-1,2.6l-9.8-0.1V5.6H45.5z"/>
</g>
</svg>
