<?xml version="1.0" encoding="utf-8"?>
<!-- Generator: Adobe Illustrator 19.0.0, SVG Export Plug-In . SVG Version: 6.00 Build 0)  -->
<svg version="1.1" id="图层_1" xmlns="http://www.w3.org/2000/svg" xmlns:xlink="http://www.w3.org/1999/xlink" x="0px" y="0px"
	 viewBox="0 0 64 64" style="enable-background:new 0 0 64 64;" xml:space="preserve">
<g id="XMLID_2_">
	<path id="XMLID_11_" d="M32,0C14.3,0,0,14.3,0,32s14.3,32,32,32s32-14.3,32-32S49.7,0,32,0z M32,60C16.6,60,4,47.4,4,32
		S16.6,4,32,4s28,12.6,28,28S47.4,60,32,60z"/>
	<path id="XMLID_14_" d="M36,25.5c-0.3,0-0.5-0.1-0.8-0.1c-0.3,0-0.5,0-0.8,0c-0.9,0-1.8,0.2-2.6,0.5c-0.8,0.3-1.4,0.7-1.7,1.2v-4
		c0-0.7,0.2-1.2,0.6-1.6c0.4-0.4,0.8-0.6,1.2-0.7c0.1,0,0.1,0,0.2,0c0,0,0.1,0,0.2,0c0,0,0.1,0,0.1,0c0,0,0,0,0.1,0
		c0.5,0,0.9,0.2,1.3,0.6c0.4,0.4,0.6,0.8,0.6,1.4v0.6h6.9v-0.7c0-2.7-0.8-4.7-2.5-6.1c-1.7-1.4-3.8-2.2-6.4-2.2
		c-3.4,0.1-5.9,1-7.5,2.7c-1.6,1.7-2.3,3.5-2.3,5.6c0,0,0,0.1,0,0.1c0,0.1,0,0.1,0,0.2c0,0.1,0,0.2,0,0.2c0,0,0,0.1,0,0.1v18
		c0,2.7,0.8,4.8,2.5,6.3c1.6,1.5,3.9,2.2,6.9,2.2h0.8c2.4,0,4.4-0.7,6.2-2c1.8-1.3,2.6-3.3,2.6-5.9v-9.3c0-2.2-0.6-3.9-1.7-5
		C38.6,26.5,37.4,25.8,36,25.5z M34,41.3c0,0.8-0.2,1.5-0.5,1.9S32.8,44,32.4,44c-0.1,0-0.1,0-0.2,0s-0.1,0-0.2,0
		c-0.5,0-0.9-0.2-1.3-0.7c-0.4-0.5-0.6-1.2-0.6-2.2v-7.6c0-0.7,0.2-1.2,0.5-1.6c0.3-0.4,0.7-0.6,1.1-0.7c0.1,0,0.1,0,0.2,0
		s0.1,0,0.2,0c0.1,0,0.1,0,0.2,0c0.1,0,0.1,0,0.2,0c0.4,0.1,0.7,0.3,1.1,0.6c0.3,0.3,0.5,0.7,0.5,1.2V41.3z"/>
</g>
</svg>
