<?xml version="1.0" encoding="utf-8"?>
<!-- Generator: Adobe Illustrator 19.0.0, SVG Export Plug-In . SVG Version: 6.00 Build 0)  -->
<svg version="1.1" id="图层_1" xmlns="http://www.w3.org/2000/svg" xmlns:xlink="http://www.w3.org/1999/xlink" x="0px" y="0px"
	 viewBox="0 0 64 64" style="enable-background:new 0 0 64 64;" xml:space="preserve">
<g id="XMLID_2_">
	<path id="XMLID_7_" d="M32.5,31.4c-0.1,0-0.1,0-0.2,0c-0.1,0-0.1,0-0.2,0c-0.1,0-0.1,0-0.2,0s-0.1,0-0.2,0
		c-0.4,0.1-0.8,0.3-1.1,0.7c-0.3,0.4-0.5,0.9-0.5,1.6v7.6c0,1,0.2,1.7,0.6,2.2c0.4,0.5,0.8,0.7,1.3,0.7c0.1,0,0.1,0,0.2,0
		s0.1,0,0.2,0c0.4-0.1,0.8-0.4,1.1-0.8s0.5-1.1,0.5-1.9v-8c0-0.5-0.2-0.9-0.5-1.2C33.2,31.7,32.8,31.5,32.5,31.4z"/>
	<path id="XMLID_10_" d="M32,0C14.3,0,0,14.3,0,32c0,17.7,14.3,32,32,32s32-14.3,32-32C64,14.3,49.7,0,32,0z M41.5,41.9
		c0,2.6-0.9,4.6-2.6,5.9c-1.8,1.3-3.8,2-6.2,2h-0.8c-2.9,0-5.2-0.7-6.9-2.2c-1.6-1.5-2.5-3.6-2.5-6.3v-18c0,0,0-0.1,0-0.1
		c0,0,0-0.1,0-0.2c0-0.1,0-0.1,0-0.2c0-0.1,0-0.1,0-0.1c0-2,0.8-3.9,2.3-5.6c1.6-1.7,4-2.6,7.5-2.7c2.6,0,4.8,0.7,6.4,2.2
		c1.7,1.4,2.5,3.5,2.5,6.1v0.7h-6.9v-0.6c0-0.6-0.2-1-0.6-1.4c-0.4-0.4-0.8-0.6-1.3-0.6c0,0-0.1,0-0.1,0c0,0,0,0-0.1,0
		c-0.1,0-0.1,0-0.2,0c0,0-0.1,0-0.2,0c-0.4,0.1-0.9,0.3-1.2,0.7c-0.4,0.4-0.6,0.9-0.6,1.6v4c0.3-0.5,0.9-0.9,1.7-1.2
		c0.8-0.3,1.7-0.5,2.6-0.5c0.3,0,0.5,0,0.8,0c0.3,0,0.5,0.1,0.8,0.1c1.4,0.3,2.6,1,3.8,2.1c1.2,1.1,1.7,2.8,1.7,5V41.9z"/>
</g>
</svg>
