<?xml version="1.0" encoding="utf-8"?>
<!-- Generator: Adobe Illustrator 19.0.0, SVG Export Plug-In . SVG Version: 6.00 Build 0)  -->
<svg version="1.1" id="图层_1" xmlns="http://www.w3.org/2000/svg" xmlns:xlink="http://www.w3.org/1999/xlink" x="0px" y="0px"
	 viewBox="0 0 64 64" style="enable-background:new 0 0 64 64;" xml:space="preserve">
<path id="XMLID_8_" d="M32,0C14.3,0,0,14.3,0,32c0,17.7,14.3,32,32,32s32-14.3,32-32C64,14.3,49.7,0,32,0z M42.2,20.9
	c-1.2,1.6-2.2,3.6-3.2,5.7c-0.9,2.2-1.7,4.4-2.4,6.8c-0.8,2.8-1.5,5.5-1.9,8.1s-0.6,4.7-0.6,6.2c0,0.2,0,0.3,0,0.5
	c0,0.1,0,0.3,0.1,0.4c0,0.1,0.1,0.2,0.1,0.4c0,0.1,0,0.2,0,0.3l-8.7,0c0-0.3,0-0.6,0-0.9c0-0.3,0-0.6,0-1c0.3-3.5,1-6.9,2.1-10.3
	c1.1-3.4,2.2-6.4,3.4-9c0.6-1.3,1.2-2.5,1.8-3.6c0.6-1.1,1.1-2,1.6-2.8l-12.8,0v-6.9h20.3V20.9z"/>
</svg>
