<?xml version="1.0" encoding="utf-8"?>
<!-- Generator: Adobe Illustrator 19.0.0, SVG Export Plug-In . SVG Version: 6.00 Build 0)  -->
<svg version="1.1" id="图层_1" xmlns="http://www.w3.org/2000/svg" xmlns:xlink="http://www.w3.org/1999/xlink" x="0px" y="0px"
	 viewBox="0 0 64 64" style="enable-background:new 0 0 64 64;" xml:space="preserve">
<g id="XMLID_1_">
	<path id="XMLID_3_" d="M47.2,6v9.4c-1.8,2.5-3.4,5.3-4.8,8.6c-1.4,3.3-2.6,6.7-3.6,10.1c-1.2,4.2-2.2,8.3-2.8,12.2
		c-0.6,3.9-0.9,7-0.9,9.3c0,0.2,0,0.5,0,0.7c0,0.2,0.1,0.4,0.1,0.6c0,0.2,0.1,0.4,0.1,0.5c0,0.2,0,0.3,0,0.5l-13-0.1
		c0-0.4,0-0.9,0.1-1.4c0-0.5,0.1-1,0.1-1.4c0.5-5.2,1.5-10.4,3.1-15.4c1.6-5,3.3-9.5,5.1-13.5c0.9-2,1.8-3.8,2.7-5.4
		c0.9-1.6,1.7-3.1,2.4-4.3l-19.2-0.1V6H47.2z"/>
</g>
</svg>
