<?xml version="1.0" encoding="utf-8"?>
<!-- Generator: Adobe Illustrator 19.0.0, SVG Export Plug-In . SVG Version: 6.00 Build 0)  -->
<svg version="1.1" id="图层_1" xmlns="http://www.w3.org/2000/svg" xmlns:xlink="http://www.w3.org/1999/xlink" x="0px" y="0px"
	 viewBox="0 0 64 64" style="enable-background:new 0 0 64 64;" xml:space="preserve">
<path id="XMLID_9_" d="M52.1,0H11.9C5.3,0,0,5.3,0,11.9v40.3C0,58.7,5.3,64,11.9,64h40.3C58.7,64,64,58.7,64,52.1V11.9
	C64,5.3,58.7,0,52.1,0z M42.2,20.9c-1.2,1.6-2.2,3.6-3.2,5.7c-0.9,2.2-1.7,4.4-2.4,6.8c-0.8,2.8-1.5,5.5-1.9,8.1s-0.6,4.7-0.6,6.2
	c0,0.2,0,0.3,0,0.5c0,0.1,0,0.3,0.1,0.4c0,0.1,0.1,0.2,0.1,0.4c0,0.1,0,0.2,0,0.3l-8.7,0c0-0.3,0-0.6,0-0.9c0-0.3,0-0.6,0-1
	c0.3-3.5,1-6.9,2.1-10.3c1.1-3.4,2.2-6.4,3.4-9c0.6-1.3,1.2-2.5,1.8-3.6c0.6-1.1,1.1-2,1.6-2.8l-12.8,0v-6.9h20.3V20.9z"/>
</svg>
