<?xml version="1.0" encoding="utf-8"?>
<!-- Generator: Adobe Illustrator 19.0.0, SVG Export Plug-In . SVG Version: 6.00 Build 0)  -->
<svg version="1.1" id="图层_1" xmlns="http://www.w3.org/2000/svg" xmlns:xlink="http://www.w3.org/1999/xlink" x="0px" y="0px"
	 viewBox="0 0 64 64" style="enable-background:new 0 0 64 64;" xml:space="preserve">
<g id="XMLID_2_">
	<path id="XMLID_11_" d="M32,0C14.3,0,0,14.3,0,32s14.3,32,32,32s32-14.3,32-32S49.7,0,32,0z M32,60C16.6,60,4,47.4,4,32
		S16.6,4,32,4s28,12.6,28,28S47.4,60,32,60z"/>
	<path id="XMLID_14_" d="M38.6,16.7c-1.9-1.5-4-2.2-6.3-2.4c-0.1,0-0.3,0-0.4,0c-0.1,0-0.3,0-0.4,0c0,0-0.1,0-0.1,0c0,0,0,0-0.1,0
		c-2.2,0-4.3,0.8-6.1,2.2c-1.9,1.5-2.8,3.7-2.8,6.7v7.7c0.1,2.6,0.7,4.5,1.9,5.8c1.2,1.3,2.5,2.1,3.9,2.4c0.2,0.1,0.4,0.1,0.7,0.1
		c0.2,0,0.4,0,0.7,0c1.1,0,2.1-0.2,3-0.7c0.9-0.5,1.5-1.1,1.6-1.8v4.6c0,0.7-0.2,1.3-0.6,1.8c-0.4,0.5-0.8,0.8-1.2,0.9
		c-0.1,0-0.2,0.1-0.3,0.1c-0.1,0-0.2,0-0.3,0c-0.5,0-1-0.2-1.4-0.6c-0.4-0.4-0.6-1-0.6-1.8c0,0,0-0.1,0-0.1c0,0,0-0.1,0-0.1
		c0,0,0-0.1,0-0.1c0,0,0-0.1,0-0.1h-6.9v0c0,0.1,0,0.2,0,0.3c0,0.1,0,0.2,0,0.3c0,0.1,0,0.2,0,0.3c0,0.1,0,0.2,0,0.3
		c0,2.1,0.6,3.8,1.7,4.8c1.1,1.1,2.3,1.8,3.6,2.2c0.4,0.1,0.9,0.2,1.3,0.2c0.4,0,0.8,0.1,1.2,0.1h0.9c3.5,0,6-0.8,7.5-2.4
		c1.5-1.6,2.2-3.9,2.2-6.8v-18C41.5,20.1,40.5,18.1,38.6,16.7z M33.9,30.9c0,0.7-0.2,1.2-0.5,1.7c-0.4,0.5-0.7,0.8-1.2,0.9
		c-0.1,0-0.1,0.1-0.2,0.1c-0.1,0-0.2,0-0.3,0c-0.4,0-0.8-0.2-1.2-0.7c-0.4-0.5-0.6-1.2-0.6-2.1v-7.2c0-1,0.2-1.8,0.5-2.3
		c0.3-0.5,0.7-0.9,1.1-1c0.1,0,0.1,0,0.2,0s0.1,0,0.2,0c0.5,0,0.9,0.3,1.3,0.8c0.4,0.5,0.6,1.2,0.6,2.2V30.9z"/>
</g>
</svg>
