<?xml version="1.0" encoding="utf-8"?>
<!-- Generator: Adobe Illustrator 19.0.0, SVG Export Plug-In . SVG Version: 6.00 Build 0)  -->
<svg version="1.1" id="图层_1" xmlns="http://www.w3.org/2000/svg" xmlns:xlink="http://www.w3.org/1999/xlink" x="0px" y="0px"
	 viewBox="0 0 64 64" style="enable-background:new 0 0 64 64;" xml:space="preserve">
<g id="XMLID_1_">
	<path id="XMLID_3_" d="M18.8,45.8h10.3c0,0.1,0,0.2,0,0.2c0,0,0,0.1,0,0.1c0,0.1,0,0.2,0,0.2c0,0,0,0.1,0,0.1c0,1.2,0.3,2,0.9,2.7
		c0.6,0.6,1.3,0.9,2.1,0.9c0.1,0,0.3,0,0.4,0c0.1,0,0.3-0.1,0.4-0.1c0.7-0.2,1.3-0.6,1.9-1.4c0.6-0.7,0.9-1.6,0.9-2.7V39
		c-0.2,1.1-1.1,2-2.4,2.7c-1.4,0.7-2.9,1.1-4.5,1.1c-0.3,0-0.7,0-1,0c-0.3,0-0.7-0.1-1-0.2c-2.1-0.4-4-1.6-5.8-3.5
		c-1.8-1.9-2.7-4.8-2.8-8.7V18.8c0-4.6,1.4-7.9,4.2-10.1c2.8-2.2,5.9-3.3,9.2-3.3c0,0,0.1,0,0.1,0c0,0,0.1,0,0.1,0
		c0.2,0,0.4,0,0.6,0c0.2,0,0.4,0,0.6,0.1c3.4,0.2,6.5,1.4,9.4,3.6c2.9,2.2,4.3,5.1,4.3,8.8v26.9c0,4.4-1.1,7.8-3.3,10.3
		c-2.2,2.4-6,3.6-11.2,3.6h-1.3c-0.6,0-1.2,0-1.8-0.1c-0.6-0.1-1.2-0.2-1.9-0.3c-2-0.5-3.8-1.6-5.5-3.2c-1.7-1.6-2.5-4.1-2.5-7.3
		c0-0.1,0-0.3,0-0.4c0-0.1,0-0.3,0.1-0.5c0-0.1,0-0.3,0-0.4S18.8,46,18.8,45.8L18.8,45.8z M29.9,33.4c0.6,0.7,1.1,1,1.8,1
		c0.1,0,0.3,0,0.4,0c0.1,0,0.2-0.1,0.3-0.1c0.6-0.2,1.2-0.6,1.7-1.3c0.5-0.7,0.8-1.5,0.8-2.6V18.8c0-1.4-0.3-2.5-0.9-3.3
		c-0.6-0.8-1.3-1.2-2-1.2c-0.1,0-0.2,0-0.3,0c-0.1,0-0.2,0-0.3,0.1c-0.6,0.2-1.2,0.7-1.7,1.5c-0.5,0.8-0.8,2-0.8,3.5v10.9
		C29.1,31.7,29.4,32.7,29.9,33.4z"/>
</g>
</svg>
