<?xml version="1.0" encoding="utf-8"?>
<!-- Generator: Adobe Illustrator 19.0.0, SVG Export Plug-In . SVG Version: 6.00 Build 0)  -->
<svg version="1.1" id="图层_1" xmlns="http://www.w3.org/2000/svg" xmlns:xlink="http://www.w3.org/1999/xlink" x="0px" y="0px"
	 viewBox="0 0 64 64" style="enable-background:new 0 0 64 64;" xml:space="preserve">
<g>
	<path d="M32,0C14.3,0,0,14.3,0,32s14.3,32,32,32s32-14.3,32-32S49.7,0,32,0z M32,63.5C14.6,63.5,0.5,49.4,0.5,32S14.6,0.5,32,0.5
		S63.5,14.6,63.5,32S49.4,63.5,32,63.5z"/>
	<path d="M32,2.7C15.8,2.7,2.7,15.8,2.7,32S15.8,61.3,32,61.3S61.3,48.2,61.3,32S48.2,2.7,32,2.7z M32,60.6
		C16.3,60.6,3.4,47.7,3.4,32S16.3,3.4,32,3.4S60.6,16.2,60.6,32S47.7,60.6,32,60.6z"/>
	<path d="M32,8.6C19.1,8.6,8.6,19.1,8.6,32S19.1,55.4,32,55.4S55.4,44.9,55.4,32S44.9,8.6,32,8.6z M32,54.4
		C19.7,54.4,9.6,44.3,9.6,32S19.7,9.6,32,9.6s22.4,10,22.4,22.4S44.3,54.4,32,54.4z"/>
	<path d="M32,12.6c-10.7,0-19.4,8.7-19.4,19.4S21.3,51.4,32,51.4S51.4,42.7,51.4,32S42.7,12.6,32,12.6z M32,50.9
		c-10.4,0-18.9-8.5-18.9-18.9S21.6,13.1,32,13.1S50.9,21.6,50.9,32S42.4,50.9,32,50.9z"/>
	<path d="M28.4,29.6l-1.1-0.5l-0.8,1.7l-4.3-2c0.3-0.4,0.5-1,0.8-1.6l-1.1-0.5c-0.2,0.6-0.5,1.1-0.8,1.6l-3.5-1.6L17,27.8l3.4,1.5
		c-0.8,1.2-2.3,1.9-4.5,1.9c0.2,0.5,0.3,0.9,0.4,1.3c2.4-0.2,4.2-1,5.2-2.7l4.5,2l-1.8,4l1.1,0.5l1.8-4l3.5,1.6l0.5-1l-3.5-1.6
		L28.4,29.6z"/>
	<path d="M28.3,25.9c0.2,0.7,0.5,1.3,0.7,1.9c-1.9-0.8-4-1.7-6.2-2.7c1.3-0.5,2.6-0.9,3.7-1.4l7.4,3.4l0.5-1l-6.3-2.9h0.6
		c-0.1-0.8-0.2-1.5-0.4-2.1l-1.2,0.1c0,0.5,0.1,1,0.2,1.6l-6.4-2.9l-0.5,1l4.5,2C24,23.3,23,23.7,22,24c-0.4,0.1-0.9,0.1-1.4,0.1
		v1.4c0.6,0.2,1,0.3,1.3,0.4c2.1,0.9,4.6,1.9,7.5,3.2c0.2,0.6,0.3,1.1,0.5,1.6l1.3-0.4c-0.5-1.6-1.1-3.2-1.8-4.7L28.3,25.9z"/>
	<path d="M36.4,34.2l1-0.2c-0.1-0.7-0.3-1.5-0.5-2.3l-0.8,0.2l0.9-2.1l1.9,0.8l0.4-0.9l-1.9-0.9l1.3-2.8l-1-0.4l-1.3,2.8l-2-0.9
		L34,28.4l1.9,0.9c-1.4,1.7-2.8,3-4.3,4c0,0.5,0,1-0.1,1.4c1.1-0.8,2.3-1.9,3.5-3.3l-3.5,7.8l1,0.4L36,32
		C36.2,32.8,36.3,33.5,36.4,34.2z"/>
	<path d="M38,39c0.3-1.7,0.5-3.1,0.6-4.3l-1.1-0.2c-0.1,1.3-0.4,2.7-0.7,4.3L38,39z"/>
	<polygon points="39.1,33.6 44.8,36.2 45.2,35.2 39.5,32.6 	"/>
	<path d="M43.9,36.7c-1.5,1.9-2.8,3.4-3.9,4.5l-5.3-2.4l-0.5,0.9l8.9,4.1l0.5-1L41,41.6c1.1-1.1,2.4-2.4,3.9-4.1L43.9,36.7z"/>
	<path d="M45.1,29.5l0.3-0.2L44,28.8c-1.8,1.4-3.9,2.4-6.2,2.9c0.2,0.4,0.3,0.8,0.4,1.2c1.9-0.5,3.9-1.4,5.8-2.7
		c0.2,1.9,0.9,4,2.1,6.1c0.4-0.2,0.8-0.4,1.2-0.6C46,33.8,45.3,31.7,45.1,29.5z"/>
	<path d="M41.5,35.3l-1.1-0.2c-0.2,1.3-0.5,2.7-0.9,4.2l1.2,0.2C41,38.2,41.3,36.7,41.5,35.3z"/>
</g>
</svg>
