<?xml version="1.0" encoding="utf-8"?>
<!-- Generator: Adobe Illustrator 19.0.0, SVG Export Plug-In . SVG Version: 6.00 Build 0)  -->
<svg version="1.1" id="图层_1" xmlns="http://www.w3.org/2000/svg" xmlns:xlink="http://www.w3.org/1999/xlink" x="0px" y="0px"
	 viewBox="0 0 64 64" style="enable-background:new 0 0 64 64;" xml:space="preserve">
<style type="text/css">
	.st0{fill:#040000;}
</style>
<g id="XMLID_1313_">
	<path id="XMLID_1345_" class="st0" d="M34.3,59.4H5.1c-0.3,0-0.6-0.3-0.6-0.6V5.1c0-0.3,0.3-0.6,0.6-0.6h44.6
		c0.3,0,0.6,0.3,0.6,0.6v20c0,1.3,1,2.3,2.3,2.3c1.3,0,2.3-1,2.3-2.3v-20c0-2.8-2.3-5.1-5.1-5.1H5.1C2.3,0,0,2.3,0,5.1v53.7
		C0,61.7,2.3,64,5.1,64h29.1c1.3,0,2.3-1,2.3-2.3C36.6,60.5,35.5,59.4,34.3,59.4z"/>
	<path id="XMLID_2040_" class="st0" d="M63.3,60.1l-6.4-6.4c1.6-2.2,2.5-5,2.5-7.9c0-7.6-6.2-13.7-13.7-13.7S32,38.2,32,45.7
		c0,7.6,6.2,13.7,13.7,13.7c3,0,5.7-0.9,7.9-2.5l6.4,6.4c0.4,0.4,1,0.7,1.6,0.7s1.2-0.2,1.6-0.7C64.2,62.4,64.2,61,63.3,60.1z
		 M52.6,51.7c-0.4,0.2-0.7,0.5-0.9,0.9c-1.6,1.4-3.7,2.3-6,2.3c-5,0-9.1-4.1-9.1-9.1s4.1-9.1,9.1-9.1s9.1,4.1,9.1,9.1
		C54.9,48,54,50.1,52.6,51.7z"/>
	<path id="XMLID_2041_" class="st0" d="M29.7,22.9c1.3,0,2.3-1,2.3-2.3c0-1.3-1-2.3-2.3-2.3h-3.4l4.6-4.6c0.9-0.9,0.9-2.3,0-3.2
		c-0.9-0.9-2.3-0.9-3.2,0l-7,7l-7-7c-0.9-0.9-2.3-0.9-3.2,0c-0.9,0.9-0.9,2.3,0,3.2l4.6,4.6h-3.6c-1.3,0-2.3,1-2.3,2.3
		c0,1.3,1,2.3,2.3,2.3h6.9v4.6h-6.9c-1.3,0-2.3,1-2.3,2.3c0,1.3,1,2.3,2.3,2.3h6.9v2.3c0,1.3,1,2.3,2.3,2.3c1.3,0,2.3-1,2.3-2.3
		v-2.3h6.9c1.3,0,2.3-1,2.3-2.3c0-1.3-1-2.3-2.3-2.3h-6.9v-4.6H29.7z"/>
	<path id="XMLID_2042_" class="st0" d="M25.1,41.1H11.4c-1.3,0-2.3,1-2.3,2.3s1,2.3,2.3,2.3h13.7c1.3,0,2.3-1,2.3-2.3
		S26.4,41.1,25.1,41.1z"/>
	<path id="XMLID_2043_" class="st0" d="M25.1,50.3H11.4c-1.3,0-2.3,1-2.3,2.3c0,1.3,1,2.3,2.3,2.3h13.7c1.3,0,2.3-1,2.3-2.3
		C27.4,51.3,26.4,50.3,25.1,50.3z"/>
</g>
</svg>
