<?xml version="1.0" encoding="utf-8"?>
<!-- Generator: Adobe Illustrator 19.0.0, SVG Export Plug-In . SVG Version: 6.00 Build 0)  -->
<svg version="1.1" id="图层_1" xmlns="http://www.w3.org/2000/svg" xmlns:xlink="http://www.w3.org/1999/xlink" x="0px" y="0px"
	 viewBox="0 0 64 64" style="enable-background:new 0 0 64 64;" xml:space="preserve">
<style type="text/css">
	.st0{fill:#040000;}
</style>
<g id="XMLID_187_">
	<path id="XMLID_417_" class="st0" d="M32,0C14.3,0,0,14.3,0,32s14.3,32,32,32c17.7,0,32-14.3,32-32S49.7,0,32,0z M32,59.3
		C16.9,59.3,4.7,47.1,4.7,32S16.9,4.7,32,4.7c15.1,0,27.3,12.2,27.3,27.3S47.1,59.3,32,59.3z M29.7,15.9v13.7H15.9
		c-1.2,0-2.1,1-2.1,2.1c0,1.2,1,2.1,2.1,2.1h13.7v13.7c0,1.2,0.9,2.1,2.1,2.1c1.2,0,2.1-0.9,2.1-2.1V33.9h13.7
		c1.2,0,2.1-0.9,2.1-2.1c0-1.2-0.9-2.1-2.1-2.1H33.9V15.9c0-1.2-1-2.1-2.1-2.1C30.6,13.7,29.7,14.7,29.7,15.9z"/>
</g>
</svg>
