<?xml version="1.0" encoding="utf-8"?>
<!-- Generator: Adobe Illustrator 19.0.0, SVG Export Plug-In . SVG Version: 6.00 Build 0)  -->
<svg version="1.1" id="图层_1" xmlns="http://www.w3.org/2000/svg" xmlns:xlink="http://www.w3.org/1999/xlink" x="0px" y="0px"
	 viewBox="0 0 64 64" style="enable-background:new 0 0 64 64;" xml:space="preserve">
<path d="M55.1,37.5l-20.9,25l-0.3,0.3c-0.2,0.2-0.3,0.3-0.6,0.3c0,0,0,0,0,0c-0.1,0.1-0.2,0.1-0.3,0.2c-0.2,0.1-0.4,0.2-0.6,0.2
	l-1.2,0l-0.1-0.1l-0.1,0l-0.1-0.1c-0.1,0-0.1-0.1-0.2-0.1c0,0,0,0-0.1,0h-0.2l-0.3-0.3L8.9,37.6C8.3,37,8,36.2,8,35.4
	c0-0.8,0.3-1.5,0.9-2.1c1.2-1.2,3.1-1.2,4.3,0l15.7,19.5V3.5c0-1.6,1.4-3,3.1-3c1.7,0,3.1,1.3,3.1,3v49.4l15.6-19.4l0.1-0.1
	c1.2-1.2,3.1-1.2,4.3,0v0c0.6,0.6,0.9,1.4,0.9,2.2C56,36.3,55.7,37,55.1,37.5z"/>
</svg>
