<?xml version="1.0" encoding="utf-8"?>
<!-- Generator: Adobe Illustrator 19.0.0, SVG Export Plug-In . SVG Version: 6.00 Build 0)  -->
<svg version="1.1" id="图层_1" xmlns="http://www.w3.org/2000/svg" xmlns:xlink="http://www.w3.org/1999/xlink" x="0px" y="0px"
	 viewBox="0 0 64 64" style="enable-background:new 0 0 64 64;" xml:space="preserve">
<style type="text/css">
	.st0{fill:#040000;}
</style>
<g id="XMLID_3_">
	<path id="XMLID_7_" class="st0" d="M58.1,21.8c-0.1,0-0.1,0-0.2,0c-0.6,0-1.1,0.5-1.1,1.1v8.7H5.2V14.1c0-0.6-0.4-1.1-1.1-1.2
		C3.6,12.9,3,13.3,3,14v0.1V50c0,0.6,0.4,1.1,1.1,1.2c0.6,0,1.1-0.4,1.2-1.1V50v-8.4h51.5V50c0,0.6,0.4,1.1,1.1,1.2
		c0.6,0,1.1-0.4,1.2-1.1V50V22.9C59.1,22.3,58.7,21.8,58.1,21.8z M54.9,37.9C54.8,37.9,54.8,37.9,54.9,37.9H7.3
		c-0.6,0-1.1-0.6-1.1-1.2c0-0.6,0.5-1,1.1-1.1h47.6c0.6,0,1.1,0.5,1.1,1.1C55.9,37.4,55.5,37.9,54.9,37.9z"/>
</g>
</svg>
