<?xml version="1.0" encoding="utf-8"?>
<!-- Generator: Adobe Illustrator 19.0.0, SVG Export Plug-In . SVG Version: 6.00 Build 0)  -->
<svg version="1.1" id="图层_1" xmlns="http://www.w3.org/2000/svg" xmlns:xlink="http://www.w3.org/1999/xlink" x="0px" y="0px"
	 viewBox="0 0 64 64" style="enable-background:new 0 0 64 64;" xml:space="preserve">
<style type="text/css">
	.st0{fill:#040000;}
</style>
<path id="XMLID_1092_" class="st0" d="M59.9,49.8L56,44V28c0-10.6-6.9-19.7-16.5-22.8c-1.1-3-4-5.2-7.5-5.2c-3.4,0-6.3,2.2-7.5,5.2
	C14.9,8.3,8,17.4,8,28v16l-3.9,5.8C2.4,52.4,4.3,56,7.5,56H20h0.7c1.7,4.7,6.1,8,11.3,8c5.2,0,9.6-3.3,11.3-8H44h12.5
	C59.7,56,61.6,52.4,59.9,49.8z M36.6,58.5c-1.4,1-3,1.5-4.6,1.5c-1.7,0-3.3-0.5-4.6-1.5c-0.9-0.7-1.7-1.5-2.2-2.5h13.7
	C38.3,57,37.6,57.8,36.6,58.5z M44,52h-3.6H23.6H20H7.5l3.9-5.8l0.7-1V28c0-4.3,1.3-8.4,3.9-11.8c1.2-1.7,2.7-3.1,4.4-4.3
	c1.7-1.2,3.6-2.2,5.5-2.8l1.8-0.6l0.7-1.8c0.3-0.8,0.8-1.4,1.5-1.9C30.4,4.3,31.2,4,32,4c0.8,0,1.6,0.3,2.3,0.7
	c0.7,0.5,1.2,1.1,1.4,1.9l0.7,1.8L38.2,9c2,0.7,3.8,1.6,5.5,2.8c1.7,1.2,3.1,2.7,4.4,4.3C50.7,19.6,52,23.7,52,28v17.2l0.7,1
	l3.9,5.8H44z"/>
</svg>
