<?xml version="1.0" encoding="utf-8"?>
<!-- Generator: Adobe Illustrator 19.0.0, SVG Export Plug-In . SVG Version: 6.00 Build 0)  -->
<svg version="1.1" id="图层_1" xmlns="http://www.w3.org/2000/svg" xmlns:xlink="http://www.w3.org/1999/xlink" x="0px" y="0px"
	 viewBox="0 0 64 64" style="enable-background:new 0 0 64 64;" xml:space="preserve">
<style type="text/css">
	.st0{fill:#040000;}
</style>
<g id="XMLID_1_">
	<path id="XMLID_32_" class="st0" d="M64,38.4c0-0.1,0-0.2,0-0.2c0-0.1,0-0.1,0-0.2c0-0.1,0-0.1-0.1-0.2c0-0.1,0-0.1-0.1-0.2
		c0,0,0,0,0,0l-8.6-18.4c-0.4-0.8-1.1-1.2-1.9-1.1c0,0-0.1,0-0.1,0H10.8c0,0-0.1,0-0.1,0c-0.8,0-1.6,0.4-1.9,1.1L0.2,37.6
		c0,0,0,0,0,0c0,0.1-0.1,0.1-0.1,0.2c0,0.1,0,0.1-0.1,0.2c0,0.1,0,0.1,0,0.2c0,0.1,0,0.2,0,0.2c0,0,0,0,0,0V62c0,1.1,0.9,2,2,2
		c0.1,0,0.1,0,0.2,0c0.1,0,0.1,0,0.2,0h59.1c0.1,0,0.1,0,0.2,0c0.1,0,0.1,0,0.2,0c1.1,0,2-0.9,2-2L64,38.4C64,38.4,64,38.4,64,38.4z
		 M11.8,22h40.3L60,38.8v0H42c-1.1,0-2,0.9-2,2c0,4.4-3.6,8-8,8s-8-3.6-8-8c0-1.1-0.9-2-2-2H4v0L11.8,22z"/>
	<path id="XMLID_38_" class="st0" d="M30.9,12.8c1.1,0,2-0.9,2-2V2c0-1.1-0.9-2-2-2s-2,0.9-2,2v8.8C28.9,11.9,29.8,12.8,30.9,12.8z"
		/>
	<path id="XMLID_39_" class="st0" d="M17.4,13.6c0.4,0.6,1,1,1.7,1c0.3,0,0.7-0.1,1-0.3c1-0.6,1.3-1.8,0.7-2.7L16.5,4
		c-0.6-1-1.8-1.3-2.7-0.7C12.8,3.8,12.5,5,13,6L17.4,13.6z"/>
	<path id="XMLID_40_" class="st0" d="M41.7,14.3c0.3,0.2,0.7,0.3,1,0.3c0.7,0,1.4-0.4,1.7-1L48.8,6c0.6-1,0.2-2.2-0.7-2.7
		c-1-0.6-2.2-0.2-2.7,0.7L41,11.6C40.4,12.5,40.7,13.8,41.7,14.3z"/>
</g>
</svg>
