<?xml version="1.0" encoding="utf-8"?>
<!-- Generator: Adobe Illustrator 19.0.0, SVG Export Plug-In . SVG Version: 6.00 Build 0)  -->
<svg version="1.1" id="图层_1" xmlns="http://www.w3.org/2000/svg" xmlns:xlink="http://www.w3.org/1999/xlink" x="0px" y="0px"
	 viewBox="0 0 64 64" style="enable-background:new 0 0 64 64;" xml:space="preserve">
<style type="text/css">
	.st0{fill:#040000;}
</style>
<path id="XMLID_48_" class="st0" d="M64,35.3c0-0.1,0-0.1,0-0.2c0-0.1,0-0.1,0-0.2c0,0,0,0,0-0.1L55.4,4.5C55.1,3.5,54.2,3,53.3,3
	c0,0,0,0-0.1,0H10.8c0,0,0,0-0.1,0C9.8,3,8.9,3.5,8.6,4.5L0.1,34.8c0,0,0,0,0,0.1C0,35,0,35,0,35.1c0,0.1,0,0.1,0,0.2c0,0,0,0,0,0.1
	V59c0,1.1,0.9,2,2,2c0.1,0,0.1,0,0.2,0c0.1,0,0.1,0,0.2,0h59.1c0.1,0,0.1,0,0.2,0c0.1,0,0.1,0,0.2,0c1.1,0,2-0.9,2-2L64,35.3
	C64,35.4,64,35.3,64,35.3z M12.1,7h39.8L60,35.7v0.2H42c-1.1,0-2,0.9-2,2c0,4.4-3.6,8-8,8c-4.4,0-8-3.6-8-8c0-1.1-0.9-2-2-2H4v-0.2
	L12.1,7z"/>
</svg>
