<?xml version="1.0" encoding="utf-8"?>
<!-- Generator: Adobe Illustrator 19.0.0, SVG Export Plug-In . SVG Version: 6.00 Build 0)  -->
<svg version="1.1" id="图层_1" xmlns="http://www.w3.org/2000/svg" xmlns:xlink="http://www.w3.org/1999/xlink" x="0px" y="0px"
	 viewBox="0 0 64 64" style="enable-background:new 0 0 64 64;" xml:space="preserve">
<g id="XMLID_1837_">
	<path id="XMLID_1838_" d="M51.9,51.7c-4.9,4.9-11.3,7.8-18.2,8.3c0,0,0,0,0,0c-0.4,0-0.7,0-1.1,0c-0.1,0-0.2,0-0.4,0
		c0,0-0.1,0-0.1,0c-0.3,0-0.6,0-0.9,0c-0.1,0-0.3,0-0.4,0c-1.9-0.1-3.7-0.3-5.5-0.8c0,0,0,0-0.1,0C12.8,56.1,4.4,45.1,4,32.8
		l4.7,0.1c0,0,0,0,0,0c0.1,0,0.2,0,0.4,0c0,0,0.1,0,0.1,0c0.1,0,0.2,0,0.3-0.1c0,0,0.1,0,0.1-0.1c0.1,0,0.1-0.1,0.2-0.1
		c0,0,0.1,0,0.1-0.1c0.1,0,0.1-0.1,0.2-0.1c0,0,0,0,0.1,0c0,0,0,0,0,0c0.1-0.1,0.2-0.2,0.3-0.4c0,0,0-0.1,0-0.1
		c0.1-0.1,0.1-0.3,0.2-0.5c0-0.1,0.1-0.3,0.1-0.4c0,0,0,0,0,0c0,0,0-0.1,0-0.1c0-0.1,0-0.2,0-0.3c0,0,0-0.1,0-0.1
		c0-0.1-0.1-0.2-0.1-0.3c0,0,0-0.1-0.1-0.1c-0.1-0.1-0.2-0.3-0.3-0.4c0,0,0,0,0,0l-5.8-6.2c-0.8-0.8-2-0.8-2.8-0.1
		c-0.1,0.1-0.3,0.3-0.4,0.5c-0.1,0.2-0.2,0.4-0.3,0.6c-4.2,17.1,6.3,34.5,23.4,38.7c1.6,0.4,3.2,0.7,4.8,0.8c0,0,0,0,0,0
		c0.5,0,1,0.1,1.5,0.1c0.2,0,0.4,0,0.6,0c0.3,0,0.7,0,1,0c0.2,0,0.3,0,0.5,0c0.4,0,0.7,0,1.1,0c0,0,0.1,0,0.1,0
		c7.9-0.5,15.3-4,20.8-9.5c0.2-0.2,0.4-0.5,0.4-0.8c0.2-0.7,0-1.4-0.5-1.9C53.9,50.9,52.7,50.9,51.9,51.7z"/>
	<path id="XMLID_1840_" d="M39.7,0.9c-1.6-0.4-3.2-0.7-4.8-0.8c0,0,0,0,0,0c-0.5,0-1-0.1-1.5-0.1c-0.2,0-0.4,0-0.6,0
		c-0.3,0-0.7,0-1,0c-0.2,0-0.3,0-0.5,0c-0.4,0-0.7,0-1.1,0c0,0-0.1,0-0.1,0C22.1,0.6,14.7,4,9.2,9.6C9,9.8,8.8,10.1,8.7,10.4
		c-0.2,0.7,0,1.4,0.5,1.9c0.8,0.8,2.1,0.8,2.8,0C17,7.4,23.4,4.5,30.3,4.1c0,0,0,0,0,0c0.4,0,0.7,0,1.1,0c0.1,0,0.2,0,0.4,0
		c0,0,0.1,0,0.1,0c0.3,0,0.6,0,0.9,0c0.1,0,0.3,0,0.4,0c1.9,0.1,3.7,0.3,5.5,0.8c0,0,0,0,0.1,0C51.2,7.9,59.6,18.9,60,31.2l-4.7-0.1
		c0,0,0,0,0,0c-0.1,0-0.2,0-0.4,0c0,0-0.1,0-0.1,0c-0.1,0-0.2,0-0.3,0.1c0,0-0.1,0-0.1,0.1c-0.1,0-0.1,0.1-0.2,0.1
		c0,0-0.1,0-0.1,0.1c-0.1,0-0.1,0.1-0.2,0.1c0,0,0,0-0.1,0c0,0,0,0,0,0c-0.1,0.1-0.2,0.2-0.3,0.4c0,0,0,0.1,0,0.1
		c-0.1,0.1-0.1,0.3-0.2,0.5c0,0.1-0.1,0.3-0.1,0.4c0,0,0,0,0,0c0,0,0,0.1,0,0.1c0,0.1,0,0.2,0,0.3c0,0,0,0.1,0,0.1
		c0,0.1,0.1,0.2,0.1,0.3c0,0,0,0.1,0.1,0.1c0.1,0.1,0.2,0.3,0.3,0.4c0,0,0,0,0,0l5.8,6.2c0.8,0.8,2,0.8,2.8,0.1
		c0.1-0.1,0.3-0.3,0.4-0.5c0.1-0.2,0.2-0.4,0.3-0.6C67.3,22.5,56.8,5.1,39.7,0.9z"/>
	<polygon id="XMLID_1841_" points="25,46.6 32.6,38.1 39.3,46.6 46.8,46.6 37.6,35.2 46.2,35.2 46.2,33.1 36.3,33.1 36.3,21.5 
		30.3,21.5 30.3,33.1 17.3,33.1 17.3,35.2 27.7,35.2 17.2,46.6 	"/>
	<polygon id="XMLID_1843_" points="45.6,25.8 45.6,17.4 17.7,17.4 17.7,19.5 39.6,19.5 39.6,25.8 	"/>
	<polygon id="XMLID_1844_" points="21,32.1 27,32.1 24.3,27.2 18.4,27.2 	"/>
	<polygon id="XMLID_1845_" points="26.7,21 20.6,21 23.3,25.8 29.2,25.8 	"/>
</g>
</svg>
