<?xml version="1.0" encoding="utf-8"?>
<!-- Generator: Adobe Illustrator 19.0.0, SVG Export Plug-In . SVG Version: 6.00 Build 0)  -->
<svg version="1.1" id="图层_1" xmlns="http://www.w3.org/2000/svg" xmlns:xlink="http://www.w3.org/1999/xlink" x="0px" y="0px"
	 viewBox="0 0 64 64" style="enable-background:new 0 0 64 64;" xml:space="preserve">
<style type="text/css">
	.st0{fill:#040000;}
</style>
<g id="XMLID_1818_">
	<path id="XMLID_1821_" class="st0" d="M32.1,3.3c-5.9,0-11.1,3.5-13.3,8.4h26.7C43.2,6.8,38,3.3,32.1,3.3z"/>
	<path id="XMLID_4_" class="st0" d="M46.4,38.8l-7.2-5.6c-0.5-0.4-1,0.1-1,0.8v3.3h-5.9c-0.7,0-1.4,0.1-2.1,0.3v-4.4h3.3
		c0.7,0,1.2-0.6,0.8-1L28.7,25c-0.4-0.5-1.2-0.5-1.6,0l-5.6,7.2c-0.4,0.5,0.1,1,0.8,1h3.3v9.5v4.5c0,0.6,0.5,1,1,1h2.5
		c0.6,0,1-0.5,1-1v-4c0.3-0.8,1.1-1.4,2.1-1.4h5.9v3.3c0,0.7,0.6,1.2,1,0.8l7.2-5.6C46.9,40,46.9,39.2,46.4,38.8z"/>
	<path id="XMLID_1826_" class="st0" d="M55.6,14H8.4C3.8,14,0,17.7,0,22.3v30c0,4.6,3.8,8.4,8.4,8.4h47.3c4.6,0,8.4-3.8,8.4-8.4v-30
		C64,17.7,60.2,14,55.6,14z M37.4,56.7H26.6c-0.8,0-1.4-0.6-1.4-1.4c0-0.8,0.6-1.4,1.4-1.4h10.7c0.8,0,1.4,0.6,1.4,1.4
		C38.7,56.1,38.1,56.7,37.4,56.7z M55.3,48.4c0,1-0.8,1.9-1.9,1.9H10.6c-1,0-1.9-0.8-1.9-1.9v-24c0-1,0.8-1.9,1.9-1.9h42.8
		c1,0,1.9,0.8,1.9,1.9V48.4z"/>
</g>
</svg>
