<?xml version="1.0" standalone="no"?><!DOCTYPE svg PUBLIC "-//W3C//DTD SVG 1.1//EN" "http://www.w3.org/Graphics/SVG/1.1/DTD/svg11.dtd"><svg t="1512797326628" class="icon" style="" viewBox="0 0 1067 1024" version="1.1" xmlns="http://www.w3.org/2000/svg" p-id="23416" xmlns:xlink="http://www.w3.org/1999/xlink" width="208.3984375" height="200"><defs><style type="text/css"></style></defs><path d="M1060.09628 519.635366c-11.604447-23.092686-20.261136-37.682537-39.684264-40.029615-20.077822-2.422367-66.526709-5.600905-115.659841-8.010178-55.342902-71.454916-114.301351-136.073193-130.228414-136.073193l-158.277132 0-166.946915 0-157.632259 0c-15.894328 0-74.746389 64.618276-129.997634 136.073193-49.007103 2.409273-95.36597 5.581265-115.402873 8.010178-19.39203 2.347077-28.011074 16.936928-39.59588 40.029615-11.584807 23.10087-9.129705 29.749286 15.84359 40.029615 24.947107 10.286876 47.498034 16.010536 47.498034 16.010536s-29.423575 56.058155-42.555096 80.114878c-7.928342 14.57021-8.817089 14.697875-8.944754 42.113178-0.217686 43.201606-0.492657 255.286384 0.217686 285.911322 0.618686 27.705004 7.000313 39.754643 32.477722 40.023068 32.114367 0.360082 123.087342 0 140.99649 0 23.118874 0 31.660991-15.165981 31.660991-32.012889l0-60.641012 225.433984 0 166.946915 0 221.157197 0 0 60.641012c0 16.846908 8.573215 32.012889 31.739555 32.012889 17.964797 0 110.211152 0.360082 142.356616 0 25.537968-0.268424 31.097955-12.318064 31.737918-40.023068 0.710343-30.624938 0-222.397842 0-255.970539 0-44.754867 0.307706-58.473975-7.934889-72.047414-14.237953-23.42658-38.680945-80.123062-38.680945-80.123062s22.588572-5.717113 47.612605-16.010536C1069.225985 549.384652 1071.697454 542.737873 1060.09628 519.635366M291.665819 767.875608c0 0-136.685331-4.705612-174.15182-8.003632-47.861389-4.208044-32.332053-69.61359-31.678995-88.066134 0.037645-1.374857 119.556905 9.884239 158.327871 16.0089 39.792288 6.28506 47.573324 24.852176 47.502944 32.030893C291.570888 727.021079 291.665819 758.65752 291.665819 767.875608M532.856645 577.377721c-112.18178-0.045829-292.657942-0.109661-336.63045 0.049102-14.673324 0.063833 9.750027-56.225102 47.177234-103.433434 55.393641-69.875468 70.232276-64.582268 79.509287-64.664105 14.213402-0.116208 67.431823-0.147306 127.026961-0.127665l0 0.101478c21.55743-0.019641 51.012103-0.037645 82.925151-0.063833 31.831212 0.026188 61.215506 0.044192 82.73038 0.063833l0-0.101478c59.876657-0.019641 113.409331 0.011457 127.665288 0.127665 9.277011 0.081837 24.372613-2.762808 79.656593 64.664105 44.358777 54.062976 61.97986 103.497267 47.24925 103.433434C826.113632 577.266423 645.264295 577.330256 532.856645 577.377721M949.03239 759.873613c-37.554872 3.29802-174.510265 8.003632-174.510265 8.003632 0-9.219725 0.091657-40.854529 0-48.033246-0.09002-7.175444 7.72375-25.74256 47.592965-32.025983 38.85935-6.12466 158.597932-17.383757 158.648671-16.0089C981.402087 690.258387 996.990346 755.663932 949.03239 759.873613M362.916143 260.923297c25.714735 0 46.576553-18.464001 46.576553-41.232614 0-8.764713-3.145804-16.851818-8.420999-23.539515l1.803681 0-39.941231-47.172324-39.952688 47.172324 1.790587 0c-5.268648 6.68115-8.414452 14.774802-8.414452 23.539515C316.364142 242.459296 337.201408 260.923297 362.916143 260.923297M483.964114 219.692319c0 22.773523 20.842177 41.232614 46.556912 41.232614 25.713098 0 46.570006-18.464001 46.570006-41.232614 0-8.764713-3.145804-16.851818-8.419362-23.539515l1.802045 0-39.933047-47.172324-39.959235 47.172324 1.795498 0C487.10828 202.838865 483.964114 210.927606 483.964114 219.692319M641.354136 196.151168c-5.263738 6.687697-8.416089 14.781349-8.416089 23.546062 0 22.766976 20.843813 41.226068 46.556912 41.226068 25.721282 0 46.576553-18.459091 46.576553-41.226068 0-8.764713-3.144167-16.858365-8.420999-23.546062l1.803681 0-39.939594-47.172324-39.952688 47.172324L641.354136 196.151168zM437.405565 111.942817c25.714735 0 46.576553-18.457454 46.576553-41.224431 0-8.76635-3.150714-16.860002-8.419362-23.541152l1.795498 0L437.425206 0l-39.952688 47.177234 1.790587 0c-5.268648 6.68115-8.414452 14.774802-8.414452 23.541152C390.8552 93.483725 411.69083 111.942817 437.405565 111.942817M605.007174 111.942817c25.721282 0 46.576553-18.457454 46.576553-41.224431 0-8.76635-3.14744-16.860002-8.422636-23.541152l1.803681 0L605.023541 0l-39.952688 47.177234 1.790587 0c-5.268648 6.68115-8.414452 14.774802-8.414452 23.541152C558.453536 93.483725 579.298986 111.942817 605.007174 111.942817" p-id="23417"></path></svg>