<?xml version="1.0" encoding="utf-8"?>
<!-- Generator: Adobe Illustrator 19.0.0, SVG Export Plug-In . SVG Version: 6.00 Build 0)  -->
<svg version="1.1" id="图层_1" xmlns="http://www.w3.org/2000/svg" xmlns:xlink="http://www.w3.org/1999/xlink" x="0px" y="0px"
	 viewBox="0 0 64 64" style="enable-background:new 0 0 64 64;" xml:space="preserve">
<style type="text/css">
	.st0{fill:#040000;}
</style>
<g id="XMLID_1391_">
	<path id="XMLID_1393_" class="st0" d="M32,0C14.3,0,0,14.3,0,32s14.3,32,32,32s32-14.3,32-32S49.7,0,32,0z M32,59.7
		C16.7,59.7,4.3,47.3,4.3,32S16.7,4.3,32,4.3S59.7,16.7,59.7,32v0C59.7,47.3,47.3,59.7,32,59.7z"/>
	<path id="XMLID_1392_" class="st0" d="M47,20L27.4,39.6L16.9,29c-0.8-0.8-2.2-0.8-3,0c-0.8,0.8-0.8,2.2,0,3l12.1,12.1
		c0.8,0.8,2.2,0.8,3,0L50,23c0.9-0.8,1-2.1,0.2-3c-0.8-0.9-2.1-1-3-0.2C47.2,19.8,47.1,19.9,47,20L47,20z"/>
</g>
</svg>
