<?xml version="1.0" encoding="utf-8"?>
<!-- Generator: Adobe Illustrator 19.0.0, SVG Export Plug-In . SVG Version: 6.00 Build 0)  -->
<svg version="1.1" id="图层_1" xmlns="http://www.w3.org/2000/svg" xmlns:xlink="http://www.w3.org/1999/xlink" x="0px" y="0px"
	 viewBox="0 0 64 64" style="enable-background:new 0 0 64 64;" xml:space="preserve">
<style type="text/css">
	.st0{fill:#040000;}
</style>
<path id="XMLID_2144_" class="st0" d="M19.4,33.1c-5.7,0-10.3,4.6-10.3,10.3s4.6,10.3,10.3,10.3s10.3-4.6,10.3-10.3
	S25.1,33.1,19.4,33.1z M19.4,49.1c-3.1,0-5.7-2.6-5.7-5.7c0-3.2,2.6-5.7,5.7-5.7s5.7,2.6,5.7,5.7C25.1,46.5,22.6,49.1,19.4,49.1z
	 M52.6,12.5H37.5c-1.3,0-2.3,1-2.3,2.3s1,2.3,2.3,2.3h15.1c1.3,0,2.3-1,2.3-2.3S53.8,12.5,52.6,12.5z M52.6,35.4H37.5
	c-1.3,0-2.3,1-2.3,2.3c0,1.3,1,2.3,2.3,2.3h15.1c1.3,0,2.3-1,2.3-2.3C54.9,36.4,53.8,35.4,52.6,35.4z M52.6,21.7H37.5
	c-1.3,0-2.3,1-2.3,2.3c0,1.3,1,2.3,2.3,2.3h15.1c1.3,0,2.3-1,2.3-2.3C54.9,22.7,53.8,21.7,52.6,21.7z M52.6,45.1H37.5
	c-1.3,0-2.3,1-2.3,2.3s1,2.3,2.3,2.3h15.1c1.3,0,2.3-1,2.3-2.3S53.8,45.1,52.6,45.1z M26.9,11.1l-8.6,10.6L13.1,16
	c-0.8-0.9-2.3-1-3.2-0.2c-0.9,0.8-1,2.3-0.2,3.2l5.1,5.7c0.9,1,2.1,1.5,3.4,1.5c1.4,0,2.7-0.6,3.5-1.7L30.4,14
	c0.8-1,0.6-2.4-0.4-3.2C29,10.1,27.6,10.2,26.9,11.1z"/>
<path id="XMLID_1200_" class="st0" d="M59.4,0H4.6C2.1,0,0,2.1,0,4.6v54.9C0,61.9,2.1,64,4.6,64h54.9c2.5,0,4.6-2.1,4.6-4.6V4.6
	C64,2.1,61.9,0,59.4,0z M4.6,59.4V4.6h54.9l0,54.9H4.6z"/>
</svg>
