<?xml version="1.0" encoding="utf-8"?>
<!-- Generator: Adobe Illustrator 19.0.0, SVG Export Plug-In . SVG Version: 6.00 Build 0)  -->
<svg version="1.1" id="图层_1" xmlns="http://www.w3.org/2000/svg" xmlns:xlink="http://www.w3.org/1999/xlink" x="0px" y="0px"
	 viewBox="0 0 64 64" style="enable-background:new 0 0 64 64;" xml:space="preserve">
<style type="text/css">
	.st0{fill:#040000;}
</style>
<path id="XMLID_1438_" class="st0" d="M32,0C14.3,0,0,14.3,0,32c0,17.7,14.3,32,32,32c17.7,0,32-14.3,32-32C64,14.3,49.7,0,32,0z
	 M50,23L28.9,44.1c-0.8,0.8-2.2,0.8-3,0L13.8,32.1c-0.8-0.8-0.8-2.2,0-3s2.2-0.8,3,0l10.6,10.5L47,20v0c0.1-0.1,0.1-0.2,0.2-0.2
	c0.9-0.8,2.2-0.7,3,0.2C51,20.9,50.9,22.2,50,23z"/>
</svg>
