<?xml version="1.0" encoding="utf-8"?>
<!-- Generator: Adobe Illustrator 19.0.0, SVG Export Plug-In . SVG Version: 6.00 Build 0)  -->
<svg version="1.1" id="图层_1" xmlns="http://www.w3.org/2000/svg" xmlns:xlink="http://www.w3.org/1999/xlink" x="0px" y="0px"
	 viewBox="0 0 64 64" style="enable-background:new 0 0 64 64;" xml:space="preserve">
<style type="text/css">
	.st0{fill:#040000;}
</style>
<g id="XMLID_1198_">
	<path id="XMLID_1204_" class="st0" d="M32,0C14.3,0,0,14.3,0,32s14.3,32,32,32c17.7,0,32-14.3,32-32S49.7,0,32,0z M32,59.7
		C16.7,59.7,4.3,47.3,4.3,32C4.3,16.7,16.7,4.3,32,4.3c15.3,0,27.7,12.4,27.7,27.7S47.3,59.7,32,59.7z"/>
	<path id="XMLID_1202_" class="st0" d="M48.8,40.9L34,31.1v-18c0-1.1-0.9-2-2-2c-1.1,0-2,0.9-2,2V32c0,0,0,0.1,0,0.1
		c0,0.7,0.3,1.4,0.9,1.8l15.7,10.4c0.3,0.2,0.7,0.3,1.1,0.3c0.6,0,1.3-0.3,1.7-0.9C50,42.8,49.8,41.5,48.8,40.9z"/>
</g>
</svg>
