<?xml version="1.0" encoding="utf-8"?>
<!-- Generator: Adobe Illustrator 19.0.0, SVG Export Plug-In . SVG Version: 6.00 Build 0)  -->
<svg version="1.1" id="图层_1" xmlns="http://www.w3.org/2000/svg" xmlns:xlink="http://www.w3.org/1999/xlink" x="0px" y="0px"
	 viewBox="0 0 64 64" style="enable-background:new 0 0 64 64;" xml:space="preserve">
<style type="text/css">
	.st0{fill:#040000;}
</style>
<g id="XMLID_2225_">
	<path id="XMLID_2251_" class="st0" d="M46.9,9.1H8c-3.2,0-5.7,2.6-5.7,5.7v43.4C2.3,61.4,4.9,64,8,64h38.9c3.2,0,5.7-2.6,5.7-5.7
		V14.9C52.6,11.7,50,9.1,46.9,9.1z M48,58.3c0,0.6-0.5,1.1-1.1,1.1H8c-0.6,0-1.1-0.5-1.1-1.1V14.9c0-0.6,0.5-1.1,1.1-1.1h38.9
		c0.6,0,1.1,0.5,1.1,1.1V58.3z"/>
	<path id="XMLID_2261_" class="st0" d="M56,0H17.1c-1.3,0-2.3,1-2.3,2.3s1,2.3,2.3,2.3H56c0.6,0,1.1,0.5,1.1,1.1v43.4
		c0,1.3,1,2.3,2.3,2.3c1.3,0,2.3-1,2.3-2.3V5.7C61.7,2.6,59.2,0,56,0z"/>
	<path id="XMLID_2262_" class="st0" d="M29.7,43.9H16c-1.3,0-2.3,1-2.3,2.3c0,1.3,1,2.3,2.3,2.3h13.7c1.3,0,2.3-1,2.3-2.3
		C32,44.9,31,43.9,29.7,43.9z"/>
	<path id="XMLID_2265_" class="st0" d="M38.9,21.1H16c-1.3,0-2.3,1-2.3,2.3c0,1.3,1,2.3,2.3,2.3h22.9c1.3,0,2.3-1,2.3-2.3
		C41.1,22.2,40.1,21.1,38.9,21.1z"/>
	<path id="XMLID_2273_" class="st0" d="M38.9,32.6H16c-1.3,0-2.3,1-2.3,2.3c0,1.3,1,2.3,2.3,2.3h22.9c1.3,0,2.3-1,2.3-2.3
		C41.1,33.6,40.1,32.6,38.9,32.6z"/>
</g>
</svg>
