<?xml version="1.0" encoding="utf-8"?>
<!-- Generator: Adobe Illustrator 19.0.0, SVG Export Plug-In . SVG Version: 6.00 Build 0)  -->
<svg version="1.1" id="图层_1" xmlns="http://www.w3.org/2000/svg" xmlns:xlink="http://www.w3.org/1999/xlink" x="0px" y="0px"
	 viewBox="0 0 64 64" style="enable-background:new 0 0 64 64;" xml:space="preserve">
<style type="text/css">
	.st0{fill:#040000;}
</style>
<path class="st0" d="M35.5,32l20.7-20.7c1-1,1-2.6,0-3.5c-1-1-2.6-1-3.5,0L32,28.5L11.3,7.7c-1-1-2.6-1-3.5,0c-1,1-1,2.6,0,3.5
	L28.5,32L7.7,52.7c-1,1-1,2.6,0,3.5C8.2,56.8,8.9,57,9.5,57s1.3-0.2,1.8-0.7L32,35.5l20.7,20.7c0.5,0.5,1.1,0.7,1.8,0.7
	s1.3-0.2,1.8-0.7c1-1,1-2.6,0-3.5L35.5,32z"/>
</svg>
