<?xml version="1.0" encoding="utf-8"?>
<!-- Generator: Adobe Illustrator 19.0.0, SVG Export Plug-In . SVG Version: 6.00 Build 0)  -->
<svg version="1.1" id="图层_1" xmlns="http://www.w3.org/2000/svg" xmlns:xlink="http://www.w3.org/1999/xlink" x="0px" y="0px"
	 viewBox="0 0 64 64" style="enable-background:new 0 0 64 64;" xml:space="preserve">
<style type="text/css">
	.st0{fill:#040000;}
</style>
<path id="XMLID_49_" class="st0" d="M56,29.3L56,29.3c-1.4-6.2-6.4-11.2-12.8-12.2c-3.6-4.7-8.2-6.7-14.3-6.7
	c-9.5,0-17.4,6.1-19.1,15C4.2,27.5,0,32.9,0,39.2c0,10.2,7.7,13.7,11.6,14.3c0.2,0,0.6,0,0.9,0h39.5c0.6,0,1.6,0,1.6,0
	C59.5,52.3,64,47.1,64,41C64,35.8,60.7,31.3,56,29.3z M20,34.1c0.8-0.8,2.2-0.8,3,0l5.4,6v-15c0-1.2,0.9-2.1,2.1-2.1
	c1.2,0,2.1,0.9,2.1,2.1v15l5.4-6c0.8-0.8,2.2-0.8,3,0c0.8,0.8,0.8,2.1,0,3l-8,8.6c-0.7,0.7-1.6,1-2.5,1c-0.9,0-1.8-0.3-2.5-1l0,0
	L20,37C19.2,36.2,19.2,34.9,20,34.1z"/>
</svg>
