<?xml version="1.0" encoding="utf-8"?>
<!-- Generator: Adobe Illustrator 19.0.0, SVG Export Plug-In . SVG Version: 6.00 Build 0)  -->
<svg version="1.1" id="图层_1" xmlns="http://www.w3.org/2000/svg" xmlns:xlink="http://www.w3.org/1999/xlink" x="0px" y="0px"
	 viewBox="0 0 64 64" style="enable-background:new 0 0 64 64;" xml:space="preserve">
<style type="text/css">
	.st0{fill:#040000;}
</style>
<g id="XMLID_17_">
	<path id="XMLID_41_" class="st0" d="M33,24L33,24c-0.7-0.7-1.6-1-2.5-1s-1.8,0.3-2.5,1l-8,8.6c-0.8,0.8-0.8,2.1,0,3
		c0.8,0.8,2.2,0.8,3,0l5.4-6v15c0,1.2,0.9,2.1,2.1,2.1s2.1-0.9,2.1-2.1v-15l5.4,6c0.8,0.8,2.2,0.8,3,0s0.8-2.1,0-3L33,24z"/>
	<path id="XMLID_45_" class="st0" d="M56,29.4L56,29.4c-1.4-6.2-6.4-11.2-12.8-12.2c-3.6-4.7-8.2-6.7-14.3-6.7
		c-9.5,0-17.4,6.1-19.1,15C4.2,27.5,0,33,0,39.3C0,49.5,7.7,53,11.6,53.5c0.2,0,0.6,0,0.9,0H52c0.6,0,1.6,0,1.6,0
		c6-1.2,10.5-6.4,10.5-12.5C64,35.8,60.7,31.4,56,29.4z M51.9,49.5L51.9,49.5H12.2c0,0-8.1-1.2-8.1-10.2c0-5.3,4.7-9.6,9.9-10.1l0,0
		c0-8.1,6.7-14.4,14.9-14.4c5.5,0,9.2,2.5,11.7,6.9h0.1c6.2,0,11,5.2,11,11.3V33c4.2,0.5,8,3.9,8,8.2C59.9,48.8,51.9,49.5,51.9,49.5
		z"/>
</g>
</svg>
