<?xml version="1.0" encoding="utf-8"?>
<!-- Generator: Adobe Illustrator 19.0.0, SVG Export Plug-In . SVG Version: 6.00 Build 0)  -->
<svg version="1.1" id="图层_1" xmlns="http://www.w3.org/2000/svg" xmlns:xlink="http://www.w3.org/1999/xlink" x="0px" y="0px"
	 viewBox="0 0 64 64" style="enable-background:new 0 0 64 64;" xml:space="preserve">
<style type="text/css">
	.st0{fill:#040000;}
</style>
<g id="XMLID_8_">
	<path id="XMLID_294_" class="st0" d="M42.6,47.4c0.7,0.7,1.8,0.7,2.5,0l6.1-5.8c0.1-0.1,0.2-0.1,0.3-0.2c0.1-0.1,0.1-0.1,0.1-0.2
		l0,0c0.1-0.1,0.1-0.2,0.1-0.2c0.3-0.7,0.2-1.5-0.3-2.1l-6.4-6.4c-0.7-0.7-1.8-0.7-2.5,0c-0.7,0.7-0.7,1.9,0,2.6l4.9,4.9l-4.9,4.9
		C41.9,45.6,41.9,46.7,42.6,47.4z"/>
	<path id="XMLID_317_" class="st0" d="M58,0H6C2.7,0,0,2.7,0,6v52c0,3.3,2.7,6,6,6h52c3.3,0,6-2.7,6-6V6C64,2.7,61.3,0,58,0z M26,8
		c1.1,0,2,0.9,2,2c0,1.1-0.9,2-2,2c-1.1,0-2-0.9-2-2C24,8.9,24.9,8,26,8z M18,8c1.1,0,2,0.9,2,2c0,1.1-0.9,2-2,2c-1.1,0-2-0.9-2-2
		C16,8.9,16.9,8,18,8z M10,8c1.1,0,2,0.9,2,2c0,1.1-0.9,2-2,2c-1.1,0-2-0.9-2-2C8,8.9,8.9,8,10,8z M60,56c0,2.2-1.8,4-4,4H8
		c-2.2,0-4-1.8-4-4V20h56V56z"/>
	<path id="XMLID_330_" class="st0" d="M12.4,41.2L12.4,41.2c0.1,0.1,0.1,0.2,0.2,0.3c0.1,0.1,0.2,0.1,0.3,0.2l6.1,5.8
		c0.7,0.7,1.8,0.7,2.5,0c0.7-0.7,0.7-1.9,0-2.6l-4.9-4.9l4.9-4.9c0.7-0.7,0.7-1.8,0-2.6c-0.7-0.7-1.8-0.7-2.5,0l-6.4,6.4
		c-0.6,0.6-0.7,1.4-0.3,2.1C12.2,41,12.3,41.1,12.4,41.2z"/>
	<path id="XMLID_331_" class="st0" d="M29.3,47.4l8.1-12.1c0.8-0.8,0.8-2,0-2.7c-0.8-0.8-2-0.8-2.7,0l-8.1,12.1
		c-0.8,0.7-0.8,2,0,2.7C27.3,48.2,28.5,48.2,29.3,47.4z"/>
</g>
</svg>
