<?xml version="1.0" encoding="utf-8"?>
<!-- Generator: Adobe Illustrator 19.0.0, SVG Export Plug-In . SVG Version: 6.00 Build 0)  -->
<svg version="1.1" id="图层_1" xmlns="http://www.w3.org/2000/svg" xmlns:xlink="http://www.w3.org/1999/xlink" x="0px" y="0px"
	 viewBox="0 0 64 64" style="enable-background:new 0 0 64 64;" xml:space="preserve">
<style type="text/css">
	.st0{fill:#040000;}
</style>
<path class="st0" d="M32,0C14.3,0,0,14.3,0,32s14.3,32,32,32c3,0,5.3-2.4,5.3-5.3c0-1.4-0.5-2.6-1.4-3.6c-0.8-0.9-1.3-2.2-1.3-3.5
	c0-3,2.4-5.3,5.3-5.3h6.3c9.8,0,17.8-8,17.8-17.8C64,12.7,49.7,0,32,0z M35.6,12.5c0-3,2.4-5.3,5.3-5.3c3,0,5.3,2.4,5.3,5.3
	s-2.4,5.3-5.3,5.3C37.9,17.8,35.6,15.4,35.6,12.5z M51.6,32c-3,0-5.3-2.4-5.3-5.3c0-3,2.4-5.3,5.3-5.3c3,0,5.3,2.4,5.3,5.3
	C56.9,29.6,54.5,32,51.6,32z M12.4,21.4c3,0,5.3,2.4,5.3,5.3c0.1,2.9-2.3,5.3-5.3,5.3s-5.3-2.4-5.3-5.3C7.1,23.7,9.5,21.4,12.4,21.4
	z M17.8,12.5c0-3,2.4-5.3,5.3-5.3c3,0,5.3,2.4,5.3,5.3s-2.3,5.3-5.3,5.3S17.8,15.4,17.8,12.5z"/>
</svg>
