<?xml version="1.0" encoding="utf-8"?>
<!-- Generator: Adobe Illustrator 19.0.0, SVG Export Plug-In . SVG Version: 6.00 Build 0)  -->
<svg version="1.1" id="图层_1" xmlns="http://www.w3.org/2000/svg" xmlns:xlink="http://www.w3.org/1999/xlink" x="0px" y="0px"
	 viewBox="0 0 64 64" style="enable-background:new 0 0 64 64;" xml:space="preserve">
<style type="text/css">
	.st0{fill:#040000;}
</style>
<path id="XMLID_359_" class="st0" d="M61.6,22.2h-1.7l0-11.8c0-1.8-1.5-3-3-3h-12v4.1h10.4c0.3,0,0.6,0.3,0.7,0.4v10.2H41.8V2.4
	c0-1.2-1.2-2.4-2.4-2.4L24.6,0c-1.2,0-2.4,1.2-2.4,2.4v19.8H8L8,12c0-0.1,0.4-0.4,0.7-0.4h10.7V7.5H7.1c-1.4,0-3,1.1-3,3v11.8
	l-1.7,0c-1.2,0-2.4,1.2-2.4,2.4v14.7c0,1.2,1.2,2.4,2.4,2.4h1.7v14.9c0,1.5,1.5,3,3,3h12.3v-4.4H8.6c-0.3,0-0.7-0.1-0.7-0.4V41.8
	h14.2v19.8c0,1.5,1.2,2.4,2.4,2.4h14.7c1.2,0,2.4-0.9,2.4-2.4V41.8H56v13.1c0,0.3-0.4,0.4-0.7,0.4H44.9v4.4h12c1.5,0,3-1.5,3-3V41.8
	h1.7c1.5,0,2.4-1.2,2.4-2.4l0-14.7C64,23.4,63.1,22.2,61.6,22.2z M38.2,60.5c0,0-0.1,0.1-0.1,0.1H25.9c0,0-0.1-0.1-0.1-0.1l0-57.1
	c0-0.1,0.1-0.1,0.1-0.1h12.1c0,0,0.1,0.1,0.1,0.1V60.5z"/>
</svg>
