<?xml version="1.0" encoding="utf-8"?>
<!-- Generator: Adobe Illustrator 19.0.0, SVG Export Plug-In . SVG Version: 6.00 Build 0)  -->
<svg version="1.1" id="图层_1" xmlns="http://www.w3.org/2000/svg" xmlns:xlink="http://www.w3.org/1999/xlink" x="0px" y="0px"
	 viewBox="0 0 64 64" style="enable-background:new 0 0 64 64;" xml:space="preserve">
<style type="text/css">
	.st0{fill:#040000;}
</style>
<g id="XMLID_1190_">
	<path id="XMLID_1221_" class="st0" d="M56.9,7.1H7.1C3.2,7.1,0,10.3,0,14.2v35.6c0,3.9,3.2,7.1,7.1,7.1h49.8c3.9,0,7.1-3.2,7.1-7.1
		V14.2C64,10.3,60.8,7.1,56.9,7.1z M14.6,16.7c0-0.8,0.6-1.4,1.4-1.4h0.8c0.8,0,1.4,0.6,1.4,1.4v0.8c0,0.8-0.6,1.4-1.4,1.4H16
		c-0.8,0-1.4-0.6-1.4-1.4V16.7z M7.5,16.7c0-0.8,0.6-1.4,1.4-1.4h0.8c0.8,0,1.4,0.6,1.4,1.4v0.8c0,0.8-0.6,1.4-1.4,1.4H8.9
		c-0.8,0-1.4-0.6-1.4-1.4V16.7z M60.4,33v10.8v5v0.3v0.7c0,2-1.6,3.5-3.6,3.5h-6.3H47h-5H24.4H7.1c-2,0-3.6-1.6-3.6-3.6V44v-4v-5v-9
		h56.9V33z"/>
	<path id="XMLID_1196_" class="st0" d="M37.3,47.2h15.9c1,0,1.8-0.8,1.8-1.8c0-1-0.8-1.8-1.8-1.8H37.3c-1,0-1.8,0.8-1.8,1.8
		C35.6,46.4,36.4,47.2,37.3,47.2z"/>
</g>
</svg>
