<?xml version="1.0" encoding="utf-8"?>
<!-- Generator: Adobe Illustrator 19.0.0, SVG Export Plug-In . SVG Version: 6.00 Build 0)  -->
<svg version="1.1" id="图层_1" xmlns="http://www.w3.org/2000/svg" xmlns:xlink="http://www.w3.org/1999/xlink" x="0px" y="0px"
	 viewBox="0 0 64 64" style="enable-background:new 0 0 64 64;" xml:space="preserve">
<style type="text/css">
	.st0{fill:#040000;}
</style>
<g id="XMLID_2226_">
	<path id="XMLID_2260_" class="st0" d="M41.8,24.7L34,30.9c-0.6-0.3-1.3-0.5-2-0.5c-2.5,0-4.5,2-4.5,4.5s2,4.5,4.5,4.5
		s4.5-2,4.5-4.5c0-0.3,0-0.6-0.1-0.8l7.9-6.2c0.9-0.7,1-1.9,0.3-2.8S42.7,24.1,41.8,24.7z"/>
	<path id="XMLID_2244_" class="st0" d="M32,2.9c-17.7,0-32,14.3-32,32c0,10.5,5,19.8,12.8,25.6l0,0c0.1,0,0.1,0.1,0.2,0.1
		c0.3,0.3,0.7,0.4,1.2,0.4h35.2c0.2,0,0.3,0,0.4-0.1c0,0,0,0,0,0c0.6,0,1.2-0.3,1.6-0.7c7.6-5.8,12.5-15,12.5-25.4
		C64,17.3,49.7,2.9,32,2.9z M56.8,46.9L54,45.3c-1-0.5-2.2-0.2-2.7,0.7c-0.5,1-0.2,2.2,0.7,2.7l2.8,1.6c-1.7,2.5-3.8,4.7-6.3,6.6
		l0,0c0,0-0.1,0.1-0.1,0.1H15.6c-0.1-0.1-0.2-0.2-0.3-0.2c-2.4-1.8-4.4-4-6.1-6.4l2.8-1.6c1-0.5,1.3-1.8,0.7-2.7
		c-0.5-1-1.8-1.3-2.7-0.7l-2.8,1.6c-1.5-3-2.4-6.4-2.7-10h3.2c1.1,0,2-0.9,2-2s-0.9-2-2-2H4.6c0.3-3.6,1.2-6.9,2.7-10l2.8,1.6
		c1,0.6,2.2,0.2,2.7-0.7c0.5-1,0.2-2.2-0.7-2.7l-2.7-1.6c2-2.9,4.4-5.3,7.3-7.3l1.6,2.7c0.5,1,1.8,1.3,2.7,0.7
		c1-0.6,1.3-1.8,0.7-2.7L20,10.2c3.1-1.5,6.4-2.4,10-2.7v3.2c0,1.1,0.9,2,2,2s2-0.9,2-2V7.5c3.5,0.3,6.9,1.2,10,2.7l-1.6,2.8
		c-0.5,1-0.2,2.2,0.7,2.7c1,0.5,2.2,0.2,2.7-0.7l1.6-2.8c2.9,2,5.4,4.4,7.3,7.3L52,21.1c-1,0.5-1.3,1.8-0.7,2.7
		c0.5,1,1.8,1.3,2.7,0.7l2.8-1.6c1.5,3.1,2.4,6.4,2.7,10h-3.2c-1.1,0-2,0.9-2,2s0.9,2,2,2h3.2C59.2,40.5,58.2,43.9,56.8,46.9z"/>
</g>
</svg>
