<?xml version="1.0" encoding="utf-8"?>
<!-- Generator: Adobe Illustrator 19.0.0, SVG Export Plug-In . SVG Version: 6.00 Build 0)  -->
<svg version="1.1" id="图层_1" xmlns="http://www.w3.org/2000/svg" xmlns:xlink="http://www.w3.org/1999/xlink" x="0px" y="0px"
	 viewBox="0 0 64 64" style="enable-background:new 0 0 64 64;" xml:space="preserve">
<style type="text/css">
	.st0{fill:#040000;}
</style>
<g id="XMLID_1320_">
	<path id="XMLID_1322_" class="st0" d="M8,4v41.9c0,1.2,0.9,2.1,2,2.1c1.1,0,2-1,2-2.1V2.2C12,1,11.1,0,10,0H2C0.9,0,0,0.9,0,2
		s0.9,2,2,2H8L8,4z"/>
	<path id="XMLID_1323_" class="st0" d="M63.3,56.6c-0.4-0.3-1-0.6-1.5-0.6H22.2c-1.2,0-2.2,0.9-2.2,2s1,2,2.1,2h39.6
		c1.2,0,2.2-0.9,2.2-2C64,57.5,63.8,57,63.3,56.6z"/>
	<path id="XMLID_1327_" class="st0" d="M10,52c-3.3,0-6,2.7-6,6c0,3.3,2.7,6,6,6c3.3,0,6-2.7,6-6C16,54.7,13.3,52,10,52z M10,60
		c-1.1,0-2-0.9-2-2s0.9-2,2-2c1.1,0,2,0.9,2,2S11.1,60,10,60z"/>
	<path id="XMLID_1331_" class="st0" d="M24.7,52h30.7c4.7,0,8.6-3.8,8.6-8.6V13.1c0-4.7-3.9-8.6-8.7-8.6H24.7
		c-4.8,0-8.7,3.8-8.7,8.6v30.3C16,48.2,19.9,52,24.7,52L24.7,52z M44,8.5h0.3v18l-3.3-1.7c0,0-0.1,0-0.1,0c-0.1,0-0.1-0.1-0.2-0.1
		c-0.1,0-0.1,0-0.2,0c-0.1,0-0.1,0-0.2,0c-0.1,0-0.1,0-0.2,0c-0.1,0-0.1,0-0.2,0c-0.1,0-0.1,0-0.2,0c-0.1,0-0.1,0-0.2,0
		c-0.1,0-0.2,0.1-0.2,0.1c0,0-0.1,0-0.1,0l0,0c0,0,0,0,0,0l-3.3,1.7v-18H36H44z M20,43.5V13.1c0-2.5,2.1-4.6,4.7-4.6h7.1v21.3
		c0,0,0,0,0,0.1c0,0.1,0,0.1,0,0.2c0,0.1,0,0.1,0,0.2c0,0.1,0,0.1,0.1,0.2c0,0.1,0.1,0.1,0.1,0.2c0,0,0,0,0,0.1c0,0,0,0,0,0.1
		c0.1,0.1,0.2,0.2,0.2,0.4c0,0,0,0,0.1,0.1c0.1,0.1,0.2,0.2,0.4,0.3c0,0,0.1,0,0.1,0.1c0.1,0.1,0.2,0.1,0.3,0.1c0,0,0.1,0,0.1,0
		c0.2,0,0.3,0.1,0.5,0.1c0,0,0,0,0,0c0,0,0,0,0,0c0.1,0,0.3,0,0.4,0c0,0,0.1,0,0.1,0c0.1,0,0.2-0.1,0.3-0.1c0,0,0,0,0.1,0l5.3-2.8
		l5.3,2.8c0,0,0,0,0.1,0c0.1,0,0.2,0.1,0.3,0.1c0,0,0.1,0,0.1,0c0.1,0,0.3,0,0.4,0c0,0,0,0,0,0c0,0,0,0,0,0c0.2,0,0.3,0,0.5-0.1
		c0,0,0.1,0,0.1,0c0.1,0,0.2-0.1,0.3-0.1c0,0,0.1,0,0.1-0.1c0.1-0.1,0.3-0.2,0.4-0.3c0,0,0,0,0.1-0.1c0.1-0.1,0.2-0.2,0.2-0.3
		c0,0,0,0,0-0.1c0,0,0,0,0-0.1c0-0.1,0.1-0.1,0.1-0.2c0-0.1,0-0.1,0.1-0.2c0-0.1,0-0.1,0-0.2c0-0.1,0-0.1,0-0.2c0,0,0,0,0-0.1V8.5
		h7.1c2.6,0,4.7,2.1,4.7,4.6v30.3c0,2.5-2.1,4.6-4.7,4.6H24.7C22.1,48,20,46,20,43.5z"/>
</g>
</svg>
