<?xml version="1.0" encoding="utf-8"?>
<!-- Generator: Adobe Illustrator 19.0.0, SVG Export Plug-In . SVG Version: 6.00 Build 0)  -->
<svg version="1.1" id="图层_1" xmlns="http://www.w3.org/2000/svg" xmlns:xlink="http://www.w3.org/1999/xlink" x="0px" y="0px"
	 viewBox="0 0 64 64" style="enable-background:new 0 0 64 64;" xml:space="preserve">
<style type="text/css">
	.st0{fill:#040000;}
</style>
<g id="XMLID_1223_">
	<path id="XMLID_1277_" class="st0" d="M8,4v41.9c0,1.2,0.9,2.1,2,2.1c1.1,0,2-1,2-2.1V2.2C12,1,11.1,0,10,0H2C0.9,0,0,0.9,0,2
		s0.9,2,2,2H8L8,4z"/>
	<path id="XMLID_1275_" class="st0" d="M63.3,56.6c-0.4-0.3-1-0.6-1.5-0.6H22.2c-1.2,0-2.2,0.9-2.2,2s1,2,2.1,2h39.6
		c1.2,0,2.2-0.9,2.2-2C64,57.5,63.8,57,63.3,56.6z"/>
	<path id="XMLID_1269_" class="st0" d="M10,52c-3.3,0-6,2.7-6,6c0,3.3,2.7,6,6,6c3.3,0,6-2.7,6-6C16,54.7,13.3,52,10,52z"/>
	<path id="XMLID_1281_" class="st0" d="M55.3,4.5H24.7c-4.8,0-8.7,3.8-8.7,8.6v30.3c0,4.7,3.9,8.6,8.6,8.6h0h30.7
		c4.7,0,8.6-3.8,8.6-8.6V13.1C64,8.4,60.1,4.5,55.3,4.5z M48.2,30C48.2,30,48.2,30,48.2,30c0,0.1,0,0.2,0,0.3c0,0.1,0,0.1,0,0.2
		c0,0.1,0,0.1-0.1,0.2c0,0.1-0.1,0.1-0.1,0.2c0,0,0,0,0,0.1c0,0,0,0,0,0.1c-0.1,0.1-0.2,0.2-0.2,0.3c0,0,0,0-0.1,0.1
		c-0.1,0.1-0.2,0.2-0.4,0.3c0,0-0.1,0-0.1,0.1c-0.1,0.1-0.2,0.1-0.3,0.1c0,0-0.1,0-0.1,0c-0.2,0-0.3,0.1-0.5,0.1c0,0,0,0,0,0
		c0,0,0,0,0,0c-0.1,0-0.3,0-0.4,0c0,0-0.1,0-0.1,0c-0.1,0-0.2-0.1-0.3-0.1c0,0,0,0-0.1,0L40,29l-5.3,2.8c0,0,0,0-0.1,0
		c-0.1,0-0.2,0.1-0.3,0.1c0,0-0.1,0-0.1,0c-0.1,0-0.3,0-0.4,0c0,0,0,0,0,0c0,0,0,0,0,0c-0.2,0-0.3,0-0.5-0.1c0,0-0.1,0-0.1,0
		c-0.1,0-0.2-0.1-0.3-0.1c0,0-0.1,0-0.1-0.1c-0.1-0.1-0.3-0.2-0.4-0.3c0,0,0,0-0.1-0.1c-0.1-0.1-0.2-0.2-0.2-0.4c0,0,0,0,0-0.1
		c0,0,0,0,0-0.1c0-0.1-0.1-0.1-0.1-0.2c0-0.1,0-0.1-0.1-0.2c0-0.1,0-0.1,0-0.2c0-0.1,0-0.1,0-0.2c0,0,0,0,0-0.1V8.7h4H36h8h0.3h4V30
		z"/>
</g>
</svg>
