<?xml version="1.0" encoding="utf-8"?>
<!-- Generator: Adobe Illustrator 19.0.0, SVG Export Plug-In . SVG Version: 6.00 Build 0)  -->
<svg version="1.1" id="图层_1" xmlns="http://www.w3.org/2000/svg" xmlns:xlink="http://www.w3.org/1999/xlink" x="0px" y="0px"
	 viewBox="0 0 64 64" style="enable-background:new 0 0 64 64;" xml:space="preserve">
<g id="XMLID_3_">
	<polygon id="XMLID_6_" points="32,0 32,0 32,0 	"/>
	<path id="XMLID_13_" d="M59.7,16C53.8,5.7,43,0,32,0l0,2h0c10.7,0,20.7,5.7,26,15c8.3,14.3,3.3,32.7-11,41c-4.6,2.6-9.7,4-15,4
		c-10.7,0-20.7-5.7-26-15c-4-6.9-5.1-15-3-22.8S10.1,10,17,6c4.6-2.6,9.7-4,15-4l0-2c0,0,0,0,0,0C26.5,0,21,1.4,16,4.3
		C0.7,13.1-4.5,32.7,4.3,48C10.2,58.3,21,64,32,64c5.4,0,10.9-1.4,16-4.3C63.3,50.9,68.5,31.3,59.7,16z"/>
	<rect id="XMLID_14_" x="17.3" y="29.5" transform="matrix(-0.866 0.5 -0.5 -0.866 73.7525 41.0588)" width="28.2" height="1.9"/>
	<path id="XMLID_15_" d="M23.2,32l-3.1-5.3c1.5-0.1,3.6-0.1,6.3-0.1l0.2-2.1c-2.4,0.1-4.6,0.2-6.5,0.3L20,26.5l-2-3.5l5.4-3.1
		l-0.9-1.6l-5.4,3.1l-2.2-3.8l-1.7,1l2.2,3.8l-6.8,3.9L9.5,28l6.7-3.9c0.2,4-1,8.1-3.6,12.3c0.1,0,0.1,0,0.3,0.1
		c0.9,0.3,1.6,0.5,1.9,0.6c2-3.6,3-7.2,3-10.7l3.8,6.5L23.2,32z"/>
	<path id="XMLID_16_" d="M29.5,9.3l-1.7,1l2.2,3.8l-5.4,3.1l0.9,1.6l5.4-3.1c0,4-1.2,7.9-3.7,11.9c0.5,0.1,1.2,0.4,2.1,0.7
		c1.9-3.3,2.9-6.8,2.9-10.4l3.9,6.7l1.7-1l-3.9-6.7c2.8,1.6,6.5,2.3,10.9,2.1c0-0.9,0.1-1.6,0.2-2.2c-4.7,0.5-8.8-0.1-12.3-2
		l7.2-4.2L39,8.9l-7.3,4.2L29.5,9.3z"/>
	<path id="XMLID_17_" d="M22.6,52.8c0.1,0,0.2,0.1,0.4,0.1c1,0.3,1.5,0.6,1.7,0.6c2.2-3.6,3.9-6.8,5.3-9.9l-2-0.6
		C26.7,46,24.9,49.3,22.6,52.8z"/>
	<path id="XMLID_18_" d="M42.2,36.9c4.3-0.3,8-0.4,11-0.4l0.2-2.3c-4.2,0.2-7.8,0.4-11,0.7L42.2,36.9z"/>
	<path id="XMLID_19_" d="M18.9,45.9l15.6-9l2.9,5.1c0.6,1,0.8,1.8,0.6,2.3c-0.1,0.6-0.7,1.2-1.8,1.8c-0.9,0.5-1.9,1.1-2.9,1.6
		c-0.2,0.1-0.3,0.1-0.4,0.2c0.4,0.4,0.9,0.9,1.4,1.7c0.5-0.3,0.8-0.5,1.1-0.6c0.3-0.2,0.6-0.3,0.8-0.5c0.5-0.3,1-0.6,1.4-0.9
		c2.8-1.6,3.4-3.7,1.7-6.4l-3.1-5.3l14.6-8.4l-0.9-1.6l-32,18.5L18.9,45.9z"/>
</g>
</svg>
