<?xml version="1.0" encoding="utf-8"?>
<!-- Generator: Adobe Illustrator 19.0.0, SVG Export Plug-In . SVG Version: 6.00 Build 0)  -->
<svg version="1.1" id="图层_1" xmlns="http://www.w3.org/2000/svg" xmlns:xlink="http://www.w3.org/1999/xlink" x="0px" y="0px"
	 viewBox="-717 719 64 64" style="enable-background:new -717 719 64 64;" xml:space="preserve">
<g id="XMLID_1_">
	<path id="XMLID_20_" d="M-669,723.3c-15.3-8.8-34.9-3.6-43.7,11.7s-3.6,34.9,11.7,43.7s34.8,3.6,43.7-11.7
		C-648.4,751.7-653.7,732.1-669,723.3z M-657.7,766.7c-8.7,15.1-27.9,20.2-43,11.5c-15.1-8.6-20.3-27.9-11.6-42.9s28-20.3,43-11.6
		C-654.2,732.4-649,751.7-657.7,766.7z"/>
	<path id="XMLID_27_" d="M-670.3,725.7c-14-8.2-31.9-3.4-40,10.7c-8.1,14-3.3,31.9,10.7,40s31.9,3.3,40-10.7
		C-651.5,751.7-656.3,733.8-670.3,725.7z M-660.2,765.3c-7.8,13.6-25.5,18.3-39,10.5c-13.7-7.9-18.4-25.5-10.6-39.1
		c7.8-13.6,25.4-18.4,39-10.5C-657,734.1-652.3,751.7-660.2,765.3z"/>
	<path id="XMLID_30_" d="M-673.3,730.8c-11.1-6.4-25.4-2.6-31.9,8.6c-6.4,11.2-2.6,25.5,8.6,31.9c11.2,6.4,25.5,2.6,31.9-8.6
		C-658.3,751.5-662.2,737.2-673.3,730.8z M-665.5,762.3c-6.1,10.6-19.9,14.3-30.6,8.2c-10.6-6.1-14.3-19.9-8.2-30.6
		c6.1-10.7,19.9-14.4,30.6-8.2C-663,737.8-659.5,751.5-665.5,762.3z"/>
	<path id="XMLID_33_" d="M-675.3,734.2c-9.3-5.3-21.1-2.2-26.5,7.1c-5.3,9.3-2.2,21.1,7.1,26.5c9.3,5.3,21.1,2.2,26.5-7.1
		C-662.8,751.4-666,739.6-675.3,734.2z M-668.6,760.4c-5.2,9-16.8,12.1-25.8,6.9c-9-5.2-12.1-16.8-6.9-25.8s16.8-12.1,25.8-6.9
		C-666.6,739.8-663.4,751.4-668.6,760.4z"/>
	<polygon id="XMLID_34_" points="-694,750.4 -692.1,753 -696,755.8 -695.4,756.6 -686.8,750.1 -687.3,749.4 -691.3,752.4 
		-693.3,749.8 -689.8,747.3 -690.4,746.6 -693.8,749.1 -695.3,747 -696.1,747.6 -694.6,749.7 -697.9,752.2 -697.4,752.9 	"/>
	<path id="XMLID_35_" d="M-696.3,759.5c0.2-0.2,0.4-0.5,0.7-0.9c0.3-0.4,0.5-0.6,0.7-0.8c-0.1-0.1-0.2-0.2-0.3-0.3
		c-0.1-0.1-0.2-0.3-0.3-0.4c-0.5,0.6-0.9,1.2-1.4,1.7l-2.4-3.2l1.7-1.3l-0.5-0.7l-1.7,1.3l-2.2-3l-0.7,0.6l2.2,2.9l-1.8,1.4l0.5,0.7
		l1.8-1.4l2.5,3.4c-0.5,0.6-1.1,1.3-1.7,1.9l0.7,0.7c0.1-0.2,0.4-0.4,0.6-0.8c0.4-0.5,0.7-0.9,0.9-1.1l3,4c0.4,0.5,0.4,1-0.2,1.3
		c-0.4,0.3-0.7,0.5-1.2,0.8c0.3,0.2,0.5,0.5,0.7,0.7c0.2-0.1,0.3-0.2,0.4-0.3c0.1-0.1,0.2-0.1,0.3-0.2c0.2-0.1,0.3-0.3,0.5-0.4
		c0.9-0.7,0.9-1.5,0.3-2.4L-696.3,759.5z"/>
	<polygon id="XMLID_36_" points="-686.4,759.1 -688.3,756.5 -684.8,753.9 -685.4,753.2 -688.9,755.8 -690.3,753.8 -691,754.4 
		-689.6,756.3 -693.1,758.9 -692.6,759.6 -689.1,757 -687.1,759.7 -691.5,762.9 -691,763.6 -681.5,756.6 -682,755.9 	"/>
	<path id="XMLID_37_" d="M-673.8,750.2c-1.4,1-2.5,1.6-3.5,1.8l-2.1-2.9l2.1-1.6l-0.5-0.7l-2.1,1.6l-1.9-2.5l2.3-1.7l-0.5-0.7
		l-2.7,2l-1.8-2.4l2.3-1.7l-0.5-0.7l-2.3,1.7l-1.5-2.1l-0.8,0.6l1.5,2.1l-2.4,1.8l0.5,0.7l2.4-1.8l1.8,2.4l-2.9,2.2l0.5,0.7l3.4-2.5
		l4.2,5.6c-0.9,0-2-0.4-3.4-1.2c-0.4-0.7-0.9-1.4-1.5-2.2l-0.7,0.5c1.2,1.6,2,2.8,2.4,3.8c0.5,1,0.8,2.1,0.9,3.4c0.4,0,0.7,0,1,0
		c-0.2-1.6-0.6-3-1.3-4.2c2.3,1.4,4.8,1,7.4-1c1.1-0.8,3.2-2.3,6.4-4.7c-0.1-0.2-0.2-0.6-0.3-1c-1,0.8-2.1,1.6-3.1,2.4
		C-671.6,748.6-672.7,749.4-673.8,750.2z"/>
	<path id="XMLID_38_" d="M-672.1,740.9c0.4,0.7,0.7,1.3,0.9,1.8c0.4,0.7,0.1,1.4-0.7,2l-1.7,1.3c-0.5,0.4-0.8,0.5-1.1,0.5
		c-0.3,0-0.6-0.2-0.9-0.6l-2.4-3.3l4.4-3.3l-3.4-4.6l-5.4,4l0.5,0.7l4.7-3.5l2.4,3.2l-4.4,3.3l3.1,4.1c0.8,1.1,1.8,1.2,3,0.2
		l1.9-1.4c1.3-0.9,1.6-1.9,1-3c-0.3-0.6-0.6-1.2-0.9-1.7C-671.6,740.8-671.9,740.9-672.1,740.9z"/>
</g>
</svg>
