<?xml version="1.0" encoding="utf-8"?>
<!-- Generator: Adobe Illustrator 19.0.0, SVG Export Plug-In . SVG Version: 6.00 Build 0)  -->
<svg version="1.1" id="图层_1" xmlns="http://www.w3.org/2000/svg" xmlns:xlink="http://www.w3.org/1999/xlink" x="0px" y="0px"
	 viewBox="0 0 64 64" style="enable-background:new 0 0 64 64;" xml:space="preserve">
<style type="text/css">
	.st0{fill:#040000;}
</style>
<g id="XMLID_1_">
	<path id="XMLID_10_" class="st0" d="M32,0C14.3,0,0,14.3,0,32c0,17.7,14.3,32,32,32s32-14.3,32-32C64,14.3,49.7,0,32,0z M32,60
		C16.6,60,4,47.4,4,32S16.6,4,32,4s28,12.6,28,28S47.4,60,32,60z"/>
	<path id="XMLID_13_" class="st0" d="M44.3,16.1l-20.4,5.8c-1,0.3-1.7,1-2,2l-5.8,20.4c-0.6,2.2,1.4,4.2,3.6,3.6l20.4-5.8
		c1-0.3,1.7-1,2-2l5.8-20.4C48.5,17.5,46.5,15.5,44.3,16.1z M32,37.9c-3.3,0-5.9-2.7-5.9-5.9c0-3.3,2.7-5.9,5.9-5.9s5.9,2.7,5.9,5.9
		C37.9,35.3,35.3,37.9,32,37.9z"/>
</g>
</svg>
