<?xml version="1.0" encoding="utf-8"?>
<!-- Generator: Adobe Illustrator 19.0.0, SVG Export Plug-In . SVG Version: 6.00 Build 0)  -->
<svg version="1.1" id="图层_1" xmlns="http://www.w3.org/2000/svg" xmlns:xlink="http://www.w3.org/1999/xlink" x="0px" y="0px"
	 viewBox="0 0 64 64" style="enable-background:new 0 0 64 64;" xml:space="preserve">
<style type="text/css">
	.st0{fill:#040000;}
</style>
<g id="XMLID_2_">
	<path id="XMLID_5_" class="st0" d="M32,0C14.3,0,0,14.3,0,32c0,17.7,14.3,32,32,32s32-14.3,32-32C64,14.3,49.7,0,32,0z M47.9,19.7
		l-5.8,20.4c-0.3,1-1,1.7-2,2l-20.4,5.8c-2.2,0.6-4.2-1.4-3.6-3.6l5.8-20.4c0.3-1,1-1.7,2-2l20.4-5.8C46.5,15.5,48.5,17.5,47.9,19.7
		z"/>
	<circle id="XMLID_9_" class="st0" cx="32" cy="32" r="5.9"/>
</g>
</svg>
