<?xml version="1.0" encoding="utf-8"?>
<!-- Generator: Adobe Illustrator 19.0.0, SVG Export Plug-In . SVG Version: 6.00 Build 0)  -->
<svg version="1.1" id="图层_1" xmlns="http://www.w3.org/2000/svg" xmlns:xlink="http://www.w3.org/1999/xlink" x="0px" y="0px"
	 viewBox="0 0 64 64" style="enable-background:new 0 0 64 64;" xml:space="preserve">
<style type="text/css">
	.st0{fill:#040000;}
</style>
<path id="XMLID_3_" class="st0" d="M32,36c2.2,0,4-1.8,4-4s-1.8-4-4-4s-4,1.8-4,4S29.8,36,32,36z"/>
<path id="XMLID_2_" class="st0" d="M32,16c2.2,0,4-1.8,4-4s-1.8-4-4-4s-4,1.8-4,4S29.8,16,32,16z"/>
<path id="XMLID_4_" class="st0" d="M32,17c2.8,0,5-2.3,5-5s-2.3-5-5-5s-5,2.3-5,5S29.3,17,32,17z"/>
<path id="XMLID_5_" class="st0" d="M32,37c2.8,0,5-2.3,5-5s-2.3-5-5-5s-5,2.3-5,5S29.3,37,32,37z"/>
<path id="XMLID_6_" class="st0" d="M32,57c2.8,0,5-2.3,5-5s-2.3-5-5-5s-5,2.3-5,5S29.3,57,32,57z"/>
<path id="XMLID_1_" class="st0" d="M32,56c2.2,0,4-1.8,4-4s-1.8-4-4-4s-4,1.8-4,4S29.8,56,32,56z"/>
</svg>
