<?xml version="1.0" encoding="utf-8"?>
<!-- Generator: Adobe Illustrator 19.0.0, SVG Export Plug-In . SVG Version: 6.00 Build 0)  -->
<svg version="1.1" id="图层_1" xmlns="http://www.w3.org/2000/svg" xmlns:xlink="http://www.w3.org/1999/xlink" x="0px" y="0px"
	 viewBox="0 0 64 64" style="enable-background:new 0 0 64 64;" xml:space="preserve">
<style type="text/css">
	.st0{fill:#040000;}
</style>
<g id="XMLID_1472_">
	<path id="XMLID_1483_" class="st0" d="M32.1,42.5l-0.1,0c-2.2,0-4,1.8-4,4c0,2.2,1.8,4,4,4l0.1,0c2.2,0,4-1.8,4-4
		C36.1,44.3,34.3,42.5,32.1,42.5z"/>
	<path id="XMLID_2792_" class="st0" d="M32.1,28l-0.1,0c-2.2,0-4,1.8-4,4c0,2.2,1.8,4,4,4l0.1,0c2.2,0,4-1.8,4-4S34.3,28,32.1,28z"
		/>
	<path id="XMLID_2793_" class="st0" d="M32.1,13.4l-0.1,0c-2.2,0-4,1.8-4,4s1.8,4,4,4l0.1,0c2.2,0,4-1.8,4-4
		C36.1,15.2,34.3,13.4,32.1,13.4z"/>
	<path id="XMLID_2799_" class="st0" d="M32,0C14.3,0,0,14.3,0,32c0,17.7,14.3,32,32,32s32-14.3,32-32C64,14.3,49.7,0,32,0z
		 M51.5,51.4C48.9,54,46,56,42.7,57.3c-3.4,1.4-7,2.2-10.7,2.2c-3.7,0-7.3-0.7-10.7-2.2C18,56,15.1,54,12.6,51.5
		C10,48.9,8,46,6.7,42.7c-1.4-3.4-2.2-7-2.2-10.7c0-3.7,0.7-7.3,2.2-10.7C8,18,10,15.1,12.6,12.6C15.1,10,18,8,21.3,6.7
		c3.4-1.4,7-2.2,10.7-2.2c7.3,0,14.3,2.9,19.4,8.1c2.5,2.5,4.5,5.5,5.9,8.7c1.4,3.4,2.2,7,2.2,10.7s-0.7,7.3-2.2,10.7
		C56,46,54,48.9,51.5,51.4z"/>
</g>
</svg>
