<?xml version="1.0" encoding="utf-8"?>
<!-- Generator: Adobe Illustrator 19.0.0, SVG Export Plug-In . SVG Version: 6.00 Build 0)  -->
<svg version="1.1" id="图层_1" xmlns="http://www.w3.org/2000/svg" xmlns:xlink="http://www.w3.org/1999/xlink" x="0px" y="0px"
	 viewBox="0 0 64 64" style="enable-background:new 0 0 64 64;" xml:space="preserve">
<style type="text/css">
	.st0{fill:#040000;}
</style>
<path class="st0" d="M28,32c0,2.2,1.8,4,4,4s4-1.8,4-4s-1.8-4-4-4S28,29.8,28,32z"/>
<path class="st0" d="M48,32c0,2.2,1.8,4,4,4s4-1.8,4-4s-1.8-4-4-4S48,29.8,48,32z"/>
<path class="st0" d="M8,32c0,2.2,1.8,4,4,4s4-1.8,4-4s-1.8-4-4-4S8,29.8,8,32z"/>
<path class="st0" d="M7,32c0,2.8,2.3,5,5,5s5-2.3,5-5s-2.3-5-5-5S7,29.3,7,32z"/>
<path class="st0" d="M27,32c0,2.8,2.3,5,5,5s5-2.3,5-5s-2.3-5-5-5S27,29.3,27,32z"/>
<path class="st0" d="M47,32c0,2.8,2.3,5,5,5s5-2.3,5-5s-2.3-5-5-5S47,29.3,47,32z"/>
</svg>
