<?xml version="1.0" encoding="utf-8"?>
<!-- Generator: Adobe Illustrator 19.0.0, SVG Export Plug-In . SVG Version: 6.00 Build 0)  -->
<svg version="1.1" id="图层_1" xmlns="http://www.w3.org/2000/svg" xmlns:xlink="http://www.w3.org/1999/xlink" x="0px" y="0px"
	 viewBox="0 0 500 500" style="enable-background:new 0 0 500 500;" xml:space="preserve">
<style type="text/css">
	.st0{fill:#040000;}
</style>
<g id="XMLID_3_">
	<path id="XMLID_4_" class="st0" d="M398.5,272.7h-59.9c-3.9,0-7,3.1-7,7s3.1,7,7,7h59.9c3.9,0,7-3.1,7-7S402.4,272.7,398.5,272.7z"
		/>
	<path id="XMLID_20_" class="st0" d="M363.4,300.7h-51.4h-17.5c-3.9,0-7-3.1-7-7s3.1-7,7-7h2.6h2.5c3.9,0,7-3.1,7-7s-3.1-7-7-7H296
		h-12.7c-3.9,0-7-3.1-7-7s3.1-7,7-7h14h67.3c3.9,0,7-3.1,7-7s-3.1-7-7-7h-21.4h-10.4c-3.9,0-7-3.1-7-7s3.1-7,7-7h6h7.4
		c3.9,0,7-3.1,7-7s-3.1-7-7-7h-20.2h-47c-3.9,0-7-3.1-7-7s3.1-7,7-7h20.4h7.5c3.9,0,7-3.1,7-7s-3.1-7-7-7H187.2c-3.9,0-7,3.1-7,7
		s3.1,7,7,7h25.7h7.7c3.9,0,7,3.1,7,7s-3.1,7-7,7h-33.1H151c-3.9,0-7,3.1-7,7s3.1,7,7,7h12h8.7c3.9,0,7,3.1,7,7s-3.1,7-7,7H163h-2.4
		c-3.9,0-7,3.1-7,7s3.1,7,7,7h1.4h5c3.9,0,7,3.1,7,7s-3.1,7-7,7h-8.5h-48.7c-3.9,0-7,3.1-7,7s3.1,7,7,7h53.8h12.5c3.9,0,7,3.1,7,7
		s-3.1,7-7,7h-3.7h-1.9c-3.9,0-7,3.1-7,7s3.1,7,7,7h192.9c3.9,0,7-3.1,7-7S367.3,300.7,363.4,300.7z M198.2,293.7c0-3.9,3.1-7,7-7
		h59.9c3.9,0,7,3.1,7,7s-3.1,7-7,7h-59.9C201.4,300.7,198.2,297.5,198.2,293.7z"/>
</g>
</svg>
