<?xml version="1.0" encoding="utf-8"?>
<!-- Generator: Adobe Illustrator 19.0.0, SVG Export Plug-In . SVG Version: 6.00 Build 0)  -->
<svg version="1.1" id="图层_1" xmlns="http://www.w3.org/2000/svg" xmlns:xlink="http://www.w3.org/1999/xlink" x="0px" y="0px"
	 viewBox="0 0 64 64" style="enable-background:new 0 0 64 64;" xml:space="preserve">
<style type="text/css">
	.st0{fill:#040000;}
</style>
<path id="XMLID_952_" class="st0" d="M4.6,0h54.9C62,0,64,2,64,4.6v54.9c0,2.5-2,4.6-4.6,4.6H4.6C2,64,0,62,0,59.4V4.6
	C0,2,2,0,4.6,0z M6.9,4.6c-1.3,0-2.3,1-2.3,2.3v50.3c0,1.3,1,2.3,2.3,2.3h50.3c1.3,0,2.3-1,2.3-2.3V6.9c0-1.3-1-2.3-2.3-2.3H6.9z
	 M4.6,36.6h54.9v4.6H4.6V36.6z M13.7,54.9c-2.5,0-4.6-2-4.6-4.6c0-2.5,2-4.6,4.6-4.6s4.6,2,4.6,4.6C18.3,52.8,16.2,54.9,13.7,54.9z
	 M52.6,54.9c-2.5,0-4.6-2-4.6-4.6c0-2.5,2-4.6,4.6-4.6c2.5,0,4.6,2,4.6,4.6C57.1,52.8,55.1,54.9,52.6,54.9z M25.1,48h16
	c1.3,0,2.3,1,2.3,2.3s-1,2.3-2.3,2.3h-16c-1.3,0-2.3-1-2.3-2.3S23.9,48,25.1,48z M13.7,11.4h36.6c2.5,0,4.6,2,4.6,4.6v6.9
	c0,2.5-2,4.6-4.6,4.6H13.7c-2.5,0-4.6-2-4.6-4.6V16C9.1,13.5,11.2,11.4,13.7,11.4z M13.7,18.3v2.3c0,1.3,1,2.3,2.3,2.3h32
	c1.3,0,2.3-1,2.3-2.3v-2.3c0-1.3-1-2.3-2.3-2.3H16C14.7,16,13.7,17,13.7,18.3z"/>
</svg>
