<?xml version="1.0" encoding="utf-8"?>
<!-- Generator: Adobe Illustrator 19.0.0, SVG Export Plug-In . SVG Version: 6.00 Build 0)  -->
<svg version="1.1" id="图层_1" xmlns="http://www.w3.org/2000/svg" xmlns:xlink="http://www.w3.org/1999/xlink" x="0px" y="0px"
	 viewBox="0 0 64 64" style="enable-background:new 0 0 64 64;" xml:space="preserve">
<style type="text/css">
	.st0{fill:#040000;}
</style>
<path id="XMLID_697_" class="st0" d="M58,0H6C2.7,0,0,2.7,0,6v9.4v8.3V58c0,3.3,2.7,6,6,6c0.2,0,0.4,0,0.6-0.1L32,56.1l25.4,7.8
	C57.6,64,57.8,64,58,64c3.3,0,6-2.7,6-6V6C64,2.7,61.3,0,58,0z M49.4,27.1l-7.3,7.1l1.7,10c0.1,0.8-0.2,1.5-0.8,2
	c-0.3,0.3-0.8,0.4-1.2,0.4c-0.3,0-0.6-0.1-0.9-0.2l-9-4.7l-9,4.7c-0.7,0.4-1.5,0.3-2.1-0.2c-0.6-0.5-0.9-1.2-0.8-2l1.7-10l-7.3-7.1
	c-0.5-0.5-0.7-1.3-0.5-2c0.2-0.7,0.9-1.3,1.6-1.4l10-1.5l4.5-9.1c0.3-0.7,1-1.1,1.8-1.1c0.8,0,1.5,0.4,1.8,1.1l4.5,9.1l10,1.5
	c0.8,0.1,1.4,0.6,1.6,1.4C50.2,25.8,50,26.6,49.4,27.1z"/>
</svg>
