<?xml version="1.0" encoding="utf-8"?>
<!-- Generator: Adobe Illustrator 19.0.0, SVG Export Plug-In . SVG Version: 6.00 Build 0)  -->
<svg version="1.1" id="图层_1" xmlns="http://www.w3.org/2000/svg" xmlns:xlink="http://www.w3.org/1999/xlink" x="0px" y="0px"
	 viewBox="0 0 64 64" style="enable-background:new 0 0 64 64;" xml:space="preserve">
<style type="text/css">
	.st0{fill:#040000;}
</style>
<g id="XMLID_2597_">
	<path id="XMLID_2665_" class="st0" d="M24.5,46.3H14.4c-1.1,0-2,0.7-2,1.8c0,0.9,0.9,1.8,2,1.8h10.1c1.1,0,2-0.9,2-1.8
		C26.5,47,25.6,46.3,24.5,46.3z"/>
	<path id="XMLID_2670_" class="st0" d="M48,26.7c-0.1-0.9-0.8-1.7-1.8-1.8h-32c-0.9,0.1-1.7,0.8-1.8,1.8c0,0.9,0.9,1.8,1.8,1.8h32
		C47.2,28.4,48,27.7,48,26.7z"/>
	<path id="XMLID_2736_" class="st0" d="M24.5,35.6H14.4c-1.1,0-2,0.7-2,1.8c0,0.9,0.9,1.8,2,1.8h10.1c1.1,0,2-0.9,2-1.8
		C26.5,36.3,25.6,35.6,24.5,35.6z"/>
	<path id="XMLID_2737_" class="st0" d="M46.2,14.3h-32c-0.9,0.1-1.7,0.8-1.8,1.8c0,0.9,0.9,1.8,1.8,1.8h32C47.2,17.7,48,17,48,16
		C47.9,15.1,47.2,14.3,46.2,14.3z"/>
	<path id="XMLID_2738_" class="st0" d="M30.2,60.4H5.3V3.6h49.8v26.7c0,1.1,0.7,1.8,1.8,1.8s1.8-0.7,1.8-1.8V1.8
		c0-0.9-0.8-1.7-1.8-1.8H3.5C2.6,0.1,1.8,0.8,1.8,1.8v60.4c0,0.9,0.9,1.8,1.8,1.8h26.7c1.1,0,1.8-0.7,1.8-1.8S31.3,60.4,30.2,60.4z"
		/>
	<path id="XMLID_2741_" class="st0" d="M48,35.6c-7.8,0-14.2,6.4-14.2,14.2C33.8,57.6,40.2,64,48,64s14.2-6.4,14.2-14.2
		S55.8,35.6,48,35.6z M48,61c-6.2,0-11.2-5-11.2-11.2c0-6.2,5-11.2,11.2-11.2c6.2,0,11.2,5.1,11.2,11.2C59.2,56,54.1,61,48,61z"/>
	<path id="XMLID_2742_" class="st0" d="M46.6,54.4c-0.4,0.4-0.6,0.9-0.6,1.4c0,0.5,0.2,1,0.6,1.4c0.4,0.4,0.9,0.6,1.4,0.6
		c0.5,0,1-0.2,1.4-0.6c0.4-0.4,0.6-0.9,0.6-1.4c0-0.5-0.2-1-0.6-1.4C48.7,53.7,47.3,53.7,46.6,54.4z"/>
	<path id="XMLID_2743_" class="st0" d="M48,41.7c-1.1,0-2,0.9-2,2v6.8c0,1.1,0.9,2,2,2s2-0.9,2-2v-6.8C50,42.6,49.1,41.7,48,41.7z"
		/>
</g>
</svg>
