<?xml version="1.0" encoding="utf-8"?>
<!-- Generator: Adobe Illustrator 19.0.0, SVG Export Plug-In . SVG Version: 6.00 Build 0)  -->
<svg version="1.1" id="图层_1" xmlns="http://www.w3.org/2000/svg" xmlns:xlink="http://www.w3.org/1999/xlink" x="0px" y="0px"
	 viewBox="0 0 64 64" style="enable-background:new 0 0 64 64;" xml:space="preserve">
<style type="text/css">
	.st0{fill:#040000;}
</style>
<g id="XMLID_2161_">
	<path id="XMLID_2168_" class="st0" d="M22.8,46.3H12.6c-1.1,0-2,0.7-2,1.8c0,0.9,0.9,1.8,2,1.8h10.1c1.1,0,2-0.9,2-1.8
		C24.7,47,23.8,46.3,22.8,46.3z"/>
	<path id="XMLID_2167_" class="st0" d="M44.5,25h-32c-0.9,0.1-1.7,0.8-1.8,1.8c0,0.9,0.9,1.8,1.8,1.8h32c0.9-0.1,1.7-0.8,1.8-1.8
		C46.1,25.8,45.4,25,44.5,25z"/>
	<path id="XMLID_2166_" class="st0" d="M22.8,35.6H12.6c-1.1,0-2,0.7-2,1.8c0,0.9,0.9,1.8,2,1.8h10.1c1.1,0,2-0.9,2-1.8
		C24.7,36.3,23.8,35.6,22.8,35.6z"/>
	<path id="XMLID_2165_" class="st0" d="M44.5,14.3h-32c-0.9,0.1-1.7,0.8-1.8,1.8c0,0.9,0.9,1.8,1.8,1.8h32c0.9-0.1,1.7-0.8,1.8-1.8
		C46.1,15.1,45.4,14.3,44.5,14.3z"/>
	<path id="XMLID_2164_" class="st0" d="M23,60.5H3.6V3.6h49.8v23.2c0,1.1,0.7,1.8,1.8,1.8c1.1,0,1.8-0.7,1.8-1.8V1.8
		c0-0.9-0.8-1.7-1.8-1.8H1.8C0.8,0.1,0,0.8,0,1.8v60.5C0,63.1,0.9,64,1.8,64H23c1.1,0,1.8-0.7,1.8-1.8C24.7,61.2,24,60.5,23,60.5z"
		/>
	<path id="XMLID_2162_" class="st0" d="M63.3,41.4L52.8,31c-0.7-0.7-1.7-0.9-2.7-0.6c-0.9,0.4-1.6,1.2-1.6,2.2l-1.1,3.5l-8.6,5.7
		l-5.5,0.7c-1-0.1-2,0.6-2.4,1.5c-0.4,1-0.2,2.1,0.5,2.8l6.9,6.9l-7.6,7.6c-0.3,0.3-0.5,0.7-0.5,1.1s0.2,0.8,0.5,1.1
		c0.3,0.3,0.7,0.5,1.1,0.5s0.8-0.2,1.1-0.5l7.6-7.6l6.9,6.9c0.7,0.7,1.9,0.9,2.8,0.5c1-0.4,1.6-1.4,1.5-2.4l0.5-5.1l6.2-9.2l3.3-0.9
		c1-0.1,1.9-0.7,2.2-1.6C64.2,43.1,64,42.1,63.3,41.4z"/>
</g>
</svg>
