<?xml version="1.0" encoding="utf-8"?>
<!-- Generator: Adobe Illustrator 19.0.0, SVG Export Plug-In . SVG Version: 6.00 Build 0)  -->
<svg version="1.1" id="图层_1" xmlns="http://www.w3.org/2000/svg" xmlns:xlink="http://www.w3.org/1999/xlink" x="0px" y="0px"
	 viewBox="0 0 64 64" style="enable-background:new 0 0 64 64;" xml:space="preserve">
<style type="text/css">
	.st0{fill:#070001;}
</style>
<g>
	<polygon class="st0" points="35.8,16.1 32,21.5 28.2,16.1 25.1,16.1 30.4,23.7 25.1,31.3 28.2,31.3 32,26 35.8,31.3 38.9,31.3 
		33.6,23.7 38.9,16.1 	"/>
	<path class="st0" d="M56,39V12c0-0.1,0-0.3,0-0.4c0-0.1,0-0.1-0.1-0.2c0-0.1,0-0.1-0.1-0.2c0-0.1-0.1-0.1-0.1-0.2s-0.1-0.1-0.1-0.2
		c-0.1-0.1-0.2-0.2-0.3-0.3l-10-10c-0.1-0.1-0.2-0.2-0.3-0.3l-0.1-0.1c-0.1,0-0.1-0.1-0.2-0.1s-0.1,0-0.2-0.1c-0.1,0-0.1,0-0.2-0.1
		c-0.1,0-0.3,0-0.4,0H10C8.9,0,8,0.9,8,2v37H5v16h3v7c0,1.1,0.9,2,2,2h44c1.1,0,2-0.9,2-2v-7h3V39H56z M52,60H12v-5h16.7h6.8h7.6H52
		V60z M21,42.8h1.4l2.2,3.2l2.2-3.2h1.4l-3,4.1l3.3,4.5h-1.4l-2.5-3.6L22,51.4h-1.4l3.3-4.5L21,42.8z M34.9,50.4v1h-5.3v-8.6h1.1
		v7.6H34.9z M41,48c-0.4-0.2-1.1-0.4-2.1-0.6c-1-0.2-1.7-0.5-2.1-0.9c-0.4-0.4-0.6-0.9-0.6-1.5c0-0.7,0.3-1.3,0.8-1.7
		c0.5-0.4,1.3-0.7,2.2-0.7c1,0,1.8,0.2,2.3,0.7s0.9,1.1,0.9,1.9h-1.1c-0.1-1-0.8-1.6-2.1-1.6c-0.6,0-1.1,0.1-1.5,0.4
		s-0.5,0.6-0.5,0.9c0,0.4,0.1,0.6,0.4,0.8c0.3,0.2,0.8,0.4,1.6,0.5c0.8,0.1,1.4,0.3,1.8,0.5c0.4,0.2,0.8,0.4,1.2,0.8
		s0.5,0.8,0.5,1.4c0,0.7-0.3,1.4-0.9,1.8c-0.6,0.4-1.4,0.7-2.3,0.7c-1.2,0-2.1-0.3-2.7-0.8c-0.6-0.5-0.9-1.2-0.9-2.1H37
		c0.1,0.6,0.3,1.1,0.8,1.4c0.5,0.3,1,0.5,1.7,0.5c0.6,0,1.1-0.1,1.5-0.4s0.6-0.6,0.6-1.1C41.6,48.6,41.4,48.2,41,48z M52,39h-8.9
		h-7.6h-6.8H12V4h30v8c0,1.1,0.9,2,2,2h8V39z"/>
</g>
</svg>
