<?xml version="1.0" encoding="utf-8"?>
<!-- Generator: Adobe Illustrator 19.0.0, SVG Export Plug-In . SVG Version: 6.00 Build 0)  -->
<svg version="1.1" id="图层_1" xmlns="http://www.w3.org/2000/svg" xmlns:xlink="http://www.w3.org/1999/xlink" x="0px" y="0px"
	 viewBox="0 0 64 64" style="enable-background:new 0 0 64 64;" xml:space="preserve">
<style type="text/css">
	.st0{fill:#070001;}
</style>
<g>
	<path class="st0" d="M38.4,24c-1,0-2.1,0.2-3.2,0.4c-1.3-1.2-2.4-2.6-3.2-4.1c0.9-2.9,1-4.9,0.3-5.8c-0.3-0.4-0.8-0.7-1.3-0.7
		c-0.7-0.1-1.3,0.2-1.6,0.8c-1,1.5,0.4,4.6,1,5.8c-0.7,2.2-1.6,4.3-2.7,6.4c-4.9,2.2-5,3.4-5,3.9c0,0.6,0.3,1.1,0.9,1.4
		c0.2,0.1,0.5,0.2,0.8,0.2c1.3,0,2.8-1.5,4.4-4.3c2-0.9,4-1.5,6.1-2c1.1,0.9,2.4,1.4,3.8,1.5c0.9,0,2.6,0,2.4-1.6
		C41.2,25.2,40.8,24.1,38.4,24z M24.5,30.6l-0.2,0.1c0.4-0.6,1.1-1.2,1.9-1.5C25.8,29.8,25.2,30.3,24.5,30.6z M30.8,15.4
		c0-0.1,0.1-0.1,0.2-0.1h0.1c0.3,0.9,0.3,1.8,0,2.7C30.7,17.2,30.6,16.3,30.8,15.4z M33.4,25.3c-1.1,0.2-2.4,0.6-3.5,1v-0.1
		l-0.1,0.1c0.5-1.1,1-2.3,1.5-3.5l0.1,0.1l0.1-0.1C32,23.6,32.8,24.5,33.4,25.3l-0.1-0.1L33.4,25.3z M38.7,26c-0.5,0-1-0.1-1.5-0.4
		c0.4-0.1,0.8-0.1,1.3-0.1c1,0,1.2,0.2,1.2,0.4C39.4,26,39.1,26.1,38.7,26z"/>
	<path class="st0" d="M25.7,46.5c0.3-0.3,0.5-0.7,0.5-1.2c0-0.3-0.1-0.6-0.3-0.9c-0.2-0.3-0.4-0.4-0.7-0.5c-0.3-0.1-0.6-0.1-1.1-0.1
		h-2.2v3.1h2.2C24.8,46.9,25.4,46.8,25.7,46.5z"/>
	<path class="st0" d="M31.5,43.8h-1.6v6.6h1.6c1.2,0,2.1-0.3,2.5-0.9c0.4-0.6,0.7-1.4,0.7-2.5c0-1-0.2-1.8-0.7-2.4
		C33.5,44,32.7,43.8,31.5,43.8z"/>
	<path class="st0" d="M56,39V12c0-0.1,0-0.3,0-0.4c0-0.1,0-0.1-0.1-0.2c0-0.1,0-0.1-0.1-0.2c0-0.1-0.1-0.1-0.1-0.2s-0.1-0.1-0.1-0.2
		c-0.1-0.1-0.2-0.2-0.3-0.3l-10-10c-0.1-0.1-0.2-0.2-0.3-0.3l-0.1-0.1c-0.1,0-0.1-0.1-0.2-0.1s-0.1,0-0.2-0.1c-0.1,0-0.1,0-0.2-0.1
		c-0.1,0-0.3,0-0.4,0H10C8.9,0,8,0.9,8,2v37H5v16h3v7c0,1.1,0.9,2,2,2h44c1.1,0,2-0.9,2-2v-7h3V39H56z M52,60H12v-5h8.5h7.9h8.4h6.6
		H52V60z M20.8,51.4v-8.6H24c0.7,0,1.3,0.1,1.8,0.2s0.9,0.4,1.1,0.8c0.2,0.4,0.4,0.9,0.4,1.5c0,0.9-0.3,1.5-0.8,2
		c-0.6,0.4-1.3,0.7-2.4,0.7h-2.2v3.4H20.8z M28.8,51.4v-8.6h2.7c2.9,0,4.4,1.4,4.4,4.2c0,2.9-1.5,4.4-4.4,4.4H28.8z M42.6,46.5v1h-4
		v3.9h-1.1v-8.6h5.8v1h-4.7v2.7H42.6z M52,39h-8.5h-6.6h-8.4h-7.9H12V4h30v8c0,1.1,0.9,2,2,2h8V39z"/>
</g>
</svg>
