<?xml version="1.0" encoding="utf-8"?>
<!-- Generator: Adobe Illustrator 19.0.0, SVG Export Plug-In . SVG Version: 6.00 Build 0)  -->
<svg version="1.1" id="图层_1" xmlns="http://www.w3.org/2000/svg" xmlns:xlink="http://www.w3.org/1999/xlink" x="0px" y="0px"
	 viewBox="0 0 64 64" style="enable-background:new 0 0 64 64;" xml:space="preserve">
<style type="text/css">
	.st0{fill:#040000;}
</style>
<g id="XMLID_685_">
	<path id="XMLID_764_" class="st0" d="M24.5,46.3H14.4c-1.1,0-2,0.7-2,1.8c0,0.9,0.9,1.8,2,1.8h10.1c1.1,0,2-0.9,2-1.8
		C26.5,47,25.6,46.3,24.5,46.3z"/>
	<path id="XMLID_754_" class="st0" d="M48,26.7c-0.1-0.9-0.8-1.7-1.8-1.8h-32c-0.9,0.1-1.7,0.8-1.8,1.8c0,0.9,0.9,1.8,1.8,1.8h32
		C47.2,28.4,48,27.7,48,26.7z"/>
	<path id="XMLID_753_" class="st0" d="M24.5,35.6H14.4c-1.1,0-2,0.7-2,1.8c0,0.9,0.9,1.8,2,1.8h10.1c1.1,0,2-0.9,2-1.8
		C26.5,36.3,25.6,35.6,24.5,35.6z"/>
	<path id="XMLID_750_" class="st0" d="M46.2,14.3h-32c-0.9,0.1-1.7,0.8-1.8,1.8c0,0.9,0.9,1.8,1.8,1.8h32C47.2,17.7,48,17,48,16
		C47.9,15.1,47.2,14.3,46.2,14.3z"/>
	<path id="XMLID_708_" class="st0" d="M30.2,60.4H5.3V3.6h49.8v26.7c0,1.1,0.7,1.8,1.8,1.8c1.1,0,1.8-0.7,1.8-1.8V1.8
		c0-0.9-0.8-1.7-1.8-1.8H3.5C2.6,0.1,1.8,0.8,1.8,1.8v60.4c0,0.9,0.9,1.8,1.8,1.8h26.7c1.1,0,1.8-0.7,1.8-1.8
		C32,61.1,31.3,60.4,30.2,60.4z"/>
	<path id="XMLID_689_" class="st0" d="M48,35.6c-7.8,0-14.2,6.4-14.2,14.2C33.8,57.6,40.2,64,48,64s14.2-6.4,14.2-14.2
		C62.2,41.9,55.8,35.6,48,35.6z M48,60.4c-5.9,0-10.7-4.8-10.7-10.7c0-5.9,4.8-10.7,10.7-10.7c5.9,0,10.7,4.8,10.7,10.7
		C58.7,55.7,53.8,60.4,48,60.4z"/>
	<path id="XMLID_688_" class="st0" d="M53.9,47.1l-3.2-0.4c-0.2,0-0.4-0.2-0.5-0.4l-1.4-3C48.5,43.2,48.3,43,48,43s-0.5,0.2-0.7,0.4
		l-1.4,3c0,0.2-0.4,0.4-0.5,0.4l-3.2,0.4c-0.5,0.2-0.9,0.9-0.4,1.3l2.5,2.1c0.2,0.2,0.2,0.5,0.2,0.7l-0.7,3.2c0,0.5,0.5,1.1,1.1,0.7
		l2.9-1.6c0.1-0.1,0.2-0.1,0.4-0.1s0.3,0,0.4,0.1l2.9,1.6c0.5,0.4,1.2-0.2,1.1-0.7l-0.7-3.2c0-0.4,0-0.5,0.2-0.7l2.5-2.1
		C54.8,48,54.4,47.1,53.9,47.1z"/>
</g>
</svg>
