<?xml version="1.0" encoding="utf-8"?>
<!-- Generator: Adobe Illustrator 19.0.0, SVG Export Plug-In . SVG Version: 6.00 Build 0)  -->
<svg version="1.1" id="图层_1" xmlns="http://www.w3.org/2000/svg" xmlns:xlink="http://www.w3.org/1999/xlink" x="0px" y="0px"
	 viewBox="0 0 64 64" style="enable-background:new 0 0 64 64;" xml:space="preserve">
<style type="text/css">
	.st0{fill:#070001;}
</style>
<g>
	<path class="st0" d="M57.4,11.4c0-0.1,0-0.1-0.1-0.2c0-0.1-0.1-0.1-0.1-0.2s-0.1-0.1-0.1-0.2c-0.1-0.1-0.2-0.2-0.3-0.3l-10-10
		c-0.1-0.1-0.2-0.2-0.3-0.3l-0.1-0.1c-0.1,0-0.1-0.1-0.2-0.1S46.1,0,46-0.1c-0.1,0-0.1,0-0.2-0.1c-0.1,0-0.3,0-0.4,0H7.5
		C6.4,0,5.5,0.9,5.5,2v60c0,1.1,0.9,2,2,2h48c1.1,0,2-0.9,2-2V12c0-0.1,0-0.3,0-0.4C57.5,11.5,57.5,11.5,57.4,11.4z M53.5,60h-44V4
		h34v8c0,1.1,0.9,2,2,2h8V60z"/>
	<path class="st0" d="M20.5,18.1c-1.1,0-2,0.9-2,2s0.9,2,2,2h22.2c1.1,0,2-0.9,2-2s-0.9-2-2-2H20.5z"/>
	<path class="st0" d="M42.6,35.3H20.5c-1.1,0-2,0.9-2,2s0.9,2,2,2h22.2c1.1,0,2-0.9,2-2S43.7,35.3,42.6,35.3z"/>
	<path class="st0" d="M42.6,26.7H20.5c-1.1,0-2,0.9-2,2s0.9,2,2,2h22.2c1.1,0,2-0.9,2-2S43.7,26.7,42.6,26.7z"/>
	<path class="st0" d="M36.3,43.9H20.5c-1.1,0-2,0.9-2,2s0.9,2,2,2h15.8c1.1,0,2-0.9,2-2S37.4,43.9,36.3,43.9z"/>
</g>
</svg>
