<?xml version="1.0" encoding="utf-8"?>
<!-- Generator: Adobe Illustrator 19.0.0, SVG Export Plug-In . SVG Version: 6.00 Build 0)  -->
<svg version="1.1" id="图层_1" xmlns="http://www.w3.org/2000/svg" xmlns:xlink="http://www.w3.org/1999/xlink" x="0px" y="0px"
	 viewBox="0 0 64 64" style="enable-background:new 0 0 64 64;" xml:space="preserve">
<style type="text/css">
	.st0{fill:#070001;}
</style>
<g>
	<polygon class="st0" points="37.1,25.3 34.8,15.4 32.8,15.4 31.2,15.4 29.2,15.4 26.9,25.3 24.5,15.4 21,15.4 25,32.1 25.3,32.1 
		28.5,32.1 28.8,32.1 32,18.6 35.2,32.1 35.5,32.1 38.7,32.1 39,32.1 43,15.4 39.5,15.4 	"/>
	<path class="st0" d="M22.3,43.8h-1.6v6.6h1.6c1.2,0,2.1-0.3,2.5-0.9c0.4-0.6,0.7-1.4,0.7-2.5c0-1-0.2-1.8-0.7-2.4
		C24.3,44,23.6,43.8,22.3,43.8z"/>
	<path class="st0" d="M34.1,49.7c0.5-0.6,0.8-1.5,0.8-2.6c0-1.1-0.3-1.9-0.8-2.6s-1.2-0.9-2.1-0.9s-1.6,0.3-2.1,0.9
		s-0.8,1.5-0.8,2.6c0,1.1,0.3,1.9,0.8,2.6c0.5,0.7,1.3,0.9,2.1,0.9C32.9,50.6,33.6,50.3,34.1,49.7z"/>
	<path class="st0" d="M56,39V12c0-0.1,0-0.3,0-0.4c0-0.1,0-0.1-0.1-0.2c0-0.1,0-0.1-0.1-0.2c0-0.1-0.1-0.1-0.1-0.2s-0.1-0.1-0.1-0.2
		c-0.1-0.1-0.2-0.2-0.3-0.3l-10-10c-0.1-0.1-0.2-0.2-0.3-0.3l-0.1-0.1c-0.1,0-0.1-0.1-0.2-0.1s-0.1,0-0.2-0.1c-0.1,0-0.1,0-0.2-0.1
		c-0.1,0-0.3,0-0.4,0H10C8.9,0,8,0.9,8,2v37H5v16h3v7c0,1.1,0.9,2,2,2h44c1.1,0,2-0.9,2-2v-7h3V39H56z M52,60H12v-5h15h9.8h8.8h1H52
		V60z M19.7,51.4v-8.6h2.7c2.9,0,4.4,1.4,4.4,4.2c-0.1,2.9-1.5,4.4-4.4,4.4H19.7z M27.8,47.1c0-1.3,0.4-2.4,1.2-3.2
		c0.8-0.8,1.8-1.2,3-1.2s2.2,0.4,3,1.2c0.8,0.8,1.1,1.9,1.1,3.2c0,1.3-0.4,2.4-1.1,3.2c-0.8,0.8-1.8,1.2-3,1.2s-2.2-0.4-3-1.2
		S27.8,48.4,27.8,47.1z M39.2,49.6c0.5,0.6,1.2,0.9,2.1,0.9c0.7,0,1.2-0.2,1.6-0.5c0.4-0.3,0.6-0.8,0.7-1.4h1.2
		c-0.1,0.9-0.4,1.6-1.1,2.1s-1.4,0.8-2.4,0.8c-1.2,0-2.2-0.4-2.9-1.2c-0.7-0.8-1.1-1.9-1.1-3.2s0.4-2.4,1.1-3.2
		c0.7-0.8,1.7-1.2,2.9-1.2c0.9,0,1.7,0.3,2.4,0.8s1,1.2,1.1,2h-1.2c0-0.5-0.3-1-0.7-1.3c-0.4-0.3-1-0.5-1.6-0.5
		c-0.9,0-1.6,0.3-2.1,0.9c-0.5,0.6-0.8,1.5-0.8,2.6C38.4,48.2,38.7,49,39.2,49.6z M52,39h-5.5h-1h-8.8H27H12V4h30v8c0,1.1,0.9,2,2,2
		h8V39z"/>
</g>
</svg>
