<?xml version="1.0" encoding="utf-8"?>
<!-- Generator: Adobe Illustrator 19.0.0, SVG Export Plug-In . SVG Version: 6.00 Build 0)  -->
<svg version="1.1" id="图层_1" xmlns="http://www.w3.org/2000/svg" xmlns:xlink="http://www.w3.org/1999/xlink" x="0px" y="0px"
	 viewBox="0 0 64 64" style="enable-background:new 0 0 64 64;" xml:space="preserve">
<style type="text/css">
	.st0{fill:#070001;}
</style>
<g>
	<path class="st0" d="M39.2,46.5c0.3-0.3,0.5-0.7,0.5-1.2c0-0.3-0.1-0.6-0.3-0.9c-0.2-0.3-0.4-0.4-0.7-0.5c-0.3-0.1-0.6-0.1-1.1-0.1
		h-2.2v3.1h2.2C38.3,46.9,38.9,46.8,39.2,46.5z"/>
	<path class="st0" d="M56,39V12c0-0.1,0-0.3,0-0.4c0-0.1,0-0.1-0.1-0.2c0-0.1,0-0.1-0.1-0.2c0-0.1-0.1-0.1-0.1-0.2s-0.1-0.1-0.1-0.2
		c-0.1-0.1-0.2-0.2-0.3-0.3l-10-10c-0.1-0.1-0.2-0.2-0.3-0.3l-0.1-0.1c-0.1,0-0.1-0.1-0.2-0.1s-0.1,0-0.2-0.1c-0.1,0-0.1,0-0.2-0.1
		c-0.1,0-0.3,0-0.4,0H10C8.9,0,8,0.9,8,2v37H5v16h3v7c0,1.1,0.9,2,2,2h44c1.1,0,2-0.9,2-2v-7h3V39H56z M52,60H12v-5h18.4h2.8H52V60z
		 M23.4,43.8v-1h6.2v1.1l-5.3,6.5h5.5v1H23v-1.1l5.3-6.5H23.4z M31.1,51.4v-8.6h1.1v8.6H31.1z M34.3,51.4v-8.6h3.2
		c0.7,0,1.3,0.1,1.8,0.2s0.9,0.4,1.1,0.8c0.2,0.4,0.4,1,0.4,1.5c0,0.9-0.3,1.5-0.8,2S38.7,48,37.6,48h-2.2v3.4H34.3z M52,39H33.1
		h-2.8H12V4h30v8c0,1.1,0.9,2,2,2h8V39z"/>
	<polygon class="st0" points="27.3,12 22,12 22,14.9 27.3,14.9 27.3,17.7 32.6,17.7 32.6,14.8 27.3,14.8 	"/>
	<rect x="22" y="17.7" class="st0" width="5.3" height="2.9"/>
	<rect x="27.3" y="20.6" class="st0" width="5.3" height="2.9"/>
	<polygon class="st0" points="22,26.3 22,31 32.6,31 32.6,26.3 27.3,26.3 27.3,23.5 22,23.5 	"/>
</g>
</svg>
