<?xml version="1.0" encoding="utf-8"?>
<!-- Generator: Adobe Illustrator 19.0.0, SVG Export Plug-In . SVG Version: 6.00 Build 0)  -->
<svg version="1.1" id="图层_1" xmlns="http://www.w3.org/2000/svg" xmlns:xlink="http://www.w3.org/1999/xlink" x="0px" y="0px"
	 viewBox="0 0 64 64" style="enable-background:new 0 0 64 64;" xml:space="preserve">
<style type="text/css">
	.st0{fill:#040000;}
</style>
<g id="XMLID_1971_">
	<path id="XMLID_1972_" class="st0" d="M56.4,11.3c-0.7-0.8-2-1-2.8-0.2c-0.8,0.7-1,2-0.2,2.8c4.4,5.1,6.7,11.7,6.7,18.4
		C59.8,47.7,47.2,60.1,31.7,60c-1.1-0.1-2.1,0.7-2.2,1.8c-0.1,1.1,0.7,2.1,1.8,2.2l0.3,0c7.7,0.1,15.2-2.6,21.1-7.6
		C66.2,44.9,67.8,24.7,56.4,11.3z"/>
	<path id="XMLID_2005_" class="st0" d="M4,31.7C4.1,16.2,16.8,3.8,32.3,4c0.9-0.1,1.6-0.8,1.8-1.7c0.1-1.1-0.6-2.1-1.7-2.2
		c-7.7-0.1-15.2,2.6-21.1,7.7c-13.4,11.5-15,31.6-3.6,45.1c0.3,0.4,0.7,0.6,1.2,0.7c0.6,0.1,1.2-0.1,1.6-0.4c0.8-0.7,0.9-2,0.2-2.8
		C6.3,45,3.9,38.5,4,31.7z"/>
	<path id="XMLID_2007_" class="st0" d="M53,33.8c0.2-1.1-0.5-2.1-1.6-2.3l-12.3-2.3l7.7-24.9c0.2-0.6,0.1-1.3-0.3-1.8
		c-0.7-0.9-1.9-1-2.8-0.3L12.3,26.8c-0.4,0.3-0.6,0.7-0.7,1.2c-0.2,1.1,0.5,2.1,1.6,2.3l12.3,2.3l-7.7,24.9c0,0.1,0,0.2-0.1,0.3
		c-0.2,1.1,0.5,2.1,1.6,2.3c0.6,0.1,1.1-0.1,1.6-0.4L52.3,35C52.7,34.7,52.9,34.2,53,33.8z"/>
</g>
</svg>
