<?xml version="1.0" encoding="utf-8"?>
<!-- Generator: Adobe Illustrator 19.0.0, SVG Export Plug-In . SVG Version: 6.00 Build 0)  -->
<svg version="1.1" id="图层_1" xmlns="http://www.w3.org/2000/svg" xmlns:xlink="http://www.w3.org/1999/xlink" x="0px" y="0px"
	 viewBox="0 0 64 64" style="enable-background:new 0 0 64 64;" xml:space="preserve">
<style type="text/css">
	.st0{fill:#040000;}
</style>
<path class="st0" d="M63,25.1c-1-1.3-2.7-2.1-4.7-2.1H18c-3.5,0-7,2.5-8,5.7L4,48.8V13c0-1.1,0.9-2,2-2h19l6.2,8H54c1.1,0,2-0.9,2-2
	s-0.9-2-2-2H32.8l-6.2-8H6c-3.3,0-6,2.7-6,6v38c0,3.3,2.7,6,6,6h2.3c0.2,0,0.5,0,0.7,0h40.3c3.5,0,7-2.5,8-5.7l6.5-21.6
	C64.3,28.1,64,26.4,63,25.1z M59.9,28.7l-6.5,21.6C53,51.8,51,53,49.3,53H45H9c-0.7,0-1.2-0.1-1.4-0.4c-0.3-0.4-0.2-0.9-0.1-1.2
	L14,29.8c0.5-1.5,2.4-2.9,4.1-2.9h40.3c0.7,0,1.2,0.2,1.4,0.5C60.1,27.9,60,28.4,59.9,28.7z"/>
</svg>
