<?xml version="1.0" encoding="utf-8"?>
<!-- Generator: Adobe Illustrator 19.0.0, SVG Export Plug-In . SVG Version: 6.00 Build 0)  -->
<svg version="1.1" id="图层_1" xmlns="http://www.w3.org/2000/svg" xmlns:xlink="http://www.w3.org/1999/xlink" x="0px" y="0px"
	 viewBox="0 0 64 64" style="enable-background:new 0 0 64 64;" xml:space="preserve">
<style type="text/css">
	.st0{fill:#040000;}
</style>
<path class="st0" d="M63,24.2c-1-1.3-2.7-2.1-4.7-2.1h-0.1H25h-7.1c-3.4,0-6.8,2.5-7.9,5.6l-1.8,6.2c-0.3,1.1-1.5,2-2.6,2
	S3.8,35,4,33.9l2.1-7.5c1.6-4.8,6.6-8.4,11.7-8.4H25h6.2H54c1.1,0,2-0.9,2-2s-0.9-2-2-2H32.8l-6.2-6H6c-3.3,0-6,2.7-6,6v36
	c0,3.3,2.7,6,6,6h2.3c0.2,0,0.5,0,0.7,0h40.3c3.5,0,7-2.5,8-5.7l6.5-21.6C64.3,27.2,64,25.5,63,24.2z"/>
</svg>
