<?xml version="1.0" encoding="utf-8"?>
<!-- Generator: Adobe Illustrator 19.0.0, SVG Export Plug-In . SVG Version: 6.00 Build 0)  -->
<svg version="1.1" id="图层_1" xmlns="http://www.w3.org/2000/svg" xmlns:xlink="http://www.w3.org/1999/xlink" x="0px" y="0px"
	 viewBox="0 0 64 64" style="enable-background:new 0 0 64 64;" xml:space="preserve">
<style type="text/css">
	.st0{fill:#040000;}
</style>
<path id="XMLID_8_" class="st0" d="M58,15H32.8l-6.2-8H6c-3.3,0-6,4.7-6,8v36c0,3.3,2.7,6,6,6h52c3.3,0,6-2.7,6-6V21
	C64,17.7,61.3,15,58,15z M60,51c0,1.1-0.9,2-2,2H6c-1.1,0-2-0.9-2-2V15c0-1.1,0.9-4,2-4h19l6.2,8H58c1.1,0,2,0.9,2,2V51z"/>
</svg>
