<?xml version="1.0" encoding="utf-8"?>
<!-- Generator: Adobe Illustrator 19.0.0, SVG Export Plug-In . SVG Version: 6.00 Build 0)  -->
<svg version="1.1" id="图层_1" xmlns="http://www.w3.org/2000/svg" xmlns:xlink="http://www.w3.org/1999/xlink" x="0px" y="0px"
	 viewBox="0 0 64 64" style="enable-background:new 0 0 64 64;" xml:space="preserve">
<style type="text/css">
	.st0{fill:#040000;}
</style>
<path id="XMLID_1273_" class="st0" d="M20.6,50.3h2.3c1.2,0,2.3,1,2.3,2.3c0,1.3-1,2.3-2.3,2.3h-9.2c-1.3,0-2.3-1-2.3-2.3l0,0
	c0-1.3,1-2.3,2.3-2.3H16V13.7H4.6V16c0,1.3-1,2.3-2.3,2.3S0,17.2,0,16v-4.5c0-0.6,0.2-1.2,0.7-1.6c0.4-0.4,1-0.7,1.6-0.7h32
	c1.3,0,2.3,1,2.3,2.3c0,0,0,0,0,0V16c0,1.3-1,2.3-2.3,2.3c-1.3,0-2.3-1-2.3-2.3v-2.3H20.6V50.3z M52.6,50.3h2.3c1.2,0,2.3,1,2.3,2.3
	c0,1.3-1,2.3-2.3,2.3h-9.2c-1.3,0-2.3-1-2.3-2.3l0,0c0-1.3,1-2.3,2.3-2.3H48V32h-6.9v2.3c0,1.3-1,2.3-2.3,2.3c-1.3,0-2.3-1-2.3-2.3
	v-4.5c0-0.6,0.2-1.2,0.7-1.6c0.4-0.4,1-0.7,1.6-0.7h22.9c1.3,0,2.3,1,2.3,2.3c0,0,0,0,0,0v4.5c0,1.3-1,2.3-2.3,2.3
	c-1.3,0-2.3-1-2.3-2.3V32h-6.9V50.3z"/>
</svg>
