<?xml version="1.0" encoding="utf-8"?>
<!-- Generator: Adobe Illustrator 19.0.0, SVG Export Plug-In . SVG Version: 6.00 Build 0)  -->
<svg version="1.1" id="图层_1" xmlns="http://www.w3.org/2000/svg" xmlns:xlink="http://www.w3.org/1999/xlink" x="0px" y="0px"
	 viewBox="0 0 64 64" style="enable-background:new 0 0 64 64;" xml:space="preserve">
<g>
	<path d="M26.7,39.8c0-0.1,0-0.1-0.1-0.2c0-0.1-0.1-0.1-0.1-0.2c0,0,0-0.1-0.1-0.1c-0.1-0.2-0.3-0.4-0.6-0.6c0,0-0.1-0.1-0.1-0.1
		c-0.1,0-0.1-0.1-0.2-0.1c-0.1,0-0.1,0-0.2-0.1c-0.1,0-0.1,0-0.2-0.1c-0.1,0-0.3,0-0.4,0c0,0,0,0,0,0H12.7c-1.1,0-2,0.9-2,2
		s0.9,2,2,2H20L8.5,53.9c-0.8,0.8-0.8,2,0,2.8c0.4,0.4,0.9,0.6,1.4,0.6s1-0.2,1.4-0.6l11.5-11.5v7.3c0,1.1,0.9,2,2,2s2-0.9,2-2V40.4
		c0-0.1,0-0.3,0-0.4C26.7,39.9,26.7,39.9,26.7,39.8z"/>
	<path d="M24.8,11.5c-1.1,0-2,0.9-2,2v7.3L11.3,9.3c-0.8-0.8-2-0.8-2.8,0c-0.8,0.8-0.8,2,0,2.8L20,23.6h-7.3c-1.1,0-2,0.9-2,2
		s0.9,2,2,2h12.1c0.1,0,0.3,0,0.4,0c0.1,0,0.1,0,0.2-0.1c0.1,0,0.1,0,0.2-0.1c0.1,0,0.1-0.1,0.2-0.1c0.1,0,0.1-0.1,0.2-0.1
		c0.2-0.1,0.4-0.3,0.6-0.6c0,0,0.1-0.1,0.1-0.2c0-0.1,0.1-0.1,0.1-0.2c0-0.1,0-0.1,0.1-0.2c0-0.1,0-0.1,0.1-0.2c0-0.1,0-0.3,0-0.4
		V13.5C26.8,12.4,25.9,11.5,24.8,11.5z"/>
	<path d="M44.4,42.4h7.3c1.1,0,2-0.9,2-2s-0.9-2-2-2H39.6c-0.1,0-0.3,0-0.4,0c-0.1,0-0.1,0-0.2,0.1c-0.1,0-0.1,0-0.2,0.1
		c-0.1,0-0.1,0.1-0.2,0.1c0,0-0.1,0-0.1,0.1c-0.2,0.1-0.4,0.3-0.6,0.6c0,0-0.1,0.1-0.1,0.1c0,0.1-0.1,0.1-0.1,0.2
		c0,0.1,0,0.1-0.1,0.2c0,0.1,0,0.1-0.1,0.2c0,0.1,0,0.3,0,0.4v12.1c0,1.1,0.9,2,2,2s2-0.9,2-2v-7.3l11.5,11.5
		c0.4,0.4,0.9,0.6,1.4,0.6s1-0.2,1.4-0.6c0.8-0.8,0.8-2,0-2.8L44.4,42.4z"/>
	<path d="M37.7,26.2c0,0.1,0,0.1,0.1,0.2c0,0.1,0.1,0.1,0.1,0.2c0,0.1,0.1,0.1,0.1,0.2c0.1,0.2,0.3,0.4,0.6,0.6c0,0,0.1,0.1,0.1,0.1
		c0.1,0,0.1,0.1,0.2,0.1c0.1,0,0.1,0,0.2,0.1c0.1,0,0.1,0,0.2,0.1c0.1,0,0.3,0,0.4,0h12.1c1.1,0,2-0.9,2-2s-0.9-2-2-2h-7.3
		l11.5-11.5c0.8-0.8,0.8-2,0-2.8c-0.8-0.8-2-0.8-2.8,0L41.6,20.8v-7.3c0-1.1-0.9-2-2-2s-2,0.9-2,2v12.1c0,0.1,0,0.3,0,0.4
		C37.7,26.1,37.7,26.1,37.7,26.2z"/>
</g>
</svg>
