<?xml version="1.0" encoding="utf-8"?>
<!-- Generator: Adobe Illustrator 19.0.0, SVG Export Plug-In . SVG Version: 6.00 Build 0)  -->
<svg version="1.1" id="图层_1" xmlns="http://www.w3.org/2000/svg" xmlns:xlink="http://www.w3.org/1999/xlink" x="0px" y="0px"
	 viewBox="0 0 64 64" style="enable-background:new 0 0 64 64;" xml:space="preserve">
<path d="M54.5,24.8c1.1,0,2-0.9,2-2V10.7c0-0.1,0-0.3,0-0.4c0-0.1,0-0.1-0.1-0.2c0-0.1,0-0.1-0.1-0.2c0-0.1-0.1-0.1-0.1-0.2
	c0-0.1-0.1-0.1-0.1-0.2C56,9.4,55.8,9.2,55.6,9c0,0-0.1-0.1-0.1-0.1c-0.1,0-0.1-0.1-0.2-0.1c-0.1,0-0.1,0-0.2-0.1
	c-0.1,0-0.1,0-0.2-0.1c-0.1,0-0.3,0-0.4,0H42.4c-1.1,0-2,0.9-2,2s0.9,2,2,2h7.3L32.2,30.2L14.7,12.7H22c1.1,0,2-0.9,2-2s-0.9-2-2-2
	H9.9c0,0,0,0,0,0c-0.1,0-0.3,0-0.4,0c-0.1,0-0.1,0-0.2,0c-0.1,0-0.1,0-0.2,0.1C9.1,8.9,9,8.9,9,8.9C8.9,9,8.8,9,8.8,9
	C8.6,9.2,8.4,9.4,8.2,9.6c0,0-0.1,0.1-0.1,0.2c0,0.1-0.1,0.1-0.1,0.2C8,10,8,10.1,8,10.1c0,0.1,0,0.1-0.1,0.2c0,0.1,0,0.3,0,0.4
	v12.1c0,1.1,0.9,2,2,2s2-0.9,2-2v-7.3L29.4,33L11.9,50.5v-7.3c0-1.1-0.9-2-2-2s-2,0.9-2,2v12.1c0,0.1,0,0.3,0,0.4
	c0,0.1,0,0.1,0.1,0.2c0,0.1,0,0.1,0.1,0.2c0,0.1,0.1,0.1,0.1,0.2c0,0,0,0.1,0.1,0.1c0.1,0.2,0.3,0.4,0.6,0.6c0,0,0.1,0.1,0.1,0.1
	c0.1,0,0.1,0.1,0.2,0.1c0.1,0,0.1,0,0.2,0.1c0.1,0,0.1,0,0.2,0.1c0.1,0,0.3,0,0.4,0H22c1.1,0,2-0.9,2-2s-0.9-2-2-2h-7.3l17.5-17.5
	l17.5,17.5h-7.3c-1.1,0-2,0.9-2,2s0.9,2,2,2h12.1c0.1,0,0.3,0,0.4,0c0.1,0,0.1,0,0.2-0.1c0.1,0,0.1,0,0.2-0.1c0.1,0,0.1-0.1,0.2-0.1
	c0,0,0.1,0,0.1-0.1c0.2-0.1,0.4-0.3,0.6-0.6c0,0,0.1-0.1,0.1-0.1c0-0.1,0.1-0.1,0.1-0.2c0-0.1,0-0.1,0.1-0.2c0-0.1,0-0.1,0.1-0.2
	c0-0.1,0-0.3,0-0.4V43.2c0-1.1-0.9-2-2-2s-2,0.9-2,2v7.3L35,33l17.5-17.5v7.3C52.5,23.9,53.4,24.8,54.5,24.8z"/>
</svg>
