<?xml version="1.0" encoding="utf-8"?>
<!-- Generator: Adobe Illustrator 19.0.0, SVG Export Plug-In . SVG Version: 6.00 Build 0)  -->
<svg version="1.1" id="图层_1" xmlns="http://www.w3.org/2000/svg" xmlns:xlink="http://www.w3.org/1999/xlink" x="0px" y="0px"
	 viewBox="0 0 64 64" style="enable-background:new 0 0 64 64;" xml:space="preserve">
<style type="text/css">
	.st0{fill:#040000;}
</style>
<path id="XMLID_1467_" class="st0" d="M57.8,11.9h-2.2c1.1-1.9,1.6-3.8,1.5-5.5C56.9,5,56.2,3,53.7,1.3c-2.1-1.4-4.7-1.7-7.6-1
	C41.3,1.6,35.7,5.7,32,10.7c-3.7-5-9.3-9.1-14.1-10.3c-2.9-0.7-5.6-0.4-7.6,1C7.8,3,7.1,5,7,6.4C6.8,8.1,7.3,10,8.4,11.9H6.2
	c-3.4,0-6.2,2.8-6.2,6.2V26c0,2.7,1.8,5.1,4.3,5.9C4.1,32.6,4,33.3,4,34v23.8c0,3.4,2.8,6.2,6.2,6.2h43.7c3.4,0,6.2-2.8,6.2-6.2
	L60,34c0-0.7-0.1-1.4-0.4-2.1c2.6-0.8,4.3-3.2,4.3-5.9v-7.9C64,14.7,61.2,11.9,57.8,11.9 M53.8,59.6H34.2V32.2h19.6
	c1,0,1.8,0.8,1.8,1.8v23.8C55.6,58.8,54.8,59.6,53.8,59.6 M36.6,11.9c3.1-3.6,7.2-6.4,10.6-7.3c1.7-0.4,3.1-0.3,4.2,0.4
	c1.1,0.7,1.3,1.4,1.3,1.8c0.2,1.8-1.7,4.1-2.6,5.1H36.6z M59.6,18.1V26c0,1-0.8,1.8-1.8,1.8H34.2V16.3h23.6
	C58.8,16.3,59.6,17.1,59.6,18.1 M29.8,32.2v27.4H10.2c-1,0-1.8-0.8-1.8-1.8V34c0-1,0.8-1.8,1.8-1.8L29.8,32.2z M11.3,6.8
	c0-0.5,0.2-1.1,1.3-1.8c1-0.7,2.4-0.8,4.2-0.4c3.3,0.8,7.4,3.7,10.5,7.3H14C13.1,11.1,11.2,8.7,11.3,6.8 M4.4,18.1
	c0-1,0.8-1.8,1.8-1.8h23.6v11.5H6.2c-1,0-1.8-0.8-1.8-1.8L4.4,18.1z"/>
</svg>
