<?xml version="1.0" encoding="utf-8"?>
<!-- Generator: Adobe Illustrator 19.0.0, SVG Export Plug-In . SVG Version: 6.00 Build 0)  -->
<svg version="1.1" id="图层_1" xmlns="http://www.w3.org/2000/svg" xmlns:xlink="http://www.w3.org/1999/xlink" x="0px" y="0px"
	 viewBox="0 0 64 64" style="enable-background:new 0 0 64 64;" xml:space="preserve">
<style type="text/css">
	.st0{fill:#040000;}
</style>
<path id="XMLID_2677_" class="st0" d="M32,0C14.3,0,0,14.3,0,32s14.3,32,32,32s32-14.3,32-32S49.7,0,32,0z M32,48.9
	c-1.6,0-2.9-1.3-2.9-2.9l0-0.1c0-1.6,1.3-2.9,2.9-2.9c1.6,0,2.9,1.3,2.9,2.9l0,0.1C34.8,47.6,33.6,48.9,32,48.9z M34.4,37.1v1.2
	c0,1.4-1.1,2.5-2.5,2.5c-1.4,0-2.5-1.1-2.5-2.5v-3.4c0-1.4,1.1-2.5,2.5-2.5h0v0c3.4,0,6.2-2.8,6.2-6.2c0-3.4-2.8-6.2-6.2-6.2
	c-3.4,0-6.2,2.8-6.2,6.2h0c0,1.3-1.1,2.4-2.5,2.4s-2.4-1.1-2.5-2.4c0,0,0,0,0,0v-0.1c0-6.1,5-11,11.1-11c6.1,0,11.1,5,11.1,11.1
	C43.1,31.6,39.4,36,34.4,37.1z"/>
</svg>
