<?xml version="1.0" encoding="utf-8"?>
<!-- Generator: Adobe Illustrator 19.0.0, SVG Export Plug-In . SVG Version: 6.00 Build 0)  -->
<svg version="1.1" id="图层_1" xmlns="http://www.w3.org/2000/svg" xmlns:xlink="http://www.w3.org/1999/xlink" x="0px" y="0px"
	 viewBox="0 0 64 64" style="enable-background:new 0 0 64 64;" xml:space="preserve">
<style type="text/css">
	.st0{fill:#040000;}
</style>
<g id="XMLID_671_">
	<path id="XMLID_687_" class="st0" d="M34.3,18.3c-1.3,0-2.3,1-2.3,2.3c0,1.3,1,2.3,2.3,2.3H48c1.3,0,2.3-1,2.3-2.3
		c0-1.3-1-2.3-2.3-2.3H34.3z"/>
	<path id="XMLID_691_" class="st0" d="M26.8,14.4C26.8,14.4,26.8,14.4,26.8,14.4c-0.9-0.9-2.3-0.9-3.2,0l0,0L15.9,22l-3-3
		c-0.9-0.9-2.2-0.9-3.1,0c-0.9,0.9-0.9,2.2,0,3.1l4.3,4.3c0.1,0.2,0.2,0.3,0.3,0.5c0.5,0.5,1.1,0.7,1.7,0.6c0.6,0,1.1-0.2,1.6-0.6
		c0.1-0.1,0.1-0.1,0.1-0.2l9-9C27.7,16.7,27.7,15.3,26.8,14.4z"/>
	<path id="XMLID_703_" class="st0" d="M23.6,30.4L15.9,38l-3-3c-0.9-0.9-2.2-0.9-3.1,0c-0.9,0.9-0.9,2.2,0,3.1l4.3,4.3
		c0.1,0.2,0.2,0.3,0.3,0.5c0.5,0.5,1.1,0.7,1.7,0.6c0.6,0,1.1-0.2,1.6-0.6c0.1-0.1,0.1-0.1,0.1-0.2l9-9c0.8-1,0.7-2.4-0.2-3.2
		C25.7,29.6,24.4,29.6,23.6,30.4z"/>
	<path id="XMLID_748_" class="st0" d="M45.7,27.4c-10.1,0-18.3,8.2-18.3,18.3c0,10.1,8.2,18.3,18.3,18.3C55.8,64,64,55.8,64,45.7
		C64,35.6,55.8,27.4,45.7,27.4z M52.6,48h-6.9c-1.3,0-2.3-1-2.3-2.3v-4.6c0-1.3,1-2.3,2.3-2.3c1.3,0,2.3,1,2.3,2.3v2.3h4.6
		c1.3,0,2.3,1,2.3,2.3C54.9,47,53.8,48,52.6,48z"/>
	<path id="XMLID_749_" class="st0" d="M27.5,59.4L27.5,59.4l-18.4,0c-2.5,0-4.6-2-4.6-4.6V9.1c0-2.5,2-4.6,4.6-4.6h41.1
		c2.5,0,4.6,2,4.6,4.6v15.5h0c0,1.3,1,2.3,2.3,2.3c1.3,0,2.3-1,2.3-2.3h0V9.1c0-5-4.1-9.1-9.1-9.1H9.1C4.1,0,0,4.1,0,9.1v45.7
		c0,5,4.1,9.1,9.1,9.1h18.4v0c1.2,0,2.2-1,2.2-2.3C29.8,60.5,28.8,59.5,27.5,59.4z"/>
</g>
</svg>
