<?xml version="1.0" encoding="utf-8"?>
<!-- Generator: Adobe Illustrator 19.0.0, SVG Export Plug-In . SVG Version: 6.00 Build 0)  -->
<svg version="1.1" id="图层_1" xmlns="http://www.w3.org/2000/svg" xmlns:xlink="http://www.w3.org/1999/xlink" x="0px" y="0px"
	 viewBox="0 0 64 64" style="enable-background:new 0 0 64 64;" xml:space="preserve">
<style type="text/css">
	.st0{fill:#040000;}
</style>
<path id="XMLID_311_" class="st0" d="M63.5,30.6L35,1.3C34.2,0.4,33.1,0,32,0c-1.1,0-2.2,0.4-3,1.3L0.5,30.6
	c-0.5,0.6-0.7,1.4-0.3,2.2C0.5,33.5,1.2,34,2,34h6v26c0,2.2,1.8,4,4,4h12V48c0-2.2,1.8-4,4-4h8c2.2,0,4,1.8,4,4v16h12
	c2.2,0,4-1.8,4-4V34h6c0.8,0,1.5-0.4,1.8-1.2C64.2,32.1,64,31.2,63.5,30.6z"/>
</svg>
