<?xml version="1.0" encoding="utf-8"?>
<!-- Generator: Adobe Illustrator 19.0.0, SVG Export Plug-In . SVG Version: 6.00 Build 0)  -->
<svg version="1.1" id="图层_1" xmlns="http://www.w3.org/2000/svg" xmlns:xlink="http://www.w3.org/1999/xlink" x="0px" y="0px"
	 viewBox="0 0 64 64" style="enable-background:new 0 0 64 64;" xml:space="preserve">
<style type="text/css">
	.st0{fill:#040000;}
	.st1{fill:#FFFFFF;}
</style>
<g id="XMLID_1162_">
	<path id="XMLID_1166_" class="st0" d="M58.2,16.1H5.8c-3.2,0-5.8,2.6-5.8,5.8v36.3c0,3.2,2.6,5.8,5.8,5.8h5.3h0.7h2.7
		c0,0,0.1,0,0.1,0c0,0,0.1,0,0.1,0c1.1,0,2-0.9,2-2c0-1.8,1.4-3.2,3.2-3.2c1.8,0,3.2,1.4,3.2,3.2c0,1.1,0.9,2,2,2c0.1,0,0.1,0,0.1,0
		c0,0,0.1,0,0.1,0h12.8c0.1,0,0.2,0,0.3,0c0.1,0,0.2,0,0.3,0c1.1,0,2-0.9,2-2c0-1.8,1.4-3.2,3.2-3.2s3.2,1.4,3.2,3.2
		c0,1.1,0.9,2,2,2c0.2,0,0.3,0,0.4-0.1c0.1,0,0.3,0.1,0.4,0.1h2h0.3h5.7c3.2,0,5.8-2.6,5.8-5.8V21.9C64,18.7,61.4,16.1,58.2,16.1z"
		/>
	<path id="XMLID_1930_" class="st0" d="M9.3,3.9h45.2c1.1,0,2-0.9,2-2s-0.9-2-2-2H9.3c-1.1,0-2,0.9-2,2S8.2,3.9,9.3,3.9z"/>
	<path id="XMLID_1924_" class="st1" d="M36.1,34.9H47c1.1,0,2-0.9,2-2c0-1.1-0.9-2-2-2H36.1c-1.1,0-2,0.9-2,2
		C34.1,34,35,34.9,36.1,34.9z"/>
	<path id="XMLID_1916_" class="st1" d="M51.6,41.3H36.1c-1.1,0-2,0.9-2,2s0.9,2,2,2h15.5c1.1,0,2-0.9,2-2S52.7,41.3,51.6,41.3z"/>
	<path id="XMLID_1659_" class="st1" d="M22.7,38.2c1.8-1,2.9-2.9,2.9-4.9c0-3.1-2.5-5.6-5.6-5.6s-5.6,2.5-5.6,5.6
		c0,2,1.1,3.9,2.9,4.9c-3.5,1.1-5.8,4.1-5.8,7.5c0,1.1,0.6,2,1.8,2.3c1,0.3,2.3,0.4,3.6,0.4H22c0.6,0,1.2,0,1.7,0
		c1.8,0,4.8,0,4.8-2.7C28.5,42.3,26.2,39.3,22.7,38.2z"/>
	<path id="XMLID_1165_" class="st0" d="M8.9,12h45.2c1.1,0,2-0.9,2-2s-0.9-2-2-2H8.9c-1.1,0-2,0.9-2,2S7.8,12,8.9,12z"/>
</g>
</svg>
