<?xml version="1.0" encoding="utf-8"?>
<!-- Generator: Adobe Illustrator 19.0.0, SVG Export Plug-In . SVG Version: 6.00 Build 0)  -->
<svg version="1.1" id="图层_1" xmlns="http://www.w3.org/2000/svg" xmlns:xlink="http://www.w3.org/1999/xlink" x="0px" y="0px"
	 viewBox="0 0 64 64" style="enable-background:new 0 0 64 64;" xml:space="preserve">
<style type="text/css">
	.st0{fill:#040000;}
</style>
<g id="XMLID_1141_">
	<path id="XMLID_1145_" class="st0" d="M56.9,7.1H7.1C3.2,7.1,0,10.3,0,14.2v35.6c0,3.9,3.2,7.1,7.1,7.1h49.8c3.9,0,7.1-3.2,7.1-7.1
		V14.2C64,10.3,60.8,7.1,56.9,7.1z M60.4,43.7L48,31.3L36.4,42.8L16.1,22.4L3.6,35V14.2c0-2,1.6-3.6,3.6-3.6h49.8
		c2,0,3.6,1.6,3.6,3.6V43.7z"/>
	<path id="XMLID_1142_" class="st0" d="M42.7,14.2c-3.9,0-7.1,3.2-7.1,7.1c0,3.9,3.2,7.1,7.1,7.1c3.9,0,7.1-3.2,7.1-7.1
		C49.8,17.4,46.6,14.2,42.7,14.2z"/>
</g>
</svg>
