<?xml version="1.0" encoding="utf-8"?>
<!-- Generator: Adobe Illustrator 19.0.0, SVG Export Plug-In . SVG Version: 6.00 Build 0)  -->
<svg version="1.1" id="图层_1" xmlns="http://www.w3.org/2000/svg" xmlns:xlink="http://www.w3.org/1999/xlink" x="0px" y="0px"
	 viewBox="0 0 64 64" style="enable-background:new 0 0 64 64;" xml:space="preserve">
<style type="text/css">
	.st0{fill:#040000;}
</style>
<g id="XMLID_1094_">
	<path id="XMLID_1131_" class="st0" d="M56.9,7.1H7.1C3.2,7.1,0,10.3,0,14.2v35.6c0,3.9,3.2,7.1,7.1,7.1h49.8c3.9,0,7.1-3.2,7.1-7.1
		V14.2C64,10.3,60.8,7.1,56.9,7.1z M7.1,53.3c-2,0-3.6-1.6-3.6-3.6V40l12.5-12.5l25.9,25.9H7.1z M60.4,49.8c0,2-1.6,3.5-3.6,3.5H47
		l-8-8l9-9l12.4,12.4V49.8z M60.4,43.7L48,31.3L36.4,42.8L16.1,22.4L3.6,35V14.2c0-2,1.6-3.6,3.6-3.6h49.8c2,0,3.6,1.6,3.6,3.6V43.7
		z"/>
	<path id="XMLID_1120_" class="st0" d="M42.7,14.2c-3.9,0-7.1,3.2-7.1,7.1c0,3.9,3.2,7.1,7.1,7.1c3.9,0,7.1-3.2,7.1-7.1
		C49.8,17.4,46.6,14.2,42.7,14.2z M42.7,24.9c-2,0-3.6-1.6-3.6-3.6c0-2,1.6-3.6,3.6-3.6c2,0,3.6,1.6,3.6,3.6
		C46.2,23.3,44.6,24.9,42.7,24.9z"/>
</g>
</svg>
