<?xml version="1.0" encoding="utf-8"?>
<!-- Generator: Adobe Illustrator 19.0.0, SVG Export Plug-In . SVG Version: 6.00 Build 0)  -->
<svg version="1.1" id="图层_1" xmlns="http://www.w3.org/2000/svg" xmlns:xlink="http://www.w3.org/1999/xlink" x="0px" y="0px"
	 viewBox="-393 309.3 64 64" style="enable-background:new -393 309.3 64 64;" xml:space="preserve">
<g>
	<path d="M-335.1,309.3H-387c-3.4,0-6.1,2.7-6.1,6.1v51.9c0,3.3,2.7,6,6.1,6h51.9c3.3,0,6.1-2.7,6.1-6.1v-51.8
		C-329,312-331.8,309.3-335.1,309.3z M-333,366c0,1.8-1.5,3.3-3.3,3.3h-49.4c-1.8,0-3.3-1.5-3.3-3.3v-15.3h15.6
		c1,6,6.2,10.7,12.5,10.7s11.5-4.6,12.5-10.7h15.5V366z M-333,346.7h-17.3c-1.1,0-2,0.9-2,2c0,4.8-3.9,8.7-8.7,8.7
		c-4.8,0-8.7-3.9-8.7-8.7c0-1.1-0.9-2-2-2H-389v-30.1c0-1.8,1.5-3.3,3.3-3.3h49.2c2,0,3.5,1.5,3.5,3.3V346.7z"/>
	<path d="M-347.2,319.8h-20.6c-1.1,0-2,0.9-2,2s0.9,2,2,2h20.7c1.1,0,2-0.9,2-2S-346.1,319.8-347.2,319.8z"/>
	<path d="M-376.3,320.4c-0.4,0.4-0.6,0.9-0.6,1.4c0,0.5,0.2,1,0.6,1.4c0.4,0.4,0.9,0.6,1.4,0.6c0.5,0,1-0.2,1.4-0.6
		c0.4-0.4,0.6-0.9,0.6-1.4c0-0.5-0.2-1-0.6-1.4C-374.3,319.6-375.6,319.6-376.3,320.4z"/>
	<path d="M-347.2,327.8h-20.6c-1.1,0-2,0.9-2,2s0.9,2,2,2h20.7c1.1,0,2-0.9,2-2S-346.1,327.8-347.2,327.8z"/>
	<path d="M-376.3,328.4c-0.4,0.4-0.6,0.9-0.6,1.4c0,0.5,0.2,1,0.6,1.4c0.4,0.4,0.9,0.6,1.4,0.6c0.5,0,1-0.2,1.4-0.6
		c0.4-0.4,0.6-0.9,0.6-1.4s-0.2-1-0.6-1.4C-374.3,327.6-375.6,327.6-376.3,328.4z"/>
	<path d="M-347.2,335.8h-20.6c-1.1,0-2,0.9-2,2s0.9,2,2,2h20.7c1.1,0,2-0.9,2-2S-346.1,335.8-347.2,335.8z"/>
	<path d="M-376.3,336.4c-0.4,0.4-0.6,0.9-0.6,1.4c0,0.5,0.2,1,0.6,1.4c0.4,0.4,0.9,0.6,1.4,0.6s1-0.2,1.4-0.6
		c0.4-0.4,0.6-0.9,0.6-1.4c0-0.5-0.2-1-0.6-1.4C-374.3,335.6-375.6,335.6-376.3,336.4z"/>
</g>
</svg>
