<?xml version="1.0" encoding="utf-8"?>
<!-- Generator: Adobe Illustrator 19.0.0, SVG Export Plug-In . SVG Version: 6.00 Build 0)  -->
<svg version="1.1" id="图层_1" xmlns="http://www.w3.org/2000/svg" xmlns:xlink="http://www.w3.org/1999/xlink" x="0px" y="0px"
	 viewBox="-393 309.3 64 64" style="enable-background:new -393 309.3 64 64;" xml:space="preserve">
<style type="text/css">
	.st0{fill:#070001;}
</style>
<g>
	<path class="st0" d="M-335.1,309.3H-387c-3.4,0-6.1,2.7-6.1,6.1v51.9c0,3.3,2.7,6,6.1,6h51.9c3.3,0,6.1-2.7,6.1-6.1v-51.8
		C-329,312-331.8,309.3-335.1,309.3z M-333,366c0,1.8-1.5,3.3-3.3,3.3h-49.4c-1.8,0-3.3-1.5-3.3-3.3v-15.3h15.6
		c1,6,6.2,10.7,12.5,10.7s11.5-4.6,12.5-10.7h15.5V366z M-333,346.7h-17.3c-1.1,0-2,0.9-2,2c0,4.8-3.9,8.7-8.7,8.7
		c-4.8,0-8.7-3.9-8.7-8.7c0-1.1-0.9-2-2-2H-389v-30.1c0-1.8,1.5-3.3,3.3-3.3h49.2c2,0,3.5,1.5,3.5,3.3V346.7z"/>
	<path class="st0" d="M-358.7,329.7c1.4-0.8,2.3-2.3,2.3-4c0-2.5-2.1-4.6-4.6-4.6c-2.5,0-4.6,2.1-4.6,4.6c0,1.7,0.9,3.2,2.3,4
		c-2.8,0.9-4.8,3.3-4.8,6.2c0,0.9,0.5,1.6,1.5,1.9c0.8,0.3,1.9,0.3,2.9,0.3h4.3c0.5,0,1,0,1.4,0c1.5,0,3.9,0,3.9-2.2
		C-354,333-355.9,330.5-358.7,329.7z"/>
</g>
</svg>
