<?xml version="1.0" encoding="utf-8"?>
<!-- Generator: Adobe Illustrator 19.0.0, SVG Export Plug-In . SVG Version: 6.00 Build 0)  -->
<svg version="1.1" id="图层_1" xmlns="http://www.w3.org/2000/svg" xmlns:xlink="http://www.w3.org/1999/xlink" x="0px" y="0px"
	 viewBox="0 0 64 64" style="enable-background:new 0 0 64 64;" xml:space="preserve">
<style type="text/css">
	.st0{fill:#040000;}
</style>
<path id="XMLID_362_" class="st0" d="M62.1,25.5c-1.6-2-4.1-3.2-6.7-3.2H40.3c0.8-2.3,1.4-4.7,1.6-7.1c0.3-3.7-0.3-7-1.7-9.5
	c-1.7-3.1-4.6-5-8.4-5.6c-1.7-0.3-3.2,0.1-4.4,1C25,2.9,24.5,6.3,24,10.3c-0.4,3.2-0.9,6.8-2.5,9.4c-1,1.7-3.1,4-8.7,4H7
	c-3.9,0-7,3.1-7,7V57c0,3.8,3.2,7,7,7h42.5c1.9,0,3.8-0.7,5.4-1.8c1.5-1.2,2.6-2.9,3-4.7l5.8-24.7C64.4,30.2,63.8,27.5,62.1,25.5
	L62.1,25.5z M59.2,31.7l-5.8,24.7c-0.4,1.8-2,3-3.8,3H16.7V28.1c4-0.7,7-2.7,8.9-6c2.1-3.4,2.6-7.6,3.1-11.2
	c0.2-1.6,0.4-3.2,0.7-4.4c0.3-1.3,0.7-1.7,0.8-1.8c0.2-0.1,0.5-0.1,0.9-0.1c2.4,0.3,4,1.4,5,3.2c2.1,3.7,1.2,10.1-0.8,14.4
	c-0.5,1-0.4,2.2,0.2,3.2c0.6,0.9,1.7,1.5,2.8,1.5h17.1c1.2,0,2.3,0.5,3.1,1.5C59.2,29.3,59.5,30.5,59.2,31.7L59.2,31.7z"/>
</svg>
