<?xml version="1.0" encoding="utf-8"?>
<!-- Generator: Adobe Illustrator 19.0.0, SVG Export Plug-In . SVG Version: 6.00 Build 0)  -->
<svg version="1.1" id="图层_1" xmlns="http://www.w3.org/2000/svg" xmlns:xlink="http://www.w3.org/1999/xlink" x="0px" y="0px"
	 viewBox="0 0 64 64" style="enable-background:new 0 0 64 64;" xml:space="preserve">
<style type="text/css">
	.st0{fill:#040000;}
</style>
<g id="XMLID_1552_">
	<path id="XMLID_1556_" class="st0" d="M44.9,49.1c-0.8-0.8-0.8-2.1,0-2.8L57.2,34H24.7c-1.1,0-2-0.9-2-2c0-1.1,0.9-2,2-2h32.4
		L44.9,17.7c-0.8-0.8-0.8-2.1,0-2.8c0.8-0.8,2.1-0.8,2.8,0l15.7,15.7c0.2,0.2,0.3,0.4,0.4,0.6c0,0,0,0,0,0.1c0,0.1,0.1,0.2,0.1,0.3
		c0,0,0,0.1,0,0.1c0,0.1,0,0.2,0,0.4c0,0,0,0,0,0l0,0c0,0.1,0,0.3,0,0.4c0,0,0,0,0,0c-0.1,0.4-0.3,0.7-0.5,1L47.7,49.1
		C46.9,49.9,45.7,49.9,44.9,49.1z"/>
	<path id="XMLID_1553_" class="st0" d="M64,6.1v8.2h0c0,0,0,0,0,0c0,1.1-0.9,2-2,2c-1.1,0-2-0.9-2-2c0,0,0,0,0,0h0v-7
		C60,5.5,58.5,4,56.7,4H7.3C5.5,4,4,5.5,4,7.3v49.4C4,58.5,5.5,60,7.3,60h49.4c1.8,0,3.3-1.5,3.3-3.3v-7h0c0,0,0,0,0,0
		c0-1.1,0.9-2,2-2c1.1,0,2,0.9,2,2c0,0,0,0,0,0h0v8.2c0,3.3-2.7,6.1-6.1,6.1H6.1C2.7,64,0,61.3,0,57.9L0,6.1C0,2.7,2.7,0,6.1,0
		l51.9,0C61.3,0,64,2.7,64,6.1z"/>
</g>
</svg>
