<?xml version="1.0" encoding="utf-8"?>
<!-- Generator: Adobe Illustrator 19.0.0, SVG Export Plug-In . SVG Version: 6.00 Build 0)  -->
<svg version="1.1" id="图层_1" xmlns="http://www.w3.org/2000/svg" xmlns:xlink="http://www.w3.org/1999/xlink" x="0px" y="0px"
	 viewBox="0 0 64 64" style="enable-background:new 0 0 64 64;" xml:space="preserve">
<style type="text/css">
	.st0{fill:#040000;}
</style>
<g id="XMLID_1383_">
	<path id="XMLID_1388_" class="st0" d="M30.2,53.1c0.5,0.5,1.1,0.8,1.8,0.8c0.7,0,1.4-0.3,1.8-0.8c0.6-0.7,1.2-1.4,1.9-2.2
		c7.3-8.3,17.5-19.1,17.5-29.3c0-11.6-9.5-21.1-21.1-21.1c-11.6,0-21.1,9.5-21.1,21.1c0,10,9.7,20.7,16.8,28.8
		C28.7,51.4,29.5,52.3,30.2,53.1z M32.1,3.7c9.7,0,17.6,7.9,17.6,17.6c0,12.1-12.5,22-17.6,28.6C27,43.5,14.5,33.2,14.5,21.2
		C14.5,11.5,22.4,3.7,32.1,3.7z"/>
	<path id="XMLID_1387_" class="st0" d="M63.9,61.1l-8.1-18.6c-0.3-0.6-0.8-1-1.5-1h-6c-0.9,0-1.6,0.7-1.6,1.6c0,0.9,0.7,1.6,1.6,1.6
		h5l6.7,15.3H4.2l7.4-15.3h4.2c0.9,0,1.6-0.7,1.6-1.6c0-0.9-0.7-1.6-1.6-1.6h-5.2c-0.6,0-1.2,0.3-1.5,0.9l-9,18.6
		c-0.3,0.5-0.2,1.1,0.1,1.6c0.3,0.5,0.8,0.8,1.4,0.8h60.8c0.6,0,1.1-0.3,1.3-0.7C64,62.2,64.1,61.7,63.9,61.1z"/>
	<path id="XMLID_1384_" class="st0" d="M40.2,19.6c0-4.5-3.6-8.1-8.1-8.1S24,15.2,24,19.6s3.6,8.1,8.1,8.1S40.2,24.1,40.2,19.6z
		 M32.1,24.5c-2.7,0-4.9-2.2-4.9-4.9c0-2.7,2.2-4.9,4.9-4.9s4.9,2.2,4.9,4.9C37,22.3,34.8,24.5,32.1,24.5z"/>
</g>
</svg>
