<?xml version="1.0" encoding="utf-8"?>
<!-- Generator: Adobe Illustrator 19.0.0, SVG Export Plug-In . SVG Version: 6.00 Build 0)  -->
<svg version="1.1" id="图层_1" xmlns="http://www.w3.org/2000/svg" xmlns:xlink="http://www.w3.org/1999/xlink" x="0px" y="0px"
	 viewBox="0 0 64 64" style="enable-background:new 0 0 64 64;" xml:space="preserve">
<style type="text/css">
	.st0{fill:#040000;}
</style>
<path id="XMLID_1412_" class="st0" d="M32,64L32,64c-1.2,0-2.2-0.5-3-1.3C28.4,62.1,23,56.3,17.5,49C10.2,39.1,6.4,31.2,6.4,25.6
	C6.4,11.5,17.9,0,32,0c14.1,0,25.6,11.5,25.6,25.6c0,3.4-1.3,7.6-3.9,12.5c-2.5,4.7-6.3,10.1-11.2,16.1l0,0l-7.3,8.4
	C34.3,63.5,33.2,64,32,64L32,64z M32,3.8c-12,0-21.7,9.7-21.7,21.7c0,4.7,3.6,12.1,10.3,21.1c5.4,7.3,11,13.1,11.2,13.4
	c0,0,0.1,0.1,0.2,0.1h0c0,0,0.1,0,0.1-0.1l7.3-8.4c4.8-5.8,8.4-11,10.8-15.5c2.3-4.3,3.5-7.9,3.5-10.6C53.7,13.6,44,3.8,32,3.8
	L32,3.8z M32,37.5c-6.6,0-12-5.4-12-12c0-6.6,5.4-12,12-12s12,5.4,12,12C44,32.2,38.6,37.5,32,37.5z M32,17.4
	c-4.5,0-8.1,3.6-8.1,8.1s3.6,8.1,8.1,8.1c4.5,0,8.1-3.6,8.1-8.1S36.5,17.4,32,17.4L32,17.4z"/>
</svg>
