<?xml version="1.0" encoding="utf-8"?>
<!-- Generator: Adobe Illustrator 19.0.0, SVG Export Plug-In . SVG Version: 6.00 Build 0)  -->
<svg version="1.1" id="图层_1" xmlns="http://www.w3.org/2000/svg" xmlns:xlink="http://www.w3.org/1999/xlink" x="0px" y="0px"
	 viewBox="0 0 64 64" style="enable-background:new 0 0 64 64;" xml:space="preserve">
<g id="XMLID_30_">
	<path id="XMLID_56_" d="M9.5,13.7h45c1.1,0,2-0.9,2-2s-0.9-2-2-2h-45c-1.1,0-2,0.9-2,2S8.4,13.7,9.5,13.7z"/>
	<path id="XMLID_57_" d="M54.5,30h-45c-1.1,0-2,0.9-2,2s0.9,2,2,2h45c1.1,0,2-0.9,2-2S55.6,30,54.5,30z"/>
	<path id="XMLID_58_" d="M54.5,50.3h-45c-1.1,0-2,0.9-2,2s0.9,2,2,2h45c1.1,0,2-0.9,2-2S55.6,50.3,54.5,50.3z"/>
</g>
</svg>
