<?xml version="1.0" encoding="utf-8"?>
<!-- Generator: Adobe Illustrator 19.0.0, SVG Export Plug-In . SVG Version: 6.00 Build 0)  -->
<svg version="1.1" id="图层_1" xmlns="http://www.w3.org/2000/svg" xmlns:xlink="http://www.w3.org/1999/xlink" x="0px" y="0px"
	 viewBox="0 0 64 64" style="enable-background:new 0 0 64 64;" xml:space="preserve">
<style type="text/css">
	.st0{fill:#040000;}
</style>
<path id="XMLID_1134_" class="st0" d="M48,24c-1.1,0-2,0.4-2.8,1.2C44.4,26,44,26.9,44,28s0.4,2,1.2,2.8C46,31.6,46.9,32,48,32
	s2-0.4,2.8-1.2C51.6,30,52,29.1,52,28s-0.4-2-1.2-2.8C50,24.4,49.1,24,48,24z M32,52.3c-2.2,0-4.5-0.3-6.9-0.8l-9.6,5.8l0.1-9.5
	C12,45.7,9,42.8,6.8,39.3S3.6,32,3.6,28c0-4.4,1.3-8.5,3.8-12.2s6-6.7,10.4-8.9S26.8,3.6,32,3.6c7.9,0,14.6,2.4,20.1,7.1
	c5.5,4.8,8.3,10.5,8.3,17.2c0,6.7-2.8,12.5-8.3,17.2S39.9,52.3,32,52.3L32,52.3z M32,0c-5.8,0-11.1,1.3-16.1,3.8S7.1,9.6,4.3,13.9
	S0,22.9,0,28c0,4.3,1.1,8.4,3.2,12.2s5.1,7,8.8,9.6V64l14-8.5c2,0.3,4,0.5,6,0.5c5.8,0,11.1-1.3,16.1-3.8s8.8-5.9,11.7-10.2
	c2.9-4.3,4.3-9,4.3-14.1s-1.4-9.8-4.3-14.1S53,6.3,48.1,3.8S37.8,0,32,0z M16,24c-1.1,0-2,0.4-2.8,1.2C12.4,26,12,26.9,12,28
	s0.4,2,1.2,2.8C14,31.6,14.9,32,16,32s2-0.4,2.8-1.2C19.6,30,20,29.1,20,28s-0.4-2-1.2-2.8C18,24.4,17.1,24,16,24z M32,24
	c-1.1,0-2,0.4-2.8,1.2C28.4,26,28,26.9,28,28s0.4,2,1.2,2.8C30,31.6,30.9,32,32,32s2-0.4,2.8-1.2C35.6,30,36,29.1,36,28
	s-0.4-2-1.2-2.8C34,24.4,33.1,24,32,24z"/>
</svg>
