<?xml version="1.0" encoding="utf-8"?>
<!-- Generator: Adobe Illustrator 19.0.0, SVG Export Plug-In . SVG Version: 6.00 Build 0)  -->
<svg version="1.1" id="图层_1" xmlns="http://www.w3.org/2000/svg" xmlns:xlink="http://www.w3.org/1999/xlink" x="0px" y="0px"
	 viewBox="0 0 64 64" style="enable-background:new 0 0 64 64;" xml:space="preserve">
<style type="text/css">
	.st0{fill:#040000;}
</style>
<path id="XMLID_959_" class="st0" d="M46.1,29.4c-1.3,0-2.6,0.2-3.9,0.5l-3.8-10.4c2.6-1.4,4.6-4,5.2-7l5.7,0.2
	c0.5,3,3.1,5.2,6.3,5.2c3.5,0,6.4-2.9,6.4-6.4s-2.9-6.4-6.4-6.4c-2.8,0-5.2,1.8-6,4.4l-5.7-0.2C43.2,4.1,38.8,0,33.4,0
	C27.7,0,23,4.7,23,10.4c0,5.7,4.7,10.4,10.4,10.4c0.7,0,1.4-0.1,2-0.2L39.2,31c-5.3,2.6-9,8-9,14.3c0,0.6,0,1.2,0.1,1.8L25,48.2
	c-1.6-4.6-6-7.9-11.1-7.9c-6.5,0-11.8,5.3-11.8,11.8S7.4,64,13.9,64c6.5,0,11.8-5.3,11.8-11.8c0-0.3,0-0.6,0-0.9l5.3-1.2
	c2.1,6.4,8,11,15.1,11c8.7,0,15.9-7.1,15.9-15.9C61.9,36.5,54.8,29.4,46.1,29.4z M55.6,9.3c1.2,0,2.2,1,2.2,2.2s-1,2.2-2.2,2.2
	c-1.2,0-2.2-1-2.2-2.2S54.3,9.3,55.6,9.3z M27.2,10.4c0-3.5,2.8-6.3,6.3-6.3c3.5,0,6.3,2.8,6.3,6.3c0,3.5-2.8,6.3-6.3,6.3
	C30,16.7,27.2,13.9,27.2,10.4z M13.9,59.9c-4.2,0-7.7-3.5-7.7-7.7s3.5-7.7,7.7-7.7c4.2,0,7.7,3.5,7.7,7.7S18.1,59.9,13.9,59.9z
	 M46.1,57c-6.5,0-11.7-5.3-11.7-11.7c0-6.5,5.3-11.7,11.7-11.7c6.5,0,11.7,5.3,11.7,11.7C57.8,51.7,52.6,57,46.1,57z"/>
</svg>
