<?xml version="1.0" encoding="utf-8"?>
<!-- Generator: Adobe Illustrator 19.0.0, SVG Export Plug-In . SVG Version: 6.00 Build 0)  -->
<svg version="1.1" id="图层_1" xmlns="http://www.w3.org/2000/svg" xmlns:xlink="http://www.w3.org/1999/xlink" x="0px" y="0px"
	 viewBox="0 0 64 64" style="enable-background:new 0 0 64 64;" xml:space="preserve">
<g id="组_84" transform="translate(0 4.161)">
	<path id="i-体动" d="M60,18.5c0-4.3-3.5-7.9-7.9-7.9c-4.3,0-7.9,3.5-7.9,7.9c0,4.2,3.3,7.7,7.5,7.9c0,0.4-0.1,1-0.1,1.5
		l-10.2,2.2c-6-4.5-14.5-3.5-19.3,2.3c-3.9,4.7-10.9,5.4-15.7,1.5c-0.6-0.5-1.5-0.5-2,0.1c-0.5,0.6-0.5,1.5,0.1,2c0,0,0,0,0,0l0,0
		c6,4.9,14.8,4.1,19.8-1.9c0,0,0,0,0,0c3.9-4.8,10.9-5.4,15.7-1.5c0.3,0.3,0.6,0.4,1,0.4l0,0h0.1c0.1,0,0.2,0,0.3-0.1l9.9-2.1
		c-0.2,2.8-0.8,5.5-1.7,8.2c-1.3,2.9-3.2,2.9-5.5,1c-2-1.6-5.7-6.9-11.2-7.3c-5-0.4-10.1,6.3-12.7,9.9l0,0c-0.5,0.6-0.3,1.5,0.3,2
		c0.6,0.5,1.5,0.3,2-0.3c0-0.1,0.1-0.1,0.1-0.2l0,0c0.8-1.4,5.7-8.6,9.9-8.6c3.7,0,7.6,4.5,9.8,6.8c2.1,2.3,5.7,2.5,8,0.4
		c0.6-0.5,1-1.1,1.3-1.8c1.9-3.7,2.6-12.3,2.7-14.9C57.7,25.1,60,22,60,18.5z M52.1,23.5c-2.8,0-5-2.2-5-5c0-2.8,2.2-5,5-5
		c2.8,0,5,2.2,5,5C57.1,21.3,54.9,23.5,52.1,23.5C52.1,23.5,52.1,23.5,52.1,23.5z"/>
</g>
</svg>
