<?xml version="1.0" encoding="utf-8"?>
<!-- Generator: Adobe Illustrator 19.0.0, SVG Export Plug-In . SVG Version: 6.00 Build 0)  -->
<svg version="1.1" id="图层_1" xmlns="http://www.w3.org/2000/svg" xmlns:xlink="http://www.w3.org/1999/xlink" x="0px" y="0px"
	 viewBox="0 0 64 64" style="enable-background:new 0 0 64 64;" xml:space="preserve">
<style type="text/css">
	.st0{fill:#040000;}
</style>
<path class="st0" d="M56,5.5H8C7.2,5.5,6.5,6.2,6.5,7v50c0,0.8,0.7,1.5,1.5,1.5h48c0.8,0,1.5-0.7,1.5-1.5V7
	C57.5,6.2,56.8,5.5,56,5.5z M32,28.9c-7.7,0-14-6.2-14-14c0-0.8,0.7-1.5,1.5-1.5s1.5,0.7,1.5,1.5c0,6.1,4.9,11,11,11s11-4.9,11-11
	c0-0.8,0.7-1.5,1.5-1.5s1.5,0.7,1.5,1.5C46,22.6,39.7,28.9,32,28.9z"/>
</svg>
