<?xml version="1.0" encoding="utf-8"?>
<!-- Generator: Adobe Illustrator 19.0.0, SVG Export Plug-In . SVG Version: 6.00 Build 0)  -->
<svg version="1.1" id="图层_1" xmlns="http://www.w3.org/2000/svg" xmlns:xlink="http://www.w3.org/1999/xlink" x="0px" y="0px"
	 viewBox="0 0 64 64" style="enable-background:new 0 0 64 64;" xml:space="preserve">
<g>
	<path d="M27.8,29.1c0-0.8-0.7-1.5-1.5-1.5h-9.2c-0.8,0-1.5,0.7-1.5,1.5s0.7,1.5,1.5,1.5h9.2C27.1,30.6,27.8,29.9,27.8,29.1z"/>
	<path d="M37.7,30.6h9.2c0.8,0,1.5-0.7,1.5-1.5s-0.7-1.5-1.5-1.5h-9.2c-0.8,0-1.5,0.7-1.5,1.5S36.9,30.6,37.7,30.6z"/>
	<path d="M32.3,43.3c-0.1,0-0.2,0-0.3,0c-0.1,0-0.2,0-0.3,0c-0.1,0-0.2,0-0.3-0.1c-0.3-0.1-0.6-0.2-0.9-0.3c-0.7-0.4-1.2-1-1.4-1.8
		c-0.2-0.8-1-1.3-1.8-1.1c-0.8,0.2-1.3,1-1.1,1.8c0.4,1.5,1.4,2.8,2.8,3.6C30,46,31,46.3,32,46.3c0.3,0,0.6,0,0.9-0.1
		c0.1,0,0.2,0,0.3-0.1c0.1,0,0.3,0,0.4-0.1c0.1,0,0.1,0,0.2-0.1c1.9-0.6,3.5-2.1,4-4.1c0.2-0.8-0.3-1.6-1.1-1.8
		c-0.8-0.2-1.6,0.3-1.8,1.1c-0.3,1.1-1.2,1.9-2.2,2.1C32.5,43.2,32.4,43.2,32.3,43.3z"/>
	<path d="M44,16c0,0.1,0,0.1,0,0.2c0,0,0,0.1,0,0.1c0,0,0,0.1,0,0.1c0,0,0,0.1,0.1,0.1c0,0,0,0.1,0.1,0.1c0,0,0.1,0.1,0.1,0.1
		c0,0,0,0,0,0.1c0,0,0,0,0,0c0,0,0.1,0.1,0.1,0.1c0,0,0.1,0.1,0.1,0.1c0.1,0,0.1,0.1,0.2,0.1c0,0,0.1,0,0.1,0.1
		c0.1,0,0.2,0.1,0.2,0.1c0,0,0,0,0.1,0c0.1,0,0.2,0,0.3,0h13.8c0.8,0,1.5-0.7,1.5-1.5s-0.7-1.5-1.5-1.5h-9.7l9.9-8.5c0,0,0,0,0,0
		c0,0,0.1-0.1,0.1-0.1c0,0,0.1-0.1,0.1-0.1c0,0,0.1-0.1,0.1-0.1c0,0,0.1-0.1,0.1-0.1c0,0,0-0.1,0-0.1c0,0,0-0.1,0-0.1
		c0,0,0-0.1,0-0.1c0-0.1,0-0.1,0-0.2c0,0,0,0,0-0.1c0,0,0-0.1,0-0.1c0-0.1,0-0.1,0-0.2c0,0,0-0.1,0-0.1c0,0,0-0.1,0-0.1
		c0,0,0-0.1-0.1-0.1c0,0,0-0.1-0.1-0.1c0,0-0.1-0.1-0.1-0.1c0,0,0,0,0-0.1c0,0,0,0,0,0c0,0-0.1-0.1-0.1-0.1c0,0-0.1-0.1-0.1-0.1
		c0,0-0.1-0.1-0.1-0.1c0,0-0.1,0-0.1-0.1c0,0-0.1,0-0.1-0.1c0,0-0.1,0-0.1,0c0,0-0.1,0-0.1,0c-0.1,0-0.1,0-0.2,0c0,0,0,0-0.1,0h-13
		C44.6,3.3,44,4,44,4.8s0.7,1.5,1.5,1.5h8.9l-9.9,8.5c0,0,0,0,0,0c0,0-0.1,0.1-0.1,0.1c0,0-0.1,0.1-0.1,0.1c0,0-0.1,0.1-0.1,0.1
		c0,0-0.1,0.1-0.1,0.1c0,0,0,0.1,0,0.1c0,0,0,0.1,0,0.1c0,0,0,0.1,0,0.1c0,0.1,0,0.1,0,0.2C44,15.9,44,15.9,44,16
		C44,15.9,44,16,44,16z"/>
	<path d="M59.2,30.5c-0.8,0-1.5,0.7-1.5,1.5c0,14.2-11.5,25.7-25.7,25.7S6.3,46.2,6.3,32S17.8,6.3,32,6.3c0.8,0,1.5-0.7,1.5-1.5
		S32.8,3.3,32,3.3C16.2,3.3,3.3,16.2,3.3,32S16.2,60.7,32,60.7S60.7,47.8,60.7,32C60.7,31.2,60,30.5,59.2,30.5z"/>
</g>
</svg>
