<?xml version="1.0" encoding="utf-8"?>
<!-- Generator: Adobe Illustrator 19.0.0, SVG Export Plug-In . SVG Version: 6.00 Build 0)  -->
<svg version="1.1" id="图层_1" xmlns="http://www.w3.org/2000/svg" xmlns:xlink="http://www.w3.org/1999/xlink" x="0px" y="0px"
	 viewBox="0 0 64 64" style="enable-background:new 0 0 64 64;" xml:space="preserve">
<g id="组_81" transform="translate(0.059 1.704)">
	<path id="_006肺癌" d="M27.7,3.7c-0.1-0.6,0.3-1.2,0.9-1.3c0.6-0.1,1.2,0.3,1.3,0.9c0,0.1,0,0.2,0,0.3c0.6,6,0.8,12.1,0.8,18.1
		c-3,4.5-7.5,7.9-12.7,9.6c-1.8,0.6-2.1-1.6-0.8-2c3.2-1.2,6.1-2.9,8.5-5.2l-0.9-8.1c-0.3-3.3-3.9-3.6-7-0.5
		C7.8,26,4.3,39.3,7.8,54.5c0.6,2.2,2.5,2.4,5.6,0.5c10.5-0.2,15.2-2.2,14.6-6.4L26.4,32c-2.6,1.7-5.5,3.1-8.5,4
		c-1.8,0.6-2.4-1.3-0.7-2c4.9-1.7,9.5-4.3,13.4-7.8c0.6-0.7,1.6-0.8,2.3-0.2c0.1,0,0.1,0.1,0.2,0.2c3.9,3.4,8.5,6.1,13.4,7.8
		c1.7,0.6,1,2.6-0.7,2c-3-1-5.9-2.3-8.5-4l-1.6,16.5c-0.6,4,4.2,6.2,14.6,6.4c3.1,1.9,5.2,1.7,5.6-0.5c3.5-15.2,0-28.4-10.1-39.1
		c-2.9-3.1-6.6-2.8-7,0.5l-0.9,8.1c2.5,2.3,5.4,4,8.5,5.2c1.3,0.6,1.1,2.7-0.8,2c-5.2-1.7-9.7-5-12.7-9.6c-0.1-6,0.2-12.1,0.8-18.1
		c0-0.6,0.5-1.1,1.1-1.1c0.6,0,1.1,0.5,1.1,1.1c0,0.1,0,0.1,0,0.2c-0.6,5.7-0.9,11.5-0.7,17.2l0.7,1l0.6-6.1
		c0.5-4.6,5.6-6.3,9.4-3.1c8.5,7.1,16.6,23.5,12.1,41.8c-1,4-3.8,4.8-8.5,2.6c-11.6-0.1-16.7-3.1-16.1-8.9l1.7-17.4
		c-1.2-0.7-2.3-1.6-3.3-2.7c-1,1-2.1,1.9-3.2,2.7l1.7,17.4C31,54,25.8,56.9,14.3,57c-4.7,2.2-7.6,1.5-8.5-2.6
		C1.3,36.1,9.4,19.6,17.9,12.6c3.8-3.1,9-1.6,9.4,3.1l0.6,6.1c0.3-0.3,0.5-0.6,0.7-1C28.5,16.1,28.2,10.4,27.7,3.7L27.7,3.7z"/>
</g>
</svg>
