<?xml version="1.0" encoding="utf-8"?>
<!-- Generator: Adobe Illustrator 19.0.0, SVG Export Plug-In . SVG Version: 6.00 Build 0)  -->
<svg version="1.1" id="图层_1" xmlns="http://www.w3.org/2000/svg" xmlns:xlink="http://www.w3.org/1999/xlink" x="0px" y="0px"
	 viewBox="0 0 64 64" style="enable-background:new 0 0 64 64;" xml:space="preserve">
<g id="组_2" transform="translate(240.986 182.436)">
	<path id="i-心率" d="M-181-159.6c0-8.1-6.6-14.7-14.7-14.6c-5.7,0-10.8,3.3-13.3,8.4c-3.4-7.4-12.1-10.6-19.5-7.2
		c-7.4,3.4-10.6,12.1-7.2,19.5c0.7,1.6,1.8,3.1,3.1,4.3l0,0l21.8,21.8c1,1,2.7,1,3.7,0c0,0,0,0,0,0l21.8-21.8l0,0
		C-182.5-151.9-181-155.6-181-159.6z M-222.3-171.6c5.3,0,9.9,3.4,11.5,8.4l0,0c0.3,1,1.3,1.6,2.3,1.3c0.7-0.2,1.2-0.7,1.4-1.4
		c2-6.3,8.8-9.8,15.2-7.8c6.3,2,9.8,8.8,7.8,15.2c-0.3,1-0.7,1.9-1.3,2.8h-9.2l-3.2-10.7c0-0.5-0.4-1-0.9-1.2l-0.1,0
		c-0.8-0.3-1.6,0.2-1.8,0.9c0,0.1,0,0.1,0,0.2l-6.8,18.2l-3.8-11.2c-0.3-0.8-1.1-1.1-1.9-0.8c-0.3,0.1-0.5,0.3-0.7,0.6l-4.7,7.5
		l-1.6-2.8c-0.2-0.4-0.7-0.7-1.1-0.7h-11.3c-3.5-5.7-1.7-13.1,4-16.6C-226.6-171-224.5-171.6-222.3-171.6L-222.3-171.6z M-207.1-131
		c-1.6,1.6-2.1,1.6-3.7,0l-14.1-14.1l-5.3-5.3h8l2.4,4.1c0.4,0.7,1.3,0.9,2,0.5c0.2-0.1,0.3-0.3,0.5-0.4l4.3-7l4.1,12.1
		c0.3,0.7,1.1,1.1,1.9,0.9c0.4-0.1,0.7-0.4,0.8-0.8l6.7-18.1l2.3,7.8c0.1,0.7,0.8,1.3,1.6,1.2h7.6l-5.1,5.1L-207.1-131z"/>
</g>
</svg>
