<?xml version="1.0" encoding="utf-8"?>
<!-- Generator: Adobe Illustrator 19.0.0, SVG Export Plug-In . SVG Version: 6.00 Build 0)  -->
<svg version="1.1" id="图层_1" xmlns="http://www.w3.org/2000/svg" xmlns:xlink="http://www.w3.org/1999/xlink" x="0px" y="0px"
	 viewBox="0 0 64 64" style="enable-background:new 0 0 64 64;" xml:space="preserve">
<style type="text/css">
	.st0{fill:#040000;}
</style>
<path id="XMLID_15_" class="st0" d="M61.3,32.7c0.1-0.2,0.1-0.4,0.1-0.5l0,0l0,0c0-0.2,0-0.4-0.1-0.5l0,0c-0.1-0.2-0.2-0.4-0.3-0.5
	L33,3c-0.6-0.6-1.5-0.6-2.1,0c0,0,0,0,0,0.1L2.9,31c0,0,0,0.1-0.1,0.1c-0.1,0.1-0.1,0.2-0.2,0.3c0,0.1,0,0.1-0.1,0.2
	s-0.1,0.3-0.1,0.5l0,0l0,0c0,0.8,0.7,1.5,1.5,1.5h6.7v26.5c0,0.8,0.7,1.5,1.5,1.5h10.7c0.8,0,1.5-0.7,1.5-1.5V49.4h15.2v10.7
	c0,0.8,0.7,1.5,1.5,1.5h10.7c0.8,0,1.5-0.7,1.5-1.5V33.6h6.7c0.2,0,0.4,0,0.6-0.1l0,0c0.2-0.1,0.4-0.2,0.5-0.3l0,0l0,0
	C61.1,33,61.2,32.9,61.3,32.7L61.3,32.7z"/>
</svg>
