<?xml version="1.0" encoding="utf-8"?>
<!-- Generator: Adobe Illustrator 19.0.0, SVG Export Plug-In . SVG Version: 6.00 Build 0)  -->
<svg version="1.1" id="图层_1" xmlns="http://www.w3.org/2000/svg" xmlns:xlink="http://www.w3.org/1999/xlink" x="0px" y="0px"
	 viewBox="0 0 64 64" style="enable-background:new 0 0 64 64;" xml:space="preserve">
<style type="text/css">
	.st0{fill:#040000;}
</style>
<path id="XMLID_8_" class="st0" d="M57.7,46.8L54.5,42V28.5c0-9.6-5.9-18-14.8-21.2c-1.4-2.9-4.4-4.8-7.7-4.8
	c-3.2,0-6.2,1.9-7.7,4.8C15.4,10.5,9.5,18.9,9.5,28.5V42l-3.2,4.7c-1,1.5-1.1,3.5-0.2,5.1c0.9,1.7,2.5,2.6,4.4,2.6h10.6
	c2,4.2,6.2,7,10.9,7s8.9-2.8,10.9-7h10.6c1.9,0,3.5-1,4.4-2.6C58.8,50.2,58.7,48.3,57.7,46.8z M32,58.5c-3.1,0-5.8-1.5-7.4-4h14.9
	C37.8,57,35.1,58.5,32,58.5z M55.2,50.4c-0.4,0.7-1,1.1-1.8,1.1H41.9h-1.1H23.2h-1.1H10.5c-0.8,0-1.4-0.4-1.8-1.1
	c-0.4-0.7-0.3-1.4,0-2l3.7-5.5V28.5c0-8.5,5.4-15.9,13.4-18.5l0.7-0.2l0.3-0.7c0.9-2.2,2.9-3.6,5.2-3.6s4.4,1.4,5.2,3.6l0.3,0.7
	l0.7,0.2c8,2.6,13.4,10,13.4,18.5V43l3.7,5.4C55.6,49,55.6,49.8,55.2,50.4z"/>
</svg>
