<?xml version="1.0" encoding="utf-8"?>
<!-- Generator: Adobe Illustrator 19.0.0, SVG Export Plug-In . SVG Version: 6.00 Build 0)  -->
<svg version="1.1" id="图层_1" xmlns="http://www.w3.org/2000/svg" xmlns:xlink="http://www.w3.org/1999/xlink" x="0px" y="0px"
	 viewBox="0 0 64 64" style="enable-background:new 0 0 64 64;" xml:space="preserve">
<style type="text/css">
	.st0{fill:#040000;}
</style>
<g id="XMLID_1_">
	<path id="XMLID_10_" class="st0" d="M56,5.5H8C7.2,5.5,6.5,6.2,6.5,7v50c0,0.8,0.7,1.5,1.5,1.5h48c0.8,0,1.5-0.7,1.5-1.5V7
		C57.5,6.2,56.8,5.5,56,5.5z M54.5,8.5v47h-45v-47H54.5z"/>
	<path id="XMLID_11_" class="st0" d="M32,28.9c7.7,0,14-6.3,14-14c0-0.8-0.7-1.5-1.5-1.5S43,14.1,43,14.9c0,6.1-4.9,11-11,11
		s-11-4.9-11-11c0-0.8-0.7-1.5-1.5-1.5S18,14.1,18,14.9C18,22.7,24.3,28.9,32,28.9z"/>
</g>
</svg>
