<?xml version="1.0" encoding="utf-8"?>
<!-- Generator: Adobe Illustrator 19.0.0, SVG Export Plug-In . SVG Version: 6.00 Build 0)  -->
<svg version="1.1" id="图层_1" xmlns="http://www.w3.org/2000/svg" xmlns:xlink="http://www.w3.org/1999/xlink" x="0px" y="0px"
	 viewBox="0 0 64 64" style="enable-background:new 0 0 64 64;" xml:space="preserve">
<g id="XMLID_3_">
	<path id="XMLID_7_" d="M59.1,21.8c-0.1,0-0.1,0-0.2,0c-0.6,0-1.1,0.5-1.1,1.1v8.7H6.2V14.1c0-0.6-0.4-1.1-1.1-1.2
		C4.6,12.9,4,13.3,4,14c0,0,0,0.1,0,0.1v35.9c0,0.6,0.4,1.1,1.1,1.2c0.6,0,1.1-0.4,1.2-1.1c0,0,0-0.1,0-0.1v-8.4h51.5v8.4
		c0,0.6,0.4,1.1,1.1,1.2c0.6,0,1.1-0.4,1.2-1.1c0,0,0-0.1,0-0.1V22.9C60.1,22.3,59.7,21.8,59.1,21.8z M55.9,37.9
		C55.8,37.9,55.8,37.9,55.9,37.9l-47.6,0c-0.6,0-1.1-0.6-1.1-1.2c0-0.6,0.5-1,1.1-1.1h47.6c0.6,0,1.1,0.5,1.1,1.1
		C56.9,37.4,56.5,37.9,55.9,37.9z"/>
	<path id="XMLID_9_" d="M38.1,26.9c0-1.6-2.8-2.9-6.1-2.9H15c-3.3,0-6.1,1.3-6.1,2.9v1.6h29.2V26.9z"/>
</g>
</svg>
