<?xml version="1.0" encoding="utf-8"?>
<!-- Generator: Adobe Illustrator 19.0.0, SVG Export Plug-In . SVG Version: 6.00 Build 0)  -->
<svg version="1.1" id="图层_1" xmlns="http://www.w3.org/2000/svg" xmlns:xlink="http://www.w3.org/1999/xlink" x="0px" y="0px"
	 viewBox="0 0 64 64" style="enable-background:new 0 0 64 64;" xml:space="preserve">
<style type="text/css">
	.st0{fill:#040000;}
</style>
<path id="XMLID_12_" class="st0" d="M59.5,50.2c0-0.1,0-0.1,0-0.2v-0.1v-0.1v-0.1c0,0,0-0.1-0.1-0.1c0,0,0-0.1-0.1-0.1l-0.1-0.1
	l-0.1-0.1L59,49.2l-0.1-0.1c0,0-0.1,0-0.1-0.1c0,0-0.1,0-0.1-0.1l0,0l-19-6.7C39.3,41.7,39,41,39,40.4c0-0.8,0.3-1.5,0.8-2
	c4.8-3.3,7.8-9.6,7.8-16.4C47.5,11.5,40.6,3,32,3c-8.8,0-15.5,7.7-15.5,17.8c0,7.1,3.2,14.2,7.8,17.4c0.5,0.5,0.8,1.3,0.8,2
	s-0.2,1.3-0.7,1.8l-19,6.7l0,0c-0.1,0-0.1,0-0.1,0.1c0,0-0.1,0-0.1,0.1L5.1,49L5,49.1l-0.1,0.1l-0.1,0.1l-0.1,0.1c0,0,0,0.1-0.1,0.1
	s0,0.1,0,0.1v0.1v0.1c0,0.1,0,0.1,0,0.2l0,0v9.3C4.5,60.3,5.2,61,6,61h52c0.8,0,1.5-0.7,1.5-1.5V50.2L59.5,50.2z M19.5,20.8
	C19.5,12.4,24.9,6,32,6c6.9,0,12.5,7.1,12.5,15.9c0,5.9-2.6,11.3-6.7,14c-0.2,0.1-0.3,0.3-0.4,0.4c-2,2.2-2,5.7,0,7.9l0.1,0.1
	c0,0,0,0.1,0.1,0.1l0,0c0.1,0.1,0.3,0.2,0.4,0.3c0,0,0,0,0.1,0l0,0l18.3,6.5V58h-49v-6.7l18.3-6.5l0,0c0,0,0,0,0.1,0
	c0.2-0.1,0.3-0.2,0.4-0.3l0,0c1.1-1.1,1.7-2.6,1.7-4.2c0-1.5-0.6-3-1.7-4.1c-0.1-0.1-0.2-0.2-0.3-0.3C22.3,33.3,19.5,27,19.5,20.8z"
	/>
</svg>
