<?xml version="1.0" encoding="utf-8"?>
<!-- Generator: Adobe Illustrator 19.0.0, SVG Export Plug-In . SVG Version: 6.00 Build 0)  -->
<svg version="1.1" id="图层_1" xmlns="http://www.w3.org/2000/svg" xmlns:xlink="http://www.w3.org/1999/xlink" x="0px" y="0px"
	 viewBox="0 0 64 64" style="enable-background:new 0 0 64 64;" xml:space="preserve">
<style type="text/css">
	.st0{fill:#070001;}
</style>
<g id="XMLID_1_">
	<path id="XMLID_3_" class="st0" d="M47.9,29.9H16.1c-1.2,0-2.1,1-2.1,2.1c0,1.2,1,2.1,2.1,2.1h31.7c1.2,0,2.1-0.9,2.1-2.1
		C50,30.9,49.1,29.9,47.9,29.9z"/>
	<path id="XMLID_10_" class="st0" d="M51.4,4H12.6C7.8,4,4,7.8,4,12.6v38.9c0,4.7,3.8,8.6,8.6,8.6h38.9c4.7,0,8.6-3.8,8.6-8.6V12.6
		C60,7.8,56.2,4,51.4,4z M56,51.4c0,2.5-2,4.6-4.6,4.6H12.6C10,56,8,54,8,51.4V12.6C8,10,10,8,12.6,8h38.9C54,8,56,10,56,12.6V51.4z
		"/>
</g>
</svg>
