<?xml version="1.0" encoding="utf-8"?>
<!-- Generator: Adobe Illustrator 19.0.0, SVG Export Plug-In . SVG Version: 6.00 Build 0)  -->
<svg version="1.1" id="图层_1" xmlns="http://www.w3.org/2000/svg" xmlns:xlink="http://www.w3.org/1999/xlink" x="0px" y="0px"
	 viewBox="0 0 64 64" style="enable-background:new 0 0 64 64;" xml:space="preserve">
<path d="M31,50.4c-1.8,0-3.3,1.5-3.3,3.3s1.5,3.3,3.3,3.3c1.8,0,3.3-1.5,3.3-3.3C34.3,51.8,32.8,50.4,31,50.4z"/>
<path d="M50.6,0.5C49.7-0.5,48.4-1,47.1-1H14.9c-2.8,0-5,2.3-5,5v54c0,2.8,2.3,5,5,5h32.2c2.8,0,5-2.3,5-5V4
	C52.1,2.7,51.6,1.4,50.6,0.5z M13.4,48.1h35.2V58c0,0.4-0.2,0.8-0.4,1.1c-0.3,0.3-0.7,0.4-1.1,0.4l-32.2,0c-0.8,0-1.5-0.7-1.5-1.5
	L13.4,48.1z M14.9,2.5h32.2c0.8,0,1.5,0.7,1.5,1.5v40.3H13.4V4C13.4,3.2,14.1,2.5,14.9,2.5z"/>
</svg>
