<?xml version="1.0" encoding="utf-8"?>
<!-- Generator: Adobe Illustrator 19.0.0, SVG Export Plug-In . SVG Version: 6.00 Build 0)  -->
<svg version="1.1" id="图层_1" xmlns="http://www.w3.org/2000/svg" xmlns:xlink="http://www.w3.org/1999/xlink" x="0px" y="0px"
	 viewBox="0 0 64 64" style="enable-background:new 0 0 64 64;" xml:space="preserve">
<style type="text/css">
	.st0{fill:#040000;}
</style>
<path id="XMLID_1191_" class="st0" d="M56.6,7.6L56.6,7.6h-3.9V1.8v0c0-1-0.8-1.8-1.8-1.8h0H13.1h0c-1,0-1.8,0.8-1.8,1.8v0v5.8H7.4
	c-3.1,0-5.6,2.5-5.6,5.6v45.3c0,3.1,2.5,5.6,5.6,5.6h49.1c3.1,0,5.6-2.5,5.6-5.6V13.1C62.1,10,59.6,7.6,56.6,7.6z M25.1,10.6
	c-0.3-0.3-0.5-0.8-0.5-1.3c0-1,0.8-1.8,1.8-1.8c0.5,0,0.9,0.2,1.3,0.5l4.4,4.4l4.4-4.4c0.3-0.3,0.8-0.5,1.3-0.5c1,0,1.8,0.8,1.8,1.8
	c0,0.5-0.2,0.9-0.5,1.3l-2.6,2.6h1.4c1,0,1.8,0.8,1.8,1.8s-0.8,1.8-1.8,1.8h-3.9v2.1h3.9c1,0,1.8,0.8,1.8,1.8s-0.8,1.8-1.8,1.8h-3.9
	v3.9c0,1-0.8,1.8-1.8,1.8c-1,0-1.8-0.8-1.8-1.8v-3.9h-3.9c-1,0-1.8-0.8-1.8-1.8s0.8-1.8,1.8-1.8l3.9,0v-2.1h-3.9
	c-1,0-1.8-0.8-1.8-1.8s0.8-1.8,1.8-1.8h1.4L25.1,10.6z M5.4,13.1c0-1.1,0.9-2,2-2h0h3.9v19.1H5.4V13.1z M58.6,58.4c0,1.1-0.9,2-2,2
	h0H7.4c-1.1,0-2-0.9-2-2V33.8h53.1V58.4z M58.6,30.2h-5.9V11.1l3.9,0c1.1,0,2,0.9,2,2V30.2z"/>
</svg>
