<?xml version="1.0" encoding="utf-8"?>
<!-- Generator: Adobe Illustrator 19.0.0, SVG Export Plug-In . SVG Version: 6.00 Build 0)  -->
<svg version="1.1" id="图层_1" xmlns="http://www.w3.org/2000/svg" xmlns:xlink="http://www.w3.org/1999/xlink" x="0px" y="0px"
	 viewBox="0 0 64 64" style="enable-background:new 0 0 64 64;" xml:space="preserve">
<path id="XMLID_8_" d="M44.8,35.9L38,32l6.8-3.9c1.4-0.8,1.9-2.7,1.1-4.1c-0.8-1.4-2.7-1.9-4.1-1.1L35,26.8V19c0-1.7-1.3-3-3-3
	c-1.7,0-3,1.3-3,3v7.8l-6.8-3.9c-1.4-0.8-3.3-0.3-4.1,1.1c-0.8,1.4-0.3,3.3,1.1,4.1L26,32l-6.8,3.9c-1.4,0.8-1.9,2.7-1.1,4.1
	c0.8,1.4,2.7,1.9,4.1,1.1l6.8-3.9V45c0,1.7,1.3,3,3,3c1.7,0,3-1.3,3-3v-7.8l6.8,3.9c1.4,0.8,3.3,0.3,4.1-1.1
	C46.7,38.6,46.2,36.7,44.8,35.9z"/>
</svg>
