<?xml version="1.0" encoding="utf-8"?>
<!-- Generator: Adobe Illustrator 19.0.0, SVG Export Plug-In . SVG Version: 6.00 Build 0)  -->
<svg version="1.1" id="图层_1" xmlns="http://www.w3.org/2000/svg" xmlns:xlink="http://www.w3.org/1999/xlink" x="0px" y="0px"
	 viewBox="0 0 64 64" style="enable-background:new 0 0 64 64;" xml:space="preserve">
<style type="text/css">
	.st0{fill:#040000;}
</style>
<path id="XMLID_667_" class="st0" d="M58.2,50.3C61.9,45.1,64,38.8,64,32C64,14.3,49.7,0,32,0C14.3,0,0,14.3,0,32s14.3,32,32,32
	c5.4,0,10.6-1.4,15.1-3.8l12.3,3.7C59.6,64,59.8,64,60,64c0.5,0,1-0.2,1.4-0.6c0.5-0.5,0.7-1.3,0.5-2L58.2,50.3z M46.5,55.9
	c-4.2,2.6-9.2,4-14.5,4C16.6,60,4,47.4,4,32C4,16.6,16.6,4,32,4c15.4,0,28,12.5,28,28c0,6.7-2.3,12.8-6.2,17.6l3.1,9.4
	C51.9,57.5,46.5,55.9,46.5,55.9z"/>
<path id="XMLID_666_" class="st0" d="M45.8,32.7c1.2,0,2.2-1,2.2-2.2c0-1.2-1-2.2-2.2-2.2H36l9.4-9.4c0.9-0.9,0.9-2.3,0-3.1
	c-0.9-0.9-2.3-0.9-3.1,0l-9.7,9.7l-9.7-9.7c-0.9-0.9-2.3-0.9-3.1,0c-0.9,0.9-0.9,2.3,0,3.1l9.4,9.4H18.2c-1.2,0-2.2,1-2.2,2.2
	c0,1.2,1,2.2,2.2,2.2h12.1V37H18.2C17,37,16,38,16,39.2c0,1.2,1,2.2,2.2,2.2h12.1v5.2c0,1.2,1,2.2,2.2,2.2c1.2,0,2.2-1,2.2-2.2v-5.2
	h11c1.2,0,2.2-1,2.2-2.2c0-1.2-1-2.2-2.2-2.2h-11v-4.4H45.8z"/>
</svg>
