<?xml version="1.0" encoding="utf-8"?>
<!-- Generator: Adobe Illustrator 19.0.0, SVG Export Plug-In . SVG Version: 6.00 Build 0)  -->
<svg version="1.1" id="图层_1" xmlns="http://www.w3.org/2000/svg" xmlns:xlink="http://www.w3.org/1999/xlink" x="0px" y="0px"
	 viewBox="0 0 64 64" style="enable-background:new 0 0 64 64;" xml:space="preserve">
<style type="text/css">
	.st0{fill:#040000;}
</style>
<path id="XMLID_677_" class="st0" d="M58.2,50.3C61.9,45.1,64,38.8,64,32C64,14.3,49.7,0,32,0S0,14.3,0,32c0,17.7,14.3,32,32,32
	c5.4,0,10.6-1.4,15.1-3.8l12.3,3.7C59.6,64,59.8,64,60,64c0.5,0,1-0.2,1.4-0.6c0.5-0.5,0.7-1.3,0.5-2L58.2,50.3z M44.7,37.7
	c1.2,0,2.2,1,2.2,2.2s-1,2.2-2.2,2.2h-11v5.2c0,1.2-1,2.2-2.2,2.2c-1.2,0-2.2-1-2.2-2.2v-5.2H17.1c-1.2,0-2.2-1-2.2-2.2
	s1-2.2,2.2-2.2h12.1v-4.4H17.1c-1.2,0-2.2-1-2.2-2.2s1-2.2,2.2-2.2H28l-9.4-9.4c-0.9-0.9-0.9-2.3,0-3.1c0.9-0.9,2.3-0.9,3.1,0
	l9.7,9.7l9.7-9.7c0.9-0.9,2.3-0.9,3.1,0c0.9,0.9,0.9,2.3,0,3.1l-9.4,9.4h9.8c1.2,0,2.2,1,2.2,2.2s-1,2.2-2.2,2.2h-11v4.4H44.7z"/>
</svg>
