<?xml version="1.0" encoding="utf-8"?>
<!-- Generator: Adobe Illustrator 19.0.0, SVG Export Plug-In . SVG Version: 6.00 Build 0)  -->
<svg version="1.1" id="图层_1" xmlns="http://www.w3.org/2000/svg" xmlns:xlink="http://www.w3.org/1999/xlink" x="0px" y="0px"
	 viewBox="0 0 64 64" style="enable-background:new 0 0 64 64;" xml:space="preserve">
<style type="text/css">
	.st0{fill:#040000;}
</style>
<g id="XMLID_1953_">
	<path id="XMLID_1957_" class="st0" d="M49.1,36.3h4.3c1.2,0,2.1-1,2.1-2.1s-1-2.1-2.1-2.1h-4.3c-1.2,0-2.1,1-2.1,2.1
		S47.9,36.3,49.1,36.3z"/>
	<path id="XMLID_1960_" class="st0" d="M12.8,44.9h17.1c1.2,0,2.1-1,2.1-2.1s-1-2.1-2.1-2.1H12.8c-1.2,0-2.1,1-2.1,2.1
		S11.6,44.9,12.8,44.9z"/>
	<path id="XMLID_1961_" class="st0" d="M59.7,17.3H48.8c0.1,0.7,0.2,1.4,0.2,2.1s-0.1,1.4-0.2,2.1h10.9v33.9H4.3V21.5h6.6
		c-0.1-0.7-0.2-1.4-0.2-2.1s0.1-1.4,0.2-2.1H4.3c-2.4,0-4.3,1.9-4.3,4.3v33.9c0,2.4,1.9,4.3,4.3,4.3h55.5c2.4,0,4.3-1.9,4.3-4.3
		V21.5C64,19.2,62.1,17.3,59.7,17.3z"/>
	<path id="XMLID_1975_" class="st0" d="M35.4,33.2l7.6,12.9c0.6,1,1.9,1.3,2.9,0.8c1-0.5,1.4-1.8,0.8-2.8c0,0,0,0,0-0.1l-7.6-12.9
		c5.8-4.4,7.7-12.6,4-19.2c-4-7.2-13.1-9.8-20.3-5.7c-0.1,0.1-0.2,0.1-0.4,0.2c-7.1,4.2-9.4,13.4-5.2,20.5
		C21,33.2,28.7,35.8,35.4,33.2z M24.5,10.1c5.1-2.9,11.6-1.2,14.6,3.9s1.2,11.6-3.9,14.6c-5.1,2.9-11.6,1.2-14.6-3.9
		C17.7,19.6,19.4,13.1,24.5,10.1z"/>
	<path id="XMLID_1976_" class="st0" d="M13.6,36.3H16c1.2,0,2.1-1,2.1-2.1s-1-2.1-2.1-2.1h-2.4c-1.2,0-2.1,1-2.1,2.1
		S12.4,36.3,13.6,36.3z"/>
</g>
</svg>
