<?xml version="1.0" encoding="utf-8"?>
<!-- Generator: Adobe Illustrator 19.0.0, SVG Export Plug-In . SVG Version: 6.00 Build 0)  -->
<svg version="1.1" id="图层_1" xmlns="http://www.w3.org/2000/svg" xmlns:xlink="http://www.w3.org/1999/xlink" x="0px" y="0px"
	 viewBox="0 0 64 64" style="enable-background:new 0 0 64 64;" xml:space="preserve">
<style type="text/css">
	.st0{fill:#040000;}
</style>
<path id="XMLID_1113_" class="st0" d="M32,0C14.3,0,0,14.3,0,32s14.3,32,32,32c17.7,0,32-14.3,32-32S49.7,0,32,0z M27.4,43.4
	c0,1.3-1,2.3-2.3,2.3c-1.3,0-2.3-1-2.3-2.3V20.6c0-1.3,1-2.3,2.3-2.3c1.3,0,2.3,1,2.3,2.3V43.4z M41.2,43.4c0,1.3-1,2.3-2.3,2.3
	c-1.3,0-2.3-1-2.3-2.3V20.6c0-1.3,1-2.3,2.3-2.3c1.3,0,2.3,1,2.3,2.3V43.4z"/>
</svg>
