<?xml version="1.0" encoding="utf-8"?>
<!-- Generator: Adobe Illustrator 19.0.0, SVG Export Plug-In . SVG Version: 6.00 Build 0)  -->
<svg version="1.1" id="图层_1" xmlns="http://www.w3.org/2000/svg" xmlns:xlink="http://www.w3.org/1999/xlink" x="0px" y="0px"
	 viewBox="0 0 64 64" style="enable-background:new 0 0 64 64;" xml:space="preserve">
<style type="text/css">
	.st0{fill:#040000;}
</style>
<g id="XMLID_1075_">
	<path id="XMLID_1086_" class="st0" d="M32,0C14.3,0,0,14.3,0,32s14.3,32,32,32c17.7,0,32-14.3,32-32S49.7,0,32,0z M32,59.3
		C16.9,59.3,4.7,47.1,4.7,32S16.9,4.7,32,4.7c15.1,0,27.3,12.2,27.3,27.3S47.1,59.3,32,59.3z"/>
	<path id="XMLID_1085_" class="st0" d="M25.1,18.3c-1.3,0-2.3,1-2.3,2.3v22.9c0,1.3,1,2.3,2.3,2.3c1.3,0,2.3-1,2.3-2.3V20.6
		C27.4,19.3,26.3,18.3,25.1,18.3z"/>
	<path id="XMLID_1079_" class="st0" d="M38.9,18.3c-1.3,0-2.3,1-2.3,2.3v22.9c0,1.3,1,2.3,2.3,2.3c1.3,0,2.3-1,2.3-2.3V20.6
		C41.2,19.3,40.2,18.3,38.9,18.3z"/>
</g>
</svg>
