<?xml version="1.0" encoding="utf-8"?>
<!-- Generator: Adobe Illustrator 19.0.0, SVG Export Plug-In . SVG Version: 6.00 Build 0)  -->
<svg version="1.1" id="图层_1" xmlns="http://www.w3.org/2000/svg" xmlns:xlink="http://www.w3.org/1999/xlink" x="0px" y="0px"
	 viewBox="0 0 64 64" style="enable-background:new 0 0 64 64;" xml:space="preserve">
<style type="text/css">
	.st0{fill:#040000;}
</style>
<path id="XMLID_300_" class="st0" d="M50.1,64c-0.6,0-1.2-0.1-1.8-0.2C36.7,61,26,55,17.5,46.5S3,27.3,0.2,15.7
	C-0.4,13,0.4,10,2.4,8l6.4-6.4c2.2-2.2,5.8-2.2,8.1,0l10.8,10.8c2.2,2.2,2.2,5.8,0,8.1l-5.3,5.3c-0.4,0.4-0.4,1-0.1,1.5
	C26,33.1,30.9,38,36.7,41.8c0.5,0.3,1.1,0.3,1.5-0.1l5.3-5.3c2.2-2.2,5.8-2.2,8.1,0l10.8,10.8c2.2,2.2,2.2,5.8,0,8.1L56,61.6
	C54.4,63.1,52.3,64,50.1,64z"/>
</svg>
