<?xml version="1.0" encoding="utf-8"?>
<!-- Generator: Adobe Illustrator 19.0.0, SVG Export Plug-In . SVG Version: 6.00 Build 0)  -->
<svg version="1.1" id="图层_1" xmlns="http://www.w3.org/2000/svg" xmlns:xlink="http://www.w3.org/1999/xlink" x="0px" y="0px"
	 viewBox="0 0 64 64" style="enable-background:new 0 0 64 64;" xml:space="preserve">
<style type="text/css">
	.st0{fill:#040000;}
</style>
<g id="XMLID_1_">
	<circle id="XMLID_2_" class="st0" cx="19.1" cy="54.6" r="3.3"/>
	<path id="XMLID_12_" class="st0" d="M53.8,44.1c9.1-5.3,12.8-16.8,8.2-26.6c-3.5-7.5-11-12-18.8-12v4c6.5,0,12.4,3.8,15.2,9.7
		c3.9,8.4,0.3,18.3-8.1,22.2c-2.2,1-4.6,1.6-7,1.6c-6.5,0-12.4-3.8-15.2-9.7c-3.9-8.4-0.3-18.3,8.1-22.2c2.2-1,4.6-1.6,7-1.6l0-4
		c0,0,0,0,0,0c-1.7,0-3.4,0.2-5.1,0.6V5c0-1.3-0.5-2.6-1.5-3.5C35.8,0.5,34.5,0,33.2,0H5C2.3,0,0,2.3,0,5v54c0,2.8,2.3,5,5,5h28.2
		c2.8,0,5-2.3,5-5V46.4c1.7,0.4,3.4,0.7,5.1,0.7c2.3,0,4.6-0.4,6.9-1.2l7.9,17c0.3,0.7,1.1,1.2,1.8,1.2c0.3,0,0.6-0.1,0.8-0.2
		c1-0.5,1.4-1.7,1-2.7L53.8,44.1z M34.7,59c0,0.4-0.2,0.8-0.4,1.1c-0.3,0.3-0.7,0.4-1.1,0.4H5c-0.8,0-1.5-0.7-1.5-1.5v-9.9h31.2V59z
		 M34.7,45.3H3.5V5c0-0.8,0.7-1.5,1.5-1.5h28.2c0.8,0,1.5,0.7,1.5,1.5v2.5c-0.1,0-0.1,0-0.2,0.1c-10.4,4.8-14.9,17.2-10,27.5
		c2.2,4.7,5.8,8.1,10.2,10.1V45.3z"/>
</g>
</svg>
