<?xml version="1.0" encoding="utf-8"?>
<!-- Generator: Adobe Illustrator 19.0.0, SVG Export Plug-In . SVG Version: 6.00 Build 0)  -->
<svg version="1.1" id="图层_1" xmlns="http://www.w3.org/2000/svg" xmlns:xlink="http://www.w3.org/1999/xlink" x="0px" y="0px"
	 viewBox="0 0 64 64" style="enable-background:new 0 0 64 64;" xml:space="preserve">
<style type="text/css">
	.st0{fill:#040000;}
</style>
<path id="XMLID_566_" class="st0" d="M32,0C14.3,0,0,14.3,0,32s14.3,32,32,32c17.7,0,32-14.3,32-32S49.7,0,32,0z M42.8,34l-16.5,9.6
	c-0.3,0.2-0.7,0.3-1.2,0.3c-1.3,0-2.3-1-2.3-2.3c0-0.1,0-0.2,0-0.2l0-19.2l0,0c0,0,0-0.1,0-0.1c0-1.3,1-2.3,2.3-2.3
	c0.7,0,1.3,0.3,1.7,0.8L43,30c0.7,0.4,1.1,1.1,1.1,2C44.1,32.9,43.6,33.7,42.8,34z"/>
</svg>
