<?xml version="1.0" encoding="utf-8"?>
<!-- Generator: Adobe Illustrator 19.0.0, SVG Export Plug-In . SVG Version: 6.00 Build 0)  -->
<svg version="1.1" id="图层_1" xmlns="http://www.w3.org/2000/svg" xmlns:xlink="http://www.w3.org/1999/xlink" x="0px" y="0px"
	 viewBox="0 0 64 64" style="enable-background:new 0 0 64 64;" xml:space="preserve">
<style type="text/css">
	.st0{fill:#040000;}
</style>
<path id="XMLID_744_" class="st0" d="M57.9,0H6.1C2.7,0,0,2.7,0,6.1v51.9C0,61.3,2.7,64,6.1,64h51.9c3.3,0,6.1-2.7,6.1-6.1V6.1
	C64,2.7,61.3,0,57.9,0z M19.3,4h25.5l0,28c0,0,0,0,0,0c0,0.1,0,0.3,0,0.4c0,0,0,0,0,0c-0.1,0.4-0.3,0.7-0.5,1
	c-0.4,0.4-0.9,0.6-1.4,0.6s-1-0.2-1.4-0.6L32,24.1l-9.3,9.3c-0.4,0.4-0.9,0.6-1.4,0.6s-1-0.2-1.4-0.6c-0.3-0.3-0.5-0.6-0.5-1
	c0,0,0,0,0,0c0-0.1,0-0.3,0-0.4c0,0,0,0,0,0L19.3,4z M44.3,52.8H19.7c-1.1,0-2-0.9-2-2s0.9-2,2-2h24.7c1.1,0,2,0.9,2,2
	S45.4,52.8,44.3,52.8z M44.3,44.5H19.7c-1.1,0-2-0.9-2-2s0.9-2,2-2h24.7c1.1,0,2,0.9,2,2S45.4,44.5,44.3,44.5z"/>
</svg>
