<?xml version="1.0" encoding="utf-8"?>
<!-- Generator: Adobe Illustrator 19.0.0, SVG Export Plug-In . SVG Version: 6.00 Build 0)  -->
<svg version="1.1" id="图层_1" xmlns="http://www.w3.org/2000/svg" xmlns:xlink="http://www.w3.org/1999/xlink" x="0px" y="0px"
	 viewBox="0 0 64 64" style="enable-background:new 0 0 64 64;" xml:space="preserve">
<style type="text/css">
	.st0{fill:#040000;}
</style>
<g id="XMLID_732_">
	<path id="XMLID_735_" class="st0" d="M57.9,0H6.1C2.7,0,0,2.7,0,6.1v51.9C0,61.3,2.7,64,6.1,64h51.9c3.3,0,6.1-2.7,6.1-6.1V6.1
		C64,2.7,61.3,0,57.9,0z M40.7,27.2l-7.3-7.3c-0.8-0.8-2-0.8-2.8,0l-7.3,7.3V4h17.5V27.2z M60,56.7c0,1.8-1.5,3.3-3.3,3.3H7.3
		C5.5,60,4,58.5,4,56.7V7.3C4,5.5,5.5,4,7.3,4h12v28c0,0,0,0,0,0c0,0.1,0,0.3,0,0.4c0,0,0,0,0,0c0.1,0.4,0.3,0.7,0.5,1
		c0.4,0.4,0.9,0.6,1.4,0.6s1-0.2,1.4-0.6l9.3-9.3l9.3,9.3c0.4,0.4,0.9,0.6,1.4,0.6s1-0.2,1.4-0.6c0.3-0.3,0.5-0.6,0.5-1c0,0,0,0,0,0
		c0-0.1,0-0.3,0-0.4c0,0,0,0,0,0V4h12C58.5,4,60,5.5,60,7.3V56.7z"/>
	<path id="XMLID_734_" class="st0" d="M44.3,40.5H19.7c-1.1,0-2,0.9-2,2s0.9,2,2,2h24.7c1.1,0,2-0.9,2-2S45.4,40.5,44.3,40.5z"/>
	<path id="XMLID_733_" class="st0" d="M44.3,48.8H19.7c-1.1,0-2,0.9-2,2s0.9,2,2,2h24.7c1.1,0,2-0.9,2-2S45.4,48.8,44.3,48.8z"/>
</g>
</svg>
