<?xml version="1.0" encoding="utf-8"?>
<!-- Generator: Adobe Illustrator 19.0.0, SVG Export Plug-In . SVG Version: 6.00 Build 0)  -->
<svg version="1.1" id="图层_1" xmlns="http://www.w3.org/2000/svg" xmlns:xlink="http://www.w3.org/1999/xlink" x="0px" y="0px"
	 viewBox="0 0 64 64" style="enable-background:new 0 0 64 64;" xml:space="preserve">
<style type="text/css">
	.st0{fill:#040000;}
</style>
<g id="XMLID_948_">
	<path id="XMLID_950_" class="st0" d="M63.4,13.6c0-0.3,0.2-2.5-0.9-4c-1-1.3-3.4-2.5-5.7-3.7c-0.4-0.2-0.7-0.4-1.1-0.6
		C53.5,4.2,43.2,0,31.5,0C20,0,13.9,2.6,9.9,4.4c-4.1,1.8-7.6,4.7-8.7,6.5c-0.7,1.1-0.6,2.3-0.5,2.6l0,27.2C0.6,41,0.3,42.8,1,43.8
		l0,0.1c2.2,3.1,5.9,6.5,11.1,10.2l0.9,0.7c6.8,4.9,12.8,9.2,19.2,9.2c0.8,0,1.7-0.1,2.5-0.2c5.9-1.1,10.7-4.9,12.7-6.5l0.1-0.1
		c1.9-1.5,2.4-2.1,2.5-2.1l0.4-0.4L48,51.5L47.5,52c-0.1,0.1-6.3,5.7-11.1,7.2c-5,1.6-8.6,0.9-18.9-6.3c-6.7-4.6-11-8.9-11.4-9.3
		c-0.4-0.4-1.1-1.5-1.4-1.9V13.1c0.2-0.4,1.3-1.8,4.6-3.7c4-2.3,12.7-6.1,26-5c12.6,1,20.6,5.5,22.7,6.9l0.2,0.1
		c0.5,0.3,0.9,0.6,1,0.7c0,0,0,0.2,0,0.4v28.9c-1.2,1.4-4.1,4.4-6,4.5c-1.3,0.1-2.1-0.3-4.5-1.5c-0.7-0.4-1.5-0.8-2.5-1.2
		c-3.6-1.7-7.5-3.5-8.9-4.2c0.2-0.7,0.5-1.8,0.6-2.9c0.2-1.6,0.2-3.9,0.2-4l0-0.7h-3.9l0,0.6c0,0.1,0,5.2-1.5,7.5
		c-1.5,2.2-4,3.8-8.1,5.2c-3,1-5,1.2-5.1,1.2L18.7,46l1.9,4l0.5-0.1c0.3-0.1,6.8-1.5,10-3.5c2.8-1.8,4.1-3.3,4.7-4l12.7,6.4
		c0.5,0.3,4.9,3,9.2-0.2c4.4-3.3,5.2-4.9,5.5-5.5c0.3-0.6,0.3-1.4,0.3-4.1L63.4,13.6z"/>
	<path id="XMLID_949_" class="st0" d="M50.8,13l0.8-0.1L50.3,9l-0.5,0c-0.1,0-9.2,0.8-15.7,1.1c-9.8,0.4-17.4,0.4-17.5,0.4l-0.6,0
		l0,17.1c0,0.1,0,8.6-1.2,12.5c-1.1,4-2.7,6.7-2.8,6.7l-0.3,0.5L15,50l0.4-0.6c0.1-0.2,2.3-3.9,3.3-8.3c1.1-4.4,1.3-9.4,1.3-17v-9.8
		c2.1-0.1,9.4-0.2,14-0.4v4.4H21.1v3.8h12.9v4.1H23.3v15.1h4V29.8h17.4v11.4h4V26.2H37.9v-4.1h13.3v-3.8H37.9v-4.5
		C42.9,13.5,50.8,13,50.8,13z"/>
</g>
</svg>
