<?xml version="1.0" encoding="utf-8"?>
<!-- Generator: Adobe Illustrator 19.0.0, SVG Export Plug-In . SVG Version: 6.00 Build 0)  -->
<svg version="1.1" id="图层_1" xmlns="http://www.w3.org/2000/svg" xmlns:xlink="http://www.w3.org/1999/xlink" x="0px" y="0px"
	 viewBox="0 0 64 64" style="enable-background:new 0 0 64 64;" xml:space="preserve">
<style type="text/css">
	.st0{fill:#040000;}
</style>
<g>
	<path class="st0" d="M63.6,43.1l-5.5-7.9L58,35.1c-0.1-0.1-0.1-0.1-0.2-0.2l-0.1-0.1c-0.1,0-0.1-0.1-0.2-0.1s-0.1-0.1-0.2-0.1
		c-0.1,0-0.1-0.1-0.2-0.1c-0.1,0-0.2,0-0.2-0.1h-0.1c-0.1,0-0.3,0-0.4,0c-0.1,0-0.1,0-0.2,0c-0.1,0-0.2,0-0.2,0
		c-0.1,0-0.1,0-0.2,0.1c-0.1,0-0.1,0-0.2,0.1c-0.1,0-0.2,0.1-0.3,0.2l-7.9,5.5c-1,0.7-1.2,2-0.5,3c0.3,0.5,0.8,0.8,1.3,0.9
		c0.5,0.1,1.1,0,1.6-0.3l2.7-1.9c-3,6.4-8.8,11-15.6,12.6h-0.1c-0.7,0.2-1.4,0.3-2,0.4h-0.1c-0.7,0.1-1.4,0.1-2.2,0.2h-0.1
		c-1.5,0-3-0.1-4.6-0.3C19.1,53,11.7,46.4,9.5,37.2C9.3,36,8.1,35.3,7,35.6c-1.1,0.3-1.9,1.4-1.6,2.5c2.5,10.8,11.1,18.6,21.3,20.5
		c0.1,0,0.2,0,0.2,0c0.2,0,0.4,0.1,0.5,0.1c0.2,0,0.5,0.1,0.7,0.1c0.2,0,0.4,0,0.6,0.1c0.2,0,0.5,0.1,0.7,0.1c0.2,0,0.4,0,0.7,0
		c0.2,0,0.5,0,0.7,0s0.5,0,0.7,0s0.4,0,0.6,0c0.3,0,0.6,0,0.9,0c0.2,0,0.3,0,0.5,0c0.4,0,0.7-0.1,1.1-0.1c0.1,0,0.2,0,0.2,0
		c0.9-0.1,1.9-0.3,2.8-0.5c8.8-2,16.2-8.4,19.4-17.1l2.9,4.1c0.3,0.5,0.8,0.8,1.3,0.9s1.1,0,1.6-0.3C64.1,45.4,64.3,44.1,63.6,43.1z
		"/>
	<path class="st0" d="M6.1,29.1c0,0,0.1,0.1,0.2,0.1c0.1,0,0.1,0.1,0.2,0.1s0.1,0.1,0.2,0.1c0.1,0,0.1,0.1,0.2,0.1
		c0.1,0.1,0.3,0.1,0.4,0.1c0.1,0,0.1,0,0.2,0s0.2,0,0.2,0c0.1,0,0.1,0,0.2,0c0.1,0,0.1,0,0.2,0c0.1,0,0.2,0,0.2-0.1
		c0.1,0,0.1,0,0.2-0.1c0.1-0.1,0.3-0.1,0.4-0.2l7.9-5.5c1-0.7,1.2-2,0.5-3s-2-1.2-3-0.5l-2.7,1.9c1.7-3.6,4.3-6.7,7.6-9
		c2.4-1.7,5.1-2.9,7.9-3.5c0.3-0.1,0.5-0.1,0.8-0.2c0.4-0.1,0.7-0.1,1.1-0.2c0.3,0,0.7-0.1,1-0.1c0.5,0,1-0.1,1.5-0.1
		c0.2,0,0.3,0,0.5,0c0.7,0,1.3,0,2,0.1h0.1c0.7,0.1,1.4,0.2,2.2,0.3C45,11,52.5,17.6,54.6,26.8c0.2,0.8,0.9,1.5,1.7,1.6
		c0.3,0.1,0.6,0.1,0.9,0c1.1-0.3,1.9-1.4,1.6-2.5C56.1,15,47.3,7.1,37,5.3C36.2,5.1,35.4,5,34.6,5c-0.1,0-0.2,0-0.3,0
		c-0.1,0-0.2,0-0.3,0c-6.1-0.4-12.2,1.2-17.3,4.8c-4.6,3.2-8,7.7-9.9,12.9l-2.9-4.1c-0.7-1-2-1.2-3-0.5c-1,0.7-1.2,2-0.5,3l5.5,7.7
		C6,28.9,6.1,29,6.1,29.1z"/>
	
		<rect x="24.9" y="23.3" transform="matrix(0.7071 0.7071 -0.7071 0.7071 30.0799 -10.4579)" class="st0" width="5.5" height="15.5"/>
	<path class="st0" d="M19.3,35.8L18.4,40c0,0.2,0.1,0.3,0.3,0.3l4.2-0.8c0.1,0,0.2-0.2,0.1-0.2l-3.5-3.5
		C19.4,35.6,19.3,35.7,19.3,35.8z"/>
	<path class="st0" d="M36.9,25.6c0.4-0.4,0.4-1,0-1.4l-2.4-2.4c-0.4-0.4-1-0.4-1.4,0l-1,1l3.9,3.9L36.9,25.6z"/>
	<path class="st0" d="M29.6,40.5h3.6c1.1,0,2-0.9,2-2s-0.9-2-2-2h-3.6c-1.1,0-2,0.9-2,2S28.5,40.5,29.6,40.5z"/>
	<path class="st0" d="M39.3,36.5c-1.1,0-2,0.9-2,2s0.9,2,2,2h1.6c1.1,0,2-0.9,2-2s-0.9-2-2-2H39.3z"/>
</g>
</svg>
