<?xml version="1.0" encoding="utf-8"?>
<!-- Generator: Adobe Illustrator 19.0.0, SVG Export Plug-In . SVG Version: 6.00 Build 0)  -->
<svg version="1.1" id="图层_1" xmlns="http://www.w3.org/2000/svg" xmlns:xlink="http://www.w3.org/1999/xlink" x="0px" y="0px"
	 viewBox="0 0 64 64" style="enable-background:new 0 0 64 64;" xml:space="preserve">
<g id="XMLID_11_">
	<path id="XMLID_30_" d="M32,0C14.3,0,0,14.3,0,32s14.3,32,32,32s32-14.3,32-32S49.7,0,32,0z M32,60C16.6,60,4,47.4,4,32
		S16.6,4,32,4s28,12.6,28,28S47.4,60,32,60z"/>
	
		<rect id="XMLID_32_" x="29.4" y="22.6" transform="matrix(-0.6325 0.7746 -0.7746 -0.6325 80.2974 12.5224)" width="15.5" height="5.5"/>
	<path id="XMLID_33_" d="M29.2,35.3l4.1-1.2c0.1,0,0.1-0.2,0.1-0.2l-3.8-3.1c-0.1-0.1-0.2,0-0.2,0.1L28.9,35
		C28.9,35.2,29,35.3,29.2,35.3z"/>
	<path id="XMLID_34_" d="M45.9,19c0.4-0.4,0.3-1.1-0.1-1.4l-2.7-2.2c-0.4-0.4-1.1-0.3-1.4,0.1l-0.9,1.1l4.2,3.5L45.9,19z"/>
	<path id="XMLID_35_" d="M46.9,25.1c-1.1,0-2,0.9-2,2v19.6c0,1.3-1,2.3-2.3,2.3h-21c-1.3,0-2.3-1-2.3-2.3V17.3c0-1.3,1-2.3,2.3-2.3
		h14.7c1.1,0,2-0.9,2-2s-0.9-2-2-2H21.6c-3.5,0-6.3,2.8-6.3,6.3v29.4c0,3.5,2.8,6.3,6.3,6.3h21c3.2,0,5.8-2.4,6.3-5.5
		c0-0.2,0.1-0.3,0.1-0.5v-20C48.9,26,48,25.1,46.9,25.1z"/>
	<path id="XMLID_36_" d="M23.3,42.4c0,1.1,0.9,2,2,2h13.6c1.1,0,2-0.9,2-2s-0.9-2-2-2H25.3C24.2,40.4,23.3,41.3,23.3,42.4z"/>
</g>
</svg>
