<?xml version="1.0" encoding="utf-8"?>
<!-- Generator: Adobe Illustrator 19.0.0, SVG Export Plug-In . SVG Version: 6.00 Build 0)  -->
<svg version="1.1" id="图层_1" xmlns="http://www.w3.org/2000/svg" xmlns:xlink="http://www.w3.org/1999/xlink" x="0px" y="0px"
	 viewBox="0 0 64 64" style="enable-background:new 0 0 64 64;" xml:space="preserve">
<style type="text/css">
	.st0{fill:#040000;}
</style>
<path id="XMLID_1_" class="st0" d="M2.3,10.3c1.3,0,2.3,1,2.3,2.3v3.2C10.1,6.4,20.3,0.1,32.1,0.1C49.7,0.1,64,14.4,64,32
	S49.7,63.9,32.1,63.9c-10.7,0-20.1-5.3-25.9-13.3c0,0,0,0,0-0.1c-0.1-0.1-0.2-0.2-0.2-0.3c0,0,0,0,0,0c-0.3-0.4-0.4-0.8-0.4-1.3
	c0-1.3,1-2.3,2.3-2.3c0.9,0,1.7,0.5,2,1.3h0c5,6.9,13.1,11.4,22.2,11.4c15.1,0,27.4-12.3,27.4-27.4S47.2,4.6,32.1,4.6
	c-10.6,0-19.7,6-24.3,14.8h3.6c1.3,0,2.3,1,2.3,2.3c0,1.3-1,2.3-2.3,2.3H2.3C1,24,0,23,0,21.7v-9.1C0,11.3,1,10.3,2.3,10.3z"/>
</svg>
