<?xml version="1.0" encoding="utf-8"?>
<!-- Generator: Adobe Illustrator 19.0.0, SVG Export Plug-In . SVG Version: 6.00 Build 0)  -->
<svg version="1.1" id="图层_1" xmlns="http://www.w3.org/2000/svg" xmlns:xlink="http://www.w3.org/1999/xlink" x="0px" y="0px"
	 viewBox="0 0 64 64" style="enable-background:new 0 0 64 64;" xml:space="preserve">
<path id="XMLID_18_" d="M56.5,42.8H35V31h21.5c1.7,0,3-1.3,3-3s-1.3-3-3-3H35.8L55.7,5.1c1.2-1.2,1.2-3.1,0-4.2
	c-1.2-1.2-3.1-1.2-4.2,0L32,20.3L12.6,0.9c-1.2-1.2-3.1-1.2-4.2,0c-1.2,1.2-1.2,3.1,0,4.2L28.2,25H7.5c-1.7,0-3,1.3-3,3s1.3,3,3,3
	H29v11.7H7.5c-1.7,0-3,1.3-3,3s1.3,3,3,3H29V61c0,1.7,1.3,3,3,3s3-1.3,3-3V48.8h21.5c1.7,0,3-1.3,3-3S58.1,42.8,56.5,42.8z"/>
</svg>
