<?xml version="1.0" encoding="utf-8"?>
<!-- Generator: Adobe Illustrator 19.0.0, SVG Export Plug-In . SVG Version: 6.00 Build 0)  -->
<svg version="1.1" id="图层_1" xmlns="http://www.w3.org/2000/svg" xmlns:xlink="http://www.w3.org/1999/xlink" x="0px" y="0px"
	 viewBox="0 0 64 64" style="enable-background:new 0 0 64 64;" xml:space="preserve">
<style type="text/css">
	.st0{fill:#040000;}
	.st1{fill:none;}
</style>
<path class="st0" d="M43.7,23.5c1.8,0,3.2-1.4,3.2-3.2s-1.4-3.2-3.2-3.2c-1.8,0-3.2,1.4-3.2,3.2S42,23.5,43.7,23.5L43.7,23.5z
	 M20.3,23.5c1.8,0,3.2-1.4,3.2-3.2s-1.4-3.2-3.2-3.2c-1.8,0-3.2,1.4-3.2,3.2C17.1,22.1,18.5,23.5,20.3,23.5L20.3,23.5z"/>
<g id="XMLID_6_">
	<path id="XMLID_17_" class="st0" d="M32,4c15.4,0,28,12.6,28,28S47.4,60,32,60S4,47.4,4,32S16.6,4,32,4 M32,0C14.3,0,0,14.3,0,32
		s14.3,32,32,32s32-14.3,32-32S49.7,0,32,0L32,0z"/>
</g>
<path id="XMLID_2_" class="st1" d="M17.1,48.8c0-7.7,6.2-13.9,13.9-13.9"/>
<line id="XMLID_5_" class="st1" x1="31" y1="37.2" x2="31" y2="37.2"/>
<path id="XMLID_9_" class="st0" d="M43.7,44.4c-0.9-3.3-3-6.1-6-7.8c-1-0.6-2-1-3-1.2c0,0-0.1,0-0.1,0c0,0-0.1,0-0.1,0
	c-0.3-0.1-0.7-0.2-1-0.2c-0.1,0-0.2,0-0.3,0c-0.3,0-0.6-0.1-1-0.1c-0.1,0-0.2,0-0.3,0c-0.3,0-0.6,0-0.8,0c-0.2,0-0.3,0-0.5,0
	c-0.2,0-0.5,0-0.7,0.1c-0.2,0-0.4,0-0.6,0.1c-0.2,0-0.4,0.1-0.6,0.1c-0.2,0-0.4,0.1-0.6,0.1c-0.1,0-0.1,0-0.2,0
	c-0.1,0-0.1,0-0.2,0.1c-4.2,1.2-7.7,4.5-8.9,9c-0.3,1.1,0.3,2.2,1.4,2.4c0.2,0,0.3,0.1,0.5,0.1c0.9,0,1.7-0.6,1.9-1.5
	c0.9-3.2,3.4-5.5,6.4-6.3c0.1,0,0.3-0.1,0.4-0.1c0.2,0,0.3-0.1,0.5-0.1c0.1,0,0.3,0,0.4,0c0.2,0,0.3,0,0.5,0c0.1,0,0.3,0,0.4,0
	c0.2,0,0.3,0,0.5,0c0.1,0,0.3,0,0.4,0c0.2,0,0.3,0,0.5,0.1c0.1,0,0.3,0.1,0.4,0.1c0.1,0,0.3,0.1,0.4,0.1c3,0.8,5.5,3.1,6.4,6.3
	c0.2,0.9,1,1.5,1.9,1.5c0.2,0,0.3,0,0.5-0.1C43.4,46.5,44,45.4,43.7,44.4z"/>
</svg>
