<?xml version="1.0" encoding="utf-8"?>
<!-- Generator: Adobe Illustrator 19.0.0, SVG Export Plug-In . SVG Version: 6.00 Build 0)  -->
<svg version="1.1" id="图层_1" xmlns="http://www.w3.org/2000/svg" xmlns:xlink="http://www.w3.org/1999/xlink" x="0px" y="0px"
	 viewBox="0 0 64 64" style="enable-background:new 0 0 64 64;" xml:space="preserve">
<style type="text/css">
	.st0{fill:#040000;}
</style>
<path id="XMLID_1995_" class="st0" d="M57.6,9c-0.8-0.7-1.8-1.1-2.8-1.1c-0.1,0-0.2,0-0.3,0c-0.1,0-0.7,0-1.8,0
	c-1.7,0-5.1-0.1-8.3-0.9c-4.1-1-8.9-5.5-10.3-6.4C33.5,0.2,32.7,0,31.9,0c-0.8,0-1.6,0.2-2.3,0.7c-0.2,0.1-5.1,5.3-10,6.4
	C16.4,7.8,13,8,11.2,8c-1,0-1.7,0-1.8,0c-0.1,0-0.2,0-0.3,0c-1,0-2.1,0.4-2.8,1.1c-0.8,0.8-1.3,1.8-1.3,2.9v10
	c0,37,25.1,41.8,26.1,42c0.2,0,0.5,0.1,0.7,0.1c0.2,0,0.5,0,0.7-0.1c1.1-0.2,26.3-5,26.3-42v-10C58.9,10.8,58.5,9.8,57.6,9z M43,31
	h-9v9c0,1.1-0.9,2-2,2s-2-0.9-2-2v-9h-9c-1.1,0-2-0.9-2-2s0.9-2,2-2h9v-9c0-1.1,0.9-2,2-2s2,0.9,2,2v9h9c1.1,0,2,0.9,2,2
	S44.1,31,43,31z"/>
</svg>
