<?xml version="1.0" encoding="utf-8"?>
<!-- Generator: Adobe Illustrator 19.0.0, SVG Export Plug-In . SVG Version: 6.00 Build 0)  -->
<svg version="1.1" id="图层_1" xmlns="http://www.w3.org/2000/svg" xmlns:xlink="http://www.w3.org/1999/xlink" x="0px" y="0px"
	 viewBox="0 0 64 64" style="enable-background:new 0 0 64 64;" xml:space="preserve">
<style type="text/css">
	.st0{fill:#040000;}
</style>
<g id="XMLID_2_">
	<path id="XMLID_9_" class="st0" d="M56,0.1h-2.3V0H10.3v0.1H8c-4.4,0-8,3.6-8,8v48c0,4.4,3.6,8,8,8h48c4.4,0,8-3.6,8-8v-48
		C64,3.6,60.4,0.1,56,0.1z M15.4,5.1h33.2v10.3c0,1.9-1.7,3.4-3.7,3.4H19.1c-2,0-3.7-1.5-3.7-3.4V5.1z M55.1,58.9H8.9
		c-2.1,0-3.8-1.7-3.8-3.8V9c0-2.1,1.7-3.8,3.8-3.8h1.3V16c0,4.4,3.5,8,7.9,8h27.7c4.4,0,7.9-3.6,7.9-8V5.1h1.3
		c2.1,0,3.8,1.7,3.8,3.8l0,46.1C58.9,57.2,57.2,58.9,55.1,58.9z"/>
	<circle id="XMLID_12_" class="st0" cx="21.9" cy="12" r="2.5"/>
</g>
</svg>
