<?xml version="1.0" encoding="utf-8"?>
<!-- Generator: Adobe Illustrator 19.0.0, SVG Export Plug-In . SVG Version: 6.00 Build 0)  -->
<svg version="1.1" id="图层_1" xmlns="http://www.w3.org/2000/svg" xmlns:xlink="http://www.w3.org/1999/xlink" x="0px" y="0px"
	 viewBox="0 0 64 64" style="enable-background:new 0 0 64 64;" xml:space="preserve">
<style type="text/css">
	.st0{fill:#040000;}
</style>
<g id="XMLID_1382_">
	<path id="XMLID_1450_" class="st0" d="M6.3,24.4c1.2,0,2.2-1,2.2-2.2V10.9c0-1.8,1.5-3.3,3.3-3.3h10.7c1.2,0,2.2-1,2.2-2.2
		s-1-2.2-2.2-2.2H11.7c-4.2,0-7.7,3.4-7.7,7.7v11.3C4.1,23.4,5.1,24.4,6.3,24.4z"/>
	<path id="XMLID_1441_" class="st0" d="M38.8,7.6H53c1.8,0,3.3,1.5,3.3,3.3v10.5c0,1.2,1,2.2,2.2,2.2s2.2-1,2.2-2.2V10.9
		c0-4.2-3.4-7.7-7.7-7.7H38.8c-1.2,0-2.2,1-2.2,2.2S37.6,7.6,38.8,7.6z"/>
	<path id="XMLID_1434_" class="st0" d="M22.8,56.4H11.7c-1.8,0-3.3-1.5-3.3-3.3V42.4c0-1.2-1-2.2-2.2-2.2c-1.2,0-2.2,1-2.2,2.2v10.6
		c0,4.2,3.4,7.7,7.7,7.7h11.1c1.2,0,2.2-1,2.2-2.2C25,57.4,24,56.4,22.8,56.4z"/>
	<path id="XMLID_1403_" class="st0" d="M58.5,39.5c-1.2,0-2.2,1-2.2,2.2v11.5c0,1.8-1.5,3.3-3.3,3.3H39.6c-1.2,0-2.2,1-2.2,2.2
		c0,1.2,1,2.2,2.2,2.2H53c4.2,0,7.7-3.4,7.7-7.7V41.6C60.6,40.4,59.7,39.5,58.5,39.5z"/>
	<path id="XMLID_1397_" class="st0" d="M61.8,29.7H2.2c-1.2,0-2.2,1-2.2,2.2C0,33,1,34,2.2,34h59.7c1.2,0,2.2-1,2.2-2.2
		C64,30.7,63,29.7,61.8,29.7z"/>
</g>
</svg>
