<?xml version="1.0" encoding="utf-8"?>
<!-- Generator: Adobe Illustrator 19.0.0, SVG Export Plug-In . SVG Version: 6.00 Build 0)  -->
<svg version="1.1" id="图层_1" xmlns="http://www.w3.org/2000/svg" xmlns:xlink="http://www.w3.org/1999/xlink" x="0px" y="0px"
	 viewBox="0 0 64 64" style="enable-background:new 0 0 64 64;" xml:space="preserve">
<style type="text/css">
	.st0{fill:#040000;}
</style>
<path id="XMLID_395_" class="st0" d="M63.4,26.1c-0.1-0.6-0.6-1-1.2-1.2c-3.3-0.7-6.1-2.8-7.8-5.7c-1.7-2.9-2.1-6.3-1.1-9.5
	c0.2-0.6,0-1.2-0.5-1.6c-3-2.6-6.5-4.6-10.2-6c-0.6-0.2-1.2-0.1-1.6,0.4c-2.3,2.5-5.6,3.9-9.1,3.9c-3.4,0-6.6-1.3-8.9-3.8
	C22.7,2.2,22,2,21.3,2.2c-3.8,1.3-7.2,3.4-10.2,6c-0.5,0.4-0.6,1-0.5,1.6c1,3.2,0.6,6.6-1.1,9.4c-1.7,2.9-4.5,5-7.8,5.7
	c-0.6,0.1-1,0.6-1.2,1.2c-0.8,3.9-0.8,7.9,0,11.8c0.1,0.6,0.6,1.1,1.2,1.2c3.3,0.7,6.1,2.8,7.8,5.7c1.7,2.9,2.1,6.3,1.1,9.5
	c-0.2,0.6,0,1.2,0.5,1.6c3,2.6,6.5,4.6,10.2,6h0.5c0.4,0,0.8-0.2,1.1-0.5c4.7-4.9,12.4-5.1,17.4-0.4c0.2,0.1,0.3,0.3,0.4,0.4
	c0.4,0.6,1.3,0.8,1.9,0.5c3.8-1.3,7.3-3.3,10.4-5.9c0.5-0.4,0.6-1,0.5-1.6c-1.1-3.2-0.8-6.6,0.9-9.5c1.7-2.9,4.5-4.9,7.8-5.7
	c0.6-0.1,1-0.6,1.2-1.2C64.2,34,64.2,30,63.4,26.1z M32,44.7L32,44.7c-7.1,0-12.8-5.7-12.8-12.7c0-7,5.7-12.7,12.8-12.7h0
	c3.4,0,6.6,1.3,9.1,3.7c2.4,2.4,3.8,5.6,3.8,9C44.8,39,39.1,44.7,32,44.7z"/>
</svg>
