<?xml version="1.0" encoding="utf-8"?>
<!-- Generator: Adobe Illustrator 19.0.0, SVG Export Plug-In . SVG Version: 6.00 Build 0)  -->
<svg version="1.1" id="图层_1" xmlns="http://www.w3.org/2000/svg" xmlns:xlink="http://www.w3.org/1999/xlink" x="0px" y="0px"
	 viewBox="0 0 64 64" style="enable-background:new 0 0 64 64;" xml:space="preserve">
<style type="text/css">
	.st0{fill:#040000;}
</style>
<g id="XMLID_858_">
	<path id="XMLID_862_" class="st0" d="M63.4,26.1c-0.1-0.6-0.6-1-1.2-1.2c-3.3-0.7-6.1-2.8-7.8-5.7c-1.7-2.9-2.1-6.3-1.1-9.5
		c0.2-0.6,0-1.2-0.5-1.6c-3-2.6-6.5-4.6-10.2-6c-0.6-0.2-1.2-0.1-1.6,0.4c-2.3,2.5-5.6,3.9-9.1,3.9c-3.4,0-6.6-1.3-8.9-3.8
		C22.7,2.2,22,2,21.3,2.2c-3.8,1.3-7.2,3.4-10.2,6c-0.5,0.4-0.6,1-0.5,1.6c1,3.2,0.6,6.6-1.1,9.4c-1.7,2.9-4.5,5-7.8,5.7
		c-0.6,0.1-1,0.6-1.2,1.2c-0.8,3.9-0.8,7.9,0,11.8c0.1,0.6,0.6,1.1,1.2,1.2c3.3,0.7,6.1,2.8,7.8,5.7c1.7,2.9,2.1,6.3,1.1,9.5
		c-0.2,0.6,0,1.2,0.5,1.6c3,2.6,6.5,4.6,10.2,6h0.5c0.4,0,0.8-0.2,1.1-0.5c4.7-4.9,12.4-5.1,17.4-0.4c0.2,0.1,0.3,0.3,0.4,0.4
		c0.4,0.6,1.3,0.8,1.9,0.5c3.8-1.3,7.3-3.3,10.4-5.9c0.5-0.4,0.6-1,0.5-1.6c-1.1-3.2-0.8-6.6,0.9-9.5c1.7-2.9,4.5-4.9,7.8-5.7
		c0.6-0.1,1-0.6,1.2-1.2C64.2,34,64.2,30,63.4,26.1z M59.5,36.2L59.5,36.2L59.5,36.2c-3.7,1.1-6.7,3.4-8.6,6.6
		c-1.8,3.2-2.3,6.9-1.5,10.5c-2.3,1.8-4.8,3.2-7.5,4.2c-2.6-2.6-6.2-4.2-9.9-4.2c-3.7,0.1-7.3,1.6-9.9,4.2c-2.7-1-5.2-2.5-7.5-4.2
		c0.9-3.5,0.3-7.3-1.6-10.4c-1.9-3.2-4.9-5.5-8.4-6.6c-0.5-2.8-0.5-5.7,0-8.5c3.6-1,6.6-3.4,8.5-6.5c1.8-3.2,2.3-6.9,1.5-10.5
		c2.3-1.8,4.8-3.2,7.5-4.2c2.7,2.5,6.3,3.9,9.9,3.9c3.7,0,7.2-1.4,9.9-3.9c2.7,1,5.2,2.5,7.5,4.3c-0.8,3.5-0.3,7.3,1.5,10.4
		c1.9,3.2,5,5.5,8.5,6.5C60,30.5,60,33.4,59.5,36.2z"/>
	<path id="XMLID_859_" class="st0" d="M32,19.2L32,19.2c-7.1,0-12.8,5.7-12.8,12.7c0,7.1,5.8,12.8,12.8,12.7h0
		c7.1,0,12.8-5.7,12.8-12.7c0-3.4-1.4-6.6-3.8-9C38.6,20.6,35.4,19.2,32,19.2z M38,38c-1.6,1.6-3.8,2.5-6,2.5h0
		c-4.7,0-8.5-3.8-8.5-8.5c0-4.7,3.8-8.5,8.5-8.5c4.7,0,8.5,3.8,8.5,8.5C40.5,34.2,39.6,36.4,38,38z"/>
</g>
</svg>
