<?xml version="1.0" encoding="utf-8"?>
<!-- Generator: Adobe Illustrator 19.0.0, SVG Export Plug-In . SVG Version: 6.00 Build 0)  -->
<svg version="1.1" id="图层_1" xmlns="http://www.w3.org/2000/svg" xmlns:xlink="http://www.w3.org/1999/xlink" x="0px" y="0px"
	 viewBox="0 0 64 64" style="enable-background:new 0 0 64 64;" xml:space="preserve">
<style type="text/css">
	.st0{fill:#040000;}
</style>
<g id="XMLID_2917_">
	<path id="XMLID_2919_" class="st0" d="M56.4,4.8C47.8,1.4,40.5,0,32,0C23.5,0,16.2,1.4,7.7,4.8c-2.2,0.8-3.7,3-3.7,5.4v24.6
		c0,15.6,22.9,27.3,25.5,28.5c0.8,0.4,1.7,0.6,2.5,0.6s1.8-0.2,2.5-0.6c2.6-1.3,25.5-13,25.5-28.5V10.3C60.1,7.8,58.6,5.7,56.4,4.8z
		 M56.3,34.9c0,13.5-22.5,24.7-23.4,25.2c-0.2,0.1-0.6,0.2-0.9,0.2s-0.6-0.1-0.9-0.2c-1-0.5-23.4-11.6-23.4-25.2V10.3
		c0-0.9,0.5-1.6,1.3-1.9c8.1-3.2,15-4.6,23-4.6c8,0,14.9,1.4,23,4.6l0.1,0c0.7,0.3,1.2,1,1.2,1.9V34.9z"/>
	<path id="XMLID_2918_" class="st0" d="M43.3,25.4h-8.9l2.3-13.6c0-0.3-0.1-0.5-0.4-0.6c-0.2-0.2-0.5-0.1-0.7,0.1L20.3,31.6
		c-0.2,0.2-0.2,0.5-0.1,0.7c0.1,0.2,0.3,0.3,0.5,0.3h10l-2.3,13.6c-0.1,0.3,0,0.5,0.4,0.6c0,0,0.1,0.1,0.2,0.1
		c0.2,0,0.4-0.1,0.5-0.2l14.3-20.2c0-0.2,0-0.5,0-0.7C43.8,25.6,43.6,25.4,43.3,25.4z"/>
</g>
</svg>
