<?xml version="1.0" encoding="utf-8"?>
<!-- Generator: Adobe Illustrator 19.0.0, SVG Export Plug-In . SVG Version: 6.00 Build 0)  -->
<svg version="1.1" id="图层_1" xmlns="http://www.w3.org/2000/svg" xmlns:xlink="http://www.w3.org/1999/xlink" x="0px" y="0px"
	 viewBox="0 0 64 64" style="enable-background:new 0 0 64 64;" xml:space="preserve">
<style type="text/css">
	.st0{fill:#040000;}
</style>
<path id="XMLID_1114_" class="st0" d="M64,25.5l-0.2-1.9c0-0.2-0.1-0.4-0.1-0.6l-6-14.9c-0.1-0.3-1.1-2.6-2.7-4.3
	C53.4,2.3,51.1,2,49.3,2c-0.4,0-0.7,0-0.7,0L15.5,2c0,0-0.3,0-0.8,0c-1.7,0-4.1,0.3-5.6,1.9c-1.7,1.7-2.6,4-2.7,4.3L0.3,23
	c-0.1,0.2-0.1,0.4-0.1,0.6L0,25.9c0.4,3.4,2.8,6,6,6.8V57c0,2.8,2,5,4.5,5h43c2.5,0,4.5-2.2,4.5-5V32.7C61.1,31.9,63.6,29.2,64,25.5
	z M53.5,58h-43c-0.1,0-0.5-0.4-0.5-1V32.6c1.5-0.4,2.9-1.3,3.9-2.5c0.3,0.3,0.6,0.7,0.9,0.9c0.7,0.6,1.4,1,2.2,1.3v9.2
	c0,2.6,2,4.8,4.5,4.8h20.9c2.5,0,4.5-2.1,4.5-4.8v-9.2c1.2-0.5,2.3-1.2,3.2-2.3c1,1.2,2.4,2.1,3.9,2.5V57C54,57.7,53.6,58,53.5,58z
	 M21.1,32.8c1.9-0.3,3.6-1.2,4.9-2.7c1.5,1.8,3.7,2.8,6,2.8h0c2.4,0,4.6-1.1,6-2.8c0.3,0.3,0.6,0.7,1,1c1.2,1,2.5,1.6,4,1.8v8.7
	c0,0.5-0.3,0.8-0.5,0.8H21.5c-0.2,0-0.5-0.3-0.5-0.8V32.8z"/>
</svg>
