<?xml version="1.0" encoding="utf-8"?>
<!-- Generator: Adobe Illustrator 19.0.0, SVG Export Plug-In . SVG Version: 6.00 Build 0)  -->
<svg version="1.1" id="图层_1" xmlns="http://www.w3.org/2000/svg" xmlns:xlink="http://www.w3.org/1999/xlink" x="0px" y="0px"
	 viewBox="0 0 64 64" style="enable-background:new 0 0 64 64;" xml:space="preserve">
<style type="text/css">
	.st0{fill:#070001;}
</style>
<g id="XMLID_1361_">
	<path id="XMLID_1373_" class="st0" d="M51.8,31.3h4.3c1.2,0,2.1-1,2.1-2.1c0-1.2-1-2.1-2.1-2.1h-4.3c-1.2,0-2.1,1-2.1,2.1
		C49.7,30.4,50.6,31.3,51.8,31.3z"/>
	<path id="XMLID_1370_" class="st0" d="M56.1,35.6H43.3c-1.2,0-2.1,1-2.1,2.1c0,1.2,1,2.1,2.1,2.1h12.8c1.2,0,2.1-1,2.1-2.1
		C58.2,36.6,57.2,35.6,56.1,35.6z"/>
	<path id="XMLID_1369_" class="st0" d="M21.9,29.2c0-1.2-1-2.1-2.1-2.1h-4.3c-1.2,0-2.1,1-2.1,2.1c0,1.2,1,2.1,2.1,2.1h4.3
		C21,31.3,21.9,30.4,21.9,29.2z"/>
	<path id="XMLID_1368_" class="st0" d="M11.8,48.7L11.8,48.7L11.8,48.7C11.7,48.7,11.7,48.7,11.8,48.7L11.8,48.7H5.1
		c-0.5,0-1-0.5-1-1V19.3c0-0.5,0.5-1,1-1h22l0,0c1.1,0,2-0.9,2-2s-0.9-2-2-2H5c-2.8,0-5,2.3-5,5v28.4c0,2.8,2.3,5,5,5h6.7l0,0
		c1.1,0,2-0.9,2-2S12.8,48.7,11.8,48.7z"/>
	<path id="XMLID_1367_" class="st0" d="M59,14.3h-5.6c-1.1,0-2,0.9-2,2s0.9,2,2,2l0,0H59c0.5,0,1,0.5,1,1v28.4c0,0.5-0.5,1-1,1H32.7
		l0,0c-1.1,0-2,0.9-2,2s0.9,2,2,2H59c2.8,0,5-2.3,5-5V19.3C64,16.5,61.7,14.3,59,14.3z"/>
	<path id="XMLID_1362_" class="st0" d="M47.4,17.4c1.2-2,0.5-4.5-1.5-5.7c0,0-0.1,0-0.1-0.1l-3.7-2.1C40,8.3,37.4,9,36.2,11L19,40.3
		l0,0L16.9,53c-0.3,1.2,1.7,2.6,3.1,1.8l2.6-2.1l5.3-4.3l2.3-1.8l0,0l0,0L47.4,17.4z M26.5,44.4l-3.7-2.1L40,13.2l3.7,2.1L26.5,44.4
		z"/>
</g>
</svg>
