<?xml version="1.0" encoding="utf-8"?>
<!-- Generator: Adobe Illustrator 19.0.0, SVG Export Plug-In . SVG Version: 6.00 Build 0)  -->
<svg version="1.1" id="图层_1" xmlns="http://www.w3.org/2000/svg" xmlns:xlink="http://www.w3.org/1999/xlink" x="0px" y="0px"
	 viewBox="0 0 64 64" style="enable-background:new 0 0 64 64;" xml:space="preserve">
<style type="text/css">
	.st0{fill:#040000;}
</style>
<g id="XMLID_2339_">
	<path id="XMLID_2350_" class="st0" d="M61.7,52.6h-30c-1-3.9-4.6-6.9-8.9-6.9c-4.3,0-7.8,2.9-8.9,6.9H2.3c-1.3,0-2.3,1-2.3,2.3
		c0,1.3,1,2.3,2.3,2.3H14c1,3.9,4.6,6.9,8.9,6.9c4.3,0,7.8-2.9,8.9-6.9h30c1.3,0,2.3-1,2.3-2.3C64,53.6,63,52.6,61.7,52.6z
		 M22.9,59.5c-2.6,0-4.6-2.1-4.6-4.6s2.1-4.6,4.6-4.6c2.6,0,4.6,2.1,4.6,4.6S25.4,59.5,22.9,59.5z"/>
	<path id="XMLID_2355_" class="st0" d="M61.7,29.7H50c-1-3.9-4.6-6.9-8.9-6.9c-4.3,0-7.8,2.9-8.9,6.9h-30C1,29.7,0,30.7,0,32
		s1,2.3,2.3,2.3h30c1,3.9,4.6,6.9,8.9,6.9c4.3,0,7.8-2.9,8.9-6.9h11.7c1.3,0,2.3-1,2.3-2.3S63,29.7,61.7,29.7z M41.1,36.6
		c-2.6,0-4.6-2.1-4.6-4.6c0-2.6,2.1-4.6,4.6-4.6c2.6,0,4.6,2.1,4.6,4.6S43.7,36.6,41.1,36.6z"/>
	<path id="XMLID_2359_" class="st0" d="M2.3,11.4H14c1,3.9,4.6,6.9,8.9,6.9c4.3,0,7.8-2.9,8.9-6.9h30c1.3,0,2.3-1,2.3-2.3
		s-1-2.3-2.3-2.3h-30c-1-3.9-4.6-6.9-8.9-6.9C18.6,0,15,2.9,14,6.9H2.3C1,6.9,0,7.9,0,9.1S1,11.4,2.3,11.4z M22.9,4.5
		c2.6,0,4.6,2.1,4.6,4.6s-2.1,4.6-4.6,4.6c-2.6,0-4.6-2.1-4.6-4.6S20.3,4.5,22.9,4.5z"/>
</g>
</svg>
