<?xml version="1.0" encoding="utf-8"?>
<!-- Generator: Adobe Illustrator 19.0.0, SVG Export Plug-In . SVG Version: 6.00 Build 0)  -->
<svg version="1.1" id="图层_1" xmlns="http://www.w3.org/2000/svg" xmlns:xlink="http://www.w3.org/1999/xlink" x="0px" y="0px"
	 viewBox="0 0 64 64" style="enable-background:new 0 0 64 64;" xml:space="preserve">
<style type="text/css">
	.st0{fill:#040000;}
</style>
<path class="st0" d="M43.7,23.5c1.8,0,3.2-1.4,3.2-3.2s-1.4-3.2-3.2-3.2c-1.8,0-3.2,1.4-3.2,3.2S42,23.5,43.7,23.5L43.7,23.5z
	 M46.8,29.9c-1.2,0-2.1,1-2.1,2.1l0,0c-1,6-6.3,10.6-12.7,10.6c-6.3,0-11.6-4.6-12.7-10.6l0,0c0-1.2-1-2.1-2.1-2.1
	c-1.2,0-2.1,1-2.1,2.1h0c0,0,0,0.1,0,0.1c0,0.1,0,0.3,0.1,0.4c1.3,8.1,8.3,14.4,16.9,14.4c8.5,0,15.6-6.3,16.9-14.4
	c0-0.1,0-0.2,0-0.3c0,0,0-0.1,0-0.1l0,0C48.9,30.8,48,29.9,46.8,29.9L46.8,29.9z M20.3,23.5c1.8,0,3.2-1.4,3.2-3.2s-1.4-3.2-3.2-3.2
	c-1.8,0-3.2,1.4-3.2,3.2C17.1,22.1,18.5,23.5,20.3,23.5L20.3,23.5z"/>
<g id="XMLID_6_">
	<path id="XMLID_17_" class="st0" d="M32,4c15.4,0,28,12.6,28,28S47.4,60,32,60S4,47.4,4,32S16.6,4,32,4 M32,0C14.3,0,0,14.3,0,32
		s14.3,32,32,32s32-14.3,32-32S49.7,0,32,0L32,0z"/>
</g>
</svg>
