<?xml version="1.0" encoding="utf-8"?>
<!-- Generator: Adobe Illustrator 19.0.0, SVG Export Plug-In . SVG Version: 6.00 Build 0)  -->
<svg version="1.1" id="图层_1" xmlns="http://www.w3.org/2000/svg" xmlns:xlink="http://www.w3.org/1999/xlink" x="0px" y="0px"
	 viewBox="0 0 64 64" style="enable-background:new 0 0 64 64;" xml:space="preserve">
<g id="XMLID_3_">
	<path id="XMLID_20_" d="M32,0C14.3,0,0,14.3,0,32s14.3,32,32,32s32-14.3,32-32S49.7,0,32,0z M32,63.5C14.6,63.5,0.5,49.4,0.5,32
		C0.5,14.6,14.6,0.5,32,0.5S63.5,14.6,63.5,32C63.5,49.4,49.4,63.5,32,63.5z"/>
	<path id="XMLID_32_" d="M32,2.7C15.8,2.7,2.7,15.8,2.7,32S15.8,61.3,32,61.3S61.3,48.2,61.3,32S48.2,2.7,32,2.7z M32,60.6
		C16.3,60.6,3.4,47.7,3.4,32C3.4,16.3,16.3,3.4,32,3.4c15.7,0,28.6,12.8,28.6,28.6C60.6,47.7,47.7,60.6,32,60.6z"/>
	<path id="XMLID_35_" d="M32,8.6C19.1,8.6,8.6,19.1,8.6,32c0,12.9,10.5,23.4,23.4,23.4S55.4,44.9,55.4,32C55.4,19.1,44.9,8.6,32,8.6
		z M32,54.4c-12.3,0-22.4-10-22.4-22.4c0-12.3,10-22.4,22.4-22.4s22.4,10,22.4,22.4C54.4,44.3,44.3,54.4,32,54.4z"/>
	<path id="XMLID_38_" d="M32,12.6c-10.7,0-19.4,8.7-19.4,19.4S21.3,51.4,32,51.4S51.4,42.7,51.4,32S42.7,12.6,32,12.6z M32,50.9
		c-10.4,0-18.9-8.5-18.9-18.9c0-10.4,8.5-18.9,18.9-18.9S50.9,21.6,50.9,32C50.9,42.4,42.4,50.9,32,50.9z"/>
	<path id="XMLID_39_" d="M22.1,31.7c-0.3,0.6-0.7,0.7-1.4,0.4c-0.5-0.2-1.1-0.6-2-1.1c-0.1,0.5-0.2,1-0.4,1.4c0.8,0.4,1.5,0.8,2.1,1
		c1.3,0.6,2.2,0.3,2.8-0.9l5.3-11.5l-1.2-0.6L22.1,31.7z"/>
	<path id="XMLID_40_" d="M30.1,33.7c0-2.9-0.2-5.7-0.4-8.3l-1.3,0c0.1,2.4,0.2,5.2,0.1,8.3L30.1,33.7z"/>
	<path id="XMLID_41_" d="M23.5,23l-1-0.9c-2.3,2.4-4.4,4.2-6.3,5.5c0.3,0.4,0.6,0.8,0.9,1.1C19.3,27,21.4,25.1,23.5,23z"/>
	<path id="XMLID_42_" d="M36.3,34c-0.9-0.2-2-0.5-3.3-0.9c1.8-1,3.6-2.2,5.4-3.4l-0.8-1c-0.6,0.5-1.2,0.9-1.8,1.3
		c-0.6-0.2-1.2-0.5-1.7-0.7c1.1-0.7,2.6-1.8,4.5-3.3L37.8,25c-1.9,1.7-3.5,3-4.9,3.7l-0.2,1.1c0.7,0.2,1.4,0.5,2.2,0.8
		c-1.4,1-2.6,1.6-3.5,2l-0.2,1.1c1.9,0.5,3.4,1,4.5,1.3C35.9,34.7,36.1,34.3,36.3,34z"/>
	<path id="XMLID_43_" d="M35.2,36.7c-1.8-0.3-3.7-0.7-5.5-1.2l-0.2,1.2c1.8,0.3,3.5,0.7,5.2,1C34.8,37.4,35,37.1,35.2,36.7z"/>
	<polygon id="XMLID_44_" points="47.3,33.4 47.8,32.4 43.9,30.6 44.9,28.4 43.8,27.9 42.8,30.1 38.9,28.4 38.5,29.4 42.3,31.1 
		41.3,33.3 37.9,31.7 37.5,32.7 45.4,36.3 45.8,35.3 42.4,33.8 43.4,31.6 	"/>
	<path id="XMLID_47_" d="M34.4,40.1l1.1,0.5l0.4-0.9l5.2,2.4L40.7,43l1.1,0.5l2.6-5.6L37,34.5L34.4,40.1z M42.8,38.3l-1.3,2.8
		l-5.2-2.4l1.3-2.8L42.8,38.3z"/>
</g>
</svg>
