<?xml version="1.0" encoding="utf-8"?>
<!-- Generator: Adobe Illustrator 19.0.0, SVG Export Plug-In . SVG Version: 6.00 Build 0)  -->
<svg version="1.1" id="图层_1" xmlns="http://www.w3.org/2000/svg" xmlns:xlink="http://www.w3.org/1999/xlink" x="0px" y="0px"
	 viewBox="0 0 64 64" style="enable-background:new 0 0 64 64;" xml:space="preserve">
<style type="text/css">
	.st0{fill:#040000;}
</style>
<g id="XMLID_683_">
	<path id="XMLID_711_" class="st0" d="M18.8,31L18.8,31c-0.8-0.5-1.2-1.1-1.2-1.7c0-0.2,0-0.3,0.1-0.5c-0.2,0.7-0.5,1.3-0.7,2V39
		c0.1-0.1,0.2-0.1,0.3-0.2l0.3-0.2h5.4v-7.5H19L18.8,31z"/>
	<rect id="XMLID_718_" x="26.6" y="31.2" class="st0" width="6.9" height="7.5"/>
	<path id="XMLID_798_" class="st0" d="M63.5,1.9L63.5,1.9L63.5,1.9V1.6c0,0,0-0.1,0-0.1v0c0,0,0-0.1,0-0.1c0,0,0,0,0-0.1
		c0,0,0-0.1,0-0.1c0,0,0-0.1,0-0.1s0,0,0,0c0,0,0-0.1-0.1-0.1c0,0,0,0,0,0c0,0,0-0.1-0.1-0.1l0,0c0,0,0-0.1-0.1-0.1l0,0l-0.1-0.1
		l0,0c0,0-0.1,0-0.1-0.1l0,0c0,0-0.1,0-0.1-0.1h0c0,0-0.1,0-0.1,0c0,0,0,0,0,0c0,0-0.1,0-0.1,0h0c0,0-0.1,0-0.1,0h-0.2H13.7
		c-0.5,0-0.9,0.2-1.3,0.5L0.9,10.1c0,0-0.1,0-0.1,0.1l0,0c0,0-0.1,0.1-0.1,0.1l0,0v0l0,0l0,0c0,0,0,0.1-0.1,0.2v0c0,0,0,0.1,0,0.1v0
		c0,0,0,0.1,0,0.1v0c0,0,0,0.1,0,0.1V62c0,1.1,0.9,2,2,2h50.4c0,0,0.1,0,0.1,0c0,0,0,0,0.1,0c0,0,0,0,0.1,0c0,0,0.1,0,0.1,0l0.1,0
		c0,0,0.1,0,0.1,0l0,0c0,0,0.1,0,0.1-0.1c0,0,0,0,0,0c0.1-0.1,0.3-0.2,0.3-0.3l0,0l0,0l9.2-12c0.3-0.3,0.4-0.8,0.4-1.2L63.5,1.9z
		 M14.4,3.9h18.2l-5.5,5.8H7.6L14.4,3.9z M42.9,42.3l-0.3,0.2h-7.4l0,0c2.6,2.7,4.8,5.5,6.8,8.4l0.2,0.3v0.4c0,2.1-1.4,2.2-1.7,2.2
		c-0.4,0-0.9-0.1-1.3-0.4l-0.2-0.1L39,53.1c-2.1-2.8-4.3-5.5-6.6-8l-0.2-0.3l0-0.3c-0.1-0.8,0-1.4,0.4-1.9l0.2-0.2h-4.8
		c0.3,0.3,0.5,0.9,0.5,1.6v0.3l-0.1,0.3c-1.9,3.4-4.5,6.3-7.8,8.7l-0.2,0.1l-0.3,0c-0.2,0-0.4,0-0.6,0c-0.9,0-1.4-0.5-1.5-0.7
		c-0.5-0.8-0.2-1.8,0.1-2.4l0.1-0.3l0.2-0.2c2.8-2.1,5-4.5,6.7-7.2l0.1-0.2h-7.6l-0.3-0.2c-0.1-0.1-0.2-0.1-0.3-0.2v10.5l-0.1,0.2
		c-0.5,0.9-1.1,1.4-1.8,1.4c-0.7,0-1.3-0.5-1.8-1.4l-0.1-0.2v-15l-0.5,0.6l-0.2,0.2l-0.3,0.1c-0.4,0.1-0.7,0.2-1.1,0.2
		c-0.9,0-1.8-0.5-1.8-2v-0.3l0.2-0.3C13,31,15,26,15.5,21.4l0-0.3l0.1-0.2c0.5-0.8,1.1-1.2,1.7-1.2c0.7,0,1.3,0.4,1.7,1.2l0.2,0.3
		l0,0.4c-0.3,2.3-0.9,4.6-1.7,7.1c0.2-0.5,0.6-0.9,1.1-1.2l0.2-0.2h3.8v-5.9l0.2-0.3c0.5-0.8,1.1-1.2,1.7-1.2c0.7,0,1.3,0.4,1.7,1.2
		l0.2,0.3v5.9h7.1v-5.9l0.2-0.3c0.5-0.8,1.1-1.2,1.7-1.2c0.7,0,1.3,0.4,1.7,1.2l0.2,0.3v5.9h4l0.3,0.2c0.8,0.5,1.2,1.1,1.2,1.7
		s-0.4,1.3-1.2,1.7l-0.3,0.2h-4v7.5h5.1l0.3,0.2c0.8,0.5,1.2,1.1,1.2,1.7S43.7,41.8,42.9,42.3z M51.4,9.6H32.6l5.5-5.8h18.8
		L51.4,9.6z M59.5,49.4l-5.3,6.9V12.4l5.3-5.5V49.4z"/>
</g>
</svg>
