<?xml version="1.0" encoding="utf-8"?>
<!-- Generator: Adobe Illustrator 19.0.0, SVG Export Plug-In . SVG Version: 6.00 Build 0)  -->
<svg version="1.1" id="图层_1" xmlns="http://www.w3.org/2000/svg" xmlns:xlink="http://www.w3.org/1999/xlink" x="0px" y="0px"
	 viewBox="0 0 64 64" style="enable-background:new 0 0 64 64;" xml:space="preserve">
<style type="text/css">
	.st0{fill:#040000;}
</style>
<g id="XMLID_1030_">
	<path id="XMLID_625_" class="st0" d="M53.9,33L26,5.1c0,0,0,0,0,0c-0.1-0.1-0.1-0.1-0.2-0.1c0,0-0.1-0.1-0.1-0.1
		c-0.1,0-0.1-0.1-0.2-0.1c-0.1,0-0.1,0-0.2-0.1c-0.1,0-0.1,0-0.2-0.1c-0.1,0-0.1,0-0.2,0c-0.1,0-0.1,0-0.2,0c-0.1,0-0.1,0-0.2,0
		c0,0,0,0-0.1,0L7.2,5.9c0,0,0,0,0,0C4,5.9,1.4,8.5,1.3,11.7c0,0,0,0,0,0L0,29c0,0,0,0,0,0.1c0,0.1,0,0.1,0,0.2c0,0.1,0,0.1,0,0.2
		c0,0.1,0,0.1,0,0.2c0,0.1,0,0.1,0.1,0.2c0,0.1,0,0.1,0.1,0.2c0,0.1,0.1,0.1,0.1,0.2c0,0,0.1,0.1,0.1,0.1c0,0.1,0.1,0.1,0.1,0.2
		c0,0,0,0,0,0.1l26.8,26.8c1.5,1.5,3.4,2.2,5.4,2.2c1.9,0,3.9-0.7,5.4-2.2l16-16c0.1-0.1,0.2-0.2,0.3-0.3c0.8-1.1,1.3-2.3,1.3-3.7
		C55.6,35.6,55,34.1,53.9,33z M23.4,27.9c-1.3,1.3-3.1,2-4.8,2c-1.7,0-3.5-0.7-4.8-2c-1.3-1.3-2-3-2-4.8s0.7-3.5,2-4.8
		c2.6-2.6,7-2.6,9.6,0c1.3,1.3,2,3,2,4.8S24.7,26.6,23.4,27.9z"/>
	<path id="XMLID_1034_" class="st0" d="M61.8,31.1c-0.1-0.1-0.2-0.2-0.3-0.3L38.7,7.9c-0.7-0.7-1.9-0.7-2.7,0
		c-0.7,0.7-0.7,1.9,0,2.7L58.5,33c2.4,2.4,2.4,6.2,0,8.6L43.8,56.3c-0.7,0.7-0.7,1.9,0,2.7c0.4,0.4,0.8,0.6,1.3,0.6
		c0.5,0,1-0.2,1.3-0.6l14.7-14.7C64.7,40.6,64.9,34.9,61.8,31.1z"/>
</g>
</svg>
