<?xml version="1.0" encoding="utf-8"?>
<!-- Generator: Adobe Illustrator 19.0.0, SVG Export Plug-In . SVG Version: 6.00 Build 0)  -->
<svg version="1.1" id="图层_1" xmlns="http://www.w3.org/2000/svg" xmlns:xlink="http://www.w3.org/1999/xlink" x="0px" y="0px"
	 viewBox="0 0 64 64" style="enable-background:new 0 0 64 64;" xml:space="preserve">
<style type="text/css">
	.st0{fill:#040000;}
</style>
<g id="XMLID_953_">
	<path id="XMLID_1457_" class="st0" d="M32,22c0.5,0,1,0.1,1.5,0.1l3.3-3.3C35.3,18.3,33.7,18,32,18c-7.7,0-14,6.3-14,14
		s6.3,14,14,14s14-6.3,14-14c0-1.7-0.3-3.3-0.9-4.8l-3.3,3.3c0.1,0.5,0.1,1,0.1,1.5c0,5.5-4.5,10-10,10s-10-4.5-10-10
		C22,26.5,26.5,22,32,22z"/>
	<path id="XMLID_1078_" class="st0" d="M57,19.4c1.9,3.8,3,8.1,3,12.6c0,15.4-12.6,28-28,28S4,47.4,4,32S16.6,4,32,4
		c4.5,0,8.8,1.1,12.6,3l3-3C43,1.5,37.7,0,32,0C14.3,0,0,14.3,0,32s14.3,32,32,32s32-14.3,32-32c0-5.7-1.5-11-4.1-15.6L57,19.4z"/>
	<path id="XMLID_958_" class="st0" d="M47.7,13.7L33,28.4c-0.3-0.1-0.6-0.1-1-0.1c-2.1,0-3.8,1.7-3.8,3.8s1.7,3.8,3.8,3.8
		s3.8-1.7,3.8-3.8c0-0.3-0.1-0.6-0.1-0.9l14.7-14.7l3.6,0.4l10-10l-5.4-1.3L57.3,0l-10,10L47.7,13.7z"/>
	<path id="XMLID_954_" class="st0" d="M41.3,14.3L41.3,14.3l2.9-2.9l-1.1-0.7C39.8,9,36,8,32,8C18.7,8,8,18.7,8,32s10.7,24,24,24
		s24-10.7,24-24c0-4-1-7.8-2.7-11.1l-3,3c1.1,2.5,1.7,5.2,1.7,8.1c0,11-9,20-20,20s-20-9-20-20s9-20,20-20
		C35.4,12,38.5,12.8,41.3,14.3L41.3,14.3z"/>
</g>
</svg>
