<?xml version="1.0" encoding="utf-8"?>
<!-- Generator: Adobe Illustrator 19.0.0, SVG Export Plug-In . SVG Version: 6.00 Build 0)  -->
<svg version="1.1" id="图层_1" xmlns="http://www.w3.org/2000/svg" xmlns:xlink="http://www.w3.org/1999/xlink" x="0px" y="0px"
	 viewBox="0 0 64 64" style="enable-background:new 0 0 64 64;" xml:space="preserve">
<style type="text/css">
	.st0{fill:#040000;}
</style>
<g id="XMLID_690_">
	<path id="XMLID_707_" class="st0" d="M45.6,54.4l-15.3-7c-0.1-1.6,0.6-3.2,1.8-4.2c4.2-3.3,5.4-7.8,5.4-11.6V21.4
		c0-3.6-6.2-9.5-13.2-9.5c-6.9,0-13.4,6-13.4,9.5v10.2c0,3.9,1.7,8.3,5.8,11.6c1.3,1,1.9,2.6,1.8,4.2c0,0.1,0,0.1,0,0.2L3.4,54.3
		c0,0-3.4,1.5-3.4,3.4v2.5c0,1.9,1.5,3.4,3.4,3.4h42.1c1.9,0,3.5-1.5,3.5-3.4v-2.4C49,55.8,45.6,54.4,45.6,54.4z"/>
	<path id="XMLID_692_" class="st0" d="M60.5,43.5L47,36.3c4.8-3.8,6.1-11.1,6.1-15.3v-8.6c0-5.7-7.6-12.1-15.2-12.1
		c-5.6,0-11.2,3.4-13.9,7.5c0.1,0,0.1,0,0.2,0c9.2,0,17.3,7.6,17.3,13.6v10.2c0,5.5-2,10.4-5.8,13.8l11.4,5.2
		c0.9,0.4,4.2,1.9,5.4,4.8h7.9c1.9,0,3.5-1.5,3.5-3.4v-5.1C64,44.9,60.5,43.5,60.5,43.5z"/>
</g>
</svg>
