<?xml version="1.0" encoding="utf-8"?>
<!-- Generator: Adobe Illustrator 19.0.0, SVG Export Plug-In . SVG Version: 6.00 Build 0)  -->
<svg version="1.1" id="图层_1" xmlns="http://www.w3.org/2000/svg" xmlns:xlink="http://www.w3.org/1999/xlink" x="0px" y="0px"
	 viewBox="0 0 64 64" style="enable-background:new 0 0 64 64;" xml:space="preserve">
<style type="text/css">
	.st0{fill:#040000;}
</style>
<path id="XMLID_750_" class="st0" d="M24.3,15.9c4.9,0,8.9,4.1,9.2,5.5v10.2c0,3.6-1.3,6.5-3.8,8.5c-2.3,1.8-3.6,4.7-3.3,7.7
	l0.2,2.3l2.1,1L44,58l0,0l0.1,0c0.3,0.1,0.7,0.4,1,0.5v1h-41v-1c0.3-0.2,0.7-0.5,1.1-0.6L20,51.3l2-0.9l0.3-2c0-0.2,0.1-0.4,0.1-0.6
	c0.3-3-1-5.8-3.3-7.7c-2.7-2.2-4.3-5.3-4.3-8.5V21.5C15.2,20,19.4,15.9,24.3,15.9 M24.3,11.9c-6.9,0-13.4,6-13.4,9.5v10.2
	c0,3.9,1.7,8.3,5.8,11.6c1.3,1,1.9,2.6,1.8,4.2c0,0.1,0,0.1,0,0.2L3.5,54.3c0,0-3.4,1.5-3.4,3.4v2.5c0,1.9,1.5,3.4,3.4,3.4h42.1
	c1.9,0,3.5-1.5,3.5-3.4v-2.4c0-2-3.5-3.4-3.5-3.4l-15.3-7c-0.1-1.6,0.6-3.2,1.8-4.2c4.2-3.3,5.4-7.8,5.4-11.6V21.4
	C37.5,17.8,31.3,11.9,24.3,11.9L24.3,11.9z"/>
<path id="XMLID_688_" class="st0" d="M60.6,43.5l-13.5-7.2c4.6-3.7,6.1-10.7,6.1-14.9v-8.6C53.2,7,46.4,0.9,39,0.4
	c-6.9-0.5-12.8,3.9-14.9,7.4c1.6,0.1,3.4,0.1,5,0.6c1.5-2,5.9-4.1,10-3.8c5.7,0.4,10.3,5.1,10.3,8.1v8.6c0,3.2-0.5,9.1-3.9,11.9
	c-1,0.8-1.6,2.2-1.5,3.5c0.1,1.4,0.9,2.6,2.1,3.2l12.7,7.1c0.1,0.1,0.2,0.1,0.4,0.2c0.3,0.1,0.7,0.3,0.9,0.5v3.6h-8
	c1.2,0.9,1.6,2.3,2,4.1h6.6c1.9,0,3.4-1.5,3.4-3.4V47C63.9,44.9,60.6,43.5,60.6,43.5z"/>
</svg>
