<?xml version="1.0" encoding="utf-8"?>
<!-- Generator: Adobe Illustrator 19.0.0, SVG Export Plug-In . SVG Version: 6.00 Build 0)  -->
<svg version="1.1" id="图层_1" xmlns="http://www.w3.org/2000/svg" xmlns:xlink="http://www.w3.org/1999/xlink" x="0px" y="0px"
	 viewBox="0 0 64 64" style="enable-background:new 0 0 64 64;" xml:space="preserve">
<style type="text/css">
	.st0{fill:#040000;}
</style>
<g id="XMLID_651_">
	<path id="XMLID_658_" class="st0" d="M7.7,30.6c0,1,0.8,1.8,1.8,1.8h10.6V21.8c0-1-0.8-1.8-1.8-1.8l0,0c-1,0-1.8,0.8-1.8,1.8v7h-7
		C8.5,28.8,7.7,29.6,7.7,30.6z"/>
	<path id="XMLID_652_" class="st0" d="M64,14.7c0-4.7-3.8-8.5-8.5-8.5h-24c-4.7,0-8.5,3.8-8.5,8.5v0.8h-8.5c-2.3,0-4.4,1-5.8,2.8
		l-6.4,8.1c-1.4,1.8-2.2,4-2.2,6.3V50h4.9c0.2,4.4,3.8,7.9,8.3,7.9c4.4,0,8-3.5,8.3-7.9h17.8c0.2,4.4,3.8,7.9,8.3,7.9
		c4.4,0,8.1-3.5,8.3-7.9c4.6-0.1,8.3-3.9,8.3-8.5 M13.1,54.2c-2.6,0-4.6-2.1-4.6-4.6c0-2.6,2.1-4.6,4.6-4.6c2.6,0,4.6,2.1,4.6,4.6
		C17.8,52.2,15.7,54.2,13.1,54.2z M22.9,46.4h-2.2c-1.3-3-4.2-5-7.6-5c-3.4,0-6.3,2.1-7.6,5H3.6V32.6c0-1.5,0.5-2.9,1.4-4l6.4-8.1
		c0.7-0.9,1.8-1.4,2.9-1.4h8.5V46.4z M47.5,54.2c-2.6,0-4.6-2.1-4.6-4.6c0-2.6,2.1-4.6,4.6-4.6l0,0c2.6,0,4.6,2.1,4.6,4.6
		C52.1,52.2,50,54.2,47.5,54.2z M60.4,41.5c0,2.7-2.2,4.9-4.9,4.9h-0.4c-1.3-3-4.2-5-7.6-5c-3.4,0-6.3,2.1-7.6,5H26.5V14.7
		c0-2.7,2.2-4.9,4.9-4.9h24c2.7,0,4.9,2.2,4.9,4.9"/>
</g>
</svg>
