<?xml version="1.0" encoding="utf-8"?>
<!-- Generator: Adobe Illustrator 19.0.0, SVG Export Plug-In . SVG Version: 6.00 Build 0)  -->
<svg version="1.1" id="图层_1" xmlns="http://www.w3.org/2000/svg" xmlns:xlink="http://www.w3.org/1999/xlink" x="0px" y="0px"
	 viewBox="0 0 64 64" style="enable-background:new 0 0 64 64;" xml:space="preserve">
<g id="XMLID_15_">
	<path id="XMLID_26_" d="M33.2,41.6L22.8,51.9c-3.2,3.2-8.5,3.2-11.7,0c-1.6-1.6-2.4-3.6-2.4-5.9c0-2.2,0.9-4.3,2.4-5.9l10.4-10.4
		c0.8-0.8,0.8-2,0-2.8c-0.8-0.8-2-0.8-2.8,0L8.3,37.4c-2.3,2.3-3.6,5.4-3.6,8.7c0,3.3,1.3,6.4,3.6,8.7c2.4,2.4,5.5,3.6,8.7,3.6
		s6.3-1.2,8.7-3.6L36,44.4c0.8-0.8,0.8-2,0-2.8S34,40.8,33.2,41.6z"/>
	<path id="XMLID_27_" d="M55.7,14.6C53.4,12.2,50.3,11,47,11c-3.3,0-6.4,1.3-8.7,3.6L28,24.9c-0.8,0.8-0.8,2,0,2.8
		c0.4,0.4,0.9,0.6,1.4,0.6s1-0.2,1.4-0.6l10.4-10.4c1.6-1.6,3.6-2.4,5.9-2.4c2.2,0,4.3,0.9,5.9,2.4c3.2,3.2,3.2,8.5,0,11.7
		L42.5,39.5c-0.8,0.8-0.8,2,0,2.8c0.4,0.4,0.9,0.6,1.4,0.6s1-0.2,1.4-0.6l10.4-10.4C60.5,27.1,60.5,19.4,55.7,14.6z"/>
	<path id="XMLID_28_" d="M22.7,17.6c0.2,0.9,1,1.5,1.9,1.5c0.2,0,0.3,0,0.5-0.1c1.1-0.3,1.7-1.4,1.4-2.4L24,7.1
		c-0.3-1.1-1.4-1.7-2.4-1.4c-1.1,0.3-1.7,1.4-1.4,2.4L22.7,17.6z"/>
	<path id="XMLID_29_" d="M10.5,20.7l9.5,2.5c0.2,0,0.3,0.1,0.5,0.1c0.9,0,1.7-0.6,1.9-1.5c0.3-1.1-0.3-2.2-1.4-2.4l-9.5-2.5
		c-1.1-0.3-2.2,0.3-2.4,1.4C8.8,19.3,9.4,20.4,10.5,20.7z"/>
</g>
</svg>
