<?xml version="1.0" encoding="utf-8"?>
<!-- Generator: Adobe Illustrator 19.0.0, SVG Export Plug-In . SVG Version: 6.00 Build 0)  -->
<svg version="1.1" id="图层_1" xmlns="http://www.w3.org/2000/svg" xmlns:xlink="http://www.w3.org/1999/xlink" x="0px" y="0px"
	 viewBox="0 0 64 64" style="enable-background:new 0 0 64 64;" xml:space="preserve">
<style type="text/css">
	.st0{fill:#040000;}
</style>
<g id="XMLID_4_">
	<path id="XMLID_5_" class="st0" d="M51.9,44.1H41.4c-1.4,0-2.5,1.1-2.5,2.5s1.1,2.5,2.5,2.5h10.5c1.4,0,2.5-1.1,2.5-2.5
		S53.3,44.1,51.9,44.1z"/>
	<path id="XMLID_15_" class="st0" d="M46.6,29.3c-9.6,0-17.4,7.8-17.4,17.4c0,9.6,7.8,17.4,17.4,17.4C56.2,64,64,56.2,64,46.6
		C64,37.1,56.2,29.3,46.6,29.3z M46.6,59c-6.8,0-12.4-5.5-12.4-12.4c0-6.8,5.5-12.4,12.4-12.4c6.8,0,12.4,5.5,12.4,12.4
		C59,53.5,53.5,59,46.6,59z"/>
	<path id="XMLID_18_" class="st0" d="M56,0.1h-2.3V0H10.3v0.1H8c-4.4,0-8,3.6-8,8v48c0,4.4,3.6,8,8,8h16.6v0c1.4,0,2.5-1.1,2.5-2.5
		c0-1.4-1.1-2.5-2.5-2.5v0H8.9c-2.1,0-3.8-1.7-3.8-3.8V9c0-2.1,1.7-3.8,3.8-3.8h1.3V16c0,4.4,3.5,8,7.9,8h27.7c4.4,0,7.9-3.6,7.9-8
		V5.1h1.3c2.1,0,3.8,1.7,3.8,3.8v15.5h0c0,1.4,1.1,2.5,2.5,2.5c1.4,0,2.5-1.1,2.5-2.5h0V8.1C64,3.6,60.4,0.1,56,0.1z M48.6,15.4
		c0,1.9-1.7,3.4-3.7,3.4H19.1c-2,0-3.7-1.5-3.7-3.4V5.1h33.2V15.4z"/>
</g>
<circle id="XMLID_2_" class="st0" cx="21.9" cy="12" r="2.5"/>
</svg>
