<?xml version="1.0" encoding="utf-8"?>
<!-- Generator: Adobe Illustrator 19.0.0, SVG Export Plug-In . SVG Version: 6.00 Build 0)  -->
<svg version="1.1" id="图层_1" xmlns="http://www.w3.org/2000/svg" xmlns:xlink="http://www.w3.org/1999/xlink" x="0px" y="0px"
	 viewBox="0 0 64 64" style="enable-background:new 0 0 64 64;" xml:space="preserve">
<g id="XMLID_1_">
	<path id="XMLID_2_" d="M5.8,28.8c1,1,2.6,1,3.6,0L29.5,8.7v41.9c0,0,0,0,0,0c0,1.3,1.1,2.4,2.5,2.4c0,0,0,0,0.1,0
		c1.3,0,2.4-1.1,2.4-2.5V8.7l20.2,20.2c1,1,2.6,1,3.6,0c1-1,1-2.6,0-3.6L33.8,0.8l-0.1-0.1c0,0,0,0,0,0c-1-1-2.6-1-3.5,0L5.7,25.2
		C4.8,26.2,4.8,27.8,5.8,28.8C5.7,28.8,5.7,28.8,5.8,28.8z"/>
	<path id="XMLID_3_" d="M61.7,45.7c-1.3,0-2.3,1-2.3,2.3v11.4H4.6V48c0-1.3-1-2.3-2.3-2.3C1,45.7,0,46.7,0,48v13.7C0,63,1,64,2.3,64
		h59.4l0,0c1.3,0,2.3-1,2.3-2.3V48C64,46.7,63,45.7,61.7,45.7z"/>
</g>
</svg>
