<?xml version="1.0" encoding="utf-8"?>
<!-- Generator: Adobe Illustrator 19.0.0, SVG Export Plug-In . SVG Version: 6.00 Build 0)  -->
<svg version="1.1" id="图层_1" xmlns="http://www.w3.org/2000/svg" xmlns:xlink="http://www.w3.org/1999/xlink" x="0px" y="0px"
	 viewBox="0 0 64 64" style="enable-background:new 0 0 64 64;" xml:space="preserve">
<style type="text/css">
	.st0{fill:#070001;}
</style>
<g id="XMLID_1046_">
	<path id="XMLID_1065_" class="st0" d="M58.7,49.4h-8v-8c0-1.1-0.9-2-2-2s-2,0.9-2,2v8h-8c-1.1,0-2,0.9-2,2s0.9,2,2,2h8v8
		c0,1.1,0.9,2,2,2s2-0.9,2-2v-8h8c1.1,0,2-0.9,2-2S59.8,49.4,58.7,49.4z"/>
	<path id="XMLID_1927_" class="st0" d="M43.8,62.3C43.8,62.3,43.8,62.3,43.8,62.3c0-0.1,0-0.1,0-0.1c0-0.3-0.1-0.5-0.1-0.8v-3
		c0,0,0,0,0-0.1c0-1-0.8-1.9-1.9-1.9v0h-3.1c-2.8,0-5-2.2-5-5c0-2.8,2.2-5,5-5h3.1v0c1,0,1.9-0.8,1.9-1.9c0,0,0,0,0,0v-3.1
		c0-1.5,0.7-2.9,1.8-3.8l0,0c0.2-0.2,0.4-0.5,0.4-0.9c0-0.4-0.2-0.8-0.6-1l0,0c-2.1-1.4-4.5-2.6-7.1-3.4c5.4-3.1,8.8-8.8,8.8-15.1
		C47,7.8,39.2,0,29.7,0S12.4,7.8,12.4,17.3c0,6.3,3.3,12,8.8,15.1C10.5,35.7,3.3,44.9,3.3,55.6c0,3.5,1.9,6,5.6,7.2
		c3,1,7.1,1.2,11,1.2H36c1.9,0,3.6,0,5.3,0c0.3,0,0.7,0,1,0c0,0,0,0,0,0c0.8,0,1.5-0.6,1.5-1.5C43.8,62.5,43.8,62.4,43.8,62.3
		L43.8,62.3z"/>
</g>
</svg>
