<?xml version="1.0" encoding="utf-8"?>
<!-- Generator: Adobe Illustrator 19.0.0, SVG Export Plug-In . SVG Version: 6.00 Build 0)  -->
<svg version="1.1" id="图层_1" xmlns="http://www.w3.org/2000/svg" xmlns:xlink="http://www.w3.org/1999/xlink" x="0px" y="0px"
	 viewBox="0 0 64 64" style="enable-background:new 0 0 64 64;" xml:space="preserve">
<style type="text/css">
	.st0{fill:#070001;}
</style>
<g id="XMLID_1040_">
	<path id="XMLID_1125_" class="st0" d="M54.6,54.9l5.7-5.7c0.8-0.8,0.8-2,0-2.8s-2-0.8-2.8,0l-5.7,5.7l-5.7-5.7
		c-0.8-0.8-2-0.8-2.8,0s-0.8,2,0,2.8l5.7,5.7l-5.7,5.7c-0.8,0.8-0.8,2,0,2.8s2,0.8,2.8,0l5.7-5.7l5.7,5.7c0.8,0.8,2,0.8,2.8,0
		s0.8-2,0-2.8L54.6,54.9z"/>
	<path id="XMLID_1926_" class="st0" d="M37.6,60.2c-1.1,0-0.3,0-1.5-0.1h-0.1C34,60,31.9,60,29.7,60c-1.8,0-3.5,0-5.2,0h-0.1
		c-1.5,0-3,0-4.4,0c-3.7,0-7.4-0.1-9.9-0.9c-2.6-0.9-3-2.2-3-3.6C7,44,16.9,34.9,29.6,34.9c9,0,16.6,4.6,20.2,11.3l0,0
		c0.3,0.6,0.9,1,1.7,1c1,0,1.9-0.8,1.9-1.9c0-0.3-0.1-0.6-0.2-0.9l0,0c0,0,0-0.1-0.1-0.1c0,0,0,0,0-0.1c-3-5.5-8.3-9.8-14.9-11.9
		c5.4-3.1,8.8-8.8,8.8-15.1C46.9,7.8,39.1,0,29.6,0S12.3,7.8,12.3,17.3c0,6.3,3.3,12,8.8,15.1C10.4,35.7,3.2,44.9,3.2,55.6
		c0,3.5,1.9,6,5.6,7.2c3,1,7.1,1.2,11,1.2h16.1c1.3,0,0.6,0,1.8,0c1.1,0,1.9-0.9,1.9-1.9C39.6,61,38.7,60.2,37.6,60.2z M16,17.3
		c0-7.5,6.1-13.6,13.6-13.6s13.6,6.1,13.6,13.6s-6.1,13.6-13.6,13.6S16,24.8,16,17.3z"/>
</g>
</svg>
