<?xml version="1.0" encoding="utf-8"?>
<!-- Generator: Adobe Illustrator 19.0.0, SVG Export Plug-In . SVG Version: 6.00 Build 0)  -->
<svg version="1.1" id="图层_1" xmlns="http://www.w3.org/2000/svg" xmlns:xlink="http://www.w3.org/1999/xlink" x="0px" y="0px"
	 viewBox="0 0 64 64" style="enable-background:new 0 0 64 64;" xml:space="preserve">
<style type="text/css">
	.st0{fill:#070001;}
</style>
<path id="XMLID_1380_" class="st0" d="M40.5,32.4c5.4-3.1,8.8-8.8,8.8-15.1C49.3,7.8,41.5,0,32,0S14.7,7.8,14.7,17.3
	c0,6.3,3.3,12,8.8,15.1C12.8,35.7,5.6,44.9,5.6,55.6c0,3.5,1.9,6,5.6,7.2c3,1,7.1,1.2,11,1.2h16.1l0,0c1.9,0,3.6,0,5.3,0
	c5.5,0,14.7,0,14.7-8.4C58.4,44.9,51.2,35.7,40.5,32.4z"/>
</svg>
