<?xml version="1.0" encoding="utf-8"?>
<!-- Generator: Adobe Illustrator 19.0.0, SVG Export Plug-In . SVG Version: 6.00 Build 0)  -->
<svg version="1.1" id="图层_1" xmlns="http://www.w3.org/2000/svg" xmlns:xlink="http://www.w3.org/1999/xlink" x="0px" y="0px"
	 viewBox="0 0 64 64" style="enable-background:new 0 0 64 64;" xml:space="preserve">
<style type="text/css">
	.st0{fill:#040000;}
</style>
<g id="XMLID_867_">
	<path id="XMLID_881_" class="st0" d="M30.7,4.2L11.9,19H4.3C1.9,19,0,21,0,23.3v17.1c0,2.3,1.9,4.3,4.3,4.3h7.5l19,15.2
		c4.2,3.4,7.7,1.7,7.7-3.7V7.9C38.4,2.5,34.9,0.8,30.7,4.2z M32.5,55.6L14.9,41.7c-0.9-0.7-2.6-1.3-3.8-1.3l-4.7,0
		c-1.2,0-2.1-1-2.1-2.1l0-12.8c0-1.2,1-2.1,2.1-2.1h4.8c1.2,0,2.9-0.6,3.8-1.3L32.5,8.3c0.9-0.7,1.7-0.4,1.7,0.8l0,45.7
		C34.1,56,33.4,56.4,32.5,55.6z"/>
	<path id="XMLID_880_" class="st0" d="M45.9,19.6c-1-0.7-2.3-0.5-3,0.5c-0.6,0.9-0.5,2,0.2,2.7l0,0c2.4,2.3,3.8,5.6,3.8,9.1
		c0,3.6-1.5,6.8-3.8,9.1l0,0c-0.4,0.4-0.6,0.9-0.6,1.5c0,1.2,1,2.1,2.1,2.1c0.6,0,1.1-0.2,1.5-0.6c0,0,0,0,0,0c0,0,0,0,0,0
		c3.1-3.1,5.1-7.4,5.1-12.1c0-4.7-1.9-9-5-12.1C46.1,19.8,46,19.7,45.9,19.6z"/>
	<path id="XMLID_873_" class="st0" d="M55.1,10.7C55.1,10.7,55.1,10.7,55.1,10.7C55,10.6,55,10.6,55.1,10.7L55.1,10.7
		c-0.1-0.1-0.2-0.2-0.3-0.2c-1-0.7-2.3-0.5-3,0.5c-0.6,0.9-0.5,2,0.2,2.7l0,0c4.7,4.6,7.7,11.1,7.7,18.3s-2.9,13.6-7.7,18.3l0,0
		c0,0-0.1,0.1-0.1,0.1c-0.8,0.9-0.8,2.2,0.1,3c0.8,0.8,2.2,0.8,3-0.1l0,0c5.5-5.4,9-13,9-21.3C64,23.6,60.6,16.1,55.1,10.7z"/>
</g>
</svg>
