<?xml version="1.0" encoding="utf-8"?>
<!-- Generator: Adobe Illustrator 19.0.0, SVG Export Plug-In . SVG Version: 6.00 Build 0)  -->
<svg version="1.1" id="图层_1" xmlns="http://www.w3.org/2000/svg" xmlns:xlink="http://www.w3.org/1999/xlink" x="0px" y="0px"
	 viewBox="0 0 64 64" style="enable-background:new 0 0 64 64;" xml:space="preserve">
<style type="text/css">
	.st0{fill:#040000;}
</style>
<path id="XMLID_1298_" class="st0" d="M62.9,20.3L33.1,2.5c-0.7-0.5-1.6-0.5-2.3,0L1.1,20.3c-1.1,0.7-1.4,2.1-0.7,3.3
	c0.7,1.1,2.1,1.4,3.3,0.7l2.6-1.6v36.9c0,1.4,0.9,2.3,2.3,2.3h46.9c1.4,0,2.3-0.9,2.3-2.3V22.7l2.8,1.6c0.5,0.2,0.7,0.2,1.1,0.2
	c0.7,0,1.6-0.5,2.1-1.1C64.2,22.4,64,20.8,62.9,20.3z M43.6,53.7H20.4c-1.4,0-2.3-0.9-2.3-2.3s0.9-2.3,2.3-2.3h23.2
	c1.2,0,2.3,0.9,2.3,2.3S45,53.7,43.6,53.7z M43.6,42.1H20.4c-1.4,0-2.3-0.9-2.3-2.3s0.9-2.3,2.3-2.3h23.2c1.2,0,2.3,0.9,2.3,2.3
	S45,42.1,43.6,42.1z"/>
</svg>
