<?xml version="1.0" encoding="utf-8"?>
<!-- Generator: Adobe Illustrator 19.0.0, SVG Export Plug-In . SVG Version: 6.00 Build 0)  -->
<svg version="1.1" id="图层_1" xmlns="http://www.w3.org/2000/svg" xmlns:xlink="http://www.w3.org/1999/xlink" x="0px" y="0px"
	 viewBox="0 0 64 64" style="enable-background:new 0 0 64 64;" xml:space="preserve">
<style type="text/css">
	.st0{fill:#040000;}
</style>
<g id="XMLID_1210_">
	<path id="XMLID_1214_" class="st0" d="M32,64c17.7,0,32-14.3,32-32S49.7,0,32,0C14.3,0,0,14.3,0,32C0,49.7,14.3,64,32,64z M32,4.6
		c15.1,0,27.4,12.3,27.4,27.4c0,15.1-12.3,27.4-27.4,27.4C16.9,59.4,4.6,47.1,4.6,32C4.6,16.9,16.9,4.6,32,4.6z"/>
	<path id="XMLID_1212_" class="st0" d="M32,36.3L32,36.3c1.3,0,2.3-1,2.3-2.3V18.8c0-1.3-1-2.3-2.3-2.3h0c-1.3,0-2.3,1-2.3,2.3v15.3
		C29.7,35.3,30.7,36.3,32,36.3z"/>
	<path id="XMLID_1211_" class="st0" d="M32,47.5L32,47.5c2,0,3.7-1.7,3.7-3.7S34,40.2,32,40.2h0c-2,0-3.7,1.7-3.7,3.7
		S30,47.5,32,47.5z"/>
</g>
</svg>
