<?xml version="1.0" encoding="utf-8"?>
<!-- Generator: Adobe Illustrator 19.0.0, SVG Export Plug-In . SVG Version: 6.00 Build 0)  -->
<svg version="1.1" id="图层_1" xmlns="http://www.w3.org/2000/svg" xmlns:xlink="http://www.w3.org/1999/xlink" x="0px" y="0px"
	 viewBox="0 0 64 64" style="enable-background:new 0 0 64 64;" xml:space="preserve">
<style type="text/css">
	.st0{fill:#040000;}
</style>
<g id="XMLID_699_">
	<path id="XMLID_2426_" class="st0" d="M50.9,51.6c6.3-5.4,10.4-13.4,10.4-22.3C61.3,13.2,48.1,0,32,0S2.7,13.2,2.7,29.3
		S15.9,58.6,32,58.6c5.5,0,10.6-1.5,14.9-4.1c0,0.1,0.1,0.1,0.1,0.2l7.6,8.6c0.7,1,2.4,1,3.4,0.2s1.2-2.4,0.2-3.4L50.9,51.6z
		 M32,54.5c-13.8,0-25.2-11.3-25.2-25.2C6.8,15.5,18.2,4.1,32,4.1s25.2,11.3,25.2,25.2C57.2,43.1,45.8,54.5,32,54.5z"/>
	<path id="XMLID_2595_" class="st0" d="M43.3,27.3H34H20.7c-1.1,0-2,0.9-2,2s0.9,2,2,2H34h9.3c1.1,0,2-0.9,2-2S44.4,27.3,43.3,27.3z
		"/>
</g>
</svg>
