<?xml version="1.0" encoding="utf-8"?>
<!-- Generator: Adobe Illustrator 19.0.0, SVG Export Plug-In . SVG Version: 6.00 Build 0)  -->
<svg version="1.1" id="图层_1" xmlns="http://www.w3.org/2000/svg" xmlns:xlink="http://www.w3.org/1999/xlink" x="0px" y="0px"
	 viewBox="0 0 64 64" style="enable-background:new 0 0 64 64;" xml:space="preserve">
<g id="XMLID_2_">
	<path id="XMLID_11_" d="M52.1,0H11.9C5.3,0,0,5.3,0,11.9v40.3C0,58.7,5.3,64,11.9,64h40.3C58.7,64,64,58.7,64,52.1V11.9
		C64,5.3,58.7,0,52.1,0z M60,52.1c0,4.3-3.5,7.9-7.9,7.9H11.9C7.5,60,4,56.5,4,52.1V11.9C4,7.5,7.5,4,11.9,4h40.3
		c4.3,0,7.9,3.5,7.9,7.9V52.1z"/>
	<path id="XMLID_14_" d="M32.9,14l-0.9,0c-2.9,0-5.3,0.7-6.9,2.2c-1.7,1.5-2.6,3.5-2.8,6v19.1v0c0,2.9,0.9,5.1,2.7,6.4
		c1.8,1.4,3.8,2.1,6.1,2.1H32c0.2,0,0.3,0,0.5,0s0.3,0,0.5,0c2.1-0.1,4-0.7,5.8-1.9c1.8-1.2,2.7-3.4,2.9-6.6V22.1
		c0-2.1-0.6-3.9-1.9-5.5C38.4,14.9,36.1,14.1,32.9,14z M33.8,23.1v18.5c0,0.8-0.2,1.4-0.6,1.9c-0.4,0.4-0.8,0.7-1.3,0.7
		c-0.1,0-0.1,0-0.2,0s-0.1,0-0.2,0c-0.4-0.1-0.8-0.4-1.1-0.9c-0.3-0.5-0.5-1.2-0.5-2.1v-18c0-0.8,0.2-1.4,0.5-1.9
		c0.3-0.5,0.7-0.7,1.1-0.8c0.1,0,0.1,0,0.2,0s0.1,0,0.2,0c0.1,0,0.1,0,0.2,0c0.1,0,0.1,0,0.2,0c0.4,0.1,0.7,0.4,1.1,0.8
		c0.3,0.4,0.5,0.9,0.5,1.5V23.1z"/>
</g>
</svg>
