<?xml version="1.0" encoding="utf-8"?>
<!-- Generator: Adobe Illustrator 19.0.0, SVG Export Plug-In . SVG Version: 6.00 Build 0)  -->
<svg version="1.1" id="图层_1" xmlns="http://www.w3.org/2000/svg" xmlns:xlink="http://www.w3.org/1999/xlink" x="0px" y="0px"
	 viewBox="0 0 64 64" style="enable-background:new 0 0 64 64;" xml:space="preserve">
<path id="XMLID_9_" d="M52.1,0H11.9C5.3,0,0,5.3,0,11.9v40.3C0,58.7,5.3,64,11.9,64h40.3C58.7,64,64,58.7,64,52.1V11.9
	C64,5.3,58.7,0,52.1,0z M38.4,49.3h-7.6V23.4h-5.1v-4.8c0,0,0.1,0.1,0.1,0.1s0.1,0,0.2,0c0.1,0,0.1,0,0.2,0c0,0,0.1,0,0.1,0
	c0.3,0,0.5,0,0.8-0.1c0.3,0,0.6-0.1,0.8-0.2c1-0.3,1.9-0.8,2.7-1.4c0.8-0.7,1.4-1.4,1.6-2.3v0h6.3V49.3z"/>
</svg>
