<?xml version="1.0" encoding="utf-8"?>
<!-- Generator: Adobe Illustrator 19.0.0, SVG Export Plug-In . SVG Version: 6.00 Build 0)  -->
<svg version="1.1" id="图层_1" xmlns="http://www.w3.org/2000/svg" xmlns:xlink="http://www.w3.org/1999/xlink" x="0px" y="0px"
	 viewBox="0 0 64 64" style="enable-background:new 0 0 64 64;" xml:space="preserve">
<path id="XMLID_8_" d="M32,0C14.3,0,0,14.3,0,32c0,17.7,14.3,32,32,32s32-14.3,32-32C64,14.3,49.7,0,32,0z M42.3,23.4
	c0,0.1,0,0.1,0,0.2c0,0.1,0,0.2,0,0.3s0,0.2,0,0.3c-0.1,1.4-0.3,2.8-0.8,4.2c-0.5,1.4-1.1,2.5-1.8,3.3c-0.4,0.5-1,1.2-1.9,2
	c-0.9,0.8-1.8,1.7-2.8,2.6c-0.4,0.4-0.8,0.8-1.2,1.2c-0.4,0.4-0.8,0.8-1.2,1.2c-0.7,0.7-1.2,1.5-1.7,2.2c-0.5,0.7-0.8,1.4-0.9,2
	l11.8,0v6.5h-20c0,0,0-0.1,0-0.2s0-0.2,0-0.3c0-0.1,0-0.1,0-0.2c0-0.1,0-0.2,0-0.2c0-4.3,0.8-7.7,2.4-10.2c1.6-2.4,3.4-4.6,5.3-6.4
	c0.3-0.3,0.5-0.5,0.8-0.7c0.3-0.2,0.6-0.5,0.8-0.7c0.6-0.5,1.1-1.2,1.5-1.9c0.4-0.7,0.8-1.5,1.2-2.2c0.2-0.5,0.3-1.1,0.5-1.6
	c0.1-0.5,0.2-1,0.2-1.5c0-0.8-0.2-1.5-0.5-2c-0.4-0.5-0.9-0.8-1.7-0.8c-0.8,0-1.3,0.4-1.5,1.1c-0.2,0.7-0.4,1.5-0.5,2.4
	c0,0.2,0,0.4,0,0.7c0,0.2,0,0.4,0,0.7c0,0.3-0.1,0.6-0.1,0.9c0,0.3,0,0.5-0.1,0.7l-7.2,0c0-0.1,0-0.2,0-0.4c0-0.1,0-0.3,0-0.4
	c0-0.1,0-0.1,0-0.1c0,0,0-0.1,0-0.1c0-0.2-0.1-0.3-0.1-0.5c0-0.2,0-0.3,0-0.5c0-3.1,0.8-5.6,2.4-7.7c1.6-2,4.1-3,7.5-3
	c3.6,0,6.1,0.9,7.6,2.7c1.5,1.8,2.2,3.8,2.3,6C42.3,23.3,42.3,23.3,42.3,23.4z"/>
</svg>
