<?xml version="1.0" encoding="utf-8"?>
<!-- Generator: Adobe Illustrator 19.0.0, SVG Export Plug-In . SVG Version: 6.00 Build 0)  -->
<svg version="1.1" id="图层_1" xmlns="http://www.w3.org/2000/svg" xmlns:xlink="http://www.w3.org/1999/xlink" x="0px" y="0px"
	 viewBox="0 0 64 64" style="enable-background:new 0 0 64 64;" xml:space="preserve">
<g id="XMLID_1_">
	<path id="XMLID_3_" d="M18.1,24.2c0-0.2,0-0.4,0-0.6c0-0.1,0-0.2,0-0.2c0,0,0-0.1,0-0.1c0-0.2-0.1-0.5-0.1-0.8c0-0.3,0-0.5,0-0.8
		c0-4.6,1.2-8.4,3.5-11.5c2.4-3,6.1-4.6,11.2-4.6c5.4,0,9.2,1.4,11.3,4.1c2.2,2.7,3.3,5.8,3.4,9.1c0,0.1,0,0.2,0,0.3
		c0,0.1,0,0.2,0,0.3c0,0.1,0,0.3,0,0.4s0,0.3,0,0.5c-0.1,2.2-0.5,4.3-1.3,6.3c-0.7,2-1.6,3.7-2.7,5c-0.6,0.8-1.5,1.8-2.8,3.1
		c-1.3,1.2-2.7,2.5-4.2,3.9c-0.6,0.6-1.2,1.2-1.9,1.9c-0.6,0.6-1.2,1.2-1.7,1.9c-1,1.1-1.9,2.2-2.6,3.3c-0.7,1.1-1.1,2.1-1.3,3.1
		l17.6-0.1v9.8h-30c0,0,0-0.1,0-0.3c0-0.1,0-0.3,0-0.4c0-0.1,0-0.2,0-0.3c0-0.1,0-0.2,0-0.3c0-6.5,1.2-11.6,3.6-15.2
		c2.4-3.7,5.1-6.9,8-9.5c0.4-0.4,0.8-0.8,1.2-1.1c0.4-0.4,0.8-0.7,1.2-1.1c0.9-0.8,1.6-1.8,2.3-2.8c0.7-1.1,1.2-2.2,1.7-3.3
		c0.3-0.8,0.5-1.6,0.7-2.4c0.2-0.8,0.3-1.5,0.3-2.2c0-1.2-0.3-2.2-0.8-3c-0.5-0.8-1.4-1.2-2.5-1.2c-1.2,0-1.9,0.6-2.3,1.7
		c-0.4,1.1-0.6,2.3-0.7,3.6c0,0.3-0.1,0.7-0.1,1c0,0.3,0,0.7,0,1c0,0.5-0.1,0.9-0.1,1.4c0,0.4-0.1,0.8-0.1,1.1l-10.8-0.1
		C18.2,24.5,18.2,24.4,18.1,24.2z"/>
</g>
</svg>
