<?xml version="1.0" encoding="utf-8"?>
<!-- Generator: Adobe Illustrator 19.0.0, SVG Export Plug-In . SVG Version: 6.00 Build 0)  -->
<svg version="1.1" id="图层_1" xmlns="http://www.w3.org/2000/svg" xmlns:xlink="http://www.w3.org/1999/xlink" x="0px" y="0px"
	 viewBox="0 0 64 64" style="enable-background:new 0 0 64 64;" xml:space="preserve">
<path id="XMLID_8_" d="M32,0C14.3,0,0,14.3,0,32c0,17.7,14.3,32,32,32s32-14.3,32-32C64,14.3,49.7,0,32,0z M41.1,33.8
	c0.4,1.5,0.6,3.3,0.6,5.4c0,3.9-0.7,6.5-2,7.9c-1.4,1.4-2.9,2.2-4.5,2.5c-0.6,0.1-1.2,0.2-1.8,0.2c-0.6,0-1.2,0-1.7,0h-0.6
	c-3.1,0-5.2-0.7-6.4-2.2c-1.2-1.5-2-3.1-2.2-4.8c-0.1-0.4-0.1-0.8-0.1-1.3c0-0.4,0-0.8,0-1.2c0-0.1,0-0.2,0-0.4c0-0.1,0-0.2,0-0.3
	c0-0.2,0-0.3,0-0.5c0-0.1,0-0.3,0-0.4c0-0.3,0.1-0.5,0.1-0.7s0-0.4,0-0.6l7.2,0c0,0.4,0,0.8,0,1.3c0,0.5,0,1,0.1,1.5
	c0.1,1,0.3,1.8,0.6,2.6s0.9,1.2,1.8,1.2c0.5,0,1-0.3,1.4-1c0.4-0.6,0.6-1.6,0.6-2.9v-1.3c0-2.3-0.4-3.7-1.1-4.2
	c-0.7-0.5-1.8-0.8-3.2-1c-0.1,0-0.2,0-0.3,0c-0.1,0-0.2,0-0.3,0v-5.5c0,0,0.1,0,0.1,0s0.1,0,0.2,0c0.1,0,0.1,0,0.2,0s0.1,0,0.1,0
	c1.2,0,2.2-0.4,2.7-1.2s0.9-1.7,1-2.7c0-0.1,0-0.2,0-0.3c0-0.1,0-0.2,0-0.4c0-0.8-0.1-1.5-0.4-2.1c-0.3-0.6-0.6-1-1-1l-0.1,0
	c-0.9,0-1.4,0.4-1.7,1c-0.2,0.6-0.3,1.3-0.4,2c0,0,0,0.1,0,0.1c0,0,0,0,0,0.1c0,0.3-0.1,0.5-0.1,0.7c0,0.2,0,0.4-0.1,0.7l-7.5,0
	c0-0.5,0-1.1,0-1.8c0-0.6,0.1-1.3,0.2-1.9c0.4-1.8,1.2-3.4,2.5-4.9c1.3-1.5,3.6-2.2,6.9-2.2l0.7,0c2.8,0,5,0.9,6.4,2.5
	c1.4,1.6,2.2,3.4,2.5,5.3c0,0.3,0.1,0.5,0.1,0.7c0,0.2,0,0.5,0,0.7c0,1.8-0.4,3.4-1.2,4.9c-0.8,1.5-1.8,2.2-3,2.3
	C39.5,31.3,40.7,32.3,41.1,33.8z"/>
</svg>
