<?xml version="1.0" encoding="utf-8"?>
<!-- Generator: Adobe Illustrator 19.0.0, SVG Export Plug-In . SVG Version: 6.00 Build 0)  -->
<svg version="1.1" id="图层_1" xmlns="http://www.w3.org/2000/svg" xmlns:xlink="http://www.w3.org/1999/xlink" x="0px" y="0px"
	 viewBox="0 0 64 64" style="enable-background:new 0 0 64 64;" xml:space="preserve">
<g id="XMLID_1_">
	<path id="XMLID_3_" d="M28.1,26.3c0.1,0,0.2,0,0.3,0c0.1,0,0.2,0.1,0.3,0.1c0.1,0,0.1,0,0.2,0c1.9,0,3.2-0.6,4.1-1.8
		c0.9-1.2,1.4-2.6,1.5-4.1c0-0.1,0.1-0.3,0.1-0.5c0-0.2,0-0.3,0-0.5c0-1.2-0.2-2.2-0.6-3.2c-0.4-1-0.9-1.4-1.5-1.4l-0.1-0.1
		c-1.3,0-2.2,0.5-2.5,1.4c-0.3,0.9-0.5,1.9-0.5,3c0,0,0,0.1,0,0.1c0,0,0,0.1,0,0.1c0,0.4-0.1,0.7-0.1,1.1c0,0.3-0.1,0.7-0.1,1
		l-11.3-0.1c0-0.8,0-1.7,0.1-2.7c0-1,0.2-1.9,0.4-2.9c0.5-2.7,1.8-5.1,3.8-7.3c2-2.2,5.4-3.3,10.3-3.3l1-0.1c4.3,0,7.5,1.3,9.5,3.7
		c2.1,2.4,3.3,5.1,3.7,8c0,0.4,0.1,0.8,0.1,1.1c0,0.4,0,0.7,0,1.1c0,2.7-0.6,5.1-1.7,7.3c-1.2,2.2-2.6,3.3-4.5,3.4
		c2.8,1,4.6,2.6,5.2,4.9c0.6,2.3,1,4.9,1,8.1c0,5.8-1,9.8-3.1,11.8s-4.3,3.3-6.7,3.7c-0.9,0.2-1.8,0.3-2.7,0.3c-0.9,0-1.7,0-2.6,0
		h-0.9c-4.6,0-7.8-1.1-9.6-3.3c-1.8-2.2-2.9-4.6-3.3-7.2c-0.1-0.6-0.2-1.3-0.2-1.9c0-0.6-0.1-1.3-0.1-1.8c0-0.2,0-0.4,0-0.5
		c0-0.2,0-0.3,0.1-0.5c0-0.2,0-0.5,0-0.7c0-0.2,0-0.4,0-0.6c0-0.4,0.1-0.7,0.1-1.1c0-0.3,0-0.6,0-0.9l10.8-0.1c0,0.6,0,1.2,0,1.9
		c0,0.7,0.1,1.5,0.1,2.2c0.1,1.4,0.5,2.8,1,4c0.5,1.2,1.4,1.8,2.6,1.8c0.8,0,1.5-0.5,2.2-1.4c0.6-1,0.9-2.4,0.9-4.3v-2
		c0-3.4-0.6-5.5-1.7-6.2c-1.1-0.7-2.7-1.2-4.8-1.5c-0.1,0-0.3,0-0.4,0c-0.1,0-0.3,0-0.4,0v-8.3C28,26.3,28.1,26.3,28.1,26.3z"/>
</g>
</svg>
