<?xml version="1.0" encoding="utf-8"?>
<!-- Generator: Adobe Illustrator 19.0.0, SVG Export Plug-In . SVG Version: 6.00 Build 0)  -->
<svg version="1.1" id="图层_1" xmlns="http://www.w3.org/2000/svg" xmlns:xlink="http://www.w3.org/1999/xlink" x="0px" y="0px"
	 viewBox="0 0 64 64" style="enable-background:new 0 0 64 64;" xml:space="preserve">
<path id="XMLID_8_" d="M32,0C14.3,0,0,14.3,0,32c0,17.7,14.3,32,32,32s32-14.3,32-32C64,14.3,49.7,0,32,0z M42.2,42.7h-2.7v6.5h-7.5
	v-6.5h-10v-8c0.3-0.3,0.6-0.9,1-1.8c0.4-0.9,0.8-2,1.2-3.2c0.3-0.9,0.6-1.8,0.9-2.8c0.3-1,0.5-2,0.8-3c0.4-1.6,0.7-3.2,1-4.7
	c0.3-1.5,0.4-2.8,0.4-3.9v-0.7h8v0.5c0,1.2-0.2,2.7-0.6,4.2c-0.4,1.6-0.9,3.2-1.6,4.8c-0.4,1.1-0.9,2.1-1.3,3.2c-0.5,1.1-1,2-1.4,3
	c-0.7,1.4-1.3,2.6-2,3.7c-0.7,1.1-1.2,1.9-1.7,2.5h5.6v-4.8c0.3-0.2,0.5-0.6,0.8-1c0.3-0.4,0.6-1,0.9-1.6c0.2-0.4,0.4-0.7,0.6-1.2
	c0.2-0.4,0.4-0.8,0.6-1.2c0.4-0.9,0.8-1.8,1.1-2.7c0.3-0.9,0.4-1.5,0.4-2v-0.4h3.1v14.9h2.7V42.7z"/>
</svg>
