<?xml version="1.0" encoding="utf-8"?>
<!-- Generator: Adobe Illustrator 19.0.0, SVG Export Plug-In . SVG Version: 6.00 Build 0)  -->
<svg version="1.1" id="图层_1" xmlns="http://www.w3.org/2000/svg" xmlns:xlink="http://www.w3.org/1999/xlink" x="0px" y="0px"
	 viewBox="0 0 64 64" style="enable-background:new 0 0 64 64;" xml:space="preserve">
<g id="XMLID_1_">
	<path id="XMLID_3_" d="M36.4,6.1v0.7c0,1.9-0.3,4-0.9,6.3c-0.6,2.4-1.4,4.8-2.3,7.2c-0.6,1.6-1.3,3.2-2,4.8
		c-0.7,1.6-1.4,3.1-2.2,4.5c-1,2.1-2,3.9-3,5.5c-1,1.6-1.8,2.8-2.6,3.7h8.4v-7.2c0.4-0.3,0.8-0.8,1.3-1.5c0.5-0.7,0.9-1.5,1.4-2.4
		c0.3-0.5,0.6-1.1,0.9-1.7c0.3-0.6,0.6-1.2,0.9-1.8c0.6-1.4,1.2-2.7,1.6-4c0.4-1.3,0.6-2.3,0.6-3v-0.6h4.6v22.3h4.1v9.3h-4.1v9.8
		H31.8v-9.8h-15v-12c0.4-0.4,0.9-1.3,1.5-2.7c0.6-1.3,1.2-2.9,1.7-4.8c0.4-1.3,0.9-2.7,1.3-4.2c0.4-1.5,0.8-3,1.2-4.5
		c0.6-2.4,1.1-4.7,1.4-7c0.4-2.3,0.6-4.2,0.6-5.8V6.1H36.4z"/>
</g>
</svg>
