<?xml version="1.0" encoding="utf-8"?>
<!-- Generator: Adobe Illustrator 19.0.0, SVG Export Plug-In . SVG Version: 6.00 Build 0)  -->
<svg version="1.1" id="图层_1" xmlns="http://www.w3.org/2000/svg" xmlns:xlink="http://www.w3.org/1999/xlink" x="0px" y="0px"
	 viewBox="0 0 64 64" style="enable-background:new 0 0 64 64;" xml:space="preserve">
<g id="XMLID_2_">
	<path id="XMLID_10_" d="M52.1,0H11.9C5.3,0,0,5.3,0,11.9v40.3C0,58.7,5.3,64,11.9,64h40.3C58.7,64,64,58.7,64,52.1V11.9
		C64,5.3,58.7,0,52.1,0z M60,52.1c0,4.3-3.5,7.9-7.9,7.9H11.9C7.5,60,4,56.5,4,52.1V11.9C4,7.5,7.5,4,11.9,4h40.3
		c4.3,0,7.9,3.5,7.9,7.9V52.1z"/>
	<path id="XMLID_11_" d="M34.9,25.1c-0.4,0-0.8,0-1.2,0.1c-0.4,0-0.9,0.1-1.4,0.2c-0.5,0.1-1,0.2-1.4,0.4c-0.5,0.2-0.9,0.4-1.2,0.6
		v-5.1H41v-6.9H23.5v19l6.5,0c0.1-0.8,0.3-1.4,0.7-1.8c0.4-0.4,0.7-0.6,1.1-0.7c0,0,0.1,0,0.1,0s0.1,0,0.2,0c0.1,0,0.1,0,0.2,0
		s0.1,0,0.2,0c0.4,0.1,0.9,0.5,1.2,1c0.4,0.5,0.6,1.2,0.6,2.1v6.7c0,0.7-0.2,1.3-0.6,1.8c-0.4,0.5-0.8,0.9-1.2,1.2
		c-0.1,0.1-0.2,0.1-0.4,0.1c-0.1,0-0.2,0-0.4,0c-0.5,0-1-0.3-1.4-0.9c-0.4-0.6-0.6-1.6-0.6-2.9c0-0.3,0-0.5,0-0.9
		c0-0.3,0.1-0.7,0.1-1c0,0,0-0.1,0-0.1s0-0.1,0-0.2c0-0.1,0-0.1,0-0.2c0-0.1,0-0.1,0-0.2l-7.5,0c0,0.2-0.1,0.4-0.1,0.6
		c0,0.2,0,0.4-0.1,0.6c0,0.2,0,0.4,0,0.6c0,0.2,0,0.4,0,0.6c0,2.7,0.7,5,2.1,6.8c1.4,1.8,3.8,2.8,7.4,2.8c4.3,0,7-1.3,8.1-3.8
		c1.1-2.5,1.7-5.6,1.9-9.3c0-3.4-0.5-6.1-1.4-8S37.6,25.5,34.9,25.1z"/>
</g>
</svg>
