<?xml version="1.0" encoding="utf-8"?>
<!-- Generator: Adobe Illustrator 19.0.0, SVG Export Plug-In . SVG Version: 6.00 Build 0)  -->
<svg version="1.1" id="图层_1" xmlns="http://www.w3.org/2000/svg" xmlns:xlink="http://www.w3.org/1999/xlink" x="0px" y="0px"
	 viewBox="0 0 64 64" style="enable-background:new 0 0 64 64;" xml:space="preserve">
<g id="XMLID_1_">
	<path id="XMLID_3_" d="M35.5,18.8v-0.9c0-0.9-0.3-1.6-0.9-2.1c-0.6-0.6-1.3-0.9-2-0.9c0,0-0.1,0-0.1,0c0,0-0.1,0-0.1,0
		c-0.1,0-0.2,0-0.3,0c-0.1,0-0.2,0-0.3,0.1c-0.7,0.1-1.3,0.4-1.9,1c-0.6,0.6-0.9,1.4-0.9,2.4v6c0.5-0.7,1.3-1.3,2.6-1.8
		c1.2-0.5,2.6-0.7,4-0.7c0.4,0,0.8,0,1.2,0.1c0.4,0,0.8,0.1,1.2,0.1c2.1,0.4,4,1.5,5.7,3.1c1.7,1.7,2.6,4.2,2.6,7.5v14
		c0,3.9-1.3,6.8-4,8.8c-2.6,2-5.7,3-9.3,3h-1.2c-4.4,0-7.9-1.1-10.3-3.3c-2.5-2.2-3.7-5.4-3.7-9.4V18.8c0,0,0-0.1,0-0.2
		c0-0.1,0-0.2,0-0.3c0-0.1,0-0.2,0-0.3c0-0.1,0-0.2,0-0.2c0-3.1,1.2-5.9,3.5-8.4c2.3-2.5,6.1-3.9,11.2-4.1c3.9,0,7.2,1.1,9.6,3.2
		c2.5,2.2,3.7,5.2,3.7,9.2v1H35.5z M29.2,34.4v11.4c0,1.4,0.3,2.5,0.9,3.2c0.6,0.7,1.3,1.1,2,1.1c0.1,0,0.2,0,0.3,0
		c0.1,0,0.2,0,0.3-0.1c0.6-0.1,1.2-0.6,1.7-1.3c0.5-0.7,0.8-1.7,0.8-2.9v-12c0-0.8-0.2-1.4-0.7-1.9c-0.5-0.5-1-0.8-1.6-0.9
		c-0.1,0-0.2-0.1-0.3-0.1c-0.1,0-0.2,0-0.3,0c-0.1,0-0.2,0-0.3,0c-0.1,0-0.2,0-0.3,0.1c-0.6,0.1-1.2,0.4-1.7,1S29.2,33.4,29.2,34.4
		L29.2,34.4z"/>
</g>
</svg>
