<?xml version="1.0" encoding="utf-8"?>
<!-- Generator: Adobe Illustrator 19.0.0, SVG Export Plug-In . SVG Version: 6.00 Build 0)  -->
<svg version="1.1" id="图层_1" xmlns="http://www.w3.org/2000/svg" xmlns:xlink="http://www.w3.org/1999/xlink" x="0px" y="0px"
	 viewBox="0 0 64 64" style="enable-background:new 0 0 64 64;" xml:space="preserve">
<path id="XMLID_1_" d="M52.1,4c4.3,0,7.9,3.5,7.9,7.9v40.3c0,4.3-3.5,7.9-7.9,7.9H11.9C7.5,60,4,56.5,4,52.1V11.9
	C4,7.5,7.5,4,11.9,4H52.1 M52.1,0H11.9C5.3,0,0,5.3,0,11.9v40.3C0,58.7,5.3,64,11.9,64h40.3C58.7,64,64,58.7,64,52.1V11.9
	C64,5.3,58.7,0,52.1,0L52.1,0z"/>
<g id="XMLID_3_">
	<path id="XMLID_6_" d="M34.3,23.2v-0.6c0-0.6-0.2-1-0.6-1.4c-0.4-0.4-0.8-0.6-1.3-0.6c0,0-0.1,0-0.1,0c0,0,0,0-0.1,0
		c-0.1,0-0.1,0-0.2,0c0,0-0.1,0-0.2,0c-0.4,0.1-0.9,0.3-1.2,0.7c-0.4,0.4-0.6,0.9-0.6,1.6v4c0.3-0.5,0.9-0.9,1.7-1.2
		c0.8-0.3,1.7-0.5,2.6-0.5c0.3,0,0.5,0,0.8,0c0.3,0,0.5,0.1,0.8,0.1c1.4,0.3,2.6,1,3.8,2.1c1.2,1.1,1.7,2.8,1.7,5v9.3
		c0,2.6-0.9,4.6-2.6,5.9c-1.8,1.3-3.8,2-6.2,2h-0.8c-2.9,0-5.2-0.7-6.9-2.2c-1.6-1.5-2.5-3.6-2.5-6.3v-18c0,0,0-0.1,0-0.1
		c0,0,0-0.1,0-0.2c0-0.1,0-0.1,0-0.2c0-0.1,0-0.1,0-0.1c0-2,0.8-3.9,2.3-5.6c1.6-1.7,4-2.6,7.5-2.7c2.6,0,4.8,0.7,6.4,2.2
		c1.7,1.4,2.5,3.5,2.5,6.1v0.7H34.3z M30.1,33.6v7.6c0,1,0.2,1.7,0.6,2.2c0.4,0.5,0.8,0.7,1.3,0.7c0.1,0,0.1,0,0.2,0s0.1,0,0.2,0
		c0.4-0.1,0.8-0.4,1.1-0.8s0.5-1.1,0.5-1.9v-8c0-0.5-0.2-0.9-0.5-1.2c-0.3-0.3-0.7-0.5-1.1-0.6c-0.1,0-0.1,0-0.2,0
		c-0.1,0-0.1,0-0.2,0c-0.1,0-0.1,0-0.2,0s-0.1,0-0.2,0c-0.4,0.1-0.8,0.3-1.1,0.7C30.3,32.4,30.1,33,30.1,33.6L30.1,33.6z"/>
</g>
</svg>
