<?xml version="1.0" encoding="utf-8"?>
<!-- Generator: Adobe Illustrator 19.0.0, SVG Export Plug-In . SVG Version: 6.00 Build 0)  -->
<svg version="1.1" id="图层_1" xmlns="http://www.w3.org/2000/svg" xmlns:xlink="http://www.w3.org/1999/xlink" x="0px" y="0px"
	 viewBox="0 0 64 64" style="enable-background:new 0 0 64 64;" xml:space="preserve">
<g id="XMLID_2_">
	<path id="XMLID_10_" d="M32,0C14.3,0,0,14.3,0,32s14.3,32,32,32s32-14.3,32-32S49.7,0,32,0z M32,60C16.6,60,4,47.4,4,32
		S16.6,4,32,4s28,12.6,28,28S47.4,60,32,60z"/>
	<path id="XMLID_11_" d="M21.8,21.6l12.8,0c-0.5,0.8-1,1.7-1.6,2.8c-0.6,1.1-1.2,2.3-1.8,3.6c-1.2,2.7-2.4,5.7-3.4,9
		c-1.1,3.3-1.8,6.8-2.1,10.3c0,0.3,0,0.6,0,1c0,0.3,0,0.6,0,0.9l8.7,0c0-0.1,0-0.2,0-0.3c0-0.1,0-0.2-0.1-0.4c0-0.1-0.1-0.3-0.1-0.4
		c0-0.1,0-0.3,0-0.5c0-1.5,0.2-3.6,0.6-6.2s1-5.3,1.9-8.1c0.7-2.3,1.5-4.6,2.4-6.8c0.9-2.2,2-4.1,3.2-5.7v-6.2H21.8V21.6z"/>
</g>
</svg>
