<?xml version="1.0" encoding="utf-8"?>
<!-- Generator: Adobe Illustrator 19.0.0, SVG Export Plug-In . SVG Version: 6.00 Build 0)  -->
<svg version="1.1" id="图层_1" xmlns="http://www.w3.org/2000/svg" xmlns:xlink="http://www.w3.org/1999/xlink" x="0px" y="0px"
	 viewBox="0 0 64 64" style="enable-background:new 0 0 64 64;" xml:space="preserve">
<g id="XMLID_2_">
	<path id="XMLID_8_" d="M33.2,19.6c-0.4-0.2-0.8-0.3-1.2-0.3c0,0-0.1,0-0.1,0c0,0,0,0-0.1,0c-0.5,0-1,0.2-1.4,0.5
		c-0.4,0.3-0.6,0.8-0.6,1.4v3.4c0,0.7,0.2,1.3,0.6,1.7c0.4,0.4,0.8,0.6,1.2,0.7c0,0,0.1,0,0.1,0c0,0,0,0,0.1,0c0,0,0.1,0,0.1,0
		c0,0,0.1,0,0.1,0c0.4-0.1,0.9-0.3,1.2-0.6c0.4-0.4,0.6-0.8,0.6-1.3v-4.4C33.8,20.2,33.6,19.9,33.2,19.6z"/>
	<path id="XMLID_9_" d="M33.2,33.4C32.9,33.1,32.5,33,32,33c-0.1,0-0.1,0-0.2,0c-0.1,0-0.1,0-0.2,0c-0.4,0.1-0.8,0.2-1.2,0.5
		c-0.4,0.3-0.6,0.7-0.6,1.2v5.9c0,0.7,0.2,1.2,0.5,1.6c0.4,0.4,0.8,0.6,1.2,0.7c0.1,0,0.1,0,0.2,0s0.1,0,0.2,0c0,0,0.1,0,0.1,0
		s0.1,0,0.1,0c0.4-0.1,0.7-0.2,1.1-0.6c0.3-0.3,0.5-0.7,0.5-1.3v-6.7C33.8,34,33.6,33.7,33.2,33.4z"/>
	<path id="XMLID_12_" d="M32,0C14.3,0,0,14.3,0,32c0,17.7,14.3,32,32,32s32-14.3,32-32C64,14.3,49.7,0,32,0z M41.6,40.6
		c-0.1,2.6-1.1,4.5-3.1,5.9c-2,1.4-4.1,2.1-6.5,2.3c-0.1,0-0.2,0-0.3,0s-0.2,0-0.4,0c-2.3,0-4.5-0.6-6.5-1.9c-2-1.3-3-3.2-3-5.9
		v-4.6c0-0.6,0-1.1,0-1.7c0-0.6,0.2-1.1,0.4-1.7c0.2-0.5,0.6-1.1,1.1-1.7c0.5-0.6,1.2-1.1,2.2-1.8v0c-1-0.5-1.8-1.3-2.4-2.3
		c-0.6-1-1-2.2-1-3.6v-3.1c0.1-2.4,1.1-4.2,3-5.4c1.9-1.2,4.1-1.9,6.4-1.9c0,0,0.1,0,0.1,0c0.1,0,0.1,0,0.1,0c0,0,0.1,0,0.1,0
		c0,0,0,0,0.1,0c2.2,0,4.2,0.6,6.1,1.7c1.9,1.1,2.9,2.8,3,5v3.7c-0.2,2-0.6,3.4-1.4,4.4c-0.8,0.9-1.6,1.6-2.4,1.9
		c0.1,0,0.3,0.1,0.4,0.1c0.1,0,0.3,0.1,0.5,0.1c0.7,0.3,1.4,0.9,2.1,1.7c0.7,0.8,1,2,1.2,3.6V40.6z"/>
</g>
</svg>
