<?xml version="1.0" encoding="utf-8"?>
<!-- Generator: Adobe Illustrator 19.0.0, SVG Export Plug-In . SVG Version: 6.00 Build 0)  -->
<svg version="1.1" id="图层_1" xmlns="http://www.w3.org/2000/svg" xmlns:xlink="http://www.w3.org/1999/xlink" x="0px" y="0px"
	 viewBox="0 0 64 64" style="enable-background:new 0 0 64 64;" xml:space="preserve">
<g id="XMLID_1_">
	<path id="XMLID_3_" d="M22.9,29.9c-1.5-0.8-2.7-1.9-3.7-3.4c-1-1.5-1.4-3.3-1.4-5.4v-4.7c0.1-3.6,1.7-6.3,4.6-8.2
		c2.9-1.8,6.1-2.8,9.5-2.9c0,0,0.1,0,0.2,0c0.1,0,0.2,0,0.2,0s0.1,0,0.1,0c0,0,0.1,0,0.1,0c3.3,0,6.4,0.9,9.2,2.6
		c2.8,1.7,4.3,4.2,4.5,7.6V21c-0.2,3-0.9,5.2-2.1,6.6C43,29,41.8,30,40.5,30.5c0.2,0,0.4,0.1,0.6,0.1c0.2,0,0.4,0.1,0.7,0.2
		c1.1,0.5,2.1,1.3,3.1,2.5c1,1.2,1.6,3,1.8,5.3v7.8c-0.1,3.8-1.7,6.8-4.6,8.9c-3,2.1-6.2,3.2-9.7,3.4c-0.1,0-0.3,0-0.5,0
		c-0.2,0-0.3,0-0.5,0c-3.5,0-6.7-1-9.7-2.9c-3-1.9-4.4-4.8-4.4-8.8v-6.8c0-0.9,0-1.7,0.1-2.6c0-0.8,0.3-1.7,0.6-2.6
		c0.3-0.8,0.9-1.6,1.7-2.5C20.4,31.8,21.5,30.9,22.9,29.9L22.9,29.9z M29.9,25.1c0.6,0.6,1.1,1,1.8,1c0,0,0.1,0,0.1,0
		c0,0,0.1,0,0.1,0c0,0,0.1,0,0.2,0s0.1,0,0.2,0c0.7-0.1,1.3-0.4,1.8-0.9c0.6-0.5,0.8-1.2,0.8-2v-6.6c0-0.7-0.3-1.2-0.8-1.5
		c-0.5-0.3-1.1-0.5-1.8-0.5c0,0-0.1,0-0.1,0c0,0-0.1,0-0.1,0c-0.8,0-1.5,0.3-2.1,0.8c-0.6,0.5-0.9,1.2-0.9,2.2v5.1
		C29.1,23.6,29.4,24.5,29.9,25.1z M29.1,37.6v8.9c0,1.1,0.3,1.9,0.8,2.4c0.5,0.6,1.1,0.9,1.8,1c0.1,0,0.2,0.1,0.3,0.1
		c0.1,0,0.2,0,0.3,0c0,0,0.1,0,0.2,0s0.1,0,0.2,0c0.6-0.1,1.1-0.4,1.6-0.8c0.5-0.5,0.8-1.1,0.8-2v-10c0-0.6-0.3-1.1-0.8-1.5
		c-0.5-0.4-1.1-0.6-1.8-0.6c-0.1,0-0.2,0-0.3,0c-0.1,0-0.2,0-0.3,0.1c-0.6,0.1-1.2,0.4-1.8,0.8C29.4,36.4,29.1,37,29.1,37.6
		L29.1,37.6z"/>
</g>
</svg>
