<?xml version="1.0" encoding="utf-8"?>
<!-- Generator: Adobe Illustrator 19.0.0, SVG Export Plug-In . SVG Version: 6.00 Build 0)  -->
<svg version="1.1" id="图层_1" xmlns="http://www.w3.org/2000/svg" xmlns:xlink="http://www.w3.org/1999/xlink" x="0px" y="0px"
	 viewBox="0 0 64 64" style="enable-background:new 0 0 64 64;" xml:space="preserve">
<path id="XMLID_1_" d="M52.1,4c4.3,0,7.9,3.5,7.9,7.9v40.3c0,4.3-3.5,7.9-7.9,7.9H11.9C7.5,60,4,56.5,4,52.1V11.9
	C4,7.5,7.5,4,11.9,4H52.1 M52.1,0H11.9C5.3,0,0,5.3,0,11.9v40.3C0,58.7,5.3,64,11.9,64h40.3C58.7,64,64,58.7,64,52.1V11.9
	C64,5.3,58.7,0,52.1,0L52.1,0z"/>
<g id="XMLID_3_">
	<path id="XMLID_6_" d="M25.9,30.6c-1-0.5-1.8-1.3-2.4-2.3c-0.6-1-1-2.2-1-3.6v-3.1c0.1-2.4,1.1-4.2,3-5.4c1.9-1.2,4.1-1.9,6.4-1.9
		c0,0,0.1,0,0.1,0c0.1,0,0.1,0,0.1,0c0,0,0.1,0,0.1,0c0,0,0,0,0.1,0c2.2,0,4.2,0.6,6.1,1.7c1.9,1.1,2.9,2.8,3,5v3.7
		c-0.2,2-0.6,3.4-1.4,4.4c-0.8,0.9-1.6,1.6-2.4,1.9c0.1,0,0.3,0.1,0.4,0.1c0.1,0,0.3,0.1,0.5,0.1c0.7,0.3,1.4,0.9,2.1,1.7
		c0.7,0.8,1,2,1.2,3.6v5.2c-0.1,2.6-1.1,4.5-3.1,5.9c-2,1.4-4.1,2.1-6.5,2.3c-0.1,0-0.2,0-0.3,0s-0.2,0-0.4,0
		c-2.3,0-4.5-0.6-6.5-1.9c-2-1.3-3-3.2-3-5.9v-4.6c0-0.6,0-1.1,0-1.7c0-0.6,0.2-1.1,0.4-1.7c0.2-0.5,0.6-1.1,1.1-1.7
		C24.3,31.8,25,31.3,25.9,30.6L25.9,30.6z M30.6,27.4c0.4,0.4,0.8,0.6,1.2,0.7c0,0,0.1,0,0.1,0c0,0,0,0,0.1,0c0,0,0.1,0,0.1,0
		c0,0,0.1,0,0.1,0c0.4-0.1,0.9-0.3,1.2-0.6c0.4-0.4,0.6-0.8,0.6-1.3v-4.4c0-0.4-0.2-0.8-0.5-1c-0.4-0.2-0.8-0.3-1.2-0.3
		c0,0-0.1,0-0.1,0c0,0,0,0-0.1,0c-0.5,0-1,0.2-1.4,0.5c-0.4,0.3-0.6,0.8-0.6,1.4v3.4C30.1,26.4,30.2,27,30.6,27.4z M30.1,35.7v5.9
		c0,0.7,0.2,1.2,0.5,1.6c0.4,0.4,0.8,0.6,1.2,0.7c0.1,0,0.1,0,0.2,0s0.1,0,0.2,0c0,0,0.1,0,0.1,0s0.1,0,0.1,0
		c0.4-0.1,0.7-0.2,1.1-0.6c0.3-0.3,0.5-0.7,0.5-1.3v-6.7c0-0.4-0.2-0.8-0.5-1c-0.4-0.3-0.8-0.4-1.2-0.4c-0.1,0-0.1,0-0.2,0
		c-0.1,0-0.1,0-0.2,0c-0.4,0.1-0.8,0.2-1.2,0.5C30.3,34.9,30.1,35.3,30.1,35.7L30.1,35.7z"/>
</g>
</svg>
