<?xml version="1.0" encoding="utf-8"?>
<!-- Generator: Adobe Illustrator 19.0.0, SVG Export Plug-In . SVG Version: 6.00 Build 0)  -->
<svg version="1.1" id="图层_1" xmlns="http://www.w3.org/2000/svg" xmlns:xlink="http://www.w3.org/1999/xlink" x="0px" y="0px"
	 viewBox="0 0 64 64" style="enable-background:new 0 0 64 64;" xml:space="preserve">
<path id="XMLID_1_" d="M52.1,4c4.3,0,7.9,3.5,7.9,7.9v40.3c0,4.3-3.5,7.9-7.9,7.9H11.9C7.5,60,4,56.5,4,52.1V11.9
	C4,7.5,7.5,4,11.9,4H52.1 M52.1,0H11.9C5.3,0,0,5.3,0,11.9v40.3C0,58.7,5.3,64,11.9,64h40.3C58.7,64,64,58.7,64,52.1V11.9
	C64,5.3,58.7,0,52.1,0L52.1,0z"/>
<g id="XMLID_3_">
	<path id="XMLID_6_" d="M23.2,41.2h6.9c0,0.1,0,0.1,0,0.1c0,0,0,0.1,0,0.1c0,0.1,0,0.1,0,0.1c0,0,0,0.1,0,0.1c0,0.8,0.2,1.4,0.6,1.8
		c0.4,0.4,0.9,0.6,1.4,0.6c0.1,0,0.2,0,0.3,0c0.1,0,0.2,0,0.3-0.1c0.4-0.1,0.9-0.4,1.2-0.9c0.4-0.5,0.6-1.1,0.6-1.8v-4.6
		c-0.2,0.7-0.7,1.3-1.6,1.8c-0.9,0.5-1.9,0.7-3,0.7c-0.2,0-0.4,0-0.7,0c-0.2,0-0.4-0.1-0.7-0.1c-1.4-0.3-2.7-1.1-3.9-2.4
		c-1.2-1.3-1.8-3.2-1.9-5.8v-7.7c0-3,0.9-5.3,2.8-6.7c1.9-1.5,3.9-2.2,6.1-2.2c0,0,0.1,0,0.1,0c0,0,0,0,0.1,0c0.1,0,0.3,0,0.4,0
		c0.1,0,0.3,0,0.4,0c2.3,0.1,4.4,0.9,6.3,2.4c1.9,1.5,2.9,3.4,2.9,5.9v18c0,2.9-0.7,5.2-2.2,6.8c-1.5,1.6-4,2.4-7.5,2.4h-0.9
		c-0.4,0-0.8,0-1.2-0.1c-0.4,0-0.8-0.1-1.3-0.2c-1.3-0.4-2.5-1.1-3.6-2.2c-1.1-1.1-1.7-2.7-1.7-4.8c0-0.1,0-0.2,0-0.3
		c0-0.1,0-0.2,0-0.3c0-0.1,0-0.2,0-0.3C23.2,41.5,23.2,41.4,23.2,41.2L23.2,41.2z M30.6,32.9c0.4,0.5,0.8,0.7,1.2,0.7
		c0.1,0,0.2,0,0.3,0c0.1,0,0.2,0,0.2-0.1c0.4-0.1,0.8-0.4,1.2-0.9c0.4-0.5,0.5-1,0.5-1.7v-7.7c0-1-0.2-1.7-0.6-2.2
		c-0.4-0.5-0.8-0.8-1.3-0.8c-0.1,0-0.1,0-0.2,0s-0.1,0-0.2,0c-0.4,0.1-0.8,0.5-1.1,1c-0.3,0.5-0.5,1.3-0.5,2.3v7.2
		C30.1,31.8,30.2,32.5,30.6,32.9z"/>
</g>
</svg>
