<?xml version="1.0" encoding="utf-8"?>
<!-- Generator: Adobe Illustrator 19.0.0, SVG Export Plug-In . SVG Version: 6.00 Build 0)  -->
<svg version="1.1" id="图层_1" xmlns="http://www.w3.org/2000/svg" xmlns:xlink="http://www.w3.org/1999/xlink" x="0px" y="0px"
	 viewBox="0 0 64 64" style="enable-background:new 0 0 64 64;" xml:space="preserve">
<style type="text/css">
	.st0{fill:#040000;}
</style>
<path class="st0" d="M63.9,38.2c-0.1-0.3-0.1-0.5-0.2-0.7c-0.3-0.7-0.7-1.3-1.3-1.9c-0.6-0.6-1.1-1-1.5-1.3
	c-0.2-0.1-0.5-0.2-0.8-0.3c-0.3-0.1-0.6-0.1-0.9-0.1c-0.3,0-0.6,0-1,0.1s-0.7,0.3-1,0.5c-0.2,0.2-0.5,0.5-0.9,0.8
	c-0.4,0.3-0.7,0.6-0.9,0.9l6.2,6.2c0.2-0.1,0.3-0.3,0.5-0.5c0.2-0.2,0.3-0.3,0.5-0.5c0.2-0.2,0.4-0.4,0.7-0.7
	c0.2-0.3,0.4-0.5,0.5-0.8c0.1-0.3,0.2-0.6,0.2-0.9S64,38.4,63.9,38.2L63.9,38.2z M40.6,50.9c-0.7,0.7-1.3,1.3-1.8,1.8
	s-0.8,0.8-0.9,0.9c-0.3,0.3-0.5,0.6-0.7,0.8c-0.2,0.3-0.3,0.5-0.4,0.8c-0.1,0.2-0.3,0.6-0.4,1.1c-0.2,0.5-0.4,1.1-0.5,1.7
	c-0.2,0.6-0.4,1.2-0.5,1.8c-0.2,0.6-0.3,1-0.3,1.3c-0.1,0.6,0,1,0.2,1.2c0.2,0.2,0.6,0.3,1.2,0.3c0.3,0,0.7-0.1,1.3-0.3
	s1.2-0.3,1.9-0.5c0.7-0.2,1.3-0.4,1.9-0.6c0.6-0.2,1-0.4,1.4-0.6c0.3-0.1,0.6-0.3,0.9-0.5c0.3-0.2,0.5-0.4,0.8-0.6
	c0.1-0.1,0.4-0.3,0.8-0.8c0.5-0.5,1-1.1,1.8-1.8c0.7-0.7,1.5-1.5,2.4-2.4l2.7-2.7l7.1-7.1l-6.2-6.2L40.6,50.9L40.6,50.9z M41.4,40.7
	c1.2,0,2.2-1,2.2-2.2c0-1.2-1-2.2-2.2-2.2H30.9V31h10.5c1.2,0,2.2-1,2.2-2.2c0-1.2-1-2.2-2.2-2.2H32l9.7-9.1
	c0.9-0.8,0.9-2.3,0.1-3.2c-0.8-0.9-2.3-0.9-3.2-0.1l-10,9.4l-10-9.4c-0.9-0.8-2.3-0.8-3.2,0.1c-0.8,0.9-0.8,2.3,0.1,3.2l9.7,9.1H16
	c-1.2,0-2.2,1-2.2,2.2c0,1.2,1,2.2,2.2,2.2h10.5v5.3H16c-1.2,0-2.2,1-2.2,2.2s1,2.2,2.2,2.2h10.5v5.3c0,1.2,1,2.2,2.2,2.2
	c1.2,0,2.2-1,2.2-2.2v-5.3L41.4,40.7L41.4,40.7z"/>
<path id="XMLID_1_" class="st0" d="M22.5,58.4H8.3c-2.1,0-3.8-1.5-3.8-3.3V8.9c0-1.8,1.7-3.3,3.8-3.3h39.6c2.1,0,3.8,1.5,3.8,3.3v17
	c0,1.2,1,2.2,2.2,2.2c1.2,0,2.2-1,2.2-2.2v-17c0-4.3-3.7-7.8-8.3-7.8H8.3C3.7,1.1,0,4.6,0,8.9v46.2c0,4.3,3.7,7.8,8.3,7.8h14.2
	c1.2,0,2.2-1,2.2-2.2S23.7,58.4,22.5,58.4z"/>
</svg>
