<?xml version="1.0" encoding="utf-8"?>
<!-- Generator: Adobe Illustrator 19.0.0, SVG Export Plug-In . SVG Version: 6.00 Build 0)  -->
<svg version="1.1" id="图层_1" xmlns="http://www.w3.org/2000/svg" xmlns:xlink="http://www.w3.org/1999/xlink" x="0px" y="0px"
	 viewBox="0 0 64 64" style="enable-background:new 0 0 64 64;" xml:space="preserve">
<style type="text/css">
	.st0{fill:#040000;}
</style>
<g id="XMLID_1262_">
	<path id="XMLID_2341_" class="st0" d="M49.7,28.6c7.9,0,14.3-6.4,14.3-14.3S57.6,0,49.7,0S35.4,6.4,35.4,14.3
		C35.4,22.2,41.8,28.6,49.7,28.6z M49.7,4.7c5.3,0,9.6,4.3,9.6,9.6c0,5.3-4.3,9.6-9.6,9.6c-5.3,0-9.6-4.3-9.6-9.6
		C40.1,9,44.4,4.7,49.7,4.7z"/>
	<path id="XMLID_2342_" class="st0" d="M14.3,0C6.4,0,0,6.4,0,14.3c0,7.9,6.4,14.3,14.3,14.3s14.3-6.4,14.3-14.3S22.2,0,14.3,0z"/>
	<path id="XMLID_2343_" class="st0" d="M49.7,35.4c-7.9,0-14.3,6.4-14.3,14.3c0,7.9,6.4,14.3,14.3,14.3S64,57.6,64,49.7
		S57.6,35.4,49.7,35.4z"/>
	<path id="XMLID_2346_" class="st0" d="M14.3,35.4C6.4,35.4,0,41.8,0,49.7C0,57.6,6.4,64,14.3,64s14.3-6.4,14.3-14.3
		S22.2,35.4,14.3,35.4z M14.3,59.3c-5.3,0-9.6-4.3-9.6-9.6c0-5.3,4.3-9.6,9.6-9.6c5.3,0,9.6,4.3,9.6,9.6
		C23.9,55,19.6,59.3,14.3,59.3z"/>
</g>
</svg>
