<?xml version="1.0" encoding="utf-8"?>
<!-- Generator: Adobe Illustrator 19.0.0, SVG Export Plug-In . SVG Version: 6.00 Build 0)  -->
<svg version="1.1" id="图层_1" xmlns="http://www.w3.org/2000/svg" xmlns:xlink="http://www.w3.org/1999/xlink" x="0px" y="0px"
	 viewBox="0 0 64 64" style="enable-background:new 0 0 64 64;" xml:space="preserve">
<style type="text/css">
	.st0{fill:#040000;}
</style>
<path id="XMLID_1318_" class="st0" d="M62.9,21.5C62.9,21.5,62.9,21.4,62.9,21.5L47.1,3.3c-0.7-0.9-1.8-1.4-3-1.5h0
	c-1.2,0-2.3,0.5-3,1.4c-0.7,0.8-1.1,1.9-1.1,3V14H34c-1.1,0-2,0.9-2,2c0,1.1,0.9,2,2,2H42c1.1,0,2-0.9,2-2l0,0V6.3
	c0-0.1,0-0.2,0.1-0.3l15.8,18.1c0.2,0.2,0.2,0.6,0,0.8L44.1,42.9c-0.1-0.1-0.1-0.2-0.1-0.3V32.1c0-1.1-0.9-2-2-2c0,0,0,0,0,0H23.9
	v-8.5c0-2.4-1.8-4.4-4.1-4.4c-1.2,0-2.2,0.5-3,1.4L1.1,36.8l0,0c-1.4,1.8-1.4,4.3,0,6l15.7,17.9c0.7,0.9,1.8,1.4,3,1.5h0
	c1.1,0,2.2-0.5,3-1.4c0.7-0.8,1.1-1.9,1.1-3v-7.5h6.2c1.1,0,2-0.9,2-2c0-1.1-0.9-2-2-2h-8.2c-1.1,0-2,0.9-2,2v9.6
	c0,0.1,0,0.2-0.1,0.3L4.1,40.2C4,40,4,39.6,4.1,39.4l15.7-18c0,0.1,0.1,0.2,0.1,0.3v10.5c0,1.1,0.9,2,2,2H40v8.5
	c0,2.4,1.8,4.4,4.1,4.4c1.2,0,2.3-0.5,3-1.4l15.8-18.1l0,0C64.4,25.7,64.4,23.2,62.9,21.5L62.9,21.5z"/>
</svg>
