<?xml version="1.0" encoding="utf-8"?>
<!-- Generator: Adobe Illustrator 19.0.0, SVG Export Plug-In . SVG Version: 6.00 Build 0)  -->
<svg version="1.1" id="图层_1" xmlns="http://www.w3.org/2000/svg" xmlns:xlink="http://www.w3.org/1999/xlink" x="0px" y="0px"
	 viewBox="0 0 64 64" style="enable-background:new 0 0 64 64;" xml:space="preserve">
<g id="XMLID_1_">
	<path id="XMLID_10_" d="M55.8,12.8c0-0.1,0-0.3,0-0.4c0-4.7-3.9-8.6-8.6-8.6h-11c-1,0-1.8-0.8-1.8-1.8c0-1.1-0.9-2-2-2s-2,0.9-2,2
		c0,1-0.8,1.8-1.8,1.8H16.8c-4.7,0-8.6,3.9-8.6,8.6c0,0.1,0,0.3,0,0.4C3.6,13.1,0,16.9,0,21.6v33.6C0,60,4,64,8.8,64h46.3
		c4.9,0,8.8-4,8.8-8.8V21.6C64,16.9,60.4,13.1,55.8,12.8z M16.8,7.8h11.9c1.5,0,2.8-0.5,3.8-1.4c1,0.9,2.3,1.4,3.8,1.4h11
		c2.5,0,4.6,2.1,4.6,4.6c0,0.1,0,0.2,0,0.4h-4.3h-4H20.5h-4h-4.3c0-0.1,0-0.2,0-0.4C12.2,9.9,14.2,7.8,16.8,7.8z M60,55.2
		c0,2.7-2.2,4.8-4.8,4.8H8.8C6.2,60,4,57.8,4,55.2V21.6c0-2.7,2.2-4.8,4.8-4.8h7.6h4h23.1h4h7.6c2.7,0,4.8,2.2,4.8,4.8V55.2z"/>
	<path id="XMLID_12_" d="M44.8,27.9c-0.1,0.1-0.2,0.1-0.2,0.2v0L27.9,44.8l-8.6-8.5c-0.8-0.8-2.2-0.8-3,0c-0.8,0.8-0.8,2.2,0,3
		l10.1,10.1c0.8,0.8,2.2,0.8,3,0l18.1-18.1c0.9-0.8,1-2.1,0.2-3S45.7,27.2,44.8,27.9z"/>
</g>
</svg>
