<?xml version="1.0" encoding="utf-8"?>
<!-- Generator: Adobe Illustrator 19.0.0, SVG Export Plug-In . SVG Version: 6.00 Build 0)  -->
<svg version="1.1" id="图层_1" xmlns="http://www.w3.org/2000/svg" xmlns:xlink="http://www.w3.org/1999/xlink" x="0px" y="0px"
	 viewBox="0 0 64 64" style="enable-background:new 0 0 64 64;" xml:space="preserve">
<style type="text/css">
	.st0{fill:#040000;}
</style>
<path id="XMLID_318_" class="st0" d="M57.3,40.6c-1.4-0.8-3-1.1-4.5-0.7c-0.9,0.2-1.7,0.6-2.4,1.2l-4.2-2.6V26l4.6-2.6
	c0.7,0.6,1.5,1,2.3,1.3c0.5,0.2,1.1,0.2,1.6,0.2c1,0,2-0.3,2.9-0.8c2.9-1.6,3.9-5.3,2.3-8.2c-0.8-1.4-2.1-2.4-3.6-2.8
	c-1.5-0.4-3.2-0.2-4.6,0.5c-2.3,1.3-3.4,3.8-3,6.3L44,22.6l-10-5.8v-5.2c2.3-0.8,4-3.1,4-5.7c0-3.3-2.7-6-6-6c-3.3,0-6,2.7-6,6
	c0,2.6,1.7,4.8,4,5.7v5.2l-9.7,5.6l-4.6-2.8c0.2-0.9,0.2-1.8,0-2.7c-0.4-1.6-1.3-2.9-2.7-3.7s-3-1.1-4.5-0.7
	c-1.6,0.4-2.9,1.3-3.7,2.7s-1.1,3-0.7,4.5c0.4,1.6,1.3,2.9,2.7,3.7c1,0.6,2,0.9,3.1,0.9c0.5,0,0.9-0.1,1.4-0.2
	c0.9-0.2,1.7-0.6,2.4-1.2l4.2,2.6v11.6l-4.6,2.6c-0.7-0.6-1.5-1-2.3-1.3c-1.5-0.4-3.2-0.2-4.6,0.5c-2.9,1.6-3.9,5.3-2.3,8.2
	c0.8,1.4,2.1,2.4,3.6,2.8c0.5,0.2,1.1,0.2,1.6,0.2c1,0,2-0.3,2.9-0.8c1.4-0.8,2.4-2.1,2.8-3.6c0.2-0.9,0.3-1.8,0.1-2.7l4.1-2.3
	L30,47.2v5.2c-2.3,0.8-4,3.1-4,5.7c0,3.3,2.7,6,6,6s6-2.7,6-6c0-2.6-1.7-4.8-4-5.7v-5.2l9.7-5.6l4.6,2.8c-0.5,2.4,0.5,5,2.7,6.4
	c1,0.6,2,0.9,3.1,0.9c0.5,0,0.9-0.1,1.4-0.2c1.6-0.4,2.9-1.3,3.7-2.7s1.1-3,0.7-4.5S58.7,41.4,57.3,40.6L57.3,40.6z M53.7,17.2
	c0.3-0.2,0.6-0.3,1-0.3c0.2,0,0.4,0,0.5,0.1c0.5,0.1,0.9,0.5,1.2,0.9c0.5,1,0.2,2.2-0.8,2.7c-0.5,0.3-1,0.3-1.5,0.2
	c-0.5-0.1-0.9-0.5-1.2-0.9C52.4,18.9,52.7,17.7,53.7,17.2z M32,4c1.1,0,2,0.9,2,2s-0.9,2-2,2c-1.1,0-2-0.9-2-2S30.9,4,32,4z
	 M10.3,20.3c-0.5,0.1-1.1,0-1.5-0.2c-0.5-0.3-0.8-0.7-0.9-1.2c-0.1-0.5,0-1.1,0.2-1.5c0.4-0.6,1-1,1.7-1c0.4,0,0.7,0.1,1,0.3
	c0.5,0.3,0.8,0.7,0.9,1.2c0.1,0.5,0,1.1-0.2,1.5C11.3,19.9,10.9,20.2,10.3,20.3z M11.3,44.9c-0.1,0.5-0.5,0.9-0.9,1.2
	c-0.5,0.3-1,0.3-1.5,0.2c-0.5-0.1-0.9-0.5-1.2-0.9c-0.5-1-0.2-2.2,0.8-2.7c0.3-0.2,0.6-0.3,1-0.3c0.2,0,0.4,0,0.5,0.1
	c0.5,0.1,0.9,0.5,1.2,0.9C11.3,43.9,11.4,44.4,11.3,44.9L11.3,44.9z M21.9,26.2L32,20.3l10.1,5.8v11.7L32,43.7l-10.1-5.8V26.2z
	 M32,60c-1.1,0-2-0.9-2-2c0-1.1,0.9-2,2-2c1.1,0,2,0.9,2,2C34,59.1,33.1,60,32,60z M55.8,46.7c-0.3,0.5-0.7,0.8-1.2,0.9
	c-0.5,0.1-1.1,0-1.5-0.2c-0.9-0.6-1.2-1.8-0.7-2.8c0.3-0.5,0.7-0.8,1.2-0.9c0.2,0,0.3-0.1,0.5-0.1c0.4,0,0.7,0.1,1,0.3
	c0.5,0.3,0.8,0.7,0.9,1.2C56.2,45.7,56.1,46.3,55.8,46.7L55.8,46.7z"/>
</svg>
