<?xml version="1.0" encoding="utf-8"?>
<!-- Generator: Adobe Illustrator 19.0.0, SVG Export Plug-In . SVG Version: 6.00 Build 0)  -->
<svg version="1.1" id="图层_1" xmlns="http://www.w3.org/2000/svg" xmlns:xlink="http://www.w3.org/1999/xlink" x="0px" y="0px"
	 viewBox="0 0 64 64" style="enable-background:new 0 0 64 64;" xml:space="preserve">
<style type="text/css">
	.st0{fill:#040000;}
</style>
<path id="XMLID_1119_" class="st0" d="M59.9,49.8L56,44V28c0-10.6-6.9-19.7-16.5-22.8c-1.1-3-4-5.2-7.5-5.2c-3.4,0-6.3,2.2-7.5,5.2
	C14.9,8.3,8,17.4,8,28v16l-3.9,5.8C2.4,52.4,4.3,56,7.5,56H20h0.7c1.7,4.7,6.1,8,11.3,8c5.2,0,9.6-3.3,11.3-8H44h12.5
	C59.7,56,61.6,52.4,59.9,49.8z"/>
</svg>
