<?xml version="1.0" encoding="utf-8"?>
<!-- Generator: Adobe Illustrator 19.0.0, SVG Export Plug-In . SVG Version: 6.00 Build 0)  -->
<svg version="1.1" id="图层_1" xmlns="http://www.w3.org/2000/svg" xmlns:xlink="http://www.w3.org/1999/xlink" x="0px" y="0px"
	 viewBox="0 0 64 64" style="enable-background:new 0 0 64 64;" xml:space="preserve">
<style type="text/css">
	.st0{fill:#040000;}
</style>
<path id="XMLID_1887_" class="st0" d="M62,60h-2.4V18.3c0-1.1-0.9-2-2-2H39V2c0-1.1-0.9-2-2-2H6.2c-1.1,0-2,0.9-2,2v58H2
	c-1.1,0-2,0.9-2,2s0.9,2,2,2h60c1.1,0,2-0.9,2-2S63.1,60,62,60z M25.2,11.9h3.6c1.1,0,2,0.9,2,2s-0.9,2-2,2h-3.6c-1.1,0-2-0.9-2-2
	S24.1,11.9,25.2,11.9z M14,11.9h3.6c1.1,0,2,0.9,2,2s-0.9,2-2,2H14c-1.1,0-2-0.9-2-2S12.9,11.9,14,11.9z M14,18.9h3.6
	c1.1,0,2,0.9,2,2s-0.9,2-2,2H14c-1.1,0-2-0.9-2-2S12.9,18.9,14,18.9z M18,41.9h-3.6c-1.1,0-2-0.9-2-2s0.9-2,2-2H18c1.1,0,2,0.9,2,2
	S19.1,41.9,18,41.9z M18,35h-3.6c-1.1,0-2-0.9-2-2s0.9-2,2-2H18c1.1,0,2,0.9,2,2S19.1,35,18,35z M25.2,18.9h3.6c1.1,0,2,0.9,2,2
	s-0.9,2-2,2h-3.6c-1.1,0-2-0.9-2-2S24.1,18.9,25.2,18.9z M29.2,41.9h-3.6c-1.1,0-2-0.9-2-2s0.9-2,2-2h3.6c1.1,0,2,0.9,2,2
	S30.3,41.9,29.2,41.9z M29.2,35h-3.6c-1.1,0-2-0.9-2-2s0.9-2,2-2h3.6c1.1,0,2,0.9,2,2S30.3,35,29.2,35z M48.6,41.9H46
	c-1.1,0-2-0.9-2-2s0.9-2,2-2h2.6c1.1,0,2,0.9,2,2S49.7,41.9,48.6,41.9z M48.6,35H46c-1.1,0-2-0.9-2-2s0.9-2,2-2h2.6c1.1,0,2,0.9,2,2
	S49.7,35,48.6,35z"/>
</svg>
