<?xml version="1.0" encoding="utf-8"?>
<!-- Generator: Adobe Illustrator 19.0.0, SVG Export Plug-In . SVG Version: 6.00 Build 0)  -->
<svg version="1.1" id="图层_1" xmlns="http://www.w3.org/2000/svg" xmlns:xlink="http://www.w3.org/1999/xlink" x="0px" y="0px"
	 viewBox="0 0 64 64" style="enable-background:new 0 0 64 64;" xml:space="preserve">
<style type="text/css">
	.st0{fill:#040000;}
</style>
<g id="XMLID_827_">
	<path id="XMLID_828_" class="st0" d="M62,60h-2.4V18.3c0-1.1-0.9-2-2-2H39V2c0-1.1-0.9-2-2-2H6.2c-1.1,0-2,0.9-2,2v58H2
		c-1.1,0-2,0.9-2,2s0.9,2,2,2h60c1.1,0,2-0.9,2-2S63.1,60,62,60z M55.6,20.3V60H39V20.3H55.6z M8.2,4H35v56H8.2V4z"/>
	<path id="XMLID_832_" class="st0" d="M18,31h-3.6c-1.1,0-2,0.9-2,2s0.9,2,2,2H18c1.1,0,2-0.9,2-2S19.1,31,18,31z"/>
	<path id="XMLID_833_" class="st0" d="M29.2,31h-3.6c-1.1,0-2,0.9-2,2s0.9,2,2,2h3.6c1.1,0,2-0.9,2-2S30.3,31,29.2,31z"/>
	<path id="XMLID_834_" class="st0" d="M18,37.9h-3.6c-1.1,0-2,0.9-2,2s0.9,2,2,2H18c1.1,0,2-0.9,2-2S19.1,37.9,18,37.9z"/>
	<path id="XMLID_839_" class="st0" d="M29.2,37.9h-3.6c-1.1,0-2,0.9-2,2s0.9,2,2,2h3.6c1.1,0,2-0.9,2-2S30.3,37.9,29.2,37.9z"/>
	<path id="XMLID_849_" class="st0" d="M46,35h2.6c1.1,0,2-0.9,2-2s-0.9-2-2-2H46c-1.1,0-2,0.9-2,2S44.9,35,46,35z"/>
	<path id="XMLID_850_" class="st0" d="M48.6,37.9H46c-1.1,0-2,0.9-2,2s0.9,2,2,2h2.6c1.1,0,2-0.9,2-2S49.7,37.9,48.6,37.9z"/>
	<path id="XMLID_856_" class="st0" d="M14,15.9h3.6c1.1,0,2-0.9,2-2s-0.9-2-2-2H14c-1.1,0-2,0.9-2,2S12.9,15.9,14,15.9z"/>
	<path id="XMLID_857_" class="st0" d="M25.2,15.9h3.6c1.1,0,2-0.9,2-2s-0.9-2-2-2h-3.6c-1.1,0-2,0.9-2,2S24.1,15.9,25.2,15.9z"/>
	<path id="XMLID_868_" class="st0" d="M14,22.9h3.6c1.1,0,2-0.9,2-2s-0.9-2-2-2H14c-1.1,0-2,0.9-2,2S12.9,22.9,14,22.9z"/>
	<path id="XMLID_869_" class="st0" d="M25.2,22.9h3.6c1.1,0,2-0.9,2-2s-0.9-2-2-2h-3.6c-1.1,0-2,0.9-2,2S24.1,22.9,25.2,22.9z"/>
</g>
</svg>
