<?xml version="1.0" encoding="utf-8"?>
<!-- Generator: Adobe Illustrator 19.0.0, SVG Export Plug-In . SVG Version: 6.00 Build 0)  -->
<svg version="1.1" id="图层_1" xmlns="http://www.w3.org/2000/svg" xmlns:xlink="http://www.w3.org/1999/xlink" x="0px" y="0px"
	 viewBox="-217 219 64 64" style="enable-background:new -217 219 64 64;" xml:space="preserve">
<style type="text/css">
	.st0{fill:#040000;}
</style>
<g id="XMLID_1714_">
	<polygon id="XMLID_1746_" class="st0" points="-204.2,260.4 -199.9,260.4 -199.9,236.8 -191.8,236.8 -191.8,260.4 -187.4,260.4 
		-187.4,232.1 -204.2,232.1 	"/>
	<polygon id="XMLID_1757_" class="st0" points="-193.5,238.6 -198.2,238.6 -198.2,260.7 -204.2,265.1 -204.2,270.7 -195.9,265.2 
		-187.6,270.7 -187.6,264.9 -193.5,260.7 	"/>
	<polygon id="XMLID_1758_" class="st0" points="-180.9,231.3 -185.8,231.3 -185.8,244.5 -180.9,241.6 -180.9,238 -170.5,238 
		-170.5,266 -174.2,266 -177.3,270.5 -165.8,270.5 -165.8,233.4 -180.9,233.4 	"/>
	<polygon id="XMLID_1760_" class="st0" points="-182.4,244.5 -186.2,263.1 -176.2,263.1 -172.3,259.2 -172.3,251.9 -176.8,251.9 
		-176.8,258.6 -180.3,258.6 -177.6,244.5 	"/>
	<path id="XMLID_1822_" class="st0" d="M-160.6,219h-48.9c-4.2,0-7.6,3.4-7.6,7.6v48.9c0,4.2,3.4,7.6,7.6,7.6h48.9
		c4.2,0,7.6-3.4,7.6-7.6v-48.9C-153,222.4-156.4,219-160.6,219z M-157,275.4c0,2-1.6,3.6-3.6,3.6h-48.9c-2,0-3.6-1.6-3.6-3.6v-48.9
		c0-2,1.6-3.6,3.6-3.6h48.9c2,0,3.6,1.6,3.6,3.6V275.4z"/>
</g>
</svg>
