<?xml version="1.0" encoding="utf-8"?>
<!-- Generator: Adobe Illustrator 19.0.0, SVG Export Plug-In . SVG Version: 6.00 Build 0)  -->
<svg version="1.1" id="图层_1" xmlns="http://www.w3.org/2000/svg" xmlns:xlink="http://www.w3.org/1999/xlink" x="0px" y="0px"
	 viewBox="-217 219 64 64" style="enable-background:new -217 219 64 64;" xml:space="preserve">
<style type="text/css">
	.st0{fill:#040000;}
</style>
<path id="XMLID_1007_" class="st0" d="M-160.6,219h-48.9c-4.2,0-7.6,3.4-7.6,7.6v48.9c0,4.2,3.4,7.6,7.6,7.6h48.9
	c4.2,0,7.6-3.4,7.6-7.6v-48.9C-153,222.4-156.4,219-160.6,219z M-187.6,270.7l-8.3-5.5l-8.3,5.5v-5.6l6.1-4.4v-22.1h4.7v22.1
	l5.9,4.2V270.7z M-187.4,260.4h-4.4v-23.6h-8v23.6h-4.4v-28.3h16.8V260.4z M-176.8,258.6v-6.7h4.5v7.3l-3.9,3.9h-10l3.8-18.6h4.8
	l-2.7,14.1H-176.8z M-165.8,270.5h-11.5l3-4.5h3.8v-28h-10.5v3.6l-4.8,2.9v-13.2h4.8v2.1h15.2V270.5z"/>
</svg>
