<?xml version="1.0" encoding="utf-8"?>
<!-- Generator: Adobe Illustrator 19.0.0, SVG Export Plug-In . SVG Version: 6.00 Build 0)  -->
<svg version="1.1" id="图层_1" xmlns="http://www.w3.org/2000/svg" xmlns:xlink="http://www.w3.org/1999/xlink" x="0px" y="0px"
	 viewBox="0 0 64 64" style="enable-background:new 0 0 64 64;" xml:space="preserve">
<style type="text/css">
	.st0{fill:#040000;}
</style>
<g id="XMLID_1073_">
	<path id="XMLID_1107_" class="st0" d="M21.1,13.8c1.1,0,2-0.9,2-2V2c0-1.1-0.9-2-2-2s-2,0.9-2,2v9.8C19.1,12.9,20,13.8,21.1,13.8z"
		/>
	<path id="XMLID_1106_" class="st0" d="M31.9,13.8c1.1,0,2-0.9,2-2V2c0-1.1-0.9-2-2-2s-2,0.9-2,2v9.8C29.9,12.9,30.8,13.8,31.9,13.8
		z"/>
	<path id="XMLID_1105_" class="st0" d="M42.9,14.1c1.1,0,2-0.9,2-2V2c0-1.1-0.9-2-2-2s-2,0.9-2,2v10.1
		C40.9,13.2,41.8,14.1,42.9,14.1z"/>
	<path id="XMLID_1097_" class="st0" d="M55,5h-3.2v0c-1.1,0-2,0.9-2,2s0.9,2,2,2v0H55c2.8,0,5,2.2,5,5v4.9H4V14c0-2.8,2.2-5,5-5h3.2
		v0c1.1,0,2-0.9,2-2s-0.9-2-2-2v0H9c-4.9,0-9,4-9,9v41c0,4.9,4,9,9,9h46c4.9,0,9-4,9-9V14C64,9.1,60,5,55,5z M15.3,30.4
		c0.8-0.8,1.8-1.2,2.9-1.2c1.1,0,2.1,0.4,2.9,1.2c0.8,0.8,1.2,1.8,1.2,2.9s-0.4,2.1-1.2,2.9c-0.8,0.8-1.8,1.2-2.9,1.2
		c-1.1,0-2.1-0.4-2.9-1.2c-0.8-0.8-1.2-1.8-1.2-2.9C14,32.2,14.4,31.2,15.3,30.4z M21.1,50.9c-0.8,0.8-1.8,1.2-2.9,1.2
		c-1.1,0-2.1-0.4-2.9-1.2c-0.8-0.8-1.2-1.8-1.2-2.9s0.4-2.1,1.2-2.9c0.8-0.8,1.8-1.2,2.9-1.2c1.1,0,2.1,0.4,2.9,1.2
		c0.8,0.8,1.2,1.8,1.2,2.9C22.3,49.1,21.9,50.1,21.1,50.9z M29.1,30.4c0.8-0.8,1.8-1.2,2.9-1.2c1.1,0,2.1,0.4,2.9,1.2
		c0.8,0.8,1.2,1.8,1.2,2.9c0,1.1-0.4,2.1-1.2,2.9C34,37,33.1,37.4,32,37.4c-1.1,0-2.1-0.4-2.9-1.2c-0.8-0.8-1.2-1.8-1.2-2.9
		C27.9,32.2,28.3,31.2,29.1,30.4z M34.9,50.9c-0.8,0.8-1.8,1.2-2.9,1.2c-1.1,0-2.1-0.4-2.9-1.2c-0.8-0.8-1.2-1.8-1.2-2.9
		s0.4-2.1,1.2-2.9c0.8-0.8,1.8-1.2,2.9-1.2c1.1,0,2.1,0.4,2.9,1.2c0.8,0.8,1.2,1.8,1.2,2.9C36.1,49.1,35.7,50.1,34.9,50.9z
		 M42.9,30.5c0.8-0.8,1.8-1.2,2.9-1.2c1.1,0,2.1,0.4,2.9,1.2c0.8,0.8,1.2,1.8,1.2,2.9c0,1.1-0.4,2.1-1.2,2.9s-1.8,1.2-2.9,1.2
		c-1.1,0-2.1-0.4-2.9-1.2s-1.2-1.8-1.2-2.9C41.7,32.3,42.1,31.3,42.9,30.5z M48.7,51c-0.8,0.8-1.8,1.2-2.9,1.2
		c-1.1,0-2.1-0.4-2.9-1.2c-0.8-0.8-1.2-1.8-1.2-2.9c0-1.1,0.4-2.1,1.2-2.9c0.8-0.8,1.8-1.2,2.9-1.2c1.1,0,2.1,0.4,2.9,1.2
		S50,47,50,48.1C50,49.3,49.6,50.2,48.7,51z"/>
</g>
</svg>
