<?xml version="1.0" encoding="utf-8"?>
<!-- Generator: Adobe Illustrator 19.0.0, SVG Export Plug-In . SVG Version: 6.00 Build 0)  -->
<svg version="1.1" id="图层_1" xmlns="http://www.w3.org/2000/svg" xmlns:xlink="http://www.w3.org/1999/xlink" x="0px" y="0px"
	 viewBox="0 0 64 64" style="enable-background:new 0 0 64 64;" xml:space="preserve">
<style type="text/css">
	.st0{fill:#040000;}
</style>
<g id="XMLID_928_">
	<path id="XMLID_1070_" class="st0" d="M21.1,13.8c1.1,0,2-0.9,2-2V2c0-1.1-0.9-2-2-2s-2,0.9-2,2v9.8C19.1,12.9,20,13.8,21.1,13.8z"
		/>
	<path id="XMLID_1069_" class="st0" d="M31.9,13.8c1.1,0,2-0.9,2-2V2c0-1.1-0.9-2-2-2c-1.1,0-2,0.9-2,2v9.8
		C29.9,12.9,30.8,13.8,31.9,13.8z"/>
	<path id="XMLID_1066_" class="st0" d="M42.9,14.1c1.1,0,2-0.9,2-2V2c0-1.1-0.9-2-2-2s-2,0.9-2,2v10.1
		C40.9,13.2,41.8,14.1,42.9,14.1z"/>
	<path id="XMLID_1063_" class="st0" d="M18.1,37.4c1.1,0,2.1-0.4,2.9-1.2c0.8-0.8,1.2-1.8,1.2-2.9s-0.4-2.1-1.2-2.9
		c-0.8-0.8-1.8-1.2-2.9-1.2c-1.1,0-2.1,0.4-2.9,1.2c-0.8,0.8-1.2,1.8-1.2,2.9c0,1.1,0.4,2.1,1.2,2.9C16.1,37,17,37.4,18.1,37.4z"/>
	<path id="XMLID_1060_" class="st0" d="M32,37.4c1.1,0,2.1-0.4,2.9-1.2c0.8-0.8,1.2-1.8,1.2-2.9c0-1.1-0.4-2.1-1.2-2.9
		c-0.8-0.8-1.8-1.2-2.9-1.2c-1.1,0-2.1,0.4-2.9,1.2c-0.8,0.8-1.2,1.8-1.2,2.9c0,1.1,0.4,2.1,1.2,2.9C29.9,37,30.8,37.4,32,37.4z
		 M32,31.8c0.8,0,1.5,0.7,1.5,1.5c0,0.8-0.7,1.5-1.5,1.5c-0.8,0-1.5-0.7-1.5-1.5C30.5,32.5,31.1,31.8,32,31.8z"/>
	<path id="XMLID_1056_" class="st0" d="M45.8,37.5c1.1,0,2.1-0.4,2.9-1.2s1.2-1.8,1.2-2.9c0-1.1-0.4-2.1-1.2-2.9
		c-0.8-0.8-1.8-1.2-2.9-1.2c-1.1,0-2.1,0.4-2.9,1.2c-0.8,0.8-1.2,1.8-1.2,2.9c0,1.1,0.4,2.1,1.2,2.9S44.7,37.5,45.8,37.5z
		 M45.8,31.9c0.8,0,1.5,0.7,1.5,1.5s-0.7,1.5-1.5,1.5s-1.5-0.7-1.5-1.5S45,31.9,45.8,31.9z"/>
	<path id="XMLID_1036_" class="st0" d="M18.2,43.9c-1.1,0-2.1,0.4-2.9,1.2c-0.8,0.8-1.2,1.8-1.2,2.9s0.4,2.1,1.2,2.9
		c0.8,0.8,1.8,1.2,2.9,1.2c1.1,0,2.1-0.4,2.9-1.2c0.8-0.8,1.2-1.8,1.2-2.9c0-1.1-0.4-2.1-1.2-2.9C20.3,44.4,19.3,43.9,18.2,43.9z
		 M18.2,49.5c-0.8,0-1.5-0.7-1.5-1.5s0.7-1.5,1.5-1.5s1.5,0.7,1.5,1.5S19,49.5,18.2,49.5z"/>
	<path id="XMLID_1026_" class="st0" d="M32,43.9c-1.1,0-2.1,0.4-2.9,1.2c-0.8,0.8-1.2,1.8-1.2,2.9s0.4,2.1,1.2,2.9
		c0.8,0.8,1.8,1.2,2.9,1.2c1.1,0,2.1-0.4,2.9-1.2c0.8-0.8,1.2-1.8,1.2-2.9c0-1.1-0.4-2.1-1.2-2.9C34.1,44.4,33.1,43.9,32,43.9z
		 M32,49.5c-0.8,0-1.5-0.7-1.5-1.5s0.7-1.5,1.5-1.5c0.8,0,1.5,0.7,1.5,1.5S32.8,49.5,32,49.5z"/>
	<path id="XMLID_1000_" class="st0" d="M45.9,44.1c-1.1,0-2.1,0.4-2.9,1.2c-0.8,0.8-1.2,1.8-1.2,2.9c0,1.1,0.4,2.1,1.2,2.9
		c0.8,0.8,1.8,1.2,2.9,1.2c1.1,0,2.1-0.4,2.9-1.2c0.8-0.8,1.2-1.8,1.2-2.9c0-1.1-0.4-2.1-1.2-2.9S47,44.1,45.9,44.1z M45.9,49.6
		c-0.8,0-1.5-0.7-1.5-1.5s0.7-1.5,1.5-1.5c0.8,0,1.5,0.7,1.5,1.5S46.7,49.6,45.9,49.6z"/>
	<path id="XMLID_962_" class="st0" d="M55,5h-3.2v0c-1.1,0-2,0.9-2,2s0.9,2,2,2v0H55c2.8,0,5,2.2,5,5v4.9H4V14c0-2.8,2.2-5,5-5h3.2
		v0c1.1,0,2-0.9,2-2s-0.9-2-2-2v0H9c-4.9,0-9,4-9,9v41c0,4.9,4,9,9,9h46c4.9,0,9-4,9-9V14C64,9.1,60,5,55,5z M60,55c0,2.8-2.2,5-5,5
		H9c-2.8,0-5-2.2-5-5V22.9h56V55z"/>
</g>
</svg>
