<?xml version="1.0" encoding="utf-8"?>
<!-- Generator: Adobe Illustrator 19.0.0, SVG Export Plug-In . SVG Version: 6.00 Build 0)  -->
<svg version="1.1" id="图层_1" xmlns="http://www.w3.org/2000/svg" xmlns:xlink="http://www.w3.org/1999/xlink" x="0px" y="0px"
	 viewBox="0 0 64 64" style="enable-background:new 0 0 64 64;" xml:space="preserve">
<style type="text/css">
	.st0{fill:#040000;}
</style>
<path id="XMLID_821_" class="st0" d="M55.5,11.1h-7.4c-1.1-4-4.9-7-9.4-7H25.3c-4.5,0-8.3,3-9.4,7H8.5c-5,0-9,4-9,9v30.7
	c0,5,4,9,9,9h46.9c5,0,9-4,9-9V20.2C64.5,15.2,60.5,11.1,55.5,11.1z M32,51.6c-8.8,0-16-7.2-16-16s7.2-16,16-16c8.8,0,16,7.2,16,16
	S40.8,51.6,32,51.6z M54.5,21.6h-3.7c-1,0-1.8-0.8-1.8-1.8c0-1,0.8-1.8,1.8-1.8h3.7c1,0,1.8,0.8,1.8,1.8
	C56.3,20.8,55.5,21.6,54.5,21.6z"/>
</svg>
