<?xml version="1.0" encoding="utf-8"?>
<!-- Generator: Adobe Illustrator 19.0.0, SVG Export Plug-In . SVG Version: 6.00 Build 0)  -->
<svg version="1.1" id="图层_1" xmlns="http://www.w3.org/2000/svg" xmlns:xlink="http://www.w3.org/1999/xlink" x="0px" y="0px"
	 viewBox="0 0 64 64" style="enable-background:new 0 0 64 64;" xml:space="preserve">
<style type="text/css">
	.st0{fill:#040000;}
</style>
<g id="XMLID_739_">
	<path id="XMLID_806_" class="st0" d="M55.5,11.1h-7.4c-1.1-4-4.9-7-9.4-7H25.3c-4.5,0-8.3,3-9.4,7H8.5c-5,0-9,4-9,9v30.7
		c0,5,4,9,9,9h46.9c5,0,9-4,9-9V20.2C64.5,15.2,60.5,11.1,55.5,11.1z M60.9,50.8L60.9,50.8c0,3-2.4,5.4-5.4,5.4H8.5
		c-3,0-5.4-2.4-5.4-5.4V20.2c0-3,2.4-5.4,5.4-5.4h7.4h2.8l0.7-2.7c0.7-2.6,3.1-4.3,5.9-4.3h13.4c2.8,0,5.2,1.8,5.9,4.3l0.7,2.7h2.8
		h7.4c3,0,5.4,2.4,5.4,5.4V50.8z"/>
	<path id="XMLID_774_" class="st0" d="M32,19.5c-8.8,0-16,7.2-16,16s7.2,16,16,16c8.8,0,16-7.2,16-16S40.8,19.5,32,19.5z M32,48
		c-6.9,0-12.4-5.6-12.4-12.4c0-6.9,5.6-12.4,12.4-12.4c6.9,0,12.4,5.6,12.4,12.4C44.4,42.4,38.9,48,32,48z"/>
	<path id="XMLID_740_" class="st0" d="M54.5,18h-3.7c-1,0-1.8,0.8-1.8,1.8c0,1,0.8,1.8,1.8,1.8h3.7c1,0,1.8-0.8,1.8-1.8
		C56.3,18.8,55.5,18,54.5,18z"/>
</g>
</svg>
