<?xml version="1.0" encoding="utf-8"?>
<!-- Generator: Adobe Illustrator 19.0.0, SVG Export Plug-In . SVG Version: 6.00 Build 0)  -->
<svg version="1.1" id="图层_1" xmlns="http://www.w3.org/2000/svg" xmlns:xlink="http://www.w3.org/1999/xlink" x="0px" y="0px"
	 viewBox="0 0 64 64" style="enable-background:new 0 0 64 64;" xml:space="preserve">
<style type="text/css">
	.st0{fill:#040000;}
</style>
<path id="XMLID_1778_" class="st0" d="M14.4,0c-1,0-1.9,0.8-1.9,1.9v3.9h13.1V1.9c0-1-0.8-1.9-1.9-1.9H14.4z M49.2,63.8
	c2.7,0,5-2.2,5-4.9V31.2c0-1.9-1-4.1-2.3-5.1L30.4,10c-0.8-0.6-1.8-0.9-2.9-0.9h-15c-1.5,0-2.7,1.1-2.7,2.6v47.4
	c0,2.7,2.3,4.9,5,4.9h34.3L49.2,63.8L49.2,63.8z M24.7,45.8c0,2.3-1.9,4.2-4.3,4.2s-4.3-1.9-4.3-4.2c0-1.9,0.9-4.2,4.3-11.3
	C23.8,41.7,24.7,44,24.7,45.8z M46.6,28.9c1.3,1,1.5,2.7,0.5,3.9c-0.6,0.7-1.4,1-2.3,1c-0.6,0-1.2-0.2-1.8-0.6L27.7,21.8
	c-1.3-1-1.5-2.7-0.5-3.9c1-1.2,2.7-1.5,4-0.5L46.6,28.9L46.6,28.9z"/>
</svg>
