<?xml version="1.0" encoding="utf-8"?>
<!-- Generator: Adobe Illustrator 19.0.0, SVG Export Plug-In . SVG Version: 6.00 Build 0)  -->
<svg version="1.1" id="图层_1" xmlns="http://www.w3.org/2000/svg" xmlns:xlink="http://www.w3.org/1999/xlink" x="0px" y="0px"
	 viewBox="0 0 64 64" style="enable-background:new 0 0 64 64;" xml:space="preserve">
<style type="text/css">
	.st0{fill:#040000;}
</style>
<path id="XMLID_1264_" class="st0" d="M60.8,26.1c1.9-0.4,3.2-2,3.2-3.9V9.7c0-1-0.2-2.1-0.6-3C63,5.8,62.4,5,61.7,4.3
	C61,3.6,60.2,3,59.3,2.6c-1-0.4-2-0.6-3-0.6H39h-3.1H16.2h-3.1H7.7c-1,0-2.1,0.2-3,0.6C3.8,3,3,3.5,2.3,4.3C1.6,5,1,5.8,0.6,6.7
	c-0.4,1-0.6,2-0.6,3v12.5c0,1.9,1.3,3.5,3.2,3.9c2.7,0.6,4.7,3.1,4.7,5.9s-2,5.3-4.7,5.9c-1.8,0.4-3.2,2-3.2,3.9v12.5
	c0,1,0.2,2.1,0.6,3C1,58.2,1.6,59,2.3,59.7s1.5,1.3,2.5,1.7c1,0.4,2,0.6,3,0.6h48.5c1,0,2.1-0.2,3-0.6c0.9-0.4,1.8-0.9,2.5-1.7
	c0.7-0.7,1.3-1.5,1.7-2.5c0.4-1,0.6-2,0.6-3V41.8c0-1.9-1.3-3.5-3.2-3.9C58,37.3,56,34.8,56,32S58,26.7,60.8,26.1z M42,34
	c1.1,0,2,0.9,2,2s-0.9,2-2,2h-8v6c0,1.1-0.9,2-2,2c-1.1,0-2-0.9-2-2v-6h-8c-1.1,0-2-0.9-2-2s0.9-2,2-2v0h8v-4h-8c-1.1,0-2-0.9-2-2
	c0-1.1,0.9-2,2-2h5.2l-4.7-4.7c-0.8-0.8-0.8-2,0-2.8c0.8-0.8,2-0.8,2.8,0l6.7,6.7l6.6-6.6c0.8-0.8,2-0.8,2.8,0s0.8,2.1,0,2.8
	L36.8,26H42c1.1,0,2,0.9,2,2s-0.9,2-2,2h-8v4H42z"/>
</svg>
