<?xml version="1.0" encoding="utf-8"?>
<!-- Generator: Adobe Illustrator 19.0.0, SVG Export Plug-In . SVG Version: 6.00 Build 0)  -->
<svg version="1.1" id="图层_1" xmlns="http://www.w3.org/2000/svg" xmlns:xlink="http://www.w3.org/1999/xlink" x="0px" y="0px"
	 viewBox="0 0 64 64" style="enable-background:new 0 0 64 64;" xml:space="preserve">
<style type="text/css">
	.st0{fill:#040000;}
</style>
<path id="XMLID_1442_" class="st0" d="M32,0C14.3,0,0,14.3,0,32s14.3,32,32,32c17.7,0,32-14.3,32-32S49.7,0,32,0z M44.5,41.7
	c0.8,0.8,0.8,2.2,0,3c-0.8,0.8-2.2,0.8-3,0L31.7,35L22,44.7c-0.8,0.8-2.2,0.8-3,0c-0.8-0.8-0.8-2.2,0-3l9.7-9.7L19,22.3
	c-0.8-0.8-0.8-2.2,0-3c0.8-0.8,2.2-0.8,3,0l9.7,9.7l9.7-9.7c0.8-0.8,2.2-0.8,3,0c0.8,0.8,0.8,2.2,0,3L34.8,32L44.5,41.7z"/>
</svg>
