<?xml version="1.0" encoding="utf-8"?>
<!-- Generator: Adobe Illustrator 19.0.0, SVG Export Plug-In . SVG Version: 6.00 Build 0)  -->
<svg version="1.1" id="图层_1" xmlns="http://www.w3.org/2000/svg" xmlns:xlink="http://www.w3.org/1999/xlink" x="0px" y="0px"
	 viewBox="0 0 64 64" style="enable-background:new 0 0 64 64;" xml:space="preserve">
<style type="text/css">
	.st0{fill:#040000;}
</style>
<path id="XMLID_509_" class="st0" d="M35,32l9.7-9.7c0.8-0.8,0.8-2.2,0-3c-0.8-0.8-2.2-0.8-3,0L32,29l-9.7-9.7c-0.8-0.8-2.2-0.8-3,0
	c-0.8,0.8-0.8,2.2,0,3L29,32l-9.7,9.7c-0.8,0.8-0.8,2.2,0,3c0.8,0.8,2.2,0.8,3,0L32,35l9.7,9.7c0.8,0.8,2.2,0.8,3,0
	c0.8-0.8,0.8-2.2,0-3L35,32z"/>
</svg>
