<?xml version="1.0" encoding="utf-8"?>
<!-- Generator: Adobe Illustrator 19.0.0, SVG Export Plug-In . SVG Version: 6.00 Build 0)  -->
<svg version="1.1" id="图层_1" xmlns="http://www.w3.org/2000/svg" xmlns:xlink="http://www.w3.org/1999/xlink" x="0px" y="0px"
	 viewBox="0 0 64 64" style="enable-background:new 0 0 64 64;" xml:space="preserve">
<style type="text/css">
	.st0{fill:#040000;}
</style>
<g id="XMLID_47_">
	<path id="XMLID_116_" class="st0" d="M56.1,29.1L56.1,29.1c-1.4-6.2-6.4-11.2-12.8-12.2c-3.6-4.7-8.2-6.7-14.3-6.7
		c-9.5,0-17.4,6.1-19.1,15C4.2,27.3,0,32.7,0,39c0,10.2,7.7,13.7,11.6,14.3c0.2,0,0.6,0,0.9,0h39.5c0.6,0,1.6,0,1.6,0
		c6-1.2,10.5-6.4,10.5-12.5C64,35.6,60.7,31.1,56.1,29.1z M51.9,49.2L51.9,49.2l-39.7,0c0,0-8.1-1.2-8.1-10.2
		c0-5.3,4.7-9.6,9.9-10.1c0,0,0,0,0,0c0-8.1,6.7-14.4,14.9-14.4c5.5,0,9.2,2.5,11.7,6.9c0,0,0.1,0,0.1,0c6.2,0,11,5.2,11,11.3
		c0,0,0,0.1,0,0.1c4.2,0.5,8,3.9,8,8.2C59.9,48.5,51.9,49.2,51.9,49.2z"/>
</g>
</svg>
