<?xml version="1.0" encoding="utf-8"?>
<!-- Generator: Adobe Illustrator 19.0.0, SVG Export Plug-In . SVG Version: 6.00 Build 0)  -->
<svg version="1.1" id="图层_1" xmlns="http://www.w3.org/2000/svg" xmlns:xlink="http://www.w3.org/1999/xlink" x="0px" y="0px"
	 viewBox="0 0 64 64" style="enable-background:new 0 0 64 64;" xml:space="preserve">
<g id="XMLID_18_">
	<path id="XMLID_45_" d="M28.5,12.9H12.1c-1.1,0-2,0.9-2,2s0.9,2,2,2h16.4c1.1,0,2-0.9,2-2S29.6,12.9,28.5,12.9z"/>
	<path id="XMLID_48_" d="M30.5,24.7c0-1.1-0.9-2-2-2H12.1c-1.1,0-2,0.9-2,2c0,1.1,0.9,2,2,2h16.4C29.6,26.7,30.5,25.8,30.5,24.7z"/>
	<path id="XMLID_49_" d="M12.1,32.4c-1.1,0-2,0.9-2,2c0,1.1,0.9,2,2,2h8.2c1.1,0,2-0.9,2-2c0-1.1-0.9-2-2-2H12.1z"/>
	<path id="XMLID_52_" d="M24.4,60H6.3C5,60,4,58.9,4,57.7V6.3C4,5,5,4,6.3,4h30.2v11c0,1.1,0.9,2,2,2h11v9.9c0,1.1,0.9,2,2,2
		c1.1,0,2-0.9,2-2V15c0-0.1,0-0.3,0-0.4c0-0.1,0-0.1-0.1-0.2c0-0.1,0-0.1-0.1-0.2c0-0.1-0.1-0.1-0.1-0.2c0-0.1-0.1-0.1-0.1-0.2
		c-0.1-0.1-0.2-0.2-0.3-0.3l-13-13c-0.1-0.1-0.2-0.2-0.3-0.3c0,0-0.1-0.1-0.1-0.1c-0.1,0-0.1-0.1-0.2-0.1c-0.1,0-0.1,0-0.2-0.1
		c-0.1,0-0.1,0-0.2-0.1c-0.1,0-0.3,0-0.4,0H6.3C2.8,0,0,2.8,0,6.3v51.4C0,61.1,2.8,64,6.3,64h18.1c1.1,0,2-0.9,2-2S25.5,60,24.4,60z
		 M40.5,6.8l6.2,6.2h-6.2V6.8z"/>
	<path id="XMLID_53_" d="M61.2,54.9V41.5c0-5-4.1-9.1-9.1-9.1c-4.9,0-8.8,3.9-9.1,8.7c0,0,0,0.1,0,0.1v0.1c0,0.1,0,0.2,0,0.2
		c0,0,0,0.1,0,0.1v13.2c0,2.8-2.3,5.1-5.1,5.1c-2.8,0-5.1-2.3-5.1-5.1V41.5c1.6-0.8,2.8-2.4,2.8-4.3c0-2.6-2.1-4.8-4.8-4.8
		s-4.8,2.1-4.8,4.8c0,1.9,1.1,3.5,2.8,4.3v13.4c0,5,4.1,9.1,9.1,9.1s9.1-4.1,9.1-9.1V41.4c0.1-2.7,2.3-5,5.1-5
		c2.8,0,5.1,2.3,5.1,5.1v13.4c-1.6,0.8-2.8,2.4-2.8,4.3c0,2.6,2.1,4.8,4.8,4.8c2.6,0,4.8-2.1,4.8-4.8C64,57.3,62.9,55.7,61.2,54.9z"
		/>
</g>
</svg>
