<?xml version="1.0" encoding="utf-8"?>
<!-- Generator: Adobe Illustrator 19.0.0, SVG Export Plug-In . SVG Version: 6.00 Build 0)  -->
<svg version="1.1" id="图层_1" xmlns="http://www.w3.org/2000/svg" xmlns:xlink="http://www.w3.org/1999/xlink" x="0px" y="0px"
	 viewBox="0 0 64 64" style="enable-background:new 0 0 64 64;" xml:space="preserve">
<style type="text/css">
	.st0{fill:#040000;}
</style>
<path id="XMLID_884_" class="st0" d="M32,0C14.3,0,0,14.3,0,32s14.3,32,32,32c17.7,0,32-14.3,32-32S49.7,0,32,0z M42,34.1
	c1.1,0,2,0.9,2,2s-0.9,2-2,2h-8v6c0,1.1-0.9,2-2,2c-1.1,0-2-0.9-2-2v-6h-8c-1.1,0-2-0.9-2-2s0.9-2,2-2v0h8v-4h-8c-1.1,0-2-0.9-2-2
	c0-1.1,0.9-2,2-2h5.2l-4.7-4.7c-0.8-0.8-0.8-2,0-2.8c0.8-0.8,2.1-0.8,2.8,0l6.6,6.7l6.6-6.6c0.8-0.8,2.1-0.8,2.8,0s0.8,2.1,0,2.8
	l-4.6,4.6H42c1.1,0,2,0.9,2,2s-0.9,2-2,2h-8v4H42z"/>
</svg>
