<?xml version="1.0" encoding="utf-8"?>
<!-- Generator: Adobe Illustrator 19.0.0, SVG Export Plug-In . SVG Version: 6.00 Build 0)  -->
<svg version="1.1" id="图层_1" xmlns="http://www.w3.org/2000/svg" xmlns:xlink="http://www.w3.org/1999/xlink" x="0px" y="0px"
	 viewBox="0 0 64 64" style="enable-background:new 0 0 64 64;" xml:space="preserve">
<style type="text/css">
	.st0{fill:#040000;}
</style>
<g id="XMLID_148_">
	<path id="XMLID_338_" class="st0" d="M32,0C14.3,0,0,14.3,0,32s14.3,32,32,32c17.7,0,32-14.3,32-32S49.7,0,32,0z M32,59.7
		C16.7,59.7,4.3,47.3,4.3,32C4.3,16.7,16.7,4.3,32,4.3c15.3,0,27.7,12.4,27.7,27.7S47.3,59.7,32,59.7z"/>
	<path id="XMLID_380_" class="st0" d="M42,30.1c1.1,0,2-0.9,2-2s-0.9-2-2-2h-5.2l4.6-4.6c0.8-0.8,0.8-2.1,0-2.8s-2-0.8-2.8,0
		L32,25.2l-6.6-6.7c-0.8-0.8-2-0.8-2.8,0c-0.8,0.8-0.8,2,0,2.8l4.7,4.7H22c-1.1,0-2,0.9-2,2c0,1.1,0.9,2,2,2h8v4h-8v0
		c-1.1,0-2,0.9-2,2s0.9,2,2,2h8v6c0,1.1,0.9,2,2,2c1.1,0,2-0.9,2-2v-6h8c1.1,0,2-0.9,2-2s-0.9-2-2-2h-8v-4H42z"/>
</g>
</svg>
