<?xml version="1.0" encoding="utf-8"?>
<!-- Generator: Adobe Illustrator 19.0.0, SVG Export Plug-In . SVG Version: 6.00 Build 0)  -->
<svg version="1.1" id="图层_1" xmlns="http://www.w3.org/2000/svg" xmlns:xlink="http://www.w3.org/1999/xlink" x="0px" y="0px"
	 viewBox="0 0 64 64" style="enable-background:new 0 0 64 64;" xml:space="preserve">
<style type="text/css">
	.st0{fill:#040000;}
</style>
<g>
	<path class="st0" d="M32,0C14.3,0,0,14.3,0,32s14.3,32,32,32c3,0,5.3-2.4,5.3-5.3c0-1.4-0.5-2.6-1.4-3.6c-0.8-0.9-1.3-2.2-1.3-3.5
		c0-3,2.4-5.3,5.3-5.3h6.3c9.8,0,17.8-8,17.8-17.8C64,12.7,49.7,0,32,0z M46.2,42.2h-6.3c-5.1,0-9.3,4.2-9.3,9.3
		c0,2.3,0.8,4.5,2.3,6.2c0.2,0.2,0.3,0.5,0.3,0.9c0.1,0.8-0.5,1.4-1.2,1.4C16.6,60,4,47.4,4,32S16.6,4,32,4s28,11,28,24.4
		C60,36,53.8,42.2,46.2,42.2z"/>
	<path class="st0" d="M12.4,21.3c-3,0-5.3,2.4-5.3,5.3c0,3,2.4,5.3,5.3,5.3c3,0,5.3-2.4,5.3-5.3C17.8,23.7,15.4,21.3,12.4,21.3z"/>
	<path class="st0" d="M23.1,7.1c-3,0-5.3,2.4-5.3,5.3c0,3,2.4,5.3,5.3,5.3c2.9,0,5.3-2.4,5.3-5.3C28.4,9.5,26.1,7.1,23.1,7.1z"/>
	<path class="st0" d="M40.9,7.1c-3,0-5.3,2.4-5.3,5.3c0,3,2.4,5.3,5.3,5.3c2.9,0,5.3-2.4,5.3-5.3C46.2,9.5,43.8,7.1,40.9,7.1z"/>
	<path class="st0" d="M46.3,26.6c0,3,2.4,5.3,5.3,5.3c3,0,5.3-2.4,5.3-5.3c0-2.9-2.4-5.3-5.3-5.3C48.6,21.3,46.3,23.7,46.3,26.6z"/>
</g>
</svg>
