<?xml version="1.0" encoding="utf-8"?>
<!-- Generator: Adobe Illustrator 19.0.0, SVG Export Plug-In . SVG Version: 6.00 Build 0)  -->
<svg version="1.1" id="图层_1" xmlns="http://www.w3.org/2000/svg" xmlns:xlink="http://www.w3.org/1999/xlink" x="0px" y="0px"
	 viewBox="0 0 64 64" style="enable-background:new 0 0 64 64;" xml:space="preserve">
<path id="XMLID_10_" d="M42.4,14.3H9.3c-4,0-7.3,3.2-7.3,7.3v33.2c0,4,3.2,7.3,7.3,7.3h33.2c4,0,7.3-3.2,7.3-7.3V21.6
	C49.7,17.6,46.4,14.3,42.4,14.3z M45.2,54.8c0,1.5-1.2,2.8-2.8,2.8H9.3c-1.5,0-2.8-1.2-2.8-2.8V21.6c0-1.5,1.2-2.8,2.8-2.8h33.2
	c1.5,0,2.8,1.2,2.8,2.8L45.2,54.8L45.2,54.8z"/>
<path id="XMLID_3_" d="M54.8,2H16.6c-1.2,0-2.3,1-2.3,2.3c0,1.2,1,2.3,2.3,2.3h38.2c1.5,0,2.8,1.2,2.8,2.8v38.2c0,1.2,1,2.3,2.3,2.3
	c1.2,0,2.3-1,2.3-2.3V9.3C62,5.2,58.8,2,54.8,2z"/>
</svg>
