<?xml version="1.0" encoding="utf-8"?>
<!-- Generator: Adobe Illustrator 19.0.0, SVG Export Plug-In . SVG Version: 6.00 Build 0)  -->
<svg version="1.1" id="图层_1" xmlns="http://www.w3.org/2000/svg" xmlns:xlink="http://www.w3.org/1999/xlink" x="0px" y="0px"
	 viewBox="0 0 64 64" style="enable-background:new 0 0 64 64;" xml:space="preserve">
<style type="text/css">
	.st0{fill:#040000;}
</style>
<g id="XMLID_588_">
	<path id="XMLID_1181_" class="st0" d="M56.9,7.1l-49.8,0C3.2,7.1,0,10.3,0,14.2l0,35.6c0,3.9,3.2,7.1,7.1,7.1h49.8
		c3.9,0,7.1-3.2,7.1-7.1V14.2C64,10.3,60.8,7.1,56.9,7.1z M60.4,33v10.8v5v0.3v0.7c0,2-1.6,3.5-3.6,3.5h-6.3H47h-5H24.4H7.1
		c-2,0-3.6-1.6-3.6-3.6V44v-4v-5l0-9h56.9V33z M60.4,22.4H3.6v-2v-6.1c0-2,1.6-3.6,3.6-3.6h49.8c2,0,3.6,1.6,3.6,3.6V22.4z"/>
	<path id="XMLID_927_" class="st0" d="M9.7,15.3H8.9c-0.8,0-1.4,0.6-1.4,1.4v0.8c0,0.8,0.6,1.4,1.4,1.4h0.8c0.8,0,1.4-0.6,1.4-1.4
		v-0.8C11.1,15.9,10.4,15.3,9.7,15.3z"/>
	<path id="XMLID_639_" class="st0" d="M16.8,15.3H16c-0.8,0-1.4,0.6-1.4,1.4v0.8c0,0.8,0.6,1.4,1.4,1.4h0.8c0.8,0,1.4-0.6,1.4-1.4
		v-0.8C18.2,15.9,17.6,15.3,16.8,15.3z"/>
	<path id="XMLID_634_" class="st0" d="M37.3,47.2h15.9c1,0,1.8-0.8,1.8-1.8c0-1-0.8-1.8-1.8-1.8H37.3c-1,0-1.8,0.8-1.8,1.8
		C35.6,46.4,36.4,47.2,37.3,47.2z"/>
</g>
</svg>
