<?xml version="1.0" encoding="utf-8"?>
<!-- Generator: Adobe Illustrator 19.0.0, SVG Export Plug-In . SVG Version: 6.00 Build 0)  -->
<svg version="1.1" id="图层_1" xmlns="http://www.w3.org/2000/svg" xmlns:xlink="http://www.w3.org/1999/xlink" x="0px" y="0px"
	 viewBox="0 0 64 64" style="enable-background:new 0 0 64 64;" xml:space="preserve">
<style type="text/css">
	.st0{fill:#040000;}
</style>
<path id="XMLID_2246_" class="st0" d="M32,2.9c-17.7,0-32,14.3-32,32c0,10.5,5,19.8,12.8,25.6l0,0c0.1,0,0.1,0.1,0.2,0.1
	c0.3,0.3,0.7,0.4,1.2,0.4h35.2c0.2,0,0.3,0,0.4-0.1c0,0,0,0,0,0c0.6,0,1.2-0.3,1.6-0.7c7.6-5.8,12.5-15,12.5-25.4
	C64,17.3,49.7,2.9,32,2.9z M4.5,34.9c0-0.7,0-1.3,0.1-2h3.1c1.1,0,2,0.9,2,2s-0.9,2-2,2H4.6C4.6,36.2,4.5,35.6,4.5,34.9z M54.8,19.4
	c0.8,1.1,1.4,2.3,2,3.5l-2.7,1.6c-1,0.6-2.2,0.2-2.7-0.7c-0.6-1-0.2-2.2,0.7-2.7L54.8,19.4z M43.1,15.6c-1-0.6-1.3-1.8-0.7-2.7
	l1.6-2.7c1.2,0.6,2.4,1.3,3.5,2l-1.6,2.7C45.3,15.8,44.1,16.1,43.1,15.6z M44.7,25c0.7,0.9,0.5,2.1-0.3,2.8L36.4,34
	c0.1,0.3,0.1,0.6,0.1,0.9c0,2.5-2,4.5-4.5,4.5s-4.5-2-4.5-4.5s2-4.5,4.5-4.5c0.7,0,1.4,0.2,2,0.5l7.9-6.2C42.7,24,44,24.1,44.7,25z
	 M21.6,12.8c0.6,1,0.2,2.2-0.7,2.7c-1,0.6-2.2,0.2-2.7-0.7l-1.5-2.7c1.1-0.8,2.3-1.4,3.5-2L21.6,12.8z M11.9,21
	c1,0.6,1.3,1.8,0.7,2.7c-0.6,1-1.8,1.3-2.7,0.7l-2.7-1.5c0.6-1.2,1.3-2.4,2-3.5L11.9,21z M9.9,45.3c1-0.6,2.2-0.2,2.7,0.7
	c0.6,1,0.2,2.2-0.7,2.7l-2.7,1.5c-0.7-1.1-1.4-2.3-2-3.5L9.9,45.3z M52.1,48.8c-1-0.6-1.3-1.8-0.7-2.7c0.6-1,1.8-1.3,2.7-0.7
	l2.7,1.6c-0.6,1.2-1.3,2.4-2,3.5L52.1,48.8z M56.3,36.9c-1.1,0-2-0.9-2-2s0.9-2,2-2h3.1c0,0.7,0.1,1.3,0.1,2c0,0.7,0,1.3-0.1,2H56.3
	z M32,7.4c0.7,0,1.3,0,2,0.1v3.1c0,1.1-0.9,2-2,2s-2-0.9-2-2V7.5C30.7,7.4,31.4,7.4,32,7.4z"/>
</svg>
