<?xml version="1.0" encoding="utf-8"?>
<!-- Generator: Adobe Illustrator 19.0.0, SVG Export Plug-In . SVG Version: 6.00 Build 0)  -->
<svg version="1.1" id="图层_1" xmlns="http://www.w3.org/2000/svg" xmlns:xlink="http://www.w3.org/1999/xlink" x="0px" y="0px"
	 viewBox="-717 719 64 64" style="enable-background:new -717 719 64 64;" xml:space="preserve">
<path d="M-669,723.3c-15.3-8.8-34.9-3.6-43.7,11.7s-3.6,34.9,11.7,43.7s34.8,3.6,43.7-11.7C-648.4,751.7-653.7,732.1-669,723.3z
	 M-657.7,766.7c-8.7,15.1-27.9,20.2-43,11.5c-15.1-8.6-20.3-27.9-11.6-42.9s28-20.3,43-11.6C-654.2,732.4-649,751.7-657.7,766.7z"/>
<path d="M-670.3,725.7c-14-8.2-31.9-3.4-40,10.7c-8.1,14-3.3,31.9,10.7,40s31.9,3.3,40-10.7C-651.5,751.7-656.3,733.8-670.3,725.7z
	 M-660.2,765.3c-7.8,13.6-25.5,18.3-39,10.5c-13.7-7.9-18.4-25.5-10.6-39.1c7.8-13.6,25.4-18.4,39-10.5
	C-657,734.1-652.3,751.7-660.2,765.3z"/>
<path d="M-673.3,730.8c-11.1-6.4-25.4-2.6-31.9,8.6c-6.4,11.2-2.6,25.5,8.6,31.9c11.2,6.4,25.5,2.6,31.9-8.6
	C-658.3,751.5-662.2,737.2-673.3,730.8z M-665.5,762.3c-6.1,10.6-19.9,14.3-30.6,8.2c-10.6-6.1-14.3-19.9-8.2-30.6
	c6.1-10.7,19.9-14.4,30.6-8.2C-663,737.8-659.5,751.5-665.5,762.3z"/>
<path d="M-675.3,734.2c-9.3-5.3-21.1-2.2-26.5,7.1c-5.3,9.3-2.2,21.1,7.1,26.5c9.3,5.3,21.1,2.2,26.5-7.1
	C-662.8,751.4-666,739.6-675.3,734.2z M-668.6,760.4c-5.2,9-16.8,12.1-25.8,6.9c-9-5.2-12.1-16.8-6.9-25.8s16.8-12.1,25.8-6.9
	C-666.6,739.8-663.4,751.4-668.6,760.4z"/>
<g id="XMLID_10_">
	<path id="XMLID_11_" d="M-700.9,751.6l0.3-0.8c1,0.1,1.8,0.3,2.4,0.4l-0.2,0.7l3.2-2.4c0.1-1,0.1-1.9,0.1-2.7l1-0.1
		c0,0.9-0.1,1.6-0.2,2.2l4-3l0.5,0.7l-4.3,3.2l2.4,3.2l4.8-3.6l0.5,0.7l-13.5,10l-0.5-0.7l4.8-3.5l-2.4-3.2l-4.3,3.2l-0.5-0.7
		l4.2-3.1C-699.4,751.8-700.1,751.7-700.9,751.6z M-700.7,756.1l0.3-0.9c1.1,0.1,2,0.3,2.7,0.4l-0.2,0.9
		C-698.7,756.5-699.6,756.3-700.7,756.1z M-697.3,752l2.4,3.2l2.4-1.8l-2.4-3.2L-697.3,752z M-696.9,760l9.5-7.1l4.4,6l-0.8,0.6
		l-0.5-0.6l-8,5.9l0.5,0.7l-0.8,0.6L-696.9,760z M-695.7,760.1l1.2,1.7l8-5.9l-1.2-1.7L-695.7,760.1z M-693.9,762.4l1.3,1.7l8-5.9
		l-1.3-1.7L-693.9,762.4z M-690.4,751l-0.9-0.1c0.2-1,0.3-1.9,0.4-2.7l0.9,0C-690.1,749.1-690.2,750.1-690.4,751z"/>
	<path id="XMLID_19_" d="M-684.8,744.1c-0.9-0.2-2.2-0.4-3.8-0.7l0.2-0.9c1.3,0.2,2.6,0.3,3.9,0.6L-684.8,744.1z M-675,751
		c0.9-0.6,2.1-1.5,3.7-2.7c1.6-1.2,2.9-2.2,3.9-2.9c0.1,0.5,0.2,0.8,0.3,1c-3.8,2.8-6.4,4.7-7.7,5.6c-1.5,1.1-3.1,1.4-4.9,0.9
		c-0.2,1.1-0.3,2.2-0.3,3.2l-1-0.2c0.1-0.8,0.2-1.9,0.5-3.3l-3.7-5l-1.7,1.3l-0.5-0.7l2.5-1.8l4.2,5.6
		C-678,752.4-676.4,752.1-675,751z M-683,741.3l0.1-0.8c0.1,0,0.2,0,0.4-0.1c1.3-0.2,2.3-0.3,2.9-0.4l1.9-4l-7.3,5.4l-0.5-0.6
		l8.3-6.2l0.6,0.8l-2.1,4.5c0,0,0.1,0,0.1,0c0.2,0,0.4,0,0.5-0.1l3.2-2.3l4.5,6.1c0.8,1,0.7,1.9-0.4,2.7c-0.2,0.2-0.4,0.3-0.6,0.5
		c-0.1,0.1-0.2,0.1-0.3,0.2c-0.1,0.1-0.2,0.1-0.3,0.3c-0.2-0.2-0.4-0.5-0.7-0.7c0.4-0.2,0.8-0.5,1.2-0.8c0.4-0.3,0.6-0.6,0.6-0.8
		c0-0.3-0.1-0.6-0.4-1l-0.4-0.6l-3,2.2l1.6,2.2l-0.7,0.5l-1.6-2.2l-2.9,2.2l1.8,2.4l-0.7,0.5l-5.7-7.7l3.7-2.8
		c-0.6,0.1-1.7,0.2-3.2,0.4C-682.7,741.2-682.9,741.3-683,741.3z M-681.7,743.6l1.2,1.7l2.9-2.2l-1.2-1.7L-681.7,743.6z M-680,745.9
		l1.2,1.7l2.9-2.2l-1.2-1.7L-680,745.9z M-675,738.7l-2.9,2.2l1.2,1.7l2.9-2.2L-675,738.7z M-676.3,743.2l1.2,1.7l2.9-2.2l-1.2-1.7
		L-676.3,743.2z"/>
</g>
</svg>
