<?xml version="1.0" encoding="utf-8"?>
<!-- Generator: Adobe Illustrator 19.0.0, SVG Export Plug-In . SVG Version: 6.00 Build 0)  -->
<svg version="1.1" id="图层_1" xmlns="http://www.w3.org/2000/svg" xmlns:xlink="http://www.w3.org/1999/xlink" x="0px" y="0px"
	 viewBox="0 0 64 64" style="enable-background:new 0 0 64 64;" xml:space="preserve">
<style type="text/css">
	.st0{fill:#040000;}
</style>
<g id="XMLID_719_">
	<path id="XMLID_721_" class="st0" d="M19.9,35.3c0,0.1-0.1,0.1-0.1,0.2l-3.2,11.8c-0.2,0.7,0,1.4,0.5,2c0.4,0.4,0.9,0.6,1.4,0.6
		c0.2,0,0.4,0,0.5-0.1l11.7-3.2c0,0,0,0,0,0c0.1,0,0.3,0,0.4-0.2l31.3-31.3c0.9-0.9,1.4-2.2,1.4-3.6c0-1.6-0.7-3.1-1.8-4.3l-3-3
		c-1.2-1.2-2.7-1.8-4.3-1.8c-1.4,0-2.7,0.5-3.6,1.4L20,35.2C20,35.3,20,35.3,19.9,35.3z M54.4,7c0.5-0.5,1.4-0.4,2,0.1l3,3
		c0.3,0.3,0.5,0.7,0.5,1.1c0,0.3-0.1,0.6-0.3,0.9l-3.1,3.1l-5-5.1L54.4,7z M48.1,13.2l5,5.1L30.6,40.9l-5.1-5.1L48.1,13.2z M23,39
		l4.4,4.4l-6,1.6L23,39z"/>
	<path id="XMLID_720_" class="st0" d="M61.5,24.5c-1.2,0-2.2,1-2.2,2.2v29.2c0,1.5-1.2,2.8-2.8,2.8H7.1c-1.5,0-2.8-1.2-2.8-2.8V8.2
		c0-1.5,1.2-2.8,2.8-2.8h31.8c1.2,0,2.2-1,2.2-2.2c0-1.2-1-2.2-2.2-2.2H6.8C3,1.1,0,4.1,0,7.8v48.3c0,3.7,3,6.8,6.8,6.8h50.1
		c3.7,0,6.8-3,6.8-6.8V26.6C63.6,25.4,62.7,24.5,61.5,24.5z"/>
</g>
</svg>
