<?xml version="1.0" encoding="utf-8"?>
<!-- Generator: Adobe Illustrator 19.0.0, SVG Export Plug-In . SVG Version: 6.00 Build 0)  -->
<svg version="1.1" id="图层_1" xmlns="http://www.w3.org/2000/svg" xmlns:xlink="http://www.w3.org/1999/xlink" x="0px" y="0px"
	 viewBox="0 0 64 64" style="enable-background:new 0 0 64 64;" xml:space="preserve">
<style type="text/css">
	.st0{fill:#040000;}
</style>
<path id="XMLID_2110_" class="st0" d="M0,32c0,17.7,14.3,32,32,32s32-14.3,32-32S49.7,0,32,0C14.3,0,0,14.3,0,32z M36.1,46.6
	c0,2.2-1.8,4-4,4l-0.1,0c-2.2,0-4-1.8-4-4c0-2.2,1.8-4,4-4l0.1,0C34.3,42.5,36.1,44.3,36.1,46.6z M36.1,32c0,2.2-1.8,4-4,4l-0.1,0
	c-2.2,0-4-1.8-4-4c0-2.2,1.8-4,4-4l0.1,0C34.3,28,36.1,29.8,36.1,32z M36.1,17.4c0,2.2-1.8,4-4,4l-0.1,0c-2.2,0-4-1.8-4-4
	c0-2.2,1.8-4,4-4l0.1,0C34.3,13.4,36.1,15.2,36.1,17.4z"/>
</svg>
