<?xml version="1.0" encoding="utf-8"?>
<!-- Generator: Adobe Illustrator 19.0.0, SVG Export Plug-In . SVG Version: 6.00 Build 0)  -->
<svg version="1.1" id="图层_1" xmlns="http://www.w3.org/2000/svg" xmlns:xlink="http://www.w3.org/1999/xlink" x="0px" y="0px"
	 viewBox="0 0 64 64" style="enable-background:new 0 0 64 64;" xml:space="preserve">
<style type="text/css">
	.st0{fill:#040000;}
</style>
<path id="XMLID_2783_" class="st0" d="M32,0C14.3,0,0,14.3,0,32s14.3,32,32,32s32-14.3,32-32S49.7,0,32,0z M17.4,36.1
	c-2.2,0-4-1.8-4-4l0-0.1c0-2.2,1.8-4,4-4c2.2,0,4,1.8,4,4l0,0.1C21.5,34.3,19.7,36.1,17.4,36.1z M32,36.1c-2.2,0-4-1.8-4-4l0-0.1
	c0-2.2,1.8-4,4-4c2.2,0,4,1.8,4,4l0,0.1C36,34.3,34.2,36.1,32,36.1z M46.6,36.1c-2.2,0-4-1.8-4-4l0-0.1c0-2.2,1.8-4,4-4
	c2.2,0,4,1.8,4,4l0,0.1C50.6,34.3,48.8,36.1,46.6,36.1z"/>
</svg>
