<?xml version="1.0" encoding="utf-8"?>
<!-- Generator: Adobe Illustrator 19.0.0, SVG Export Plug-In . SVG Version: 6.00 Build 0)  -->
<svg version="1.1" id="图层_1" xmlns="http://www.w3.org/2000/svg" xmlns:xlink="http://www.w3.org/1999/xlink" x="0px" y="0px"
	 viewBox="0 0 64 64" style="enable-background:new 0 0 64 64;" xml:space="preserve">
<style type="text/css">
	.st0{fill:#040000;}
</style>
<g id="XMLID_1484_">
	<g id="XMLID_1472_">
		<path id="XMLID_1483_" class="st0" d="M17.4,27.9c-2.2,0-4,1.8-4,4l0,0.1c0,2.2,1.8,4,4,4c2.2,0,4-1.8,4-4l0-0.1
			C21.5,29.7,19.7,27.9,17.4,27.9z"/>
		<path id="XMLID_2773_" class="st0" d="M32,27.9c-2.2,0-4,1.8-4,4l0,0.1c0,2.2,1.8,4,4,4c2.2,0,4-1.8,4-4l0-0.1
			C36,29.7,34.2,27.9,32,27.9z"/>
		<path id="XMLID_2775_" class="st0" d="M50.6,31.9c0-2.2-1.8-4-4-4c-2.2,0-4,1.8-4,4l0,0.1c0,2.2,1.8,4,4,4c2.2,0,4-1.8,4-4
			L50.6,31.9z"/>
	</g>
	<path id="XMLID_1485_" class="st0" d="M32,0C14.3,0,0,14.3,0,32s14.3,32,32,32s32-14.3,32-32S49.7,0,32,0z M51.4,51.4
		C48.9,54,46,56,42.7,57.3c-3.4,1.4-7,2.2-10.7,2.2s-7.3-0.7-10.7-2.2C18,56,15.1,54,12.6,51.5C10,48.9,8,46,6.7,42.7
		c-1.4-3.4-2.2-7-2.2-10.7c0-3.7,0.7-7.3,2.2-10.7C8,18,10,15.1,12.5,12.6C15.1,10,18,8,21.3,6.7c3.4-1.4,7-2.2,10.7-2.2
		c3.7,0,7.3,0.7,10.7,2.2C46,8,48.9,10,51.4,12.6c2.5,2.5,4.5,5.5,5.9,8.7c1.4,3.4,2.2,7,2.2,10.7C59.5,39.3,56.6,46.3,51.4,51.4z"
		/>
</g>
</svg>
