<?xml version="1.0" encoding="utf-8"?>
<!-- Generator: Adobe Illustrator 19.0.0, SVG Export Plug-In . SVG Version: 6.00 Build 0)  -->
<svg version="1.1" id="图层_1" xmlns="http://www.w3.org/2000/svg" xmlns:xlink="http://www.w3.org/1999/xlink" x="0px" y="0px"
	 viewBox="0 0 64 64" style="enable-background:new 0 0 64 64;" xml:space="preserve">
<style type="text/css">
	.st0{fill:#040000;}
</style>
<g id="XMLID_1_">
	<path id="XMLID_2_" class="st0" d="M44.1,44.6c-1.1,0-2,0.9-2,2v9.2c0,1.9-1.3,3.5-2.8,3.5H6.9c-1.6,0-2.8-1.6-2.8-3.5V8.2
		c0-1.9,1.3-3.5,2.8-3.5h32.4c1.6,0,2.8,1.6,2.8,3.5v9.2c0,1.1,0.9,2,2,2c1.1,0,2-0.9,2-2V8.2c0-4.5-3.1-8.2-6.9-8.2H6.9
		C3.1,0,0,3.7,0,8.2v48.1C0,60.5,3.1,64,6.9,64v0h32.4c3.8,0,6.9-3.7,6.9-8.2v-9.2C46.2,45.5,45.3,44.6,44.1,44.6z"/>
	<path id="XMLID_4_" class="st0" d="M63.4,29.5l-11.2-12c-0.4-0.4-0.9-0.6-1.4-0.6c-0.5,0-1.1,0.2-1.4,0.6c-0.8,0.8-0.8,2.2,0,3
		l7.8,8.4c0,0,0,0,0,0c0,0,0,0,0,0H23c-1.1,0-2,1-2,2.1c0,1.2,0.9,2.1,2,2.1h34.1c0,0,0,0,0,0s0,0,0,0l-7.8,8.4
		c-0.8,0.8-0.8,2.2,0,3c0.4,0.4,0.9,0.6,1.4,0.6c0.5,0,1.1-0.2,1.4-0.6l11.2-12c0.4-0.4,0.6-1,0.6-1.6C64,30.5,63.8,29.9,63.4,29.5z
		"/>
</g>
</svg>
