<?xml version="1.0" encoding="utf-8"?>
<!-- Generator: Adobe Illustrator 19.0.0, SVG Export Plug-In . SVG Version: 6.00 Build 0)  -->
<svg version="1.1" id="图层_1" xmlns="http://www.w3.org/2000/svg" xmlns:xlink="http://www.w3.org/1999/xlink" x="0px" y="0px"
	 viewBox="0 0 64 64" style="enable-background:new 0 0 64 64;" xml:space="preserve">
<style type="text/css">
	.st0{fill:#040000;}
</style>
<g id="XMLID_1543_">
	<path id="XMLID_1546_" class="st0" d="M14.9,19.1c0.8,0.8,2.1,0.8,2.8,0L30,6.8v32.4c0,1.1,0.9,2,2,2c1.1,0,2-0.9,2-2V6.8
		l12.3,12.3c0.8,0.8,2.1,0.8,2.8,0c0.8-0.8,0.8-2.1,0-2.8L33.4,0.6c-0.2-0.2-0.4-0.3-0.6-0.4c0,0,0,0-0.1,0c-0.1,0-0.2-0.1-0.3-0.1
		c0,0-0.1,0-0.1,0c-0.1,0-0.2,0-0.4,0c0,0,0,0,0,0l0,0c-0.1,0-0.3,0-0.4,0c0,0,0,0,0,0c-0.4,0.1-0.7,0.3-1,0.5L14.9,16.3
		C14.1,17.1,14.1,18.3,14.9,19.1z"/>
	<path id="XMLID_1545_" class="st0" d="M57.9,0h-8.2v0c0,0,0,0,0,0c-1.1,0-2,0.9-2,2c0,1.1,0.9,2,2,2c0,0,0,0,0,0v0h7
		C58.5,4,60,5.5,60,7.3v49.4c0,1.8-1.5,3.3-3.3,3.3H7.3C5.5,60,4,58.5,4,56.7V7.3C4,5.5,5.5,4,7.3,4h7v0c0,0,0,0,0,0
		c1.1,0,2-0.9,2-2c0-1.1-0.9-2-2-2c0,0,0,0,0,0v0H6.1C2.7,0,0,2.7,0,6.1v51.9C0,61.3,2.7,64,6.1,64h51.9c3.3,0,6.1-2.7,6.1-6.1V6.1
		C64,2.7,61.3,0,57.9,0z"/>
</g>
</svg>
