<?xml version="1.0" encoding="utf-8"?>
<!-- Generator: Adobe Illustrator 19.0.0, SVG Export Plug-In . SVG Version: 6.00 Build 0)  -->
<svg version="1.1" id="图层_1" xmlns="http://www.w3.org/2000/svg" xmlns:xlink="http://www.w3.org/1999/xlink" x="0px" y="0px"
	 viewBox="0 0 64 64" style="enable-background:new 0 0 64 64;" xml:space="preserve">
<style type="text/css">
	.st0{fill:#040000;}
</style>
<g id="XMLID_397_">
	<path id="XMLID_405_" class="st0" d="M32,8.9C17.1,8.9,4.4,18.6,0,32c4.4,13.4,17.1,23.1,32,23.1S59.6,45.4,64,32
		C59.6,18.6,46.9,8.9,32,8.9z M32,50.8C19.8,50.8,8.9,43.3,4.5,32C8.9,20.7,19.8,13.2,32,13.2S55.1,20.7,59.5,32
		C55.1,43.3,44.2,50.8,32,50.8z"/>
	<path id="XMLID_413_" class="st0" d="M32,20.6c-6.3,0-11.4,5.1-11.4,11.4c0,6.3,5.1,11.4,11.4,11.4S43.4,38.3,43.4,32
		C43.4,25.7,38.3,20.6,32,20.6z M32,38.9L32,38.9c-3.8,0-6.9-3.1-6.9-6.9c0-3.8,3.1-6.9,6.9-6.9c3.8,0,6.9,3.1,6.9,6.9
		C38.9,35.8,35.8,38.9,32,38.9z"/>
</g>
</svg>
