<?xml version="1.0" encoding="utf-8"?>
<!-- Generator: Adobe Illustrator 19.0.0, SVG Export Plug-In . SVG Version: 6.00 Build 0)  -->
<svg version="1.1" id="图层_1" xmlns="http://www.w3.org/2000/svg" xmlns:xlink="http://www.w3.org/1999/xlink" x="0px" y="0px"
	 viewBox="0 0 64 64" style="enable-background:new 0 0 64 64;" xml:space="preserve">
<style type="text/css">
	.st0{fill:#040000;}
</style>
<g id="XMLID_674_">
	<path id="XMLID_679_" class="st0" d="M58,0H6C2.7,0,0,2.7,0,6v9.4v8.3V58c0,3.3,2.7,6,6,6c0.2,0,0.4,0,0.6-0.1L32,56.1l25.4,7.8
		C57.6,64,57.8,64,58,64c3.3,0,6-2.7,6-6V6C64,2.7,61.3,0,58,0z M60,58c0,1-0.8,1.9-1.8,2l-25.7-7.9c-0.4-0.1-0.8-0.1-1.2,0L5.8,60
		c-1-0.1-1.8-1-1.8-2V23.6v-8.3V6c0-1.1,0.9-2,2-2h52c1.1,0,2,0.9,2,2V58z"/>
	<path id="XMLID_675_" class="st0" d="M48.3,23.7l-10-1.5l-4.5-9.1c-0.3-0.7-1-1.1-1.8-1.1c-0.8,0-1.5,0.4-1.8,1.1l-4.5,9.1l-10,1.5
		c-0.8,0.1-1.4,0.6-1.6,1.4c-0.2,0.7,0,1.5,0.5,2l7.3,7.1l-1.7,10c-0.1,0.8,0.2,1.5,0.8,2c0.6,0.4,1.4,0.5,2.1,0.1l9-4.7l9,4.7
		c0.3,0.2,0.6,0.2,0.9,0.2c0.4,0,0.8-0.1,1.2-0.4c0.6-0.5,0.9-1.2,0.8-2l-1.7-10l7.3-7.1c0.5-0.5,0.7-1.3,0.5-2.1
		C49.7,24.3,49.1,23.8,48.3,23.7z M38.6,32c-0.5,0.5-0.7,1.1-0.6,1.8l1.2,7l-6.3-3.3c-0.3-0.2-0.6-0.2-0.9-0.2
		c-0.3,0-0.6,0.1-0.9,0.2l-6.3,3.3l1.2-7c0.1-0.6-0.1-1.3-0.6-1.8l-5.1-5l7.1-1c0.7-0.1,1.2-0.5,1.5-1.1l3.2-6.4l3.2,6.4
		c0.3,0.6,0.9,1,1.5,1.1l7.1,1L38.6,32z"/>
</g>
</svg>
