<?xml version="1.0" encoding="utf-8"?>
<!-- Generator: Adobe Illustrator 19.0.0, SVG Export Plug-In . SVG Version: 6.00 Build 0)  -->
<svg version="1.1" id="图层_1" xmlns="http://www.w3.org/2000/svg" xmlns:xlink="http://www.w3.org/1999/xlink" x="0px" y="0px"
	 viewBox="0 0 64 64" style="enable-background:new 0 0 64 64;" xml:space="preserve">
<style type="text/css">
	.st0{fill:#040000;}
</style>
<g id="XMLID_2175_">
	<g id="XMLID_2180_">
		<path id="XMLID_2185_" class="st0" d="M22.8,46.3H12.6c-1.1,0-2,0.7-2,1.8c0,0.9,0.9,1.8,2,1.8h10.1c1.1,0,2-0.9,2-1.8
			C24.7,47,23.8,46.3,22.8,46.3z"/>
		<path id="XMLID_2184_" class="st0" d="M46.2,26.7c-0.1-0.9-0.8-1.7-1.8-1.8h-32c-0.9,0.1-1.7,0.8-1.8,1.8c0,0.9,0.9,1.8,1.8,1.8
			h32C45.4,28.4,46.2,27.7,46.2,26.7z"/>
		<path id="XMLID_2183_" class="st0" d="M22.8,35.6H12.6c-1.1,0-2,0.7-2,1.8c0,0.9,0.9,1.8,2,1.8h10.1c1.1,0,2-0.9,2-1.8
			C24.7,36.3,23.8,35.6,22.8,35.6z"/>
		<path id="XMLID_2182_" class="st0" d="M44.5,14.3h-32c-0.9,0.1-1.7,0.8-1.8,1.8c0,0.9,0.9,1.8,1.8,1.8h32c0.9-0.1,1.7-0.8,1.8-1.8
			C46.1,15.1,45.4,14.3,44.5,14.3z"/>
		<path id="XMLID_2181_" class="st0" d="M23,60.5H3.6V3.6h49.8v23.2c0,1.1,0.7,1.8,1.8,1.8c1.1,0,1.8-0.7,1.8-1.8V1.8
			c0-0.9-0.8-1.7-1.8-1.8H1.8C0.8,0.1,0,0.8,0,1.8v60.5C0,63.1,0.9,64,1.8,64H23c1.1,0,1.8-0.7,1.8-1.8C24.7,61.2,24,60.5,23,60.5z"
			/>
	</g>
	<g id="XMLID_2176_">
		<path id="XMLID_2177_" class="st0" d="M31.8,64c-0.4,0-0.8-0.2-1.1-0.5c-0.3-0.3-0.5-0.7-0.5-1.1s0.2-0.8,0.5-1.1l7.6-7.6
			l-6.9-6.9c-0.7-0.8-1-1.9-0.5-2.8c0.4-1,1.4-1.6,2.4-1.5l5.5-0.7l8.6-5.7l1.1-3.5c0.1-1,0.7-1.9,1.6-2.2c0.9-0.4,2-0.1,2.7,0.6
			l10.4,10.4c0.7,0.7,0.9,1.7,0.6,2.7c-0.4,0.9-1.2,1.6-2.2,1.6l-3.3,0.9l-6.2,9.2l-0.5,5.1c0,1.1-0.5,2-1.5,2.4
			c-0.9,0.4-2.1,0.2-2.8-0.5L40.5,56L33,63.5C32.7,63.8,32.3,64,31.8,64z M34.9,45.8l13.6,13.6l0.5-3.3c-0.1,0-0.1-0.1-0.2-0.1
			l-7.8-7.8c-0.3-0.3-0.5-0.7-0.5-1.1s0.2-0.8,0.5-1.1c0.3-0.3,0.7-0.5,1.1-0.5c0,0,0,0,0,0c0.4,0,0.8,0.2,1.1,0.5l6.9,7l5.1-7.6
			l-4.1-4.1c-0.3-0.3-0.5-0.7-0.5-1.1c0-0.4,0.2-0.8,0.5-1.1c0.3-0.3,0.7-0.5,1.1-0.5c0.4,0,0.8,0.2,1.1,0.5l4.5,4.5l2-0.8l-8.4-8.4
			l-1.1,2.8c-0.1,0.5-0.3,1-0.7,1.2l-9.7,6.4c-0.3,0.2-0.5,0.3-0.9,0.4L34.9,45.8z"/>
	</g>
</g>
</svg>
