<?xml version="1.0" encoding="utf-8"?>
<!-- Generator: Adobe Illustrator 19.0.0, SVG Export Plug-In . SVG Version: 6.00 Build 0)  -->
<svg version="1.1" id="图层_1" xmlns="http://www.w3.org/2000/svg" xmlns:xlink="http://www.w3.org/1999/xlink" x="0px" y="0px"
	 viewBox="0 0 64 64" style="enable-background:new 0 0 64 64;" xml:space="preserve">
<style type="text/css">
	.st0{fill:#040000;}
</style>
<g id="XMLID_2709_">
	<path id="XMLID_2746_" class="st0" d="M24.5,46.3H14.4c-1.1,0-2,0.7-2,1.8c0,0.9,0.9,1.8,2,1.8h10.1c1.1,0,2-0.9,2-1.8
		C26.5,47,25.6,46.3,24.5,46.3z"/>
	<path id="XMLID_2747_" class="st0" d="M48,26.7c-0.1-0.9-0.8-1.7-1.8-1.8h-32c-0.9,0.1-1.7,0.8-1.8,1.8c0,0.9,0.9,1.8,1.8,1.8h32
		C47.2,28.4,48,27.7,48,26.7z"/>
	<path id="XMLID_2748_" class="st0" d="M24.5,35.6H14.4c-1.1,0-2,0.7-2,1.8c0,0.9,0.9,1.8,2,1.8h10.1c1.1,0,2-0.9,2-1.8
		C26.5,36.3,25.6,35.6,24.5,35.6z"/>
	<path id="XMLID_2749_" class="st0" d="M46.2,14.3h-32c-0.9,0.1-1.7,0.8-1.8,1.8c0,0.9,0.9,1.8,1.8,1.8h32C47.2,17.7,48,17,48,16
		C47.9,15.1,47.2,14.3,46.2,14.3z"/>
	<path id="XMLID_2750_" class="st0" d="M30.2,60.4H5.3V3.6h49.8v26.7c0,1.1,0.7,1.8,1.8,1.8s1.8-0.7,1.8-1.8V1.8
		c0-0.9-0.8-1.7-1.8-1.8H3.5C2.6,0.1,1.8,0.8,1.8,1.8v60.4c0,0.9,0.9,1.8,1.8,1.8h26.7c1.1,0,1.8-0.7,1.8-1.8S31.3,60.4,30.2,60.4z"
		/>
	<path id="XMLID_7_" class="st0" d="M48,35.6c-7.8,0-14.2,6.4-14.2,14.2C33.8,57.6,40.2,64,48,64s14.2-6.4,14.2-14.2
		S55.8,35.6,48,35.6z M54.2,48.2l-6,6.1c-0.8,0.8-2,0.8-2.8,0l-3.5-3.5c-0.8-0.8-0.8-2,0-2.8c0.8-0.8,2-0.8,2.8,0l2.1,2.1l4.6-4.7
		c0.8-0.8,2-0.8,2.8,0C55,46.1,55,47.4,54.2,48.2z"/>
</g>
</svg>
