<?xml version="1.0" encoding="utf-8"?>
<!-- Generator: Adobe Illustrator 19.0.0, SVG Export Plug-In . SVG Version: 6.00 Build 0)  -->
<svg version="1.1" id="图层_1" xmlns="http://www.w3.org/2000/svg" xmlns:xlink="http://www.w3.org/1999/xlink" x="0px" y="0px"
	 viewBox="0 0 64 64" style="enable-background:new 0 0 64 64;" xml:space="preserve">
<g>
	<rect x="25.3" y="27.3" transform="matrix(-0.9094 -0.4159 0.4159 -0.9094 44.5951 65.0712)" width="8.2" height="0.8"/>
	<path d="M31.1,23.7l-1,0c0,0.5,0.1,0.9,0.1,1.2l-4.5-2.1l-0.9,2l0.9,0.4l0.5-1.2l8,3.7l-0.5,1.2l0.9,0.4l0.9-2l-4.2-1.9
		C31.1,24.9,31.1,24.4,31.1,23.7z"/>
	<path d="M43.9,30.1l0.2-0.1l-1-0.5c-1.4,1.1-3,1.8-4.8,2.2c0.1,0.3,0.2,0.6,0.3,0.9c1.5-0.4,3-1.1,4.4-2.1c0.1,1.5,0.7,3.1,1.6,4.7
		c0.3-0.2,0.6-0.3,0.9-0.5C44.6,33.4,44,31.8,43.9,30.1z"/>
	<rect x="39.2" y="33.4" transform="matrix(-0.9094 -0.4159 0.4159 -0.9094 65.3583 81.9189)" width="4.8" height="0.8"/>
	<path d="M57.9,40.5c1.4,0.9,2.9,1.8,6,2.5l0.1-0.3c-3.1-0.7-4.5-1.6-5.9-2.5c-0.3-0.2-0.7-0.4-1-0.6c0.8-2.4,1.2-5,1.2-7.6
		c0-13.5-10.9-24.4-24.4-24.4C21.3,7.6,11,17,9.6,29.2c-0.4-0.2-0.8-0.5-1.2-0.7c-1.4-0.9-2.9-1.8-6-2.5l-0.1,0.3
		c3.1,0.7,4.5,1.6,5.9,2.5c0.4,0.2,0.8,0.5,1.3,0.7c0,0.3,0,0.5-0.1,0.8c-0.5-0.3-0.9-0.5-1.3-0.8c-1.4-0.9-2.9-1.8-6-2.5l-0.1,0.3
		c3.1,0.7,4.5,1.6,5.9,2.5C8.5,30,9,30.3,9.5,30.6c0,0.3,0,0.5,0,0.8c-0.5-0.3-1-0.6-1.5-0.9c-1.4-0.9-2.9-1.8-6-2.5l-0.1,0.3
		C5,29,6.4,29.9,7.8,30.7c0.5,0.3,1,0.6,1.6,0.9c0,0.1,0,0.2,0,0.3c0,0.2,0,0.3,0,0.5c-0.6-0.3-1.2-0.7-1.7-1
		c-1.4-0.9-2.9-1.8-6-2.5l-0.1,0.3c3.1,0.7,4.5,1.6,5.9,2.5c0.6,0.4,1.2,0.7,1.9,1.1c0,0.3,0,0.6,0,0.9c-0.8-0.4-1.4-0.8-2-1.1
		c-1.4-0.9-2.9-1.8-6-2.5l-0.1,0.3C4.5,31,6,31.9,7.4,32.8C8,33.2,8.7,33.6,9.5,34c0,0.3,0,0.6,0.1,0.9C8.7,34.4,8,34,7.3,33.5
		c-1.4-0.9-2.9-1.8-6-2.5l-0.1,0.3c3.1,0.7,4.5,1.6,5.9,2.5c0.8,0.5,1.5,0.9,2.5,1.4c0,0.3,0.1,0.6,0.1,0.9c-1.1-0.5-2-1-2.8-1.5
		c-1.4-0.9-2.9-1.8-6-2.5L1,32.3C4,33,5.5,33.9,6.9,34.8c0.9,0.5,1.7,1,3,1.5c0.1,0.3,0.1,0.6,0.2,0.9c-1.4-0.5-2.3-1.1-3.2-1.6
		c-1.4-0.9-2.9-1.8-6-2.5l-0.1,0.3c3.1,0.7,4.5,1.6,5.9,2.5c1,0.6,1.9,1.2,3.4,1.7c0.1,0.3,0.1,0.6,0.2,0.9
		c-1.7-0.6-2.7-1.2-3.8-1.8c-1.4-0.9-2.9-1.8-6-2.5l-0.1,0.3c3.1,0.7,4.5,1.6,5.9,2.5c1.1,0.7,2.2,1.3,4,1.9
		c0.1,0.3,0.2,0.6,0.3,0.9c-2-0.6-3.2-1.3-4.4-2c-1.4-0.9-2.9-1.8-6-2.5l-0.1,0.3c3.1,0.7,4.5,1.6,5.9,2.5c1.2,0.7,2.4,1.5,4.6,2.1
		c0.1,0.3,0.2,0.6,0.3,0.9c-2.5-0.7-3.8-1.5-5-2.2c-1.4-0.9-2.9-1.8-6-2.5L0,36.3c3.1,0.7,4.5,1.6,5.9,2.5c1.3,0.8,2.7,1.6,5.3,2.3
		c3.6,9,12.4,15.3,22.7,15.3c7,0,13.4-3,17.8-7.7c1.7,0.6,2.8,1.2,3.8,1.9c1.4,0.9,2.9,1.8,6,2.5l0.1-0.3c-3.1-0.7-4.5-1.6-5.9-2.5
		c-1-0.6-2.1-1.3-3.8-1.9c0.2-0.2,0.4-0.4,0.5-0.6c1.4,0.5,2.4,1.1,3.3,1.7c1.4,0.9,2.9,1.8,6,2.5l0.1-0.3c-3.1-0.7-4.5-1.6-5.9-2.5
		c-0.9-0.6-1.9-1.1-3.3-1.7c0.2-0.2,0.3-0.4,0.5-0.6c1.2,0.5,2.1,1,2.9,1.5c1.4,0.9,2.9,1.8,6,2.5l0.1-0.3c-3.1-0.7-4.5-1.6-5.9-2.5
		c-0.8-0.5-1.7-1-2.9-1.5c0.2-0.2,0.3-0.4,0.5-0.6c1,0.4,1.8,0.9,2.5,1.4c1.4,0.9,2.9,1.8,6,2.5l0.1-0.3c-3.1-0.7-4.5-1.6-5.9-2.5
		c-0.7-0.4-1.5-0.9-2.5-1.3c0.1-0.2,0.3-0.4,0.4-0.6c0.8,0.4,1.5,0.8,2.2,1.2c1.4,0.9,2.9,1.8,6,2.5l0.1-0.3
		c-3.1-0.7-4.5-1.6-5.9-2.5c-0.7-0.4-1.3-0.8-2.2-1.2c0.1-0.2,0.3-0.4,0.4-0.6c0.7,0.3,1.3,0.7,1.9,1.1c1.4,0.9,2.9,1.8,6,2.5
		l0.1-0.3c-3.1-0.7-4.5-1.6-5.9-2.5c-0.6-0.4-1.2-0.7-1.9-1.1c0.1-0.2,0.3-0.4,0.4-0.7c0.6,0.3,1.1,0.6,1.6,0.9
		c1.4,0.9,2.9,1.8,6,2.5l0.1-0.3c-3.1-0.7-4.5-1.6-5.9-2.5c-0.5-0.3-1-0.6-1.6-0.9c0.1-0.2,0.2-0.4,0.3-0.7c0.5,0.3,1,0.5,1.4,0.8
		c1.4,0.9,2.9,1.8,6,2.5l0.1-0.3c-3.1-0.7-4.5-1.6-5.9-2.5c-0.4-0.3-0.9-0.5-1.4-0.8c0.1-0.2,0.2-0.5,0.3-0.7
		c0.4,0.2,0.8,0.5,1.2,0.7c1.4,0.9,2.9,1.8,6,2.5l0.1-0.3c-3.1-0.7-4.5-1.6-5.9-2.5c-0.4-0.2-0.8-0.5-1.2-0.7
		c0.1-0.2,0.2-0.5,0.3-0.7c0.4,0.2,0.7,0.4,1.1,0.6c1.4,0.9,2.9,1.8,6,2.5l0.1-0.3c-3.1-0.7-4.5-1.6-5.9-2.5
		c-0.4-0.2-0.7-0.4-1.1-0.7c0.1-0.2,0.2-0.5,0.2-0.7C57.3,40.1,57.6,40.3,57.9,40.5z M33.9,8c13.3,0,24,10.8,24,24
		c0,2.6-0.4,5.1-1.2,7.5c-0.5-0.2-1-0.5-1.5-0.7c0.7-2.1,1-4.4,1-6.7c0-12.4-10-22.4-22.4-22.4c-11.7,0-21.3,9-22.3,20.5
		c-0.6-0.2-1.2-0.5-1.6-0.7C11.3,17.3,21.5,8,33.9,8z M49,47.7c-2.7-0.6-4.3-0.4-5.8-0.3c-0.1,0-0.2,0-0.3,0
		c0.4-0.3,0.9-0.5,1.3-0.8c1.4-0.1,3-0.1,5.5,0.5C49.4,47.2,49.2,47.5,49,47.7z M12,32c0-0.1,0-0.2,0-0.3c0.6,0.2,1.2,0.4,2,0.6
		c0.7,0.2,1.4,0.3,2,0.4c0,0.3,0,0.5,0,0.8c-0.7-0.1-1.4-0.2-2.2-0.4c-0.7-0.2-1.3-0.3-1.8-0.5C12.1,32.3,12,32.2,12,32z M44.6,45.3
		c-0.3,0-0.6,0-0.9,0.1c-1,0.1-2.1,0.2-3.5,0c0.4-0.2,0.9-0.4,1.3-0.7c0.9,0,1.7,0,2.5-0.1c0.5,0,1-0.1,1.5-0.1
		C45.2,44.8,44.9,45,44.6,45.3z M19.4,32c0-0.1,0-0.2,0-0.2c0.5,0,0.9-0.1,1.3-0.1c0.2,0,0.5,0,0.8-0.1c0,0.2,0,0.3,0.1,0.4
		c1.3,0.2,2.5,0.1,3.4-0.3c0.7,0.1,1.4,0.2,2.2,0.4c0.3,0.1,0.6,0.1,0.8,0.2l-0.3,0.6c0,0.1,0,0.1-0.1,0.2C27.5,33,27.3,33,27,32.9
		c-3.1-0.7-4.8-0.6-6.5-0.5c-0.3,0-0.7,0.1-1.1,0.1C19.5,32.3,19.4,32.2,19.4,32z M43.8,42.4c-1.5,0.1-3.1,0.2-5.9-0.5
		c-3.1-0.7-4.5-1.6-5.9-2.5c-1.4-0.9-2.9-1.8-6-2.5c-2.8-0.7-4.4-0.6-5.9-0.5c-0.1-0.2-0.1-0.5-0.2-0.7c1.6-0.1,3.3-0.2,6.3,0.5
		c3.1,0.7,4.5,1.6,5.9,2.5c1.4,0.9,2.9,1.8,6,2.5c3.1,0.7,4.8,0.6,6.4,0.5C44.4,41.9,44.1,42.1,43.8,42.4z M30.9,44.4
		c-1.4-0.9-2.9-1.8-6-2.5c-0.6-0.1-1.2-0.3-1.7-0.3c-0.3-0.3-0.5-0.6-0.7-0.9c0.8,0.1,1.6,0.2,2.6,0.5c3.1,0.7,4.5,1.6,5.9,2.5
		c1.4,0.8,2.8,1.7,5.8,2.4c-0.6,0.1-1.3,0.2-1.9,0.3C33,45.8,31.9,45.1,30.9,44.4z M34.2,46.4c-0.1,0-0.2,0-0.3,0
		c-4.1,0-7.8-1.7-10.4-4.5c0.4,0.1,0.9,0.2,1.4,0.3c3.1,0.7,4.5,1.6,5.9,2.5C31.7,45.3,32.7,45.8,34.2,46.4z M37,45.9
		c-3.1-0.7-4.5-1.6-5.9-2.5c-1.4-0.9-2.9-1.8-6-2.5c-1.1-0.3-2.1-0.4-2.9-0.5c-0.2-0.3-0.4-0.5-0.5-0.8c1,0,2.1,0.2,3.6,0.5
		c3.1,0.7,4.5,1.6,5.9,2.5c1.4,0.9,2.9,1.8,6,2.5c0.6,0.1,1.2,0.3,1.7,0.3c-0.5,0.2-1,0.4-1.6,0.5C37.2,45.9,37.1,45.9,37,45.9z
		 M37.3,44.9c-3.1-0.7-4.5-1.6-5.9-2.5c-1.4-0.9-2.9-1.8-6-2.5c-1.6-0.4-2.8-0.5-3.8-0.6c-0.2-0.2-0.3-0.5-0.4-0.8
		c1.2,0,2.5,0.1,4.4,0.6c3.1,0.7,4.5,1.6,5.9,2.5c1.4,0.9,2.9,1.8,6,2.5c1.3,0.3,2.4,0.5,3.3,0.5c-0.4,0.2-0.9,0.4-1.3,0.6
		C38.8,45.2,38.1,45.1,37.3,44.9z M37.5,43.9c-3.1-0.7-4.5-1.6-5.9-2.5c-1.4-0.9-2.9-1.8-6-2.5c-2-0.5-3.4-0.6-4.6-0.6
		c-0.1-0.2-0.2-0.5-0.4-0.7c1.3-0.1,2.8,0,5.2,0.5c3.1,0.7,4.5,1.6,5.9,2.5c1.4,0.9,2.9,1.8,6,2.5c2,0.5,3.4,0.6,4.6,0.6
		c-0.4,0.3-0.7,0.5-1.1,0.7C40.1,44.4,39,44.2,37.5,43.9z M37.7,42.9c-3.1-0.7-4.5-1.6-5.9-2.5c-1.4-0.9-2.9-1.8-6-2.5
		c-2.4-0.6-4-0.6-5.3-0.5c-0.1-0.2-0.2-0.5-0.3-0.7c1.5-0.1,3.1-0.1,5.8,0.5c3.1,0.7,4.5,1.6,5.9,2.5c1.4,0.9,2.9,1.8,6,2.5
		c2.6,0.6,4.2,0.6,5.6,0.5c-0.3,0.3-0.6,0.5-0.9,0.8C41.4,43.5,39.9,43.4,37.7,42.9z M44.6,41.3c-1.6,0.1-3.3,0.3-6.4-0.5
		c-3.1-0.7-4.5-1.6-5.9-2.5c-1.4-0.9-2.9-1.8-6-2.5c-3.1-0.7-4.8-0.6-6.4-0.5c-0.1-0.2-0.1-0.5-0.2-0.7c0.1,0,0.2,0,0.4,0
		c1.6-0.1,3.3-0.3,6.4,0.5c3.1,0.7,4.5,1.6,5.9,2.5c1.4,0.9,2.9,1.8,6,2.5c1.2,0.3,2.3,0.4,3.2,0.5l0.9,0.4l0.2-0.4
		c0.8,0,1.6,0,2.3-0.1c0.2,0,0.4,0,0.6,0c-0.2,0.3-0.4,0.5-0.6,0.8C44.8,41.3,44.7,41.3,44.6,41.3z M28.5,34.9l1.7,0.8
		c0.4,0.2,0.8,0.2,1.1,0.1c0.5,0.3,0.9,0.5,1.4,0.8c0.3,0.2,0.6,0.4,1,0.6l-0.1,0.3l0.7,0.3l0.1-0.3c0.9,0.4,1.9,0.9,3.3,1.3
		l3.1,1.4c-0.7-0.1-1.5-0.2-2.3-0.4c-3.1-0.7-4.5-1.6-5.9-2.5c-1.4-0.9-2.9-1.8-6-2.5c-3.1-0.7-4.8-0.6-6.5-0.5c-0.1,0-0.3,0-0.4,0
		c0-0.2-0.1-0.5-0.1-0.7c0.3,0,0.5,0,0.7-0.1c1.6-0.1,3.3-0.3,6.4,0.5c0.4,0.1,0.8,0.2,1.2,0.3C28,34.6,28.2,34.8,28.5,34.9z
		 M28.9,32.6c1.1,0.4,2,0.8,2.7,1.1c-0.1,0.3-0.3,0.5-0.4,0.6c-0.7-0.4-1.6-0.7-2.7-1.1c0-0.1,0-0.1,0-0.2L28.9,32.6z M38.4,37.3
		c0-0.1,0-0.2,0.1-0.3c0.2,0.1,0.4,0.1,0.6,0.2c0.2,0,0.4,0.1,0.6,0.1c0,0.1-0.1,0.3-0.1,0.4l0.9,0.2c0-0.1,0.1-0.3,0.1-0.4
		c0.3,0.1,0.6,0.1,0.8,0.1c-0.2,0.2-0.4,0.5-0.6,0.7c-0.6-0.1-1.1-0.2-1.8-0.4c-1.8-0.4-3.1-0.9-4.1-1.4l0.3-0.7
		c0.7,0.3,1.4,0.6,2.4,0.9c0,0.2-0.1,0.3-0.1,0.5L38.4,37.3z M34.5,37.4l0.3-0.7c0.4,0.2,0.7,0.3,1.2,0.5l-0.3,0.7
		C35.2,37.7,34.8,37.5,34.5,37.4z M36.4,37.4c0.7,0.3,1.5,0.5,2.5,0.7c0.6,0.1,1.1,0.2,1.7,0.3c-0.2,0.2-0.4,0.4-0.6,0.6L36.4,37.4z
		 M34.2,36.1c-0.4-0.2-0.8-0.4-1.1-0.7c-0.3-0.2-0.5-0.3-0.8-0.5c0.1-0.2,0.2-0.4,0.4-0.6c0.2,0.1,0.4,0.2,0.5,0.3
		c0.4,0.3,0.9,0.5,1.3,0.8L34.2,36.1z M31.2,34.6c-0.2,0.3-0.5,0.3-1,0.1L29,34.2c-0.3-0.1-0.5-0.3-0.5-0.6
		C29.6,33.9,30.5,34.3,31.2,34.6z M31.9,35.3c0-0.1,0.1-0.2,0.2-0.2c0.3,0.2,0.6,0.3,0.8,0.5c0.4,0.2,0.8,0.5,1.2,0.7L33.7,37
		c-0.3-0.2-0.7-0.4-1-0.6c-0.4-0.2-0.8-0.5-1.2-0.7C31.7,35.6,31.8,35.5,31.9,35.3z M44.9,40.3c-0.7,0.1-1.4,0.1-2.2,0.1l0.1-0.1
		l-1.6-0.7c1.6,0.2,2.8,0.1,3.9,0c0.3,0,0.7-0.1,1-0.1c-0.2,0.3-0.3,0.5-0.5,0.8C45.4,40.3,45.1,40.3,44.9,40.3z M45.1,39.3
		c-1.2,0.1-2.4,0.2-4.2,0c0.2-0.2,0.4-0.4,0.7-0.7c1.6,0.2,2.7,0.1,3.8,0c0.4,0,0.9-0.1,1.4-0.1c-0.1,0.3-0.3,0.5-0.4,0.8
		C45.9,39.2,45.5,39.3,45.1,39.3z M45.3,38.3c-1,0.1-2.1,0.2-3.6,0c0.2-0.2,0.4-0.5,0.7-0.7c1.2,0.1,2.2,0,3.1-0.1
		c0.5,0,1-0.1,1.6-0.1c-0.1,0.3-0.2,0.5-0.3,0.8C46.3,38.2,45.8,38.3,45.3,38.3z M47.3,37.2c-0.6,0-1.2,0.1-1.7,0.1
		c-0.9,0.1-1.8,0.1-2.9,0.1c0.3-0.4,0.7-0.7,1-1.1L43,35.6c-0.5,0.6-1,1.2-1.4,1.7c-0.3,0-0.6-0.1-1-0.1c0.2-0.9,0.4-1.7,0.5-2.6
		l-0.8-0.2C40.2,35.2,40,36,39.7,37c-0.2,0-0.4-0.1-0.6-0.1c-0.2-0.1-0.4-0.1-0.7-0.2c0.2-1,0.3-1.9,0.4-2.7l-0.8-0.1
		c-0.1,0.8-0.2,1.6-0.4,2.5c-0.9-0.3-1.7-0.6-2.4-0.9l1.6-3.5c0.1,0.6,0.2,1.2,0.3,1.7l0.8-0.2c-0.1-0.5-0.2-1.1-0.4-1.8L37,31.9
		l0.7-1.6l1.4,0.6l0.3-0.7L38,29.6l1-2.1l-0.7-0.3l-1,2.1l-1.5-0.7l-0.3,0.7l1.4,0.7c-1,1.3-2.1,2.3-3.3,3.1c0,0.4,0,0.7-0.1,1.1
		c0.9-0.6,1.8-1.4,2.7-2.5l-1.6,3.6c-0.5-0.3-0.9-0.5-1.3-0.8c-0.2-0.1-0.4-0.2-0.5-0.3c0,0,0,0,0,0c-0.3-0.3-0.6-0.5-0.8-0.7
		c-0.1,0.1-0.1,0.2-0.1,0.3c-0.7-0.4-1.6-0.8-2.8-1.2l0.7-1.4l3.4,1.6l0.3-0.8l-10-4.6l-0.3,0.8l2.9,1.3c-0.8,1.6-2.3,2.2-4.7,1.7
		c0,0.1,0,0.2,0.1,0.3c-0.2,0-0.5,0-0.7,0.1c-0.4,0-0.8,0.1-1.3,0.1c0.3-7.7,6.6-13.9,14.4-13.9c7.9,0,14.4,6.5,14.4,14.4
		C48.3,33.8,47.9,35.6,47.3,37.2z M28.1,32.1c-0.3-0.1-0.6-0.2-0.9-0.2c-0.7-0.2-1.3-0.3-1.9-0.4c0.7-0.4,1.2-1,1.6-1.8l1.9,0.9
		L28.1,32.1z M20.6,32.7c1.6-0.1,3.3-0.3,6.4,0.5c0.2,0.1,0.4,0.1,0.7,0.2c-0.1,0.3-0.1,0.6,0,0.8c-0.3-0.1-0.6-0.2-0.9-0.2
		c-3.1-0.7-4.8-0.6-6.5-0.5c-0.3,0-0.5,0-0.8,0.1c0-0.2,0-0.5,0-0.7C19.9,32.7,20.2,32.7,20.6,32.7z M19.1,33.5c-0.7,0-1.4,0-2.3,0
		c0-0.3,0-0.5,0-0.8c0.9,0.1,1.6,0.1,2.3,0.1C19.1,33,19.1,33.3,19.1,33.5z M19.2,33.8c0,0.2,0.1,0.5,0.1,0.7c-0.7,0-1.4,0.1-2.3,0
		c0-0.3-0.1-0.5-0.1-0.8C17.8,33.8,18.5,33.8,19.2,33.8z M19.3,34.8c0,0.2,0.1,0.5,0.2,0.7c-0.7,0.1-1.5,0.1-2.3,0.1
		c-0.1-0.3-0.1-0.5-0.1-0.8C17.9,34.8,18.6,34.8,19.3,34.8z M19.6,35.7c0.1,0.2,0.1,0.5,0.2,0.7c-0.1,0-0.1,0-0.2,0
		c-0.7,0.1-1.4,0.1-2.2,0.1c-0.1-0.2-0.1-0.5-0.2-0.8C18.1,35.8,18.8,35.8,19.6,35.7z M19.6,36.7c0.1,0,0.2,0,0.2,0
		c0.1,0.2,0.2,0.5,0.3,0.7c-0.3,0-0.5,0-0.8,0.1c-0.5,0-1,0.1-1.6,0.1c-0.1-0.2-0.2-0.5-0.2-0.7C18.3,36.8,18.9,36.8,19.6,36.7z
		 M17.8,37.8c0.5,0,1-0.1,1.5-0.1c0.3,0,0.6,0,0.8-0.1c0.1,0.2,0.2,0.5,0.3,0.7c-0.5,0-1,0.1-1.4,0.1c-0.3,0-0.7,0.1-1,0.1
		C18,38.3,17.9,38.1,17.8,37.8z M19.1,38.7c0.5,0,1-0.1,1.5-0.1c0.1,0.3,0.3,0.5,0.4,0.7c-0.8,0-1.5,0-2.2,0.1c-0.1,0-0.2,0-0.3,0
		c-0.1-0.2-0.2-0.5-0.3-0.7C18.5,38.8,18.8,38.8,19.1,38.7z M18.9,39.7c0.7-0.1,1.5-0.1,2.3-0.1c0.2,0.3,0.3,0.5,0.5,0.8
		c-1-0.1-1.9,0-2.7,0c-0.1-0.2-0.3-0.5-0.4-0.7C18.7,39.7,18.8,39.7,18.9,39.7z M21.9,40.7c0.2,0.3,0.4,0.6,0.6,0.8
		c-1.2-0.2-2.1-0.2-2.9-0.1c-0.2-0.2-0.3-0.5-0.4-0.7C20,40.6,20.9,40.6,21.9,40.7z M22.8,41.8c2.7,3,6.6,5,11,5
		c0.4,0,0.9,0,1.3-0.1c0.5,0.1,1,0.3,1.6,0.4c1.6,0.4,2.8,0.5,3.8,0.6c-2.1,0.9-4.3,1.4-6.7,1.4c-5.8,0-11-3-14.1-7.4
		C20.7,41.6,21.6,41.7,22.8,41.8z M41.1,47.5c-1.1,0-2.5-0.1-4.3-0.6c-0.3-0.1-0.7-0.2-1-0.3c0.6-0.1,1.2-0.2,1.8-0.4
		c2.2,0.5,3.6,0.5,4.9,0.4C42.1,47,41.6,47.2,41.1,47.5z M43,46.4c-1.3,0.1-2.7,0.2-4.8-0.2c0.5-0.2,1-0.3,1.5-0.6
		c1.7,0.2,2.8,0.1,4,0c0.2,0,0.3,0,0.5,0C43.8,45.9,43.4,46.1,43,46.4z M45.8,44.2c-0.7,0-1.3,0.1-1.9,0.1c-0.7,0.1-1.3,0.1-2.1,0.1
		c0.4-0.2,0.7-0.5,1.1-0.8c0.4,0,0.8-0.1,1.2-0.1c0.7-0.1,1.5-0.1,2.3-0.1C46.2,43.7,46,44,45.8,44.2z M44.2,43.3
		c-0.3,0-0.6,0-0.9,0.1c0.3-0.3,0.6-0.5,0.9-0.8c0.1,0,0.2,0,0.2,0c0.9-0.1,1.8-0.1,2.9-0.1c-0.2,0.2-0.4,0.5-0.6,0.7
		C45.7,43.2,44.9,43.3,44.2,43.3z M44.5,42.3c0.2-0.3,0.5-0.5,0.7-0.8c0.8-0.1,1.7-0.1,2.9,0c-0.2,0.3-0.4,0.5-0.5,0.7
		C46.3,42.2,45.4,42.2,44.5,42.3z M45.4,41.3c0.2-0.2,0.4-0.5,0.6-0.8c0.8,0,1.6,0,2.7,0.1c-0.1,0.2-0.3,0.5-0.4,0.7
		C47.1,41.2,46.2,41.2,45.4,41.3z M46.2,40.2c0.2-0.2,0.3-0.5,0.5-0.8c0.7,0,1.6,0,2.5,0.1c-0.1,0.2-0.2,0.5-0.4,0.7
		C47.8,40.2,46.9,40.2,46.2,40.2z M46.8,39.2c0.1-0.2,0.3-0.5,0.4-0.8c0.7,0,1.5,0,2.5,0.2c-0.1,0.3-0.2,0.5-0.3,0.7
		C48.3,39.2,47.5,39.2,46.8,39.2z M47.3,38.2c0.1-0.2,0.2-0.5,0.3-0.7c0.7,0,1.5,0,2.4,0.2c-0.1,0.2-0.2,0.5-0.3,0.7
		C48.8,38.2,48,38.2,47.3,38.2z M47.7,37.2c0.6-1.6,1-3.4,1-5.2c0-8.2-6.6-14.8-14.8-14.8c-8,0-14.5,6.4-14.8,14.3
		c-0.7,0-1.4,0-2.3-0.1c0.3-9.1,7.9-16.5,17.1-16.5C43.3,14.9,51,22.5,51,32c0,1.9-0.3,3.7-0.9,5.4C49.2,37.2,48.4,37.2,47.7,37.2z
		 M19.1,31.8c0,0.1,0,0.1,0,0.2c0,0.2,0,0.3,0,0.5c-0.7,0-1.4,0-2.3-0.1c0-0.1,0-0.3,0-0.4c0-0.1,0-0.2,0-0.3
		C17.7,31.8,18.4,31.8,19.1,31.8z M16,32.3c-0.6-0.1-1.2-0.2-1.9-0.4c-0.8-0.2-1.5-0.4-2-0.6c0-0.3,0-0.5,0-0.8
		c0.6,0.2,1.3,0.4,2.2,0.6c0.6,0.2,1.2,0.3,1.7,0.3c0,0.1,0,0.3,0,0.4C16,32.1,16,32.2,16,32.3z M13.8,33.2c0.9,0.2,1.6,0.3,2.3,0.4
		c0,0.3,0.1,0.5,0.1,0.8c-0.7-0.1-1.6-0.2-2.5-0.5c-0.6-0.1-1.1-0.3-1.5-0.4c0-0.3,0-0.5,0-0.8C12.6,32.9,13.2,33.1,13.8,33.2z
		 M13.6,34.2c1,0.2,1.9,0.4,2.7,0.5c0,0.3,0.1,0.5,0.1,0.8c-0.8-0.1-1.8-0.2-2.9-0.5c-0.4-0.1-0.8-0.2-1.2-0.3
		c0-0.3-0.1-0.6-0.1-0.8C12.6,34,13.1,34.1,13.6,34.2z M13.4,35.2c1.2,0.3,2.2,0.4,3.1,0.5c0.1,0.3,0.1,0.5,0.2,0.8
		c-0.9-0.1-2-0.2-3.4-0.5c-0.3-0.1-0.5-0.1-0.8-0.2c0-0.3-0.1-0.6-0.1-0.8C12.6,35.1,13,35.2,13.4,35.2z M13.1,36.3
		c1.5,0.3,2.6,0.5,3.6,0.5c0.1,0.3,0.1,0.5,0.2,0.8c-1.1,0-2.3-0.2-4-0.6c-0.1,0-0.2-0.1-0.3-0.1c-0.1-0.3-0.1-0.6-0.2-0.8
		C12.7,36.1,12.9,36.2,13.1,36.3z M12.9,37.3c1.7,0.4,3,0.5,4.1,0.6c0.1,0.3,0.2,0.5,0.3,0.8c-1.1,0-2.5-0.1-4.4-0.5
		c-0.1-0.3-0.1-0.6-0.2-0.8C12.8,37.2,12.8,37.2,12.9,37.3z M17.4,38.8c0.1,0.2,0.2,0.5,0.3,0.7c-1.2,0.1-2.5,0-4.4-0.4
		c-0.1-0.3-0.2-0.6-0.3-0.9C14.9,38.8,16.2,38.9,17.4,38.8z M17.8,39.8c0.1,0.2,0.2,0.5,0.3,0.7c-1.2,0.1-2.5,0.1-4.5-0.2
		c-0.1-0.3-0.2-0.6-0.3-0.8C15.3,39.9,16.7,39.9,17.8,39.8z M18.3,40.8c0.1,0.2,0.3,0.5,0.4,0.7c-0.1,0-0.3,0-0.4,0
		c-1.2,0.1-2.4,0.2-4.1,0c-0.1-0.3-0.3-0.6-0.4-0.8C15.8,40.9,17.1,40.9,18.3,40.8z M18.4,41.8c0.2,0,0.3,0,0.5,0
		c3.2,4.9,8.7,8.1,15,8.1c3.1,0,6-0.8,8.5-2.2c0.3,0,0.6,0,0.8-0.1c1.5-0.1,3-0.2,5.5,0.3c-3.9,3.7-9.1,5.9-14.9,5.9
		c-8.5,0-15.9-4.9-19.5-12.1C16.1,41.9,17.3,41.8,18.4,41.8z M49.8,46.8c-2.4-0.6-4-0.6-5.3-0.5c0.3-0.2,0.7-0.5,1-0.8
		c1.2,0,2.6,0.1,4.6,0.6c0.1,0,0.2,0.1,0.3,0.1C50.2,46.4,50,46.6,49.8,46.8z M50.2,45.8c-1.9-0.4-3.2-0.6-4.4-0.6
		c0.3-0.2,0.5-0.5,0.8-0.7c1,0,2.2,0.2,3.8,0.6c0.3,0.1,0.5,0.1,0.8,0.2c-0.2,0.2-0.3,0.5-0.5,0.7C50.5,45.9,50.3,45.9,50.2,45.8z
		 M50.4,44.8c-1.5-0.3-2.6-0.5-3.6-0.5c0.2-0.2,0.4-0.5,0.7-0.7c0.9,0.1,1.9,0.2,3.1,0.5c0.4,0.1,0.8,0.2,1.2,0.3
		c-0.2,0.2-0.3,0.4-0.5,0.7C51,45,50.7,44.9,50.4,44.8z M50.6,43.8c-1.2-0.3-2.1-0.4-3-0.5c0.2-0.2,0.4-0.5,0.5-0.7
		c0.8,0.1,1.6,0.2,2.6,0.5c0.6,0.1,1.1,0.3,1.6,0.4c-0.1,0.2-0.3,0.5-0.4,0.7C51.6,44,51.1,43.9,50.6,43.8z M50.9,42.8
		c-1-0.2-1.8-0.4-2.5-0.4c0.2-0.2,0.3-0.5,0.5-0.7c0.6,0.1,1.4,0.2,2.2,0.4c0.7,0.2,1.3,0.3,1.9,0.5c-0.1,0.2-0.3,0.5-0.4,0.7
		C52,43.1,51.5,42.9,50.9,42.8z M51.1,41.8c-0.8-0.2-1.5-0.3-2.1-0.4c0.1-0.2,0.3-0.5,0.4-0.7c0.6,0.1,1.2,0.2,1.8,0.4
		c0.8,0.2,1.5,0.4,2.1,0.6c-0.1,0.2-0.2,0.5-0.3,0.7C52.5,42.1,51.9,42,51.1,41.8z M51.3,40.8c-0.6-0.2-1.2-0.3-1.8-0.3
		c0.1-0.2,0.2-0.5,0.4-0.7c0.5,0.1,1,0.2,1.6,0.3c0.9,0.2,1.7,0.4,2.3,0.7c-0.1,0.2-0.2,0.5-0.3,0.7C52.9,41.2,52.2,41,51.3,40.8z
		 M51.6,39.8c-0.6-0.1-1.1-0.2-1.5-0.3c0.1-0.2,0.2-0.5,0.3-0.7c0.4,0.1,0.9,0.2,1.4,0.3c1,0.2,1.8,0.5,2.5,0.7
		c-0.1,0.2-0.2,0.5-0.3,0.7C53.3,40.2,52.5,40,51.6,39.8z M51.8,38.8c-0.5-0.1-0.9-0.2-1.3-0.3c0.1-0.2,0.2-0.5,0.3-0.7
		c0.4,0.1,0.8,0.2,1.3,0.3c1,0.2,1.9,0.5,2.6,0.8c-0.1,0.2-0.2,0.5-0.3,0.7C53.6,39.2,52.8,39,51.8,38.8z M52.1,37.8
		c-0.4-0.1-0.8-0.2-1.2-0.3c0.6-1.7,0.9-3.6,0.9-5.5c0-9.8-8-17.9-17.9-17.9c-9.6,0-17.4,7.6-17.8,17.1c-0.5-0.1-1.1-0.2-1.7-0.3
		c-0.9-0.2-1.6-0.4-2.2-0.6C13,19.1,22.5,10.2,33.9,10.2c12,0,21.8,9.8,21.8,21.8c0,2.3-0.4,4.5-1,6.5C53.9,38.3,53.1,38,52.1,37.8z
		 M10,29.7c0.5,0.2,1,0.5,1.6,0.7c0,0.3,0,0.5,0,0.8c-0.6-0.2-1.2-0.5-1.7-0.7C9.9,30.2,9.9,29.9,10,29.7z M9.9,30.8
		c0.5,0.2,1,0.5,1.7,0.7c0,0.2,0,0.4,0,0.5c0,0.1,0,0.2,0,0.3c-0.6-0.2-1.2-0.5-1.7-0.7C9.9,31.3,9.9,31,9.9,30.8z M9.8,32
		c0,0,0-0.1,0-0.1c0.5,0.2,1.1,0.5,1.7,0.7c0,0.3,0,0.6,0,0.8c-0.7-0.2-1.2-0.5-1.7-0.7C9.8,32.5,9.8,32.2,9.8,32z M9.9,33
		c0.5,0.2,1.1,0.5,1.7,0.7c0,0.3,0,0.6,0.1,0.8c-0.7-0.2-1.2-0.4-1.7-0.7C9.9,33.6,9.9,33.3,9.9,33z M9.9,34.1
		c0.5,0.2,1.1,0.4,1.8,0.7c0,0.3,0.1,0.6,0.1,0.8c-0.7-0.2-1.3-0.4-1.8-0.6C10,34.7,10,34.4,9.9,34.1z M10.1,35.3
		c0.5,0.2,1.1,0.4,1.8,0.6c0.1,0.3,0.1,0.6,0.2,0.8c-0.7-0.2-1.3-0.4-1.8-0.6C10.2,35.9,10.1,35.6,10.1,35.3z M10.3,36.5
		c0.5,0.2,1.2,0.4,1.9,0.6c0.1,0.3,0.1,0.6,0.2,0.9c-0.7-0.2-1.3-0.4-1.9-0.6C10.4,37.1,10.3,36.8,10.3,36.5z M10.5,37.7
		c0.6,0.2,1.2,0.4,1.9,0.5c0.1,0.3,0.2,0.6,0.3,0.9c-0.1,0-0.1,0-0.2,0c-0.6-0.2-1.2-0.3-1.7-0.5C10.7,38.3,10.6,38,10.5,37.7z
		 M10.8,38.8c0.5,0.1,1,0.3,1.6,0.4c0.1,0,0.2,0.1,0.4,0.1c0.1,0.3,0.2,0.6,0.3,0.9c-0.3-0.1-0.6-0.1-0.9-0.2
		c-0.4-0.1-0.8-0.2-1.1-0.3C11,39.4,10.9,39.1,10.8,38.8z M11.2,40c0.3,0.1,0.6,0.2,0.9,0.2c0.4,0.1,0.7,0.2,1,0.2
		c0.1,0.3,0.3,0.6,0.4,0.9c-0.5-0.1-1-0.2-1.6-0.3c-0.2,0-0.3-0.1-0.4-0.1C11.4,40.6,11.3,40.3,11.2,40z M33.9,56
		c-10,0-18.6-6.1-22.2-14.8c0.1,0,0.2,0,0.3,0.1c0.7,0.2,1.2,0.3,1.8,0.4c3.6,7.5,11.2,12.7,20.1,12.7c6.1,0,11.5-2.4,15.6-6.3
		c0.1,0,0.1,0,0.2,0c0.6,0.1,1.2,0.3,1.7,0.5C46.9,53.2,40.7,56,33.9,56z M51.5,48.3c-0.5-0.2-1.1-0.3-1.8-0.5c0,0,0,0,0,0
		c0.2-0.2,0.4-0.4,0.6-0.6c0.7,0.2,1.3,0.3,1.8,0.5C51.9,47.9,51.7,48.1,51.5,48.3z M52.2,47.5c-0.5-0.2-1.1-0.4-1.8-0.5
		c0.2-0.2,0.4-0.4,0.6-0.6c0.6,0.2,1.2,0.4,1.7,0.6C52.6,47.1,52.4,47.3,52.2,47.5z M52.9,46.6c-0.5-0.2-1.1-0.4-1.7-0.6
		c0.2-0.2,0.3-0.4,0.5-0.7c0.6,0.2,1.2,0.4,1.7,0.6C53.2,46.2,53.1,46.4,52.9,46.6z M53.5,45.8c-0.5-0.2-1-0.4-1.7-0.6
		c0.2-0.2,0.3-0.4,0.5-0.7c0.6,0.2,1.1,0.4,1.6,0.6C53.8,45.4,53.7,45.6,53.5,45.8z M54.1,44.9c-0.5-0.2-1-0.4-1.6-0.6
		c0.1-0.2,0.3-0.5,0.4-0.7c0.6,0.2,1.1,0.4,1.6,0.6C54.4,44.5,54.3,44.7,54.1,44.9z M54.7,44.1c-0.5-0.2-1-0.4-1.6-0.6
		c0.1-0.2,0.3-0.4,0.4-0.7c0.6,0.2,1.1,0.4,1.6,0.7C54.9,43.6,54.8,43.8,54.7,44.1z M55.1,43.2c-0.5-0.2-1-0.4-1.6-0.7
		c0.1-0.2,0.2-0.5,0.3-0.7c0.6,0.2,1.1,0.4,1.6,0.7C55.4,42.7,55.3,43,55.1,43.2z M55.6,42.3c-0.5-0.2-1-0.5-1.6-0.7
		c0.1-0.2,0.2-0.5,0.3-0.7c0.6,0.2,1.1,0.5,1.5,0.7C55.8,41.8,55.7,42,55.6,42.3z M56,41.4c-0.5-0.2-0.9-0.5-1.5-0.7
		c0.1-0.2,0.2-0.5,0.3-0.7c0.6,0.2,1.1,0.5,1.5,0.7C56.2,40.9,56.1,41.1,56,41.4z M56.4,40.4c-0.5-0.2-1-0.5-1.5-0.7
		c0.1-0.2,0.2-0.5,0.3-0.7c0.6,0.2,1.1,0.5,1.5,0.7C56.5,39.9,56.5,40.2,56.4,40.4z"/>
</g>
</svg>
