<?xml version="1.0" encoding="utf-8"?>
<!-- Generator: Adobe Illustrator 19.0.0, SVG Export Plug-In . SVG Version: 6.00 Build 0)  -->
<svg version="1.1" id="图层_1" xmlns="http://www.w3.org/2000/svg" xmlns:xlink="http://www.w3.org/1999/xlink" x="0px" y="0px"
	 viewBox="0 0 64 64" style="enable-background:new 0 0 64 64;" xml:space="preserve">
<style type="text/css">
	.st0{fill:#040000;}
</style>
<path class="st0" d="M39.9,52.3L22.9,8.5l0,0c-0.4-1.2-1.5-1.9-2.8-1.9c-1.2,0-2.3,0.8-2.8,1.9l0,0L0.4,52.3l0,0
	c-0.1,0.3-0.2,0.7-0.2,1.1c-0.6,1.5,0.2,3.3,1.7,3.9c1.5,0.6,3.3-0.2,3.9-1.7C5.9,55.2,6,54.8,6,54.5l0,0l3.9-10h20.5l3.9,10l0,0
	c0.6,1.5,2.3,2.3,3.9,1.7c1.2-0.4,1.9-1.6,1.9-2.8C40.1,53,40,52.7,39.9,52.3L39.9,52.3L39.9,52.3z M12.2,38.4l8-20.6l8,20.6H12.2z
	 M61,28.5H43.1c-1.7,0-3,1.3-3,3s1.3,3,3,3H61c1.7,0,3-1.3,3-3S62.7,28.5,61,28.5z"/>
</svg>
