<?xml version="1.0" encoding="utf-8"?>
<!-- Generator: Adobe Illustrator 19.0.0, SVG Export Plug-In . SVG Version: 6.00 Build 0)  -->
<svg version="1.1" id="图层_1" xmlns="http://www.w3.org/2000/svg" xmlns:xlink="http://www.w3.org/1999/xlink" x="0px" y="0px"
	 viewBox="0 0 64 64" style="enable-background:new 0 0 64 64;" xml:space="preserve">
<style type="text/css">
	.st0{fill:#040000;}
</style>
<path id="XMLID_1340_" class="st0" d="M64,19.8c0-4.8-1.9-9.2-5.3-12.6C55.3,3.9,50.8,2,46,2c-5.5,0-10.7,2.5-14,6.8
	C28.6,4.5,23.5,2,18,2C13.2,2,8.7,3.9,5.3,7.2C1.9,10.6,0,15.1,0,19.8c0,0.1,0,0.1,0,0.2c0,4.9,1.7,10.2,5,15.7
	c2.6,4.3,6.2,8.7,10.6,13.2c7.6,7.6,15,12.6,15.3,12.8c0.3,0.2,0.7,0.3,1.1,0.3c0.4,0,0.8-0.1,1.1-0.3c0.3-0.2,7.8-5.2,15.3-12.8
	c4.5-4.5,8.1-8.9,10.6-13.2c3.3-5.5,5-10.8,5-15.7C64,19.9,64,19.9,64,19.8z M45.6,46C40,51.6,34.4,55.9,32,57.6
	c-2.4-1.7-8-5.9-13.6-11.5C11.9,39.5,4.1,29.7,4,20.1C4,20,4,20,4,19.9C4,12.2,10.3,6,18,6c5.1,0,9.8,2.8,12.2,7.2
	c0.2,0.6,0.7,1,1.3,1.2c0.2,0.1,0.4,0.1,0.5,0.1c0.2,0,0.4,0,0.5-0.1c0.6-0.2,1.1-0.6,1.3-1.2C36.3,8.7,41,6,46,6
	C53.7,6,60,12.2,60,19.9c0,0.1,0,0.1,0,0.2C59.9,29.7,52.1,39.5,45.6,46z"/>
</svg>
