<?xml version="1.0" encoding="utf-8"?>
<!-- Generator: Adobe Illustrator 19.0.0, SVG Export Plug-In . SVG Version: 6.00 Build 0)  -->
<svg version="1.1" id="图层_1" xmlns="http://www.w3.org/2000/svg" xmlns:xlink="http://www.w3.org/1999/xlink" x="0px" y="0px"
	 viewBox="0 0 64 64" style="enable-background:new 0 0 64 64;" xml:space="preserve">
<style type="text/css">
	.st0{fill:#040000;}
</style>
<path id="XMLID_1360_" class="st0" d="M64,19.8c0-4.8-1.9-9.2-5.3-12.6C55.3,3.9,50.8,2,46,2c-5.5,0-10.7,2.5-14,6.8
	C28.6,4.5,23.5,2,18,2C13.2,2,8.7,3.9,5.3,7.2C1.9,10.6,0,15.1,0,19.8c0,0.1,0,0.1,0,0.2c0,4.9,1.7,10.2,5,15.7
	c2.6,4.3,6.2,8.7,10.6,13.2c7.6,7.6,15,12.6,15.3,12.8c0.3,0.2,0.7,0.3,1.1,0.3c0.4,0,0.8-0.1,1.1-0.3c0.3-0.2,7.8-5.2,15.3-12.8
	c4.5-4.5,8.1-8.9,10.6-13.2c3.3-5.5,5-10.8,5-15.7C64,19.9,64,19.9,64,19.8z"/>
</svg>
