<?xml version="1.0" encoding="utf-8"?>
<!-- Generator: Adobe Illustrator 19.0.0, SVG Export Plug-In . SVG Version: 6.00 Build 0)  -->
<svg version="1.1" id="图层_1" xmlns="http://www.w3.org/2000/svg" xmlns:xlink="http://www.w3.org/1999/xlink" x="0px" y="0px"
	 viewBox="0 0 64 64" style="enable-background:new 0 0 64 64;" xml:space="preserve">
<style type="text/css">
	.st0{fill:#040000;}
</style>
<g id="XMLID_437_">
	<path id="XMLID_480_" class="st0" d="M54.5,2h-45C4.3,2,0,6.4,0,11.8v29.1c0,5.5,4.4,10.2,9.7,10.2h10.6c2.7,2.8,9.7,10,9.7,10
		c0.5,0.6,1.3,0.9,2.1,0.9c0.8,0,1.6-0.3,2.2-1c0.1-0.1,5.5-6.2,9.3-10h10.9c5.2,0,9.7-4.7,9.7-10.2V11.8C64,6.4,59.7,2,54.5,2z
		 M60,40.8c0,3.3-2.7,6.2-5.7,6.2H41.8l-0.6,0.6c-3.1,3-7.5,7.9-9.3,9.8c-2.1-2.2-7.8-8.1-9.4-9.8L22,47.1H9.7c-3,0-5.7-2.9-5.7-6.2
		V11.8C4,8.6,6.5,6,9.5,6h45c3,0,5.5,2.6,5.5,5.8V40.8z"/>
	<path id="XMLID_481_" class="st0" d="M32,35.9c-1.2,0-2.3,1-2.3,2.3l0,0.1c0,1.2,1,2.3,2.3,2.3c1.2,0,2.3-1,2.3-2.3l0-0.1
		C34.2,36.9,33.2,35.9,32,35.9z"/>
	<path id="XMLID_482_" class="st0" d="M32,14.2c-4.8,0-8.6,3.8-8.7,8.6v0c0,0,0,0,0,0c0,1,0.9,1.9,1.9,1.9s1.9-0.8,1.9-1.9h0
		c0-2.7,2.2-4.8,4.8-4.8c2.7,0,4.8,2.2,4.8,4.8s-2.2,4.8-4.8,4.8v0h0c-1.1,0-1.9,0.9-1.9,1.9v2.6c0,1.1,0.9,1.9,1.9,1.9
		c1.1,0,1.9-0.9,1.9-1.9v-0.9c3.9-0.9,6.8-4.3,6.8-8.5C40.7,18.1,36.8,14.2,32,14.2z"/>
</g>
</svg>
