<?xml version="1.0" encoding="utf-8"?>
<!-- Generator: Adobe Illustrator 19.0.0, SVG Export Plug-In . SVG Version: 6.00 Build 0)  -->
<svg version="1.1" id="图层_1" xmlns="http://www.w3.org/2000/svg" xmlns:xlink="http://www.w3.org/1999/xlink" x="0px" y="0px"
	 viewBox="0 0 64 64" style="enable-background:new 0 0 64 64;" xml:space="preserve">
<style type="text/css">
	.st0{fill:#040000;}
</style>
<g id="XMLID_705_">
	<path id="XMLID_715_" class="st0" d="M26.1,10.6h11.7c1.3,0,2.3-1,2.3-2.3c0-1.3-1-2.3-2.3-2.3H26.1c-1.3,0-2.3,1-2.3,2.3
		C23.9,9.5,24.9,10.6,26.1,10.6z"/>
	<path id="XMLID_714_" class="st0" d="M52.6,0h-8.4v0c-1.3,0-2.3,1-2.3,2.3c0,1.3,1,2.3,2.3,2.3v0h8.4c2.5,0,4.6,2,4.6,4.6v45.7
		c0,2.5-2,4.6-4.6,4.6H11.4c-2.5,0-4.6-2-4.6-4.6V9.1c0-1.6,0.8-3,2-3.8c0.7-0.5,1.6-0.8,2.6-0.8h8.3v0c1.3,0,2.3-1,2.3-2.3
		C22,1,21,0,19.7,0v0h-8.3h0C9.5,0,7.8,0.6,6.3,1.6c-2.4,1.6-4,4.4-4,7.6v45.7c0,5,4.1,9.1,9.1,9.1h41.1c5,0,9.1-4.1,9.1-9.1V9.1
		C61.7,4.1,57.6,0,52.6,0z"/>
	<path id="XMLID_706_" class="st0" d="M32,15.8c-6,0-10.9,4.9-10.9,10.9c0,2.9,1.2,5.6,3.1,7.6c-4.2,1.3-7.3,5.3-7.3,10v4.1
		c0,3.4,2.8,6.1,6.1,6.1H41c3.4,0,6.1-2.8,6.2-6.1v-4.1c0-4.7-3.1-8.7-7.3-10c1.9-2,3.1-4.6,3.1-7.6C42.9,20.6,38,15.8,32,15.8z
		 M32,19.5c3.9,0,7.1,3.2,7.1,7.1c0,3.9-3.2,7.1-7.1,7.1s-7.1-3.2-7.1-7.1C24.9,22.7,28.1,19.5,32,19.5z M43.3,44.2v4.1
		c0,1.3-1.1,2.4-2.4,2.4H23c-1.3,0-2.4-1.1-2.4-2.4v-4.1c0-3.7,3-6.7,6.7-6.7h9.2C40.3,37.5,43.3,40.5,43.3,44.2z"/>
</g>
</svg>
