<?xml version="1.0" encoding="utf-8"?>
<!-- Generator: Adobe Illustrator 19.0.0, SVG Export Plug-In . SVG Version: 6.00 Build 0)  -->
<svg version="1.1" id="图层_1" xmlns="http://www.w3.org/2000/svg" xmlns:xlink="http://www.w3.org/1999/xlink" x="0px" y="0px"
	 viewBox="0 0 64 64" style="enable-background:new 0 0 64 64;" xml:space="preserve">
<style type="text/css">
	.st0{fill:#040000;}
</style>
<g id="XMLID_934_">
	<path id="XMLID_937_" class="st0" d="M32,0C14.3,0,0,14.3,0,32s14.3,32,32,32s32-14.3,32-32S49.7,0,32,0z M32,59.4
		C16.9,59.4,4.6,47.1,4.6,32C4.6,16.9,16.9,4.6,32,4.6c15.1,0,27.4,12.3,27.4,27.4C59.4,47.1,47.1,59.4,32,59.4z"/>
	<path id="XMLID_936_" class="st0" d="M32,27.7L32,27.7c-1.3,0-2.3,1-2.3,2.3v15.3c0,1.3,1,2.3,2.3,2.3h0c1.3,0,2.3-1,2.3-2.3V29.9
		C34.3,28.7,33.3,27.7,32,27.7z"/>
	<path id="XMLID_935_" class="st0" d="M32,16.5L32,16.5c-2,0-3.7,1.7-3.7,3.7s1.6,3.7,3.7,3.7h0c2,0,3.7-1.7,3.7-3.7
		S34,16.5,32,16.5z"/>
</g>
</svg>
