<?xml version="1.0" encoding="utf-8"?>
<!-- Generator: Adobe Illustrator 19.0.0, SVG Export Plug-In . SVG Version: 6.00 Build 0)  -->
<svg version="1.1" id="图层_1" xmlns="http://www.w3.org/2000/svg" xmlns:xlink="http://www.w3.org/1999/xlink" x="0px" y="0px"
	 viewBox="0 0 64 64" style="enable-background:new 0 0 64 64;" xml:space="preserve">
<g id="XMLID_1_">
	<path id="XMLID_2_" d="M2,9h60c1.1,0,2-0.9,2-2s-0.9-2-2-2H2C0.9,5,0,5.9,0,7S0.9,9,2,9z"/>
	<path id="XMLID_11_" d="M2,25.7h16.2c1.1,0,2-0.9,2-2s-0.9-2-2-2H2c-1.1,0-2,0.9-2,2S0.9,25.7,2,25.7z"/>
	<path id="XMLID_12_" d="M2,42.3h12.2c1.1,0,2-0.9,2-2s-0.9-2-2-2H2c-1.1,0-2,0.9-2,2S0.9,42.3,2,42.3z"/>
	<path id="XMLID_13_" d="M27.7,55H2c-1.1,0-2,0.9-2,2s0.9,2,2,2h25.7c1.1,0,2-0.9,2-2S28.8,55,27.7,55z"/>
	<path id="XMLID_16_" d="M54.5,47c6.1-7.6,5.7-18.7-1.3-25.8c-7.5-7.5-19.8-7.5-27.3,0c-7.5,7.5-7.5,19.8,0,27.3
		c3.8,3.8,8.7,5.6,13.6,5.6c4.3,0,8.6-1.4,12.1-4.3l8.6,8.6c0.4,0.4,0.9,0.6,1.4,0.6s1-0.2,1.4-0.6c0.8-0.8,0.8-2,0-2.8L54.5,47z
		 M50.3,45.6c-6,6-15.7,6-21.6,0c-6-6-6-15.7,0-21.6c3-3,6.9-4.5,10.8-4.5c3.9,0,7.8,1.5,10.8,4.5C56.3,30,56.3,39.7,50.3,45.6z"/>
</g>
</svg>
