<?xml version="1.0" encoding="utf-8"?>
<!-- Generator: Adobe Illustrator 19.0.0, SVG Export Plug-In . SVG Version: 6.00 Build 0)  -->
<svg version="1.1" id="图层_1" xmlns="http://www.w3.org/2000/svg" xmlns:xlink="http://www.w3.org/1999/xlink" x="0px" y="0px"
	 viewBox="0 0 64 64" style="enable-background:new 0 0 64 64;" xml:space="preserve">
<style type="text/css">
	.st0{fill:#040000;}
</style>
<g id="XMLID_498_">
	<path id="XMLID_499_" class="st0" d="M8.8,8H3.2C1.4,8,0,9.4,0,11.2v0.5c0,1.8,1.4,3.2,3.2,3.2h5.6c1.8,0,3.2-1.4,3.2-3.2v-0.5
		C12,9.4,10.6,8,8.8,8z"/>
	<path id="XMLID_502_" class="st0" d="M60.8,8H21.2C19.4,8,18,9.4,18,11.2v0.5c0,1.8,1.4,3.2,3.2,3.2h39.6c1.8,0,3.2-1.4,3.2-3.2
		v-0.5C64,9.4,62.6,8,60.8,8z"/>
	<path id="XMLID_503_" class="st0" d="M8.8,28.6H3.2C1.4,28.6,0,30,0,31.8v0.5c0,1.8,1.4,3.2,3.2,3.2h5.6c1.8,0,3.2-1.4,3.2-3.2
		v-0.5C12,30,10.6,28.6,8.8,28.6z"/>
	<path id="XMLID_510_" class="st0" d="M60.8,28.6H21.2c-1.8,0-3.2,1.4-3.2,3.2v0.5c0,1.8,1.4,3.2,3.2,3.2h39.6
		c1.8,0,3.2-1.4,3.2-3.2v-0.5C64,30,62.6,28.6,60.8,28.6z"/>
	<path id="XMLID_511_" class="st0" d="M8.8,49.1H3.2c-1.8,0-3.2,1.4-3.2,3.2v0.5C0,54.6,1.4,56,3.2,56h5.6c1.8,0,3.2-1.4,3.2-3.2
		v-0.5C12,50.6,10.6,49.1,8.8,49.1z"/>
	<path id="XMLID_512_" class="st0" d="M60.8,49.1H21.2c-1.8,0-3.2,1.4-3.2,3.2v0.5c0,1.8,1.4,3.2,3.2,3.2h39.6
		c1.8,0,3.2-1.4,3.2-3.2v-0.5C64,50.6,62.6,49.1,60.8,49.1z"/>
</g>
</svg>
