<?xml version="1.0" encoding="utf-8"?>
<!-- Generator: Adobe Illustrator 19.0.0, SVG Export Plug-In . SVG Version: 6.00 Build 0)  -->
<svg version="1.1" id="图层_1" xmlns="http://www.w3.org/2000/svg" xmlns:xlink="http://www.w3.org/1999/xlink" x="0px" y="0px"
	 viewBox="0 0 64 64" style="enable-background:new 0 0 64 64;" xml:space="preserve">
<style type="text/css">
	.st0{fill:#040000;}
</style>
<path id="XMLID_1516_" class="st0" d="M32,0C14.6,0,0.4,13.9,0,31.2C0.4,16.1,11.9,4,26,4c14.4,0,26,12.5,26,28c0,3.3,2.7,6,6,6
	s6-2.7,6-6C64,14.3,49.7,0,32,0z M32,64c17.4,0,31.6-13.9,32-31.2C63.6,47.9,52.1,60,38,60c-14.4,0-26-12.5-26-28c0-3.3-2.7-6-6-6
	s-6,2.7-6,6C0,49.7,14.3,64,32,64z"/>
</svg>
