<?xml version="1.0" encoding="utf-8"?>
<!-- Generator: Adobe Illustrator 19.0.0, SVG Export Plug-In . SVG Version: 6.00 Build 0)  -->
<svg version="1.1" id="图层_1" xmlns="http://www.w3.org/2000/svg" xmlns:xlink="http://www.w3.org/1999/xlink" x="0px" y="0px"
	 viewBox="0 0 64 64" style="enable-background:new 0 0 64 64;" xml:space="preserve">
<style type="text/css">
	.st0{fill:#040000;}
</style>
<path id="XMLID_29_" class="st0" d="M56,60H8c-4.4,0-8-3.6-8-8l0-40c0-4.4,3.6-8,8-8h48c4.4,0,8,3.6,8,8v4v1.3V52
	C64,56.4,60.4,60,56,60z M8,56h48c2.2,0,4-1.8,4-4v-1.3L45.8,32.5l-4.2,3.1c-7.1,4.7-12.5,4.5-19.3,0l-3-2.2L4.1,52.6
	C4.4,54.5,6,56,8,56z M16.1,31L4,20.2v26.9L16.1,31z M60,12c0-2.2-1.8-4-4-4H8c-2.2,0-4,1.8-4,4v3.6l21.2,17.2c4.2,3,9.1,3.1,13.7,0
	L60,15.6L60,12L60,12z M49,30.2l11,15V20.2L49,30.2z"/>
</svg>
