<?xml version="1.0" encoding="utf-8"?>
<!-- Generator: Adobe Illustrator 19.0.0, SVG Export Plug-In . SVG Version: 6.00 Build 0)  -->
<svg version="1.1" id="图层_1" xmlns="http://www.w3.org/2000/svg" xmlns:xlink="http://www.w3.org/1999/xlink" x="0px" y="0px"
	 viewBox="0 0 64 64" style="enable-background:new 0 0 64 64;" xml:space="preserve">
<style type="text/css">
	.st0{fill:#040000;}
</style>
<path id="XMLID_513_" class="st0" d="M56,4H8c-4.4,0-8,3.6-8,8V52c0,4.4,3.6,8,8,8H56c4.4,0,8-3.6,8-8V12C64,7.6,60.4,4,56,4z
	 M60,20.2l-11,10l11,15v5.5L45.8,32.5l-4.2,3.1c-7.1,4.7-12.5,4.5-19.3,0l-3-2.2L4.1,52.6L4,51.8v-4.8L16.1,31L4,20.2v-4.6
	l21.2,17.2c4.2,3,9.1,3.1,13.7,0L60,15.6V20.2z"/>
</svg>
