<?xml version="1.0" encoding="utf-8"?>
<!-- Generator: Adobe Illustrator 19.0.0, SVG Export Plug-In . SVG Version: 6.00 Build 0)  -->
<svg version="1.1" id="图层_1" xmlns="http://www.w3.org/2000/svg" xmlns:xlink="http://www.w3.org/1999/xlink" x="0px" y="0px"
	 viewBox="0 0 64 64" style="enable-background:new 0 0 64 64;" xml:space="preserve">
<style type="text/css">
	.st0{fill:#040000;}
</style>
<path id="XMLID_1423_" class="st0" d="M32,0C17.9,0,6.4,11.5,6.4,25.6c0,5.7,3.7,13.5,11.1,23.4C23,56.3,28.4,62.1,29,62.7
	c0.8,0.8,1.8,1.3,3,1.3h0c1.1,0,2.2-0.5,3-1.4l7.3-8.4l0,0c4.9-6,8.7-11.5,11.2-16.1c2.6-4.8,3.9-9,3.9-12.5C57.6,11.5,46.1,0,32,0z
	 M32,37.5c-6.6,0-12-5.4-12-12c0-6.6,5.4-12,12-12c6.6,0,12,5.4,12,12C44,32.2,38.6,37.5,32,37.5z"/>
</svg>
