<?xml version="1.0" encoding="utf-8"?>
<!-- Generator: Adobe Illustrator 19.0.0, SVG Export Plug-In . SVG Version: 6.00 Build 0)  -->
<svg version="1.1" id="图层_1" xmlns="http://www.w3.org/2000/svg" xmlns:xlink="http://www.w3.org/1999/xlink" x="0px" y="0px"
	 viewBox="0 0 64 64" style="enable-background:new 0 0 64 64;" xml:space="preserve">
<style type="text/css">
	.st0{fill:#040000;}
</style>
<path id="XMLID_1172_" class="st0" d="M59.7,13.9C56.9,9.6,53,6.3,48.1,3.8C43.1,1.3,37.8,0,32,0S20.9,1.3,15.9,3.8
	S7.1,9.6,4.3,13.9S0,22.9,0,28c0,4.3,1.1,8.4,3.2,12.2c2.1,3.8,5.1,7,8.8,9.6V64l14-8.5c2,0.3,4,0.5,6,0.5c5.8,0,11.1-1.3,16.1-3.8
	c4.9-2.5,8.8-5.9,11.7-10.2c2.9-4.3,4.3-9,4.3-14.1C64,22.9,62.6,18.2,59.7,13.9z M18.8,30.8C18,31.6,17.1,32,16,32
	c-1.1,0-2-0.4-2.8-1.2C12.4,30,12,29.1,12,28c0-1.1,0.4-2,1.2-2.8S14.9,24,16,24s2,0.4,2.8,1.2C19.6,26,20,26.9,20,28
	C20,29.1,19.6,30,18.8,30.8z M34.8,30.8C34,31.6,33.1,32,32,32c-1.1,0-2-0.4-2.8-1.2C28.4,30,28,29.1,28,28c0-1.1,0.4-2,1.2-2.8
	S30.9,24,32,24c1.1,0,2,0.4,2.8,1.2C35.6,26,36,26.9,36,28C36,29.1,35.6,30,34.8,30.8z M50.8,30.8C50,31.6,49.1,32,48,32
	c-1.1,0-2-0.4-2.8-1.2C44.4,30,44,29.1,44,28c0-1.1,0.4-2,1.2-2.8S46.9,24,48,24s2,0.4,2.8,1.2C51.6,26,52,26.9,52,28
	C52,29.1,51.6,30,50.8,30.8z"/>
</svg>
