<?xml version="1.0" encoding="utf-8"?>
<!-- Generator: Adobe Illustrator 19.0.0, SVG Export Plug-In . SVG Version: 6.00 Build 0)  -->
<svg version="1.1" id="图层_1" xmlns="http://www.w3.org/2000/svg" xmlns:xlink="http://www.w3.org/1999/xlink" x="0px" y="0px"
	 viewBox="0 0 64 64" style="enable-background:new 0 0 64 64;" xml:space="preserve">
<style type="text/css">
	.st0{fill:#040000;}
</style>
<path id="XMLID_452_" class="st0" d="M51.6,1.5C50.7,0.5,49.4,0,48.1,0H15.9c-2.8,0-5,2.3-5,5v54c0,2.8,2.3,5,5,5h32.2
	c2.8,0,5-2.3,5-5V5C53.1,3.7,52.6,2.4,51.6,1.5z M32,57.9c-1.8,0-3.3-1.5-3.3-3.3s1.5-3.3,3.3-3.3s3.3,1.5,3.3,3.3
	S33.8,57.9,32,57.9z M49.6,45.3H14.4V5c0-0.8,0.7-1.5,1.5-1.5h32.2c0.8,0,1.5,0.7,1.5,1.5V45.3z"/>
</svg>
