<?xml version="1.0" encoding="utf-8"?>
<!-- Generator: Adobe Illustrator 19.0.0, SVG Export Plug-In . SVG Version: 6.00 Build 0)  -->
<svg version="1.1" id="图层_1" xmlns="http://www.w3.org/2000/svg" xmlns:xlink="http://www.w3.org/1999/xlink" x="0px" y="0px"
	 viewBox="0 0 64 64" style="enable-background:new 0 0 64 64;" xml:space="preserve">
<style type="text/css">
	.st0{fill:#070001;}
</style>
<g id="XMLID_1560_">
	<path id="XMLID_1584_" class="st0" d="M62,46.7c1.1,0,2-0.9,2-2s-0.9-2-2-2h-7.5l8.1-8.1c0.8-0.8,0.8-2,0-2.8s-2-0.8-2.8,0L52.5,39
		l-7.3-7.3c-0.8-0.8-2-0.8-2.8,0s-0.8,2,0,2.8l8.1,8.1H43c-1.1,0-2,0.9-2,2s0.9,2,2,2h7.5v4.7H43c-1.1,0-2,0.9-2,2s0.9,2,2,2h7.5V62
		c0,1.1,0.9,2,2,2s2-0.9,2-2v-6.7H62c1.1,0,2-0.9,2-2s-0.9-2-2-2h-7.5v-4.7H62V46.7z"/>
	<path id="XMLID_1583_" class="st0" d="M29.8,11.4H13.2c-1.1,0-2,0.9-2,2s0.9,2,2,2h16.5c1.1,0,2-0.9,2-2S30.9,11.4,29.8,11.4z"/>
	<path id="XMLID_1582_" class="st0" d="M29.8,35.7H13.2c-1.1,0-2,0.9-2,2s0.9,2,2,2h16.5c1.1,0,2-0.9,2-2S30.9,35.7,29.8,35.7z"/>
	<path id="XMLID_1581_" class="st0" d="M29.8,23.6H13.2c-1.1,0-2,0.9-2,2s0.9,2,2,2h16.5c1.1,0,2-0.9,2-2S30.9,23.6,29.8,23.6z"/>
	<path id="XMLID_1561_" class="st0" d="M53.3,0H10.7C4.8,0,0,4.8,0,10.7v42.6C0,59.2,4.8,64,10.7,64H37c1.1,0,2-0.9,2-2s-0.9-2-2-2
		H10.7C7,60,4,57,4,53.3V10.7C4,7,7,4,10.7,4h42.6C57,4,60,7,60,10.7v14.9c0,1.1,0.9,2,2,2s2-0.9,2-2V10.7C64,4.8,59.2,0,53.3,0z"/>
</g>
</svg>
