<?xml version="1.0" encoding="utf-8"?>
<!-- Generator: Adobe Illustrator 19.0.0, SVG Export Plug-In . SVG Version: 6.00 Build 0)  -->
<svg version="1.1" id="图层_1" xmlns="http://www.w3.org/2000/svg" xmlns:xlink="http://www.w3.org/1999/xlink" x="0px" y="0px"
	 viewBox="0 0 64 64" style="enable-background:new 0 0 64 64;" xml:space="preserve">
<style type="text/css">
	.st0{fill:#040000;}
</style>
<path id="XMLID_1184_" class="st0" d="M59.5,9.9C59.5,9.9,59.5,9.9,59.5,9.9C59.5,9.8,59.5,9.8,59.5,9.9C59.5,9.8,59.5,9.8,59.5,9.9
	C59.5,9.8,59.5,9.8,59.5,9.9c-6-6-15.7-6-21.7,0c0,0-0.1,0.1-0.1,0.1c0,0-0.1,0.1-0.1,0.1L15.1,32.6c-3.9,3.9-3.9,10.1,0,14
	c0,0,0,0,0,0c0,0,0,0,0,0c0,0,0,0,0,0c0,0,0,0,0,0c1.9,1.9,4.5,2.9,7,2.9c2.4,0,4.8-0.9,6.7-2.6c0,0,0.1-0.1,0.1-0.1l0.1-0.1
	c0,0,0,0,0,0c0,0,0,0,0,0l20-20c0.8-0.8,0.8-2.1,0-2.9c-0.8-0.8-2.1-0.8-2.9,0l-20,20c-2.3,2.3-6,2.3-8.3,0c-2.3-2.3-2.3-6,0-8.3
	L40.5,13c0,0,0.1-0.1,0.1-0.1c0,0,0.1-0.1,0.1-0.1c4.4-4.4,11.5-4.4,15.9,0c2.1,2.1,3.3,5,3.3,8c0,3-1.2,5.8-3.3,8L32.1,53.2
	c0,0,0,0,0,0C29,56.3,24.9,58,20.5,58c-4.4,0-8.5-1.7-11.6-4.8C5.7,50.1,4,46,4,41.6c0-4.4,1.7-8.5,4.8-11.6c0,0,0-0.1,0.1-0.1
	c0,0,0.1,0,0.1-0.1L33.4,5.4c0.8-0.8,0.8-2.1,0-2.9c-0.8-0.8-2.1-0.8-2.9,0L6.2,27c0,0,0,0.1-0.1,0.1c0,0-0.1,0-0.1,0.1
	c-3.9,3.9-6,9-6,14.5C0,47,2.1,52.2,6,56c0,0,0,0,0,0c0,0,0,0,0,0c0,0,0,0,0,0c0,0,0,0,0,0c3.9,3.8,9,6,14.4,6
	c5.5,0,10.6-2.1,14.5-6l24.6-24.6c2.9-2.9,4.5-6.7,4.5-10.8C64,16.6,62.4,12.8,59.5,9.9z"/>
</svg>
