<?xml version="1.0" encoding="utf-8"?>
<!-- Generator: Adobe Illustrator 19.0.0, SVG Export Plug-In . SVG Version: 6.00 Build 0)  -->
<svg version="1.1" id="图层_1" xmlns="http://www.w3.org/2000/svg" xmlns:xlink="http://www.w3.org/1999/xlink" x="0px" y="0px"
	 viewBox="0 0 64 64" style="enable-background:new 0 0 64 64;" xml:space="preserve">
<style type="text/css">
	.st0{fill:#040000;}
</style>
<path id="XMLID_630_" class="st0" d="M55.7,28.2h-3.7v-8.3C51.9,8.9,43,0,32,0C21,0,12.1,8.9,12.1,19.9v8.3H8.3
	c-2,0-3.6,1.6-3.6,3.6v28.7c0,2,1.6,3.6,3.6,3.6h47.3c2,0,3.6-1.6,3.6-3.6V31.8C59.2,29.8,57.6,28.2,55.7,28.2z M32,54.2
	c-4.5,0-8.1-3.6-8.1-8.1S27.5,38,32,38s8.1,3.6,8.1,8.1S36.5,54.2,32,54.2z M48,28.2H16v-8.3c0-8.8,7.2-16,16-16c8.8,0,16,7.2,16,16
	V28.2z"/>
</svg>
