<?xml version="1.0" encoding="utf-8"?>
<!-- Generator: Adobe Illustrator 19.0.0, SVG Export Plug-In . SVG Version: 6.00 Build 0)  -->
<svg version="1.1" id="图层_1" xmlns="http://www.w3.org/2000/svg" xmlns:xlink="http://www.w3.org/1999/xlink" x="0px" y="0px"
	 viewBox="0 0 64 64" style="enable-background:new 0 0 64 64;" xml:space="preserve">
<style type="text/css">
	.st0{fill:#040000;}
</style>
<g id="XMLID_840_">
	<path id="XMLID_844_" class="st0" d="M55.7,28.2h-3.7v-8.3C51.9,8.9,43,0,32,0C21,0,12.1,8.9,12.1,19.9v8.3H8.3
		c-2,0-3.6,1.6-3.6,3.6v28.7c0,2,1.6,3.6,3.6,3.6h47.3c2,0,3.6-1.6,3.6-3.6V31.8C59.2,29.8,57.6,28.2,55.7,28.2z M16,19.9
		c0-8.8,7.2-16,16-16c8.8,0,16,7.2,16,16v8.3H16V19.9z M55.3,60.1H8.7v-28h46.7V60.1z"/>
	<path id="XMLID_841_" class="st0" d="M32,54.2c4.5,0,8.1-3.6,8.1-8.1S36.5,38,32,38s-8.1,3.6-8.1,8.1S27.5,54.2,32,54.2z M32,41.9
		c2.3,0,4.2,1.9,4.2,4.2c0,2.3-1.9,4.2-4.2,4.2s-4.2-1.9-4.2-4.2C27.8,43.8,29.7,41.9,32,41.9z"/>
</g>
</svg>
