<?xml version="1.0" encoding="utf-8"?>
<!-- Generator: Adobe Illustrator 19.0.0, SVG Export Plug-In . SVG Version: 6.00 Build 0)  -->
<svg version="1.1" id="图层_1" xmlns="http://www.w3.org/2000/svg" xmlns:xlink="http://www.w3.org/1999/xlink" x="0px" y="0px"
	 viewBox="0 0 64 64" style="enable-background:new 0 0 64 64;" xml:space="preserve">
<style type="text/css">
	.st0{fill:#040000;}
</style>
<g id="XMLID_782_">
	<path id="XMLID_3_" class="st0" d="M55.6,39.9c-1.1,0-2,0.9-2,2V60H6.5V31.9h29.3c1.1,0,2-0.9,2-2s-0.9-2-2-2H14v-9.5
		c0-8,6.5-14.5,14.5-14.5h2.9c8,0,14.5,6.5,14.5,14.5v1.5h0c0.1,1,0.9,1.8,2,1.8c1.1,0,2-0.9,2-2c0,0,0-0.1,0-0.1v-1.3
		C49.8,8.3,41.5,0,31.4,0h-2.9C18.3,0,10.1,8.3,10.1,18.4v9.5H4.6c-1.1,0-2,0.9-2,2V62c0,1.1,0.9,2,2,2h51c1.1,0,2-0.9,2-2V41.9
		C57.6,40.8,56.7,39.9,55.6,39.9z"/>
	<path id="XMLID_786_" class="st0" d="M60.8,20.8c-0.8-0.8-2-0.8-2.8,0L30.6,48.2c-0.8,0.8-0.8,2,0,2.8s2,0.8,2.8,0l27.4-27.4
		C61.6,22.8,61.6,21.5,60.8,20.8z"/>
</g>
</svg>
