<?xml version="1.0" encoding="utf-8"?>
<!-- Generator: Adobe Illustrator 19.0.0, SVG Export Plug-In . SVG Version: 6.00 Build 0)  -->
<svg version="1.1" id="图层_1" xmlns="http://www.w3.org/2000/svg" xmlns:xlink="http://www.w3.org/1999/xlink" x="0px" y="0px"
	 viewBox="0 0 64 64" style="enable-background:new 0 0 64 64;" xml:space="preserve">
<style type="text/css">
	.st0{fill:#040000;}
</style>
<g id="XMLID_1047_">
	<path id="XMLID_1054_" class="st0" d="M63.9,51.3c-0.6-2.2-3.2-6.5-8.7-6.5H41.9c0,0,0-0.1-0.1-0.1c-2.4-3-6-4.7-9.9-4.7h-6
		c-3.8-4.7-10.2-6-13.1-6.3v-1.7c0-0.9-0.7-1.6-1.6-1.6H1.6c-0.9,0-1.6,0.7-1.6,1.6v28.7c0,0.9,0.7,1.6,1.6,1.6h9.6
		c0.9,0,1.6-0.7,1.6-1.6v-2.2c4.1,1.9,12.2,5.4,16,5.4h0C37.9,64,62,53.7,63,53.2C63.8,52.9,64.1,52.1,63.9,51.3z M28.8,60.8
		L28.8,60.8L28.8,60.8c-3.2,0-11.9-3.8-16-5.7V37c2.7,0.4,8.2,1.6,11,5.6c0.3,0.4,0.8,0.7,1.3,0.7h6.8c3,0,5.7,1.3,7.4,3.5
		c0.7,0.9,1.2,1.9,1.5,2.9H22.2c-0.9,0-1.6,0.7-1.6,1.6c0,0.9,0.7,1.6,1.6,1.6h20.4c0.9,0,1.6-0.7,1.6-1.6c0-1.1-0.2-2.2-0.6-3.2
		h11.6c2.9,0,4.4,1.7,5.1,2.9C54.8,53.2,36,60.8,28.8,60.8z"/>
	<path id="XMLID_1051_" class="st0" d="M28.8,19.2L28.8,19.2c5.3,0,9.6-4.3,9.6-9.6C38.3,4.3,34,0,28.8,0s-9.6,4.3-9.6,9.6
		C19.2,14.9,23.5,19.2,28.8,19.2z"/>
	<path id="XMLID_1048_" class="st0" d="M49.5,38.4L49.5,38.4c5.3,0,9.6-4.3,9.6-9.6s-4.3-9.6-9.6-9.6c-5.3,0-9.6,4.3-9.6,9.6
		S44.2,38.4,49.5,38.4z"/>
</g>
</svg>
