<?xml version="1.0" encoding="utf-8"?>
<!-- Generator: Adobe Illustrator 19.0.0, SVG Export Plug-In . SVG Version: 6.00 Build 0)  -->
<svg version="1.1" id="图层_1" xmlns="http://www.w3.org/2000/svg" xmlns:xlink="http://www.w3.org/1999/xlink" x="0px" y="0px"
	 viewBox="0 0 64 64" style="enable-background:new 0 0 64 64;" xml:space="preserve">
<style type="text/css">
	.st0{fill:#040000;}
</style>
<g id="XMLID_1018_">
	<path id="XMLID_1874_" class="st0" d="M31.5,45.7c1.1,0,2-0.9,2-2c0,0,0,0,0,0c0-1.1-0.9-2-2-2c-1.1,0-2,0.9-2,2c0,0,0,0,0,0
		C29.5,44.8,30.4,45.7,31.5,45.7z"/>
	<path id="XMLID_1020_" class="st0" d="M59.9,3H4.1C1.8,3,0,4.9,0,7.1v39.6c0,2.2,1.8,4.1,4.1,4.1h17.5l-3,6.1h-4.3
		c-1.1,0-2,0.9-2,2s0.9,2,2,2h35.5c1.1,0,2-0.9,2-2s-0.9-2-2-2h-4.3l-3-6.1h17.6c2.2,0,4.1-1.8,4.1-4.1V7.1C64,4.9,62.2,3,59.9,3z
		 M23.1,56.9l3-6.1h11.7l3,6.1H23.1z M59.9,46.7H4.1v-6.1h55.9V46.7z M59.9,36.6H4.1V7.1h55.9V36.6z"/>
</g>
</svg>
