<?xml version="1.0" encoding="utf-8"?>
<!-- Generator: Adobe Illustrator 19.0.0, SVG Export Plug-In . SVG Version: 6.00 Build 0)  -->
<svg version="1.1" id="图层_1" xmlns="http://www.w3.org/2000/svg" xmlns:xlink="http://www.w3.org/1999/xlink" x="0px" y="0px"
	 viewBox="0 0 64 64" style="enable-background:new 0 0 64 64;" xml:space="preserve">
<style type="text/css">
	.st0{fill:#040000;}
</style>
<g id="XMLID_1537_">
	<path id="XMLID_2060_" class="st0" d="M62.8,6.8l-5.6-5.6C56.4,0.4,55.4,0,54.4,0c-1,0-2,0.4-2.8,1.2l-4.7,4.7l11.3,11.3l4.7-4.7
		C64.4,10.9,64.4,8.4,62.8,6.8z"/>
	<path id="XMLID_2074_" class="st0" d="M5.1,47.6l-0.6,1.8L0.1,62.8c-0.2,0.7,0,1.2,0.6,1.2c0.1,0,0.3,0,0.5-0.1l15.2-5l38-38
		L43.1,9.6L5.1,47.6z M14.2,55.4l-8.4,2.7l2.5-7.5l0.3-0.9l34.5-34.5l5.6,5.6L14.2,55.4z"/>
</g>
</svg>
