<?xml version="1.0" encoding="utf-8"?>
<!-- Generator: Adobe Illustrator 19.0.0, SVG Export Plug-In . SVG Version: 6.00 Build 0)  -->
<svg version="1.1" id="图层_1" xmlns="http://www.w3.org/2000/svg" xmlns:xlink="http://www.w3.org/1999/xlink" x="0px" y="0px"
	 viewBox="0 0 64 64" style="enable-background:new 0 0 64 64;" xml:space="preserve">
<style type="text/css">
	.st0{fill:#040000;}
</style>
<path id="XMLID_1_" class="st0" d="M647.8,1673.3c-17.7,0-32,14.3-32,32s14.3,32,32,32s32-14.3,32-32S665.5,1673.3,647.8,1673.3z
	 M667.2,1724.8c-2.5,2.5-5.5,4.5-8.7,5.9c-3.4,1.4-7,2.2-10.7,2.2s-7.3-0.7-10.7-2.2c-3.3-1.4-6.2-3.4-8.7-5.9
	c-2.5-2.5-4.5-5.5-5.9-8.7c-1.4-3.4-2.2-7-2.2-10.7c0-3.7,0.7-7.3,2.2-10.7c1.4-3.3,3.4-6.2,5.9-8.7c2.5-2.5,5.5-4.5,8.7-5.9
	c3.4-1.4,7-2.2,10.7-2.2c3.7,0,7.3,0.7,10.7,2.2c3.3,1.4,6.2,3.4,8.7,5.9c2.5,2.5,4.5,5.5,5.9,8.7c1.4,3.4,2.2,7,2.2,10.7
	C675.3,1712.6,672.4,1719.6,667.2,1724.8z M657.6,1688.6c-1.1-0.6-2.5-0.3-3.1,0.8c-0.6,1.1-0.3,2.5,0.8,3.1l0,0
	c4.7,2.7,7.5,7.7,7.5,13.1c0,4-1.6,7.8-4.4,10.7c-2.8,2.8-6.7,4.4-10.7,4.4c-4,0-7.8-1.6-10.7-4.4c-2.8-2.8-4.4-6.7-4.4-10.7
	c0-5.4,2.9-10.4,7.5-13.1c1.1-0.6,1.4-2,0.8-3.1c-0.6-1.1-2-1.4-3.1-0.8c-6.1,3.5-9.8,10-9.8,16.9c0,5.2,2,10.1,5.7,13.8
	c3.7,3.7,8.6,5.8,13.8,5.7c5.2,0,10.2-2.1,13.8-5.7c3.7-3.7,5.8-8.6,5.7-13.8c0-3.5-0.9-6.9-2.7-9.9
	C663,1692.7,660.5,1690.3,657.6,1688.6L657.6,1688.6z M647.8,1703.3c1.2,0,2.2-1,2.3-2.2c0,0,0,0,0,0v-13.5c0-1.2-1-2.3-2.3-2.3
	s-2.3,1-2.3,2.3v13.5C645.6,1702.3,646.6,1703.3,647.8,1703.3z"/>
<path id="XMLID_44_" class="st0" d="M647.8,1673.3c-17.7,0-32,14.3-32,32s14.3,32,32,32s32-14.3,32-32S665.5,1673.3,647.8,1673.3z
	 M667.2,1724.8c-2.5,2.5-5.5,4.5-8.7,5.9c-3.4,1.4-7,2.2-10.7,2.2s-7.3-0.7-10.7-2.2c-3.3-1.4-6.2-3.4-8.7-5.9
	c-2.5-2.5-4.5-5.5-5.9-8.7c-1.4-3.4-2.2-7-2.2-10.7c0-3.7,0.7-7.3,2.2-10.7c1.4-3.3,3.4-6.2,5.9-8.7c2.5-2.5,5.5-4.5,8.7-5.9
	c3.4-1.4,7-2.2,10.7-2.2c3.7,0,7.3,0.7,10.7,2.2c3.3,1.4,6.2,3.4,8.7,5.9c2.5,2.5,4.5,5.5,5.9,8.7c1.4,3.4,2.2,7,2.2,10.7
	C675.3,1712.6,672.4,1719.6,667.2,1724.8z M657.6,1688.6c-1.1-0.6-2.5-0.3-3.1,0.8c-0.6,1.1-0.3,2.5,0.8,3.1l0,0
	c4.7,2.7,7.5,7.7,7.5,13.1c0,4-1.6,7.8-4.4,10.7c-2.8,2.8-6.7,4.4-10.7,4.4c-4,0-7.8-1.6-10.7-4.4c-2.8-2.8-4.4-6.7-4.4-10.7
	c0-5.4,2.9-10.4,7.5-13.1c1.1-0.6,1.4-2,0.8-3.1c-0.6-1.1-2-1.4-3.1-0.8c-6.1,3.5-9.8,10-9.8,16.9c0,5.2,2,10.1,5.7,13.8
	c3.7,3.7,8.6,5.8,13.8,5.7c5.2,0,10.2-2.1,13.8-5.7c3.7-3.7,5.8-8.6,5.7-13.8c0-3.5-0.9-6.9-2.7-9.9
	C663,1692.7,660.5,1690.3,657.6,1688.6L657.6,1688.6z M647.8,1703.3c1.2,0,2.2-1,2.3-2.2c0,0,0,0,0,0v-13.5c0-1.2-1-2.3-2.3-2.3
	s-2.3,1-2.3,2.3v13.5C645.6,1702.3,646.6,1703.3,647.8,1703.3z"/>
<g id="XMLID_11_">
	<path id="XMLID_12_" class="st0" d="M41.8,15.2c-1.1-0.6-2.5-0.3-3.1,0.8c-0.6,1.1-0.3,2.5,0.8,3.1c4.7,2.7,7.5,7.7,7.5,13.1
		c0,4-1.6,7.8-4.4,10.7c-2.8,2.8-6.7,4.4-10.7,4.4c-4,0-7.8-1.6-10.7-4.4c-2.8-2.8-4.4-6.7-4.4-10.7c0-5.4,2.9-10.4,7.5-13.1
		c1.1-0.6,1.4-2,0.8-3.1c-0.6-1.1-2-1.4-3.1-0.8c-6.1,3.5-9.8,10-9.8,16.9c0,5.2,2,10.1,5.7,13.8c3.7,3.7,8.6,5.7,13.8,5.7
		c5.2,0,10.2-2.1,13.8-5.7c3.7-3.7,5.8-8.6,5.7-13.8c0-3.5-0.9-6.9-2.7-9.9C47.2,19.3,44.7,16.9,41.8,15.2z"/>
	<path id="XMLID_13_" class="st0" d="M32,30c1.2,0,2.2-1,2.3-2.2c0,0,0,0,0,0V14.3c0-1.2-1-2.3-2.3-2.3c-1.2,0-2.3,1-2.3,2.3v13.5
		C29.7,29,30.8,30,32,30z"/>
	<path id="XMLID_16_" class="st0" d="M32,0C14.3,0,0,14.3,0,32c0,17.7,14.3,32,32,32s32-14.3,32-32C64,14.3,49.7,0,32,0z M51.4,51.4
		C48.9,54,46,56,42.7,57.3c-3.4,1.4-7,2.2-10.7,2.2s-7.3-0.7-10.7-2.2C18,56,15.1,54,12.6,51.5C10,48.9,8,46,6.7,42.7
		c-1.4-3.4-2.2-7-2.2-10.7c0-3.7,0.7-7.3,2.2-10.7C8,18,10,15.1,12.5,12.6C15.1,10,18,8,21.3,6.7c3.4-1.4,7-2.2,10.7-2.2
		c3.7,0,7.3,0.7,10.7,2.2C46,8,48.9,10,51.4,12.6c2.5,2.5,4.5,5.5,5.9,8.7c1.4,3.4,2.2,7,2.2,10.7C59.5,39.3,56.6,46.3,51.4,51.4z"
		/>
</g>
</svg>
