<?xml version="1.0" encoding="utf-8"?>
<!-- Generator: Adobe Illustrator 19.0.0, SVG Export Plug-In . SVG Version: 6.00 Build 0)  -->
<svg version="1.1" id="图层_1" xmlns="http://www.w3.org/2000/svg" xmlns:xlink="http://www.w3.org/1999/xlink" x="0px" y="0px"
	 viewBox="0 0 64 64" style="enable-background:new 0 0 64 64;" xml:space="preserve">
<style type="text/css">
	.st0{fill:#040000;}
</style>
<path id="XMLID_498_" class="st0" d="M32,0C14.3,0,0,14.3,0,32c0,17.7,14.3,32,32,32s32-14.3,32-32C64,14.3,49.7,0,32,0z M29.7,14.3
	c0-1.2,1-2.3,2.3-2.3c1.2,0,2.3,1,2.3,2.3v13.5c0,0,0,0,0,0c0,1.2-1,2.2-2.3,2.2c-1.2,0-2.3-1-2.3-2.3V14.3z M45.8,46
	c-3.7,3.7-8.6,5.7-13.8,5.7c-5.2,0-10.2-2.1-13.8-5.7c-3.7-3.7-5.7-8.6-5.7-13.8c0-7,3.7-13.4,9.8-16.9c1.1-0.6,2.5-0.3,3.1,0.8
	s0.3,2.5-0.8,3.1c-4.7,2.7-7.5,7.7-7.5,13.1c0,4,1.6,7.8,4.4,10.7c2.8,2.8,6.6,4.4,10.7,4.4c4,0,7.8-1.6,10.7-4.4
	c2.9-2.9,4.4-6.6,4.4-10.7c0-5.4-2.9-10.4-7.5-13.1c-1.1-0.6-1.4-2-0.8-3.1s2-1.4,3.1-0.8c2.9,1.7,5.4,4.1,7.1,7
	c1.8,3,2.7,6.4,2.7,9.9C51.6,37.4,49.5,42.4,45.8,46z"/>
</svg>
