<?xml version="1.0" encoding="utf-8"?>
<!-- Generator: Adobe Illustrator 19.0.0, SVG Export Plug-In . SVG Version: 6.00 Build 0)  -->
<svg version="1.1" id="图层_1" xmlns="http://www.w3.org/2000/svg" xmlns:xlink="http://www.w3.org/1999/xlink" x="0px" y="0px"
	 viewBox="0 0 64 64" style="enable-background:new 0 0 64 64;" xml:space="preserve">
<style type="text/css">
	.st0{fill:#0C0307;}
</style>
<g id="XMLID_1242_">
	<path id="XMLID_2308_" class="st0" d="M42.7,40.4H21.3c-1.2,0-2.1,1-2.1,2.1s1,2.1,2.1,2.1h21.3c1.2,0,2.1-1,2.1-2.1
		S43.9,40.4,42.7,40.4z"/>
	<path id="XMLID_2307_" class="st0" d="M42.7,49H21.3c-1.2,0-2.1,1-2.1,2.1s1,2.1,2.1,2.1h21.3c1.2,0,2.1-1,2.1-2.1S43.9,49,42.7,49
		z"/>
	<path id="XMLID_2311_" class="st0" d="M60.4,12.6h-6.9v-9c0-2-1.6-3.6-3.6-3.6H14.1c-2,0-3.6,1.6-3.6,3.6v9H3.6
		c-2,0-3.6,1.6-3.6,3.6v22.9c0,2,1.6,3.6,3.6,3.6h6.9v17.8c0,2,1.6,3.6,3.6,3.6h35.8c2,0,3.6-1.6,3.6-3.6V42.7h6.9
		c2,0,3.6-1.6,3.6-3.6V16.2C64,14.2,62.4,12.6,60.4,12.6z M49.2,58.3c0,0.8-0.6,1.4-1.4,1.4H16.3c-0.8,0-1.4-0.6-1.4-1.4V35.4
		c0-0.8,0.6-1.4,1.4-1.4h31.5c0.8,0,1.4,0.6,1.4,1.4V58.3z M49.2,12.6H14.8V5.7c0-0.8,0.6-1.4,1.4-1.4h31.5c0.8,0,1.4,0.6,1.4,1.4
		V12.6z M53.5,25.6c-1.2,0-2.1-1-2.1-2.1s1-2.1,2.1-2.1c1.2,0,2.1,1,2.1,2.1S54.7,25.6,53.5,25.6z"/>
</g>
</svg>
