<?xml version="1.0" encoding="utf-8"?>
<!-- Generator: Adobe Illustrator 19.0.0, SVG Export Plug-In . SVG Version: 6.00 Build 0)  -->
<svg version="1.1" id="图层_1" xmlns="http://www.w3.org/2000/svg" xmlns:xlink="http://www.w3.org/1999/xlink" x="0px" y="0px"
	 viewBox="0 0 64 64" style="enable-background:new 0 0 64 64;" xml:space="preserve">
<style type="text/css">
	.st0{fill:#0C0307;}
</style>
<g id="XMLID_1276_">
	<path id="XMLID_1278_" class="st0" d="M42.7,40.4H21.3c-1.2,0-2.1,1-2.1,2.1s1,2.1,2.1,2.1h21.3c1.2,0,2.1-1,2.1-2.1
		S43.9,40.4,42.7,40.4z"/>
	<path id="XMLID_1279_" class="st0" d="M42.7,49H21.3c-1.2,0-2.1,1-2.1,2.1s1,2.1,2.1,2.1h21.3c1.2,0,2.1-1,2.1-2.1S43.9,49,42.7,49
		z"/>
	<path id="XMLID_2302_" class="st0" d="M60.4,12.6h-6.9v-9c0-2-1.6-3.6-3.6-3.6H14.1c-2,0-3.6,1.6-3.6,3.6v9H3.6
		c-2,0-3.6,1.6-3.6,3.6v22.9c0,2,1.6,3.6,3.6,3.6h6.9v17.8c0,2,1.6,3.6,3.6,3.6h35.8c2,0,3.6-1.6,3.6-3.6V42.7h6.9
		c2,0,3.6-1.6,3.6-3.6V16.2C64,14.2,62.4,12.6,60.4,12.6z M14.8,5.7c0-0.8,0.6-1.4,1.4-1.4h31.5c0.8,0,1.4,0.6,1.4,1.4v6.9H14.8V5.7
		z M49.2,58.3c0,0.8-0.6,1.4-1.4,1.4H16.3c-0.8,0-1.4-0.6-1.4-1.4V35.4c0-0.8,0.6-1.4,1.4-1.4h31.5c0.8,0,1.4,0.6,1.4,1.4V58.3z
		 M59.7,36.9c0,0.8-0.6,1.4-1.4,1.4h-4.8v-5.2c0-2-1.6-3.6-3.6-3.6H14.1c-2,0-3.6,1.6-3.6,3.6v5.2H5.7c-0.8,0-1.4-0.6-1.4-1.4V18.3
		c0-0.8,0.6-1.4,1.4-1.4h52.5c0.8,0,1.4,0.6,1.4,1.4V36.9z"/>
	<circle id="XMLID_2305_" class="st0" cx="53.5" cy="23.5" r="2.1"/>
</g>
</svg>
