<?xml version="1.0" encoding="utf-8"?>
<!-- Generator: Adobe Illustrator 19.0.0, SVG Export Plug-In . SVG Version: 6.00 Build 0)  -->
<svg version="1.1" id="图层_1" xmlns="http://www.w3.org/2000/svg" xmlns:xlink="http://www.w3.org/1999/xlink" x="0px" y="0px"
	 viewBox="0 0 64 64" style="enable-background:new 0 0 64 64;" xml:space="preserve">
<style type="text/css">
	.st0{fill:#040000;}
</style>
<path id="XMLID_2210_" class="st0" d="M54.1,46.3c-4.2,0-7.8,2.9-8.6,7l-22,0c-0.6-0.4-0.9-3-1.1-4.8h6.4c1,1.3,2.6,2.2,4.4,2.2
	c3,0,5.5-2.5,5.5-5.5s-2.5-5.5-5.5-5.5c-2.6,0-4.9,1.8-5.4,4.4h-5.9c-0.8-4.4-2.6-8.8-8.4-8.8h-10c-1.2,0-2.2,1-2.2,2.2
	s1,2.2,2.2,2.2h10c2.2,0,3.3,1.4,3.9,4.4H3.3c-1.2,0-2.2,1-2.2,2.2s1,2.2,2.2,2.2h14.6c0.5,4.1,1.1,9.2,5.7,9.2h21.9
	c0.1,0,0.1,0,0.2,0c1.1,3.6,4.4,6.2,8.4,6.2c4.9,0,8.8-4,8.8-8.8S58.9,46.3,54.1,46.3z M3.3,30.9h26.5c0.1,0,0.2,0,0.3-0.1
	c1,3.9,4.5,6.7,8.5,6.7c4.9,0,8.8-4,8.8-8.8s-4-8.8-8.8-8.8c-4,0-7.6,2.8-8.5,6.7c-0.1,0-0.2-0.1-0.3-0.1H3.3c-1.2,0-2.2,1-2.2,2.2
	S2.1,30.9,3.3,30.9z M3.3,22.5h10c7.5,0,8.4-6.2,8.9-9.9c0.5-3.1,0.7-3.7,1.3-3.7h20.6c1,1.3,2.6,2.2,4.4,2.2c3,0,5.5-2.5,5.5-5.5
	c0-3-2.5-5.5-5.5-5.5c-2.6,0-4.9,1.8-5.4,4.4H23.6c-4.6,0-5.2,4.5-5.7,7.5c-0.6,4.4-1.2,6.2-4.6,6.2h-10c-1.2,0-2.2,1-2.2,2.2
	S2.1,22.5,3.3,22.5z"/>
</svg>
