<?xml version="1.0" encoding="utf-8"?>
<!-- Generator: Adobe Illustrator 19.0.0, SVG Export Plug-In . SVG Version: 6.00 Build 0)  -->
<svg version="1.1" id="图层_1" xmlns="http://www.w3.org/2000/svg" xmlns:xlink="http://www.w3.org/1999/xlink" x="0px" y="0px"
	 viewBox="0 0 64 64" style="enable-background:new 0 0 64 64;" xml:space="preserve">
<style type="text/css">
	.st0{fill:#040000;}
</style>
<g id="XMLID_1319_">
	<path id="XMLID_1338_" class="st0" d="M42,36c1.1,0,2-0.9,2-2s-0.9-2-2-2h-5.2l4.6-4.6c0.8-0.8,0.8-2,0-2.8s-2-0.8-2.8,0L32,31.2
		l-6.7-6.7c-0.8-0.8-2-0.8-2.8,0c-0.8,0.8-0.8,2,0,2.8l4.7,4.7H22c-1.1,0-2,0.9-2,2s0.9,2,2,2h8v4h-8v0c-1.1,0-2,0.9-2,2s0.9,2,2,2
		h8v6c0,1.1,0.9,2,2,2c1.1,0,2-0.9,2-2v-6h8c1.1,0,2-0.9,2-2s-0.9-2-2-2h-8v-4H42z"/>
	<path id="XMLID_1333_" class="st0" d="M56,26.5c-2.9-3.8-6.6-6.9-10.8-9.1c1.8-1.8,2.8-4,2.8-6.3c0-1.6-0.5-3.2-1.4-4.6
		C45.7,5.2,44.5,4,43,3c-3-2-6.9-3-11-3s-8,1.1-11,3c-1.5,1-2.7,2.2-3.6,3.5c-0.9,1.4-1.4,3-1.4,4.6c0,2.3,1,4.5,2.8,6.3
		c-4.2,2.2-8,5.4-10.8,9.1C4.1,31.6,2,37.7,2,44c0,5.4,2.6,10.4,7.3,13.9c2.6,1.9,5.7,3.4,9.4,4.5C22.5,63.4,27,64,32,64
		s9.5-0.6,13.4-1.6c3.7-1,6.8-2.5,9.4-4.5C59.4,54.3,62,49.4,62,44C62,37.7,59.9,31.6,56,26.5z M52.3,54.7C47.7,58.2,40.7,60,32,60
		s-15.7-1.8-20.3-5.3C8,51.9,6,48.1,6,44c0-12.1,8.8-21,17.5-24.4c0.7-0.3,1.2-0.9,1.3-1.7c0.1-0.8-0.3-1.5-1-1.9
		c-2.4-1.3-3.7-3.1-3.7-4.9c0-1.7,1.1-3.4,3.2-4.7C25.5,4.8,28.7,4,32,4s6.5,0.8,8.8,2.4c2.1,1.3,3.2,3,3.2,4.7
		c0,1.8-1.3,3.6-3.7,4.9c-0.7,0.4-1.1,1.1-1,1.9c0.1,0.8,0.5,1.4,1.3,1.7C49.2,23,58,31.9,58,44C58,48.1,56,51.9,52.3,54.7z"/>
</g>
</svg>
