<?xml version="1.0" encoding="utf-8"?>
<!-- Generator: Adobe Illustrator 19.0.0, SVG Export Plug-In . SVG Version: 6.00 Build 0)  -->
<svg version="1.1" id="图层_1" xmlns="http://www.w3.org/2000/svg" xmlns:xlink="http://www.w3.org/1999/xlink" x="0px" y="0px"
	 viewBox="0 0 64 64" style="enable-background:new 0 0 64 64;" xml:space="preserve">
<style type="text/css">
	.st0{fill:#040000;}
</style>
<path id="XMLID_1359_" class="st0" d="M56,26.5c-2.9-3.8-6.6-6.9-10.8-9.1c1.8-1.8,2.8-4,2.8-6.3c0-1.6-0.5-3.2-1.4-4.6
	C45.7,5.2,44.5,4,43,3c-3-2-6.9-3-11-3s-8,1.1-11,3c-1.5,1-2.7,2.2-3.6,3.5c-0.9,1.4-1.4,3-1.4,4.6c0,2.3,1,4.5,2.8,6.3
	c-4.2,2.2-8,5.4-10.8,9.1C4.1,31.6,2,37.7,2,44c0,5.4,2.6,10.4,7.3,13.9c2.6,1.9,5.7,3.4,9.4,4.5C22.5,63.4,27,64,32,64
	s9.5-0.6,13.4-1.6c3.7-1,6.8-2.5,9.4-4.5C59.4,54.3,62,49.4,62,44C62,37.7,59.9,31.6,56,26.5z M42,40c1.1,0,2,0.9,2,2s-0.9,2-2,2h-8
	v6c0,1.1-0.9,2-2,2c-1.1,0-2-0.9-2-2v-6h-8c-1.1,0-2-0.9-2-2s0.9-2,2-2v0h8v-4h-8c-1.1,0-2-0.9-2-2s0.9-2,2-2h5.2l-4.7-4.7
	c-0.8-0.8-0.8-2,0-2.8c0.8-0.8,2.1-0.8,2.8,0l6.7,6.7l6.6-6.6c0.8-0.8,2.1-0.8,2.8,0s0.8,2,0,2.8L36.8,32H42c1.1,0,2,0.9,2,2
	s-0.9,2-2,2h-8v4H42z"/>
</svg>
