<?xml version="1.0" encoding="utf-8"?>
<!-- Generator: Adobe Illustrator 19.0.0, SVG Export Plug-In . SVG Version: 6.00 Build 0)  -->
<svg version="1.1" id="图层_1" xmlns="http://www.w3.org/2000/svg" xmlns:xlink="http://www.w3.org/1999/xlink" x="0px" y="0px"
	 viewBox="0 0 64 64" style="enable-background:new 0 0 64 64;" xml:space="preserve">
<style type="text/css">
	.st0{fill:#040000;}
</style>
<g id="XMLID_1562_">
	<path id="XMLID_1578_" class="st0" d="M24.6,34.5H4.9c-2.7,0-4.9,2.2-4.9,4.9v19.7C0,61.8,2.2,64,4.9,64h19.7
		c2.7,0,4.9-2.2,4.9-4.9V39.4C29.5,36.7,27.3,34.5,24.6,34.5z M24.6,59.1H4.9V39.4h19.7V59.1z"/>
	<rect id="XMLID_1577_" x="9.8" y="9.8" class="st0" width="9.8" height="9.8"/>
	<path id="XMLID_1572_" class="st0" d="M24.6,0H4.9C2.2,0,0,2.2,0,4.9v19.7c0,2.7,2.2,4.9,4.9,4.9h19.7c2.7,0,4.9-2.2,4.9-4.9V4.9
		C29.5,2.2,27.3,0,24.6,0z M24.6,24.6H4.9V4.9h19.7V24.6z"/>
	<polygon id="XMLID_1571_" class="st0" points="59.1,59.1 49.2,59.1 49.2,64 59.1,64 64,64 64,49.2 59.1,49.2 	"/>
	<polygon id="XMLID_1569_" class="st0" points="49.2,49.2 34.5,49.2 34.5,64 39.4,64 39.4,54.2 54.2,54.2 54.2,49.2 54.2,39.4 
		64,39.4 64,34.5 49.2,34.5 	"/>
	<path id="XMLID_1563_" class="st0" d="M59.1,0H39.4c-2.7,0-4.9,2.2-4.9,4.9v19.7c0,2.7,2.2,4.9,4.9,4.9h19.7c2.7,0,4.9-2.2,4.9-4.9
		V4.9C64,2.2,61.8,0,59.1,0z M59.1,24.6H39.4V4.9h19.7V24.6z"/>
</g>
</svg>
