<?xml version="1.0" encoding="utf-8"?>
<!-- Generator: Adobe Illustrator 19.0.0, SVG Export Plug-In . SVG Version: 6.00 Build 0)  -->
<svg version="1.1" id="图层_1" xmlns="http://www.w3.org/2000/svg" xmlns:xlink="http://www.w3.org/1999/xlink" x="0px" y="0px"
	 viewBox="0 0 64 64" style="enable-background:new 0 0 64 64;" xml:space="preserve">
<style type="text/css">
	.st0{fill:#040000;}
</style>
<g id="XMLID_1_">
	<path id="XMLID_5_" class="st0" d="M44.1,13.9c-4.3,0-7.8,3.5-7.8,7.8c0,4.3,3.5,7.8,7.8,7.8c4.3,0,7.8-3.5,7.8-7.8
		C51.9,17.5,48.4,13.9,44.1,13.9z M44.1,26c-2.3,0-4.2-1.9-4.2-4.2c0-2.3,1.9-4.2,4.2-4.2c2.3,0,4.2,1.9,4.2,4.2
		C48.3,24.1,46.4,26,44.1,26z"/>
	<path id="XMLID_14_" class="st0" d="M63.9,1.7c-0.1-0.9-0.8-1.6-1.6-1.7c0,0-0.9-0.1-2.5-0.1c-4,0-11.8,0.4-19.4,3.3
		c-3.9,1.5-7.1,3.8-10.1,7.3c-2.2,2.6-4.5,7.1-6.5,11.1c-0.3,0.5-0.5,1-0.8,1.5c-0.9,1.7-1.7,3.3-2.4,4.6l-0.1,0.1H9.2
		c-0.5,0-1,0.2-1.3,0.6l-7.4,8c-0.4,0.5-0.6,1.1-0.4,1.7c0.2,0.6,0.7,1.1,1.3,1.2l12.1,2.8l0,0.1c0.8,1,2.1,2.4,4.3,4.8l4.6,5.2
		l2.5,10.4c0.1,0.6,0.6,1.1,1.2,1.3c0.6,0.2,1.2,0.1,1.7-0.3l7.4-7.4c0.4-0.3,0.6-0.8,0.6-1.4V44.3l0.1-0.1c0.7-0.5,1.9-1.1,3.1-1.8
		c0.4-0.2,0.9-0.5,1.3-0.7c1.3-0.7,2.7-1.5,4.2-2.3c3.9-2,7.9-4.1,9.9-5.9c3.9-3.5,5.4-6,6.8-9.8C64.7,14.6,63.9,1.9,63.9,1.7z
		 M57.9,22.5c-1.3,3.4-2.4,5.4-5.8,8.4c-1.8,1.6-5.6,3.6-9.3,5.5c-1.5,0.8-2.9,1.5-4.1,2.2l-0.9,0.5c-2.6,1.4-4.1,2.3-4.8,2.9
		c-0.4,0.3-0.7,0.8-0.7,1.4V54l-4.6,5l-1.9-8c-0.1-0.3-0.2-0.6-0.4-0.8c-1.5-1.7-9.2-10.2-9.7-10.8c-0.3-0.3-0.6-0.5-1-0.6l-9.6-2.2
		l4.8-5.1h11.5c0.6,0,1.2-0.3,1.5-0.8c0.9-1.4,1.9-3.5,3.1-5.8c0.3-0.5,0.5-1,0.8-1.6c1.9-3.8,4-8.1,6-10.4c2.6-3.1,5.3-5,8.7-6.3
		c7.1-2.7,14.5-3,18.2-3c0.1,0,0.3,0,0.4,0l0.2,0l0,0.2C60.4,7.3,60.3,16.1,57.9,22.5z"/>
	<path id="XMLID_15_" class="st0" d="M13.2,55.4L13.2,55.4c-0.7,1.4-1.2,2.5-2.5,3.3C9.4,59.6,7.3,60,4,60.1l-0.2,0l0-0.2
		c0.2-6.7,1.4-7.6,4.2-9l0,0c1-0.5,2.3-1.1,3.7-2.2L9.5,46c-0.9,0.7-1.8,1.1-2.7,1.5c-0.1,0.1-0.3,0.1-0.4,0.2
		c-4.2,2.1-6.2,4.2-6.2,14.1l0,1.8l1.7,0c5,0,8.3-0.5,10.5-1.7c1.9-1,2.9-2.5,4-4.7c0.1-0.2,0.2-0.4,0.3-0.5
		c0.3-0.6,0.6-1.2,1.1-2.1L15,52.2C14.2,53.4,13.7,54.4,13.2,55.4z"/>
</g>
</svg>
