<?xml version="1.0" encoding="utf-8"?>
<!-- Generator: Adobe Illustrator 19.0.0, SVG Export Plug-In . SVG Version: 6.00 Build 0)  -->
<svg version="1.1" id="图层_1" xmlns="http://www.w3.org/2000/svg" xmlns:xlink="http://www.w3.org/1999/xlink" x="0px" y="0px"
	 viewBox="0 0 64 64" style="enable-background:new 0 0 64 64;" xml:space="preserve">
<style type="text/css">
	.st0{fill:#040000;}
</style>
<g id="XMLID_446_">
	<path id="XMLID_1996_" class="st0" d="M57.6,9c-0.8-0.7-1.8-1.1-2.8-1.1c-0.1,0-0.2,0-0.3,0c-0.1,0-0.7,0-1.8,0
		c-1.7,0-5.1-0.1-8.3-0.9c-4.1-1-8.9-5.5-10.3-6.4C33.5,0.2,32.7,0,31.9,0c-0.8,0-1.6,0.2-2.3,0.7c-0.2,0.1-5.1,5.3-10,6.4
		C16.4,7.8,13,8,11.2,8c-1,0-1.7,0-1.8,0c-0.1,0-0.2,0-0.3,0c-1,0-2.1,0.4-2.8,1.1c-0.8,0.8-1.3,1.8-1.3,2.9v10
		c0,37,25.1,41.8,26.1,42c0.2,0,0.5,0.1,0.7,0.1c0.2,0,0.5,0,0.7-0.1c1.1-0.2,26.3-5,26.3-42v-10C58.9,10.8,58.5,9.8,57.6,9z
		 M54.9,21.9c0,33.6-22.1,37.9-23,38.1c0,0,0,0-0.1,0c0,0,0,0-0.1,0c-1.4-0.3-22.8-4.9-22.8-38.1l0-10c0,0,0.1,0,0.2,0h0
		c0.3,0,1.1,0.1,2,0.1c1.9,0,5.7-0.1,9.3-1c3.5-0.8,7.4-3.2,11.4-7h0c0,0,0.1,0,0.1,0c0.2,0.1,0.7,0.5,1.1,0.9
		c2.4,1.9,6.3,5.1,10.4,6.1c3.6,0.9,7.3,1,9.2,1c0.8,0,1.6,0,2-0.1l0.1,0c0.1,0,0.1,0,0.1,0V21.9z"/>
	<path id="XMLID_1997_" class="st0" d="M43,27h-9v-9c0-1.1-0.9-2-2-2s-2,0.9-2,2v9h-9c-1.1,0-2,0.9-2,2s0.9,2,2,2h9v9
		c0,1.1,0.9,2,2,2s2-0.9,2-2v-9h9c1.1,0,2-0.9,2-2S44.1,27,43,27z"/>
</g>
</svg>
