<?xml version="1.0" encoding="utf-8"?>
<!-- Generator: Adobe Illustrator 19.0.0, SVG Export Plug-In . SVG Version: 6.00 Build 0)  -->
<svg version="1.1" id="图层_1" xmlns="http://www.w3.org/2000/svg" xmlns:xlink="http://www.w3.org/1999/xlink" x="0px" y="0px"
	 viewBox="0 0 64 64" style="enable-background:new 0 0 64 64;" xml:space="preserve">
<style type="text/css">
	.st0{fill:#040000;}
</style>
<g id="XMLID_992_">
	<rect id="XMLID_1004_" x="37.7" y="48.4" class="st0" width="13.2" height="1.1"/>
	<rect id="XMLID_1129_" x="37.7" y="38.7" class="st0" width="6.1" height="1"/>
	<rect id="XMLID_1130_" x="37.7" y="41.9" class="st0" width="6.1" height="1"/>
	<path id="XMLID_1719_" class="st0" d="M60.3,19h-9.4L35.2,5c0.2-0.5,0.3-1,0.3-1.5C35.6,1.6,34,0,32.1,0c-1.9,0-3.5,1.6-3.5,3.5
		c0,0.7,0.2,1.3,0.5,1.8L12.4,19h-0.1H3.8C1.7,19,0,20.8,0,23.1v36.8C0,62.2,1.7,64,3.8,64h56.5c2.1,0,3.8-1.8,3.8-4.1V23.1
		C64,20.8,62.3,19,60.3,19z M30.8,6.8C31.2,6.9,31.6,7,32.1,7c0.6,0,1.1-0.1,1.6-0.4L47.4,19H15.9L30.8,6.8z M30.4,50l-1.8,1.8H11.6
		v-8.3h2.4v6h5.9v-8.3H12v-8.7h2.4v6.4h5.4v-7.1h2.4v7.1h5.4v-6.4H30v7l-1.8,1.8h-6v8.3h5.9v-6h2.4V50z M53.4,49.9l-1.9,1.9H35.2
		v-5.5h18.2V49.9z M53.4,36.4l-1.1,2.3h-6.1v1h7.2l-1.1,2.2h-6.1v1H54l-1.1,2.2H37.7v0.7h-2.5V38h-1.5l2.6-6h2.7l-0.6,1.2h4.9
		c0.1-0.3,0.2-0.6,0.4-0.8c0.3-0.3,0.7-0.5,1.1-0.5c0.4,0,0.8,0.2,1.1,0.5c0.2,0.2,0.4,0.5,0.4,0.8H54l-1.1,2.3h-6.7v1H53.4z"/>
	<rect id="XMLID_1756_" x="37.7" y="35.4" class="st0" width="6.1" height="1"/>
</g>
</svg>
