<?xml version="1.0" encoding="utf-8"?>
<!-- Generator: Adobe Illustrator 19.0.0, SVG Export Plug-In . SVG Version: 6.00 Build 0)  -->
<svg version="1.1" id="图层_1" xmlns="http://www.w3.org/2000/svg" xmlns:xlink="http://www.w3.org/1999/xlink" x="0px" y="0px"
	 viewBox="0 0 64 64" style="enable-background:new 0 0 64 64;" xml:space="preserve">
<g id="XMLID_1015_">
	<path id="XMLID_1016_" d="M51.9,51.7c-4.9,4.9-11.3,7.8-18.2,8.3c0,0,0,0,0,0c-0.4,0-0.7,0-1.1,0c-0.1,0-0.2,0-0.4,0
		c0,0-0.1,0-0.1,0c-0.3,0-0.6,0-0.9,0c-0.1,0-0.3,0-0.4,0c-1.9-0.1-3.7-0.3-5.5-0.8c0,0,0,0-0.1,0C12.8,56.1,4.4,45.1,4,32.8
		l4.7,0.1c0,0,0,0,0,0c0.1,0,0.2,0,0.4,0c0,0,0.1,0,0.1,0c0.1,0,0.2,0,0.3-0.1c0,0,0.1,0,0.1-0.1c0.1,0,0.1-0.1,0.2-0.1
		c0,0,0.1,0,0.1-0.1c0.1,0,0.1-0.1,0.2-0.1c0,0,0,0,0.1,0c0,0,0,0,0,0c0.1-0.1,0.2-0.2,0.3-0.4c0,0,0-0.1,0-0.1
		c0.1-0.1,0.1-0.3,0.2-0.5c0-0.1,0.1-0.3,0.1-0.4c0,0,0,0,0,0c0,0,0-0.1,0-0.1c0-0.1,0-0.2,0-0.3c0,0,0-0.1,0-0.1
		c0-0.1-0.1-0.2-0.1-0.3c0,0,0-0.1-0.1-0.1c-0.1-0.1-0.2-0.3-0.3-0.4c0,0,0,0,0,0l-5.8-6.2c-0.8-0.8-2-0.8-2.8-0.1
		c-0.1,0.1-0.3,0.3-0.4,0.5c-0.1,0.2-0.2,0.4-0.3,0.6c-4.2,17.1,6.3,34.5,23.4,38.7c1.6,0.4,3.2,0.7,4.8,0.8c0,0,0,0,0,0
		c0.5,0,1,0.1,1.5,0.1c0.2,0,0.4,0,0.6,0c0.3,0,0.7,0,1,0c0.2,0,0.3,0,0.5,0c0.4,0,0.7,0,1.1,0c0,0,0.1,0,0.1,0
		c7.9-0.5,15.3-4,20.8-9.5c0.2-0.2,0.4-0.5,0.4-0.8c0.2-0.7,0-1.4-0.5-1.9C53.9,50.9,52.7,50.9,51.9,51.7z"/>
	<path id="XMLID_1673_" d="M39.7,0.9c-1.6-0.4-3.2-0.7-4.8-0.8c0,0,0,0,0,0c-0.5,0-1-0.1-1.5-0.1c-0.2,0-0.4,0-0.6,0
		c-0.3,0-0.7,0-1,0c-0.2,0-0.3,0-0.5,0c-0.4,0-0.7,0-1.1,0c0,0-0.1,0-0.1,0C22.1,0.6,14.7,4,9.2,9.6C9,9.8,8.8,10.1,8.7,10.4
		c-0.2,0.7,0,1.4,0.5,1.9c0.8,0.8,2.1,0.8,2.8,0C17,7.4,23.4,4.5,30.3,4.1c0,0,0,0,0,0c0.4,0,0.7,0,1.1,0c0.1,0,0.2,0,0.4,0
		c0,0,0.1,0,0.1,0c0.3,0,0.6,0,0.9,0c0.1,0,0.3,0,0.4,0c1.9,0.1,3.7,0.3,5.5,0.8c0,0,0,0,0.1,0C51.2,7.9,59.6,18.9,60,31.2l-4.7-0.1
		c0,0,0,0,0,0c-0.1,0-0.2,0-0.4,0c0,0-0.1,0-0.1,0c-0.1,0-0.2,0-0.3,0.1c0,0-0.1,0-0.1,0.1c-0.1,0-0.1,0.1-0.2,0.1
		c0,0-0.1,0-0.1,0.1c-0.1,0-0.1,0.1-0.2,0.1c0,0,0,0-0.1,0c0,0,0,0,0,0c-0.1,0.1-0.2,0.2-0.3,0.4c0,0,0,0.1,0,0.1
		c-0.1,0.1-0.1,0.3-0.2,0.5c0,0.1-0.1,0.3-0.1,0.4c0,0,0,0,0,0c0,0,0,0.1,0,0.1c0,0.1,0,0.2,0,0.3c0,0,0,0.1,0,0.1
		c0,0.1,0.1,0.2,0.1,0.3c0,0,0,0.1,0.1,0.1c0.1,0.1,0.2,0.3,0.3,0.4c0,0,0,0,0,0l5.8,6.2c0.8,0.8,2,0.8,2.8,0.1
		c0.1-0.1,0.3-0.3,0.4-0.5c0.1-0.2,0.2-0.4,0.3-0.6C67.3,22.5,56.8,5.1,39.7,0.9z"/>
	<polygon id="XMLID_1678_" points="27.3,28 21.1,28 22.9,31.5 29.3,31.5 	"/>
	<polygon id="XMLID_1833_" points="18.4,24.9 18.4,27 39.8,27 39.8,31.2 45.9,31.2 45.9,24.9 35.5,24.9 35.5,21.7 45.1,21.7 
		45.1,19.6 35.5,19.6 35.5,16.9 29.4,16.9 29.4,19.6 19.6,19.6 19.6,21.7 29.4,21.7 29.4,24.9 	"/>
	<polygon id="XMLID_1834_" points="20.8,35.7 27.2,35.7 25.2,32.2 19,32.2 	"/>
	<polygon id="XMLID_1835_" points="17.9,39.1 26,39.1 19.1,47.1 27,47.1 33.3,39.3 38.4,47.1 46.1,47.1 40.5,39.1 46.1,39.1 
		46.1,37 37.5,37 37.5,28 31.5,28 31.5,37 17.9,37 	"/>
</g>
</svg>
