<?xml version="1.0" encoding="utf-8"?>
<!-- Generator: Adobe Illustrator 19.0.0, SVG Export Plug-In . SVG Version: 6.00 Build 0)  -->
<svg version="1.1" id="图层_1" xmlns="http://www.w3.org/2000/svg" xmlns:xlink="http://www.w3.org/1999/xlink" x="0px" y="0px"
	 viewBox="-95 224.2 64 64" style="enable-background:new -95 224.2 64 64;" xml:space="preserve">
<g>
	<path d="M-41,282.9c-0.7,0-1.3-0.2-1.9-0.5l-18.5-10.7c-0.9-0.5-1.9-0.5-2.8,0l-18.5,10.7c-1.3,0.7-2.8,0.7-4.1-0.1
		c-1.1-0.7-1.7-2.1-1.7-3.4l0-45.6c0-2.2,1.8-4,4-4h43.4c2.2,0,4,1.8,4,4v45.6c0,1.3-0.6,2.6-1.7,3.4
		C-39.5,282.6-40.3,282.9-41,282.9z M-62.8,267.1c0.7,0,1.3,0.2,1.9,0.5l19.8,11.5c0,0,0.1,0,0.2,0c0.1,0,0.1-0.1,0.1-0.1v-43.3
		c0-1.5-1.2-2.8-2.8-2.8H-82c-1.5,0-2.8,1.2-2.8,2.8V279c0,0,0,0.1,0.1,0.1c0.1,0,0.1,0,0.2,0l19.8-11.5
		C-64.2,267.3-63.5,267.1-62.8,267.1z"/>
</g>
</svg>
