<?xml version="1.0" encoding="utf-8"?>
<!-- Generator: Adobe Illustrator 19.0.0, SVG Export Plug-In . SVG Version: 6.00 Build 0)  -->
<svg version="1.1" id="图层_1" xmlns="http://www.w3.org/2000/svg" xmlns:xlink="http://www.w3.org/1999/xlink" x="0px" y="0px"
	 viewBox="-95 224.2 64 64" style="enable-background:new -95 224.2 64 64;" xml:space="preserve">
<style type="text/css">
	.st0{fill:#070001;}
</style>
<g>
	<g>
		<path class="st0" d="M-69,259.9c-0.1,0.4-0.5,0.7-1.1,0.7h-5.3c-0.6,0-0.9-0.3-0.9-1v-3.1h6.4v0.7h0.9v-5h-8.7v0.8h7.8v2.8h-6.4
			v-1.5h-0.9v5.6c0,1.1,0.5,1.7,1.6,1.7h5.7c1,0,1.6-0.4,1.8-1.2c0.1-0.4,0.2-1,0.3-1.8c-0.3-0.1-0.6-0.2-0.9-0.3
			C-68.8,258.8-68.9,259.4-69,259.9z M-65.9,255.7v6.2h0.8V254c0.3-0.7,0.6-1.5,0.9-2.4l-0.9-0.3c-0.6,2.1-1.4,3.8-2.4,5.3
			c0.2,0.3,0.3,0.7,0.4,0.9C-66.6,257-66.2,256.4-65.9,255.7z M-52.6,261.9c1.2-0.3,2.3-0.8,3.2-1.4c0.9,0.6,1.9,1,3.1,1.3
			c0.2-0.3,0.4-0.5,0.5-0.8c-1.2-0.2-2.2-0.6-3-1.1c0.8-0.7,1.4-1.4,1.9-2.3V257h-4.4c0.1-0.3,0.2-0.6,0.3-1h5.1v-0.7h-4.9
			c0.1-0.5,0.2-1,0.3-1.6l-0.8-0.1c-0.1,0.6-0.2,1.1-0.3,1.7H-53c0.2-0.4,0.4-0.8,0.6-1.3l-0.8-0.2c-0.2,0.6-0.4,1.2-0.7,1.7v0.5
			h2.1c-0.6,2.1-1.5,3.7-2.9,4.9c0.2,0.2,0.4,0.4,0.6,0.6c1-0.9,1.9-2.1,2.5-3.6c0.4,0.8,0.9,1.5,1.5,2.1c-0.9,0.5-1.9,0.9-3.1,1.2
			C-52.9,261.4-52.7,261.6-52.6,261.9z M-50.9,257.8h3.2c-0.4,0.7-1,1.3-1.6,1.8C-50,259.1-50.5,258.5-50.9,257.8z M-57,258.4h-3.6
			v-2h3.5v-0.8h-3.5v-1.9h3.9v-0.8H-62c0.2-0.5,0.4-1.1,0.6-1.6l-0.9-0.2c-0.5,1.6-1.2,3.1-2.1,4.4c0.3,0.2,0.5,0.4,0.7,0.6
			c0.5-0.8,1-1.6,1.4-2.5h0.9v8.1h0.8v-2.7h3.6V258.4z M-48.4,253.6l-0.5,0.5c0.6,0.4,1.1,0.8,1.6,1.1l0.6-0.6
			C-47.3,254.3-47.8,253.9-48.4,253.6z M-54.4,256.3v-3h8.7v-0.7h-4.4l0.3-0.2c-0.3-0.4-0.6-0.8-0.9-1.2l-0.7,0.4
			c0.2,0.3,0.5,0.6,0.7,0.9h-4.5v3.7c0,2.2-0.4,3.8-1.2,4.9c0.2,0.2,0.4,0.4,0.6,0.7C-54.9,260.6-54.4,258.7-54.4,256.3z
			 M-42.4,257.4c-0.2,2.6-0.8,5.2-1.8,7.5l0.4,0.1c1-2.3,1.6-4.8,1.8-7.5s-0.2-5.2-0.9-7.5c0-0.2-0.4-0.1-0.4-0.1
			C-42.6,252.2-42.2,254.7-42.4,257.4z M-73.9,237.2l-0.4,1.3c-0.1,0.2-0.1,0.4-0.1,0.6c0.1,0.1,0.3,0,0.5,0
			c0.4-0.2,0.9-0.5,1.4-0.7l1.2,0.8c0.1,0.1,0.4,0.3,0.5,0.2c0.2,0,0.2-0.3,0.2-0.5c-0.1-0.4-0.2-0.9-0.2-1.4c0.3-0.3,0.7-0.6,1-0.9
			c0.1-0.1,0.3-0.3,0.3-0.4s-0.2-0.1-0.4-0.3c-0.5,0-1-0.2-1.4-0.3l-0.5-1.3c0-0.2-0.1-0.4-0.4-0.4c-0.2,0.1-0.3,0.2-0.3,0.3
			c-0.1,0.4-0.4,0.8-0.6,1.1c-0.1,0.1-0.2,0.1-0.4,0.1c-0.4,0.1-0.7,0.2-1,0.1c-0.2,0-0.3,0-0.4,0.1s-0.2,0.3-0.1,0.4L-73.9,237.2z
			 M-64.1,236.8c-0.1,0.2-0.1,0.4-0.1,0.6c0.1,0.1,0.3,0,0.5,0c0.4-0.2,0.9-0.5,1.4-0.7l1.2,0.8c0.1,0.1,0.4,0.3,0.5,0.2
			c0.2,0,0.2-0.3,0.2-0.5c-0.1-0.4-0.2-0.9-0.2-1.4c0.3-0.3,0.7-0.6,1-0.9c0.1-0.1,0.3-0.3,0.3-0.4c0-0.2-0.2-0.1-0.4-0.3
			c-0.5,0-1-0.2-1.4-0.3l-0.5-1.3c0-0.2-0.1-0.4-0.4-0.4c-0.1,0.2-0.2,0.3-0.3,0.3c-0.1,0.4-0.4,0.8-0.6,1.2
			c-0.1,0.1-0.2,0.1-0.4,0.1c-0.4,0.1-0.7,0.2-1,0.1c-0.2,0-0.3,0-0.4,0.1c-0.1,0.1-0.1,0.2-0.1,0.4l1.1,1.2L-64.1,236.8z
			 M-45.1,243l-0.5-1.3c0-0.2-0.1-0.4-0.4-0.4c-0.1,0.2-0.3,0.4-0.3,0.3c-0.1,0.4-0.4,0.8-0.6,1.2c-0.1,0.1-0.2,0.1-0.4,0.1
			c-0.4,0.1-0.7,0.2-1,0.1c-0.2,0-0.3,0-0.4,0.1c-0.2,0-0.2,0.3-0.1,0.4l1.1,1.2l-0.4,1.3c-0.1,0.2-0.1,0.4-0.1,0.6
			c0.1,0.1,0.3,0,0.5,0c0.5-0.3,0.9-0.5,1.4-0.7l1.2,0.8c0.1,0.1,0.4,0.3,0.5,0.2c0.2,0,0.2-0.3,0.2-0.5c-0.1-0.4-0.2-0.9-0.2-1.4
			c0.3-0.3,0.7-0.6,1-0.9c0.1-0.1,0.3-0.3,0.3-0.4c0-0.2-0.2-0.1-0.4-0.3C-44.2,243.3-44.7,243.1-45.1,243z M-62,277.7
			c-0.3-0.3-0.6-0.7-0.9-1c0.1-0.4,0.3-0.9,0.3-1.4c0.1-0.2,0.1-0.4-0.1-0.5c-0.1-0.1-0.4,0.1-0.5,0l-1.3,0.5l-1.3-0.8
			c-0.1-0.1-0.3-0.2-0.5,0c-0.1,0.1-0.1,0.4-0.1,0.6c0,0.5,0.1,0.8,0.2,1.4l-1.2,1.1c-0.1,0.1,0,0.3,0,0.5c0.1,0.1,0.2,0.1,0.4,0.1
			l0.9,0.3c0.1,0.1,0.3,0,0.4,0.1c0.2,0.4,0.3,0.8,0.4,1.2c0.1,0.2,0.3,0.5,0.5,0.6c0.3,0,0.3-0.3,0.4-0.4l0.7-1.3l1.4-0.2
			c0.2,0,0.4-0.1,0.5-0.3C-61.6,278.1-61.8,277.8-62,277.7z M-61.5,228.4c-15.3-0.8-28.5,11-29.3,26.3c-0.8,15.3,11,28.5,26.3,29.3
			c15.3,0.9,28.4-10.8,29.3-26.3C-34.5,242.4-46.2,229.2-61.5,228.4z M-35.7,257.7c-0.8,15.2-13.7,26.7-28.8,26
			c-15.2-0.8-26.7-13.7-25.9-28.9c0.8-15.2,13.7-26.7,28.8-26C-46.5,229.6-34.8,242.6-35.7,257.7z M-61.3,224.3
			c-17.6-1-32.6,12.6-33.7,30.2c-1,17.6,12.6,32.6,30.2,33.7c17.6,1,32.6-12.6,33.7-30.2S-43.7,225.3-61.3,224.3z M-31.9,257.9
			c-0.9,17.2-15.7,30.4-32.9,29.5c-17.2-0.9-30.4-15.7-29.5-32.9c0.9-17.2,15.7-30.4,32.9-29.5C-44.1,226-30.9,240.7-31.9,257.9z
			 M-55.1,237.1l1.1,1.2l-0.4,1.3c-0.1,0.2-0.1,0.4-0.1,0.6c0.1,0.1,0.3,0,0.5,0c0.4-0.2,0.9-0.5,1.4-0.7l1.2,0.8
			c0.1,0.1,0.4,0.3,0.5,0.2c0.2,0,0.2-0.3,0.2-0.5c-0.1-0.4-0.2-0.9-0.2-1.4c0.3-0.3,0.7-0.6,1-0.9c0.1-0.1,0.3-0.3,0.3-0.4
			c0-0.2-0.2-0.1-0.4-0.3c-0.5,0-1-0.2-1.4-0.3c-0.2-0.4-0.4-0.9-0.5-1.4c0-0.2-0.1-0.4-0.4-0.4c-0.3,0.3-0.4,0.4-0.5,0.6
			c-0.1,0.4-0.4,0.8-0.6,1.2c-0.1,0.1-0.2,0.1-0.4,0.1c-0.4,0.1-0.7,0.2-1,0.1c-0.2,0-0.3,0-0.4,0.1S-55.3,237.3-55.1,237.1z
			 M-45,270.3c-0.3-0.3-0.6-0.7-0.9-1l0.4-1.3c0.1-0.2,0.1-0.4-0.1-0.5c-0.1-0.1-0.4,0.1-0.5,0l-1.3,0.5l-1.3-0.8
			c-0.1-0.1-0.3-0.2-0.5,0c-0.1,0.1-0.1,0.4-0.1,0.6c0,0.5,0.1,0.8,0.2,1.4l-1.2,1.1c-0.1,0.1,0,0.3,0,0.5c0.1,0.1,0.2,0.1,0.4,0.1
			l0.9,0.3c0.1,0.1,0.3,0,0.4,0.1c0.2,0.4,0.3,0.8,0.4,1.2c0.1,0.2,0.2,0.4,0.4,0.6c0.3,0,0.3-0.3,0.4-0.4l0.7-1.3l1.4-0.2
			c0.2,0,0.4-0.1,0.5-0.3C-44.6,270.7-44.9,270.4-45,270.3z M-72,274.9c-0.3-0.3-0.6-0.7-0.9-1l0.3-1.5c0.1-0.2,0.1-0.4-0.1-0.5
			c-0.1-0.1-0.4,0.1-0.5,0l-1.3,0.5l-1.3-0.8c-0.1-0.1-0.3-0.2-0.5,0c-0.1,0.1-0.1,0.4-0.1,0.6c0,0.5,0.1,0.8,0.2,1.4l-1.2,1.1
			c-0.1,0.1,0,0.3,0,0.5c0.1,0.1,0.2,0.1,0.4,0.1l0.9,0.3c0.1,0.1,0.3,0,0.4,0.1c0.2,0.4,0.3,0.8,0.4,1.2c0.2,0.4,0.2,0.6,0.4,0.7
			c0.3,0,0.3-0.3,0.4-0.4l0.7-1.3l1.4-0.2c0.2,0,0.4-0.1,0.5-0.3C-71.5,275.2-71.8,274.9-72,274.9z M-52.1,276
			c-0.3-0.3-0.6-0.7-0.9-1c0.1-0.4,0.3-0.9,0.3-1.4c0.1-0.2,0.1-0.4-0.1-0.5c-0.1-0.1-0.4,0.1-0.5,0l-1.3,0.5l-1.3-0.8
			c-0.1-0.1-0.3-0.2-0.5,0c-0.1,0.1-0.1,0.4-0.1,0.6c0,0.5,0.1,0.8,0.2,1.4l-1.2,1.1c-0.1,0.1,0,0.3,0,0.5c0.1,0.1,0.2,0.1,0.4,0.1
			l0.9,0.3c0.1,0.1,0.3,0,0.4,0.1c0.2,0.4,0.3,0.8,0.4,1.2c0.1,0.2,0.3,0.5,0.5,0.6c0.3,0,0.3-0.3,0.4-0.4l0.7-1.3l1.4-0.2
			c0.2,0,0.4-0.1,0.5-0.3C-51.7,276.4-52,276.1-52.1,276z M-84.5,255.2c0.2-2.6,0.8-5.2,1.8-7.5l-0.4-0.1c-1,2.3-1.6,4.8-1.8,7.5
			s0.2,5.2,0.9,7.5l0.4,0.1C-84.3,260.4-84.7,257.8-84.5,255.2z M-78.3,243.1c0.3-0.3,0.7-0.6,1-0.9c0.1-0.1,0.3-0.3,0.3-0.4
			c0-0.2-0.2-0.1-0.4-0.3c-0.5,0-1-0.2-1.4-0.3l-0.5-1.3c0-0.2-0.1-0.4-0.4-0.4v0c-0.1,0.2-0.3,0.4-0.3,0.3
			c-0.1,0.4-0.4,0.8-0.6,1.2c-0.1,0.1-0.2,0.1-0.4,0.1c-0.4,0.1-0.7,0.2-1,0.1c-0.2,0-0.3,0-0.4,0.1c-0.2,0-0.2,0.3-0.1,0.4l1.1,1.2
			l-0.4,1.3c-0.1,0.2-0.1,0.4-0.1,0.6c0.1,0.1,0.3,0,0.5,0c0.4-0.2,0.9-0.5,1.4-0.7l1.2,0.8c0.1,0.1,0.4,0.3,0.5,0.2
			c0.2,0,0.2-0.3,0.2-0.5C-78.2,244.1-78.3,243.5-78.3,243.1z M-78.7,268.5c-0.3-0.3-0.6-0.7-0.9-1c0.1-0.4,0.3-0.9,0.3-1.4
			c0.1-0.2,0.1-0.4-0.1-0.5c-0.1-0.1-0.4,0.1-0.5,0l-1.1,0.8l-1.3-0.8c-0.1-0.1-0.3-0.2-0.5,0c-0.1,0.1-0.1,0.4-0.1,0.6
			c0,0.5,0.1,0.8,0.2,1.4l-1.2,1.1c-0.1,0.1,0,0.3,0,0.5c0.1,0.1,0.2,0.1,0.4,0.1l0.9,0.3c0.1,0.1,0.3,0,0.4,0.1
			c0.2,0.4,0.3,0.8,0.4,1.2c-0.1,0.1,0.1,0.4,0.4,0.4s0.3-0.3,0.4-0.4l0.7-1.3l1.4-0.2c0.2,0,0.4-0.1,0.5-0.3
			C-78.3,268.9-78.6,268.5-78.7,268.5z"/>
	</g>
</g>
</svg>
