<?xml version="1.0" encoding="utf-8"?>
<!-- Generator: Adobe Illustrator 19.0.0, SVG Export Plug-In . SVG Version: 6.00 Build 0)  -->
<svg version="1.1" id="图层_1" xmlns="http://www.w3.org/2000/svg" xmlns:xlink="http://www.w3.org/1999/xlink" x="0px" y="0px"
	 viewBox="-95 224.2 64 64" style="enable-background:new -95 224.2 64 64;" xml:space="preserve">
<style type="text/css">
	.st0{fill:#070001;}
</style>
<g>
	<g>
		<path class="st0" d="M-59.7,255.8c0.8-0.8,1.5-1.7,2.2-2.5l-0.8-0.6c-0.7,1-1.4,1.8-2.1,2.5L-59.7,255.8z M-56.6,260.1
			c-1.9-0.5-3.4-1.4-4.4-2.8h4.1v-0.8h-4.8v-0.9h-0.8v0.9h-4.8v0.8h4.1c-1,1.2-2.4,2.3-4.3,3c0.2,0.3,0.4,0.6,0.6,0.8
			c1.8-0.9,3.3-2.1,4.3-3.6v4.4h0.8v-4.4c1,1.6,2.5,2.7,4.4,3.4C-57.1,260.7-56.8,260.4-56.6,260.1z M-61.8,255.3l0.8-0.5
			c-0.3-0.5-0.8-1.1-1.4-2l-0.7,0.4C-62.6,254.1-62.2,254.7-61.8,255.3z M-69,259.9c-0.1,0.4-0.5,0.7-1.1,0.7h-5.3
			c-0.6,0-0.9-0.3-0.9-1v-3.1h6.4v0.7h0.9v-5h-8.7v0.8h7.8v2.8h-6.4v-1.5h-0.9v5.6c0,1.1,0.5,1.7,1.6,1.7h5.7c1,0,1.6-0.4,1.8-1.2
			c0.1-0.4,0.2-1,0.3-1.8c-0.3-0.1-0.6-0.2-0.9-0.3C-68.8,258.8-68.9,259.4-69,259.9z M-57.4,252.5l-0.1-0.8
			c-2.1,0.1-5.1,0.2-9.1,0.3c0.1,0.3,0.1,0.5,0.2,0.8C-62.8,252.7-59.8,252.6-57.4,252.5z M-64.9,255.7l0.7-0.5
			c-0.5-0.7-1.1-1.3-1.6-1.9l-0.6,0.5C-65.9,254.3-65.4,255-64.9,255.7z M-51,251.3l-0.6,0.5c0.3,0.4,0.7,0.9,1.1,1.5l0.7-0.5
			C-50,252.4-50.5,251.9-51,251.3z M-47.6,251.3c-0.3,0.6-0.8,1.3-1.3,2.1h-3.3v0.8h2.6v1.7H-52v0.8h2.3v1.8h-3.2v0.8h3.2v2.8h0.8
			v-2.8h3.1v-0.8h-3.1v-1.8h2.5v-0.8h-2.5v-1.7h2.8v-0.8h-2c0.5-0.6,0.9-1.1,1.2-1.6L-47.6,251.3z M-56,259c0.5-0.8,0.9-1.8,1.3-3
			v5.9h0.8v-5.8c0.2,0.3,0.6,0.7,1.2,1.3l0.6-0.6c-0.5-0.5-0.9-1-1.4-1.4l-0.4,0.4v-1.7h1.3v-0.7h-1.3v-2.1h-0.8v2.1h-1.6v0.7h1.5
			c-0.4,1.5-0.9,2.8-1.6,3.8C-56.2,258.4-56.1,258.7-56,259z M-73.9,237.2l-0.4,1.3c-0.1,0.2-0.1,0.4-0.1,0.6c0.1,0.1,0.3,0,0.5,0
			c0.4-0.2,0.9-0.5,1.4-0.7l1.2,0.8c0.1,0.1,0.4,0.3,0.5,0.2c0.2,0,0.2-0.3,0.2-0.5c-0.1-0.4-0.2-0.9-0.2-1.4c0.3-0.3,0.7-0.6,1-0.9
			c0.1-0.1,0.3-0.3,0.3-0.4s-0.2-0.1-0.4-0.3c-0.5,0-1-0.2-1.4-0.3l-0.5-1.3c0-0.2-0.1-0.4-0.4-0.4c-0.2,0.1-0.3,0.2-0.3,0.3
			c-0.1,0.4-0.4,0.8-0.6,1.1c-0.1,0.1-0.2,0.1-0.4,0.1c-0.4,0.1-0.7,0.2-1,0.1c-0.2,0-0.3,0-0.4,0.1s-0.2,0.3-0.1,0.4L-73.9,237.2z
			 M-55.1,237.1l1.1,1.2l-0.4,1.3c-0.1,0.2-0.1,0.4-0.1,0.6c0.1,0.1,0.3,0,0.5,0c0.4-0.2,0.9-0.5,1.4-0.7l1.2,0.8
			c0.1,0.1,0.4,0.3,0.5,0.2c0.2,0,0.2-0.3,0.2-0.5c-0.1-0.4-0.2-0.9-0.2-1.4c0.3-0.3,0.7-0.6,1-0.9c0.1-0.1,0.3-0.3,0.3-0.4
			c0-0.2-0.2-0.1-0.4-0.3c-0.5,0-1-0.2-1.4-0.3c-0.2-0.4-0.4-0.9-0.5-1.4c0-0.2-0.1-0.4-0.4-0.4c-0.3,0.3-0.4,0.4-0.5,0.6
			c-0.1,0.4-0.4,0.8-0.6,1.2c-0.1,0.1-0.2,0.1-0.4,0.1c-0.4,0.1-0.7,0.2-1,0.1c-0.2,0-0.3,0-0.4,0.1S-55.3,237.3-55.1,237.1z
			 M-64.1,236.8c-0.1,0.2-0.1,0.4-0.1,0.6c0.1,0.1,0.3,0,0.5,0c0.4-0.2,0.9-0.5,1.4-0.7l1.2,0.8c0.1,0.1,0.4,0.3,0.5,0.2
			c0.2,0,0.2-0.3,0.2-0.5c-0.1-0.4-0.2-0.9-0.2-1.4c0.3-0.3,0.7-0.6,1-0.9c0.1-0.1,0.3-0.3,0.3-0.4c0-0.2-0.2-0.1-0.4-0.3
			c-0.5,0-1-0.2-1.4-0.3l-0.5-1.3c0-0.2-0.1-0.4-0.4-0.4c-0.1,0.2-0.2,0.3-0.3,0.3c-0.1,0.4-0.4,0.8-0.6,1.2
			c-0.1,0.1-0.2,0.1-0.4,0.1c-0.4,0.1-0.7,0.2-1,0.1c-0.2,0-0.3,0-0.4,0.1c-0.1,0.1-0.1,0.2-0.1,0.4l1.1,1.2L-64.1,236.8z
			 M-72,274.9c-0.3-0.3-0.6-0.7-0.9-1l0.3-1.5c0.1-0.2,0.1-0.4-0.1-0.5c-0.1-0.1-0.4,0.1-0.5,0l-1.3,0.5l-1.3-0.8
			c-0.1-0.1-0.3-0.2-0.5,0c-0.1,0.1-0.1,0.4-0.1,0.6c0,0.5,0.1,0.8,0.2,1.4l-1.2,1.1c-0.1,0.1,0,0.3,0,0.5c0.1,0.1,0.2,0.1,0.4,0.1
			l0.9,0.3c0.1,0.1,0.3,0,0.4,0.1c0.2,0.4,0.3,0.8,0.4,1.2c0.2,0.4,0.2,0.6,0.4,0.7c0.3,0,0.3-0.3,0.4-0.4l0.7-1.3l1.4-0.2
			c0.2,0,0.4-0.1,0.5-0.3C-71.5,275.2-71.8,274.9-72,274.9z M-45,270.3c-0.3-0.3-0.6-0.7-0.9-1l0.4-1.3c0.1-0.2,0.1-0.4-0.1-0.5
			c-0.1-0.1-0.4,0.1-0.5,0l-1.3,0.5l-1.3-0.8c-0.1-0.1-0.3-0.2-0.5,0c-0.1,0.1-0.1,0.4-0.1,0.6c0,0.5,0.1,0.8,0.2,1.4l-1.2,1.1
			c-0.1,0.1,0,0.3,0,0.5c0.1,0.1,0.2,0.1,0.4,0.1l0.9,0.3c0.1,0.1,0.3,0,0.4,0.1c0.2,0.4,0.3,0.8,0.4,1.2c0.1,0.2,0.2,0.4,0.4,0.6
			c0.3,0,0.3-0.3,0.4-0.4l0.7-1.3l1.4-0.2c0.2,0,0.4-0.1,0.5-0.3C-44.6,270.7-44.9,270.4-45,270.3z M-42.4,257.4
			c-0.2,2.6-0.8,5.2-1.8,7.5l0.4,0.1c1-2.3,1.6-4.8,1.8-7.5s-0.2-5.2-0.9-7.5c0-0.2-0.4-0.1-0.4-0.1
			C-42.6,252.2-42.2,254.7-42.4,257.4z M-45.1,243l-0.5-1.3c0-0.2-0.1-0.4-0.4-0.4c-0.1,0.2-0.3,0.4-0.3,0.3
			c-0.1,0.4-0.4,0.8-0.6,1.2c-0.1,0.1-0.2,0.1-0.4,0.1c-0.4,0.1-0.7,0.2-1,0.1c-0.2,0-0.3,0-0.4,0.1c-0.2,0-0.2,0.3-0.1,0.4l1.1,1.2
			l-0.4,1.3c-0.1,0.2-0.1,0.4-0.1,0.6c0.1,0.1,0.3,0,0.5,0c0.5-0.3,0.9-0.5,1.4-0.7l1.2,0.8c0.1,0.1,0.4,0.3,0.5,0.2
			c0.2,0,0.2-0.3,0.2-0.5c-0.1-0.4-0.2-0.9-0.2-1.4c0.3-0.3,0.7-0.6,1-0.9c0.1-0.1,0.3-0.3,0.3-0.4c0-0.2-0.2-0.1-0.4-0.3
			C-44.2,243.3-44.7,243.1-45.1,243z M-61.5,228.4c-15.3-0.8-28.5,11-29.3,26.3c-0.8,15.3,11,28.5,26.3,29.3
			c15.3,0.9,28.4-10.8,29.3-26.3C-34.5,242.4-46.2,229.2-61.5,228.4z M-35.7,257.7c-0.8,15.2-13.7,26.7-28.8,26
			c-15.2-0.8-26.7-13.7-25.9-28.9c0.8-15.2,13.7-26.7,28.8-26C-46.5,229.6-34.8,242.6-35.7,257.7z M-84.5,255.2
			c0.2-2.6,0.8-5.2,1.8-7.5l-0.4-0.1c-1,2.3-1.6,4.8-1.8,7.5s0.2,5.2,0.9,7.5l0.4,0.1C-84.3,260.4-84.7,257.8-84.5,255.2z
			 M-61.3,224.3c-17.6-1-32.6,12.6-33.7,30.2c-1,17.6,12.6,32.6,30.2,33.7c17.6,1,32.6-12.6,33.7-30.2S-43.7,225.3-61.3,224.3z
			 M-31.9,257.9c-0.9,17.2-15.7,30.4-32.9,29.5c-17.2-0.9-30.4-15.7-29.5-32.9c0.9-17.2,15.7-30.4,32.9-29.5
			C-44.1,226-30.9,240.7-31.9,257.9z M-78.7,268.5c-0.3-0.3-0.6-0.7-0.9-1c0.1-0.4,0.3-0.9,0.3-1.4c0.1-0.2,0.1-0.4-0.1-0.5
			c-0.1-0.1-0.4,0.1-0.5,0l-1.1,0.8l-1.3-0.8c-0.1-0.1-0.3-0.2-0.5,0c-0.1,0.1-0.1,0.4-0.1,0.6c0,0.5,0.1,0.8,0.2,1.4l-1.2,1.1
			c-0.1,0.1,0,0.3,0,0.5c0.1,0.1,0.2,0.1,0.4,0.1l0.9,0.3c0.1,0.1,0.3,0,0.4,0.1c0.2,0.4,0.3,0.8,0.4,1.2c-0.1,0.1,0.1,0.4,0.4,0.4
			s0.3-0.3,0.4-0.4l0.7-1.3l1.4-0.2c0.2,0,0.4-0.1,0.5-0.3C-78.3,268.9-78.6,268.5-78.7,268.5z M-78.3,243.1c0.3-0.3,0.7-0.6,1-0.9
			c0.1-0.1,0.3-0.3,0.3-0.4c0-0.2-0.2-0.1-0.4-0.3c-0.5,0-1-0.2-1.4-0.3l-0.5-1.3c0-0.2-0.1-0.4-0.4-0.4v0c-0.1,0.2-0.3,0.4-0.3,0.3
			c-0.1,0.4-0.4,0.8-0.6,1.2c-0.1,0.1-0.2,0.1-0.4,0.1c-0.4,0.1-0.7,0.2-1,0.1c-0.2,0-0.3,0-0.4,0.1c-0.2,0-0.2,0.3-0.1,0.4l1.1,1.2
			l-0.4,1.3c-0.1,0.2-0.1,0.4-0.1,0.6c0.1,0.1,0.3,0,0.5,0c0.4-0.2,0.9-0.5,1.4-0.7l1.2,0.8c0.1,0.1,0.4,0.3,0.5,0.2
			c0.2,0,0.2-0.3,0.2-0.5C-78.2,244.1-78.3,243.5-78.3,243.1z M-52.1,276c-0.3-0.3-0.6-0.7-0.9-1c0.1-0.4,0.3-0.9,0.3-1.4
			c0.1-0.2,0.1-0.4-0.1-0.5c-0.1-0.1-0.4,0.1-0.5,0l-1.3,0.5l-1.3-0.8c-0.1-0.1-0.3-0.2-0.5,0c-0.1,0.1-0.1,0.4-0.1,0.6
			c0,0.5,0.1,0.8,0.2,1.4l-1.2,1.1c-0.1,0.1,0,0.3,0,0.5c0.1,0.1,0.2,0.1,0.4,0.1l0.9,0.3c0.1,0.1,0.3,0,0.4,0.1
			c0.2,0.4,0.3,0.8,0.4,1.2c0.1,0.2,0.3,0.5,0.5,0.6c0.3,0,0.3-0.3,0.4-0.4l0.7-1.3l1.4-0.2c0.2,0,0.4-0.1,0.5-0.3
			C-51.7,276.4-52,276.1-52.1,276z M-62,277.7c-0.3-0.3-0.6-0.7-0.9-1c0.1-0.4,0.3-0.9,0.3-1.4c0.1-0.2,0.1-0.4-0.1-0.5
			c-0.1-0.1-0.4,0.1-0.5,0l-1.3,0.5l-1.3-0.8c-0.1-0.1-0.3-0.2-0.5,0c-0.1,0.1-0.1,0.4-0.1,0.6c0,0.5,0.1,0.8,0.2,1.4l-1.2,1.1
			c-0.1,0.1,0,0.3,0,0.5c0.1,0.1,0.2,0.1,0.4,0.1l0.9,0.3c0.1,0.1,0.3,0,0.4,0.1c0.2,0.4,0.3,0.8,0.4,1.2c0.1,0.2,0.3,0.5,0.5,0.6
			c0.3,0,0.3-0.3,0.4-0.4l0.7-1.3l1.4-0.2c0.2,0,0.4-0.1,0.5-0.3C-61.6,278.1-61.8,277.8-62,277.7z"/>
	</g>
</g>
</svg>
