<?xml version="1.0" encoding="utf-8"?>
<!-- Generator: Adobe Illustrator 19.0.0, SVG Export Plug-In . SVG Version: 6.00 Build 0)  -->
<svg version="1.1" id="图层_1" xmlns="http://www.w3.org/2000/svg" xmlns:xlink="http://www.w3.org/1999/xlink" x="0px" y="0px"
	 viewBox="0 0 64 64" style="enable-background:new 0 0 64 64;" xml:space="preserve">
<style type="text/css">
	.st0{fill:#040000;}
</style>
<g id="XMLID_2008_">
	<path id="XMLID_2011_" class="st0" d="M31.4,13C37,13,44.5,14.8,44.5,30c0,1.2,1,2.3,2.3,2.3c1.2,0,2.3-1,2.3-2.3
		c0-17.7-9.6-21.4-17.6-21.4S13.7,12.2,13.7,30c0,7.5,3.4,14.7,8.8,18.8v0.3C10.6,50.8,3,55.7,3,61.7C3,63,4,64,5.3,64
		c1.2,0,2.3-1,2.3-2.3c0-3.2,6.6-7.2,17.5-8.4c1.1-0.1,2-1.1,2-2.2v-3.5c0-0.8-0.4-1.5-1-1.9c-4.7-3-7.8-9.4-7.8-15.7
		C18.2,14.8,25.7,13,31.4,13z"/>
	<path id="XMLID_2012_" class="st0" d="M40.2,49.1v-1.5c0-1.2-1-2.3-2.3-2.3c-1.2,0-2.3,1-2.3,2.3v3.5c0,1.2,0.9,2.1,2,2.2
		c11,1.2,17.5,5.2,17.5,8.4c0,1.2,1,2.3,2.3,2.3c1.2,0,2.3-1,2.3-2.3C59.7,55.7,52.1,50.8,40.2,49.1z"/>
	<path id="XMLID_2015_" class="st0" d="M59.3,24.1l-2.9-0.7C55.5,10.3,44.6,0,31.4,0C17.9,0,6.8,10.7,6.3,24l-1.7,1.4
		c-0.5,0.4-0.8,1.1-0.8,1.7v8.9c0,1.2,1,2.3,2.3,2.3c1.2,0,2.3-1,2.3-2.3v-7.9l1.7-1.4c0.5-0.4,0.8-1.1,0.8-1.7
		c0-11.4,9.2-20.6,20.6-20.6C42.7,4.5,52,13.8,52,25.1c0,1,0.7,1.9,1.7,2.2l2.8,0.7v8.1c0,1.2,1,2.3,2.3,2.3c1.2,0,2.3-1,2.3-2.3
		v-9.9C61,25.2,60.3,24.3,59.3,24.1z"/>
	<path id="XMLID_2017_" class="st0" d="M55.3,34.1L53,33.8l-2.2-0.5c-0.4,1.2-4.2,4.3-16.8,4.3c-1.2,0-2.3,1-2.3,2.3s1,2.3,2.3,2.3
		C53.2,42.1,55.1,35.4,55.3,34.1z"/>
</g>
</svg>
