<?xml version="1.0" encoding="utf-8"?>
<!-- Generator: Adobe Illustrator 19.0.0, SVG Export Plug-In . SVG Version: 6.00 Build 0)  -->
<svg version="1.1" id="图层_1" xmlns="http://www.w3.org/2000/svg" xmlns:xlink="http://www.w3.org/1999/xlink" x="0px" y="0px"
	 viewBox="0 0 64 64" style="enable-background:new 0 0 64 64;" xml:space="preserve">
<style type="text/css">
	.st0{fill:#040000;}
</style>
<path id="XMLID_2934_" class="st0" d="M56.4,4.8C47.8,1.4,40.5,0,32,0C23.5,0,16.2,1.4,7.7,4.8c-2.2,0.8-3.7,3-3.7,5.4v24.6
	c0,15.6,22.9,27.3,25.5,28.5c0.8,0.4,1.7,0.6,2.5,0.6s1.8-0.2,2.5-0.6c2.6-1.3,25.5-13,25.5-28.5V10.3C60.1,7.8,58.6,5.7,56.4,4.8z
	 M43.9,26.4L29.6,46.7c-0.1,0.1-0.3,0.2-0.5,0.2c-0.1,0-0.2,0-0.2-0.1c-0.3-0.1-0.5-0.3-0.4-0.6l2.3-13.6h-10
	c-0.2,0-0.4-0.1-0.5-0.3c-0.1-0.2-0.1-0.4,0.1-0.7l15.5-20.2c0.2-0.3,0.4-0.3,0.7-0.1c0.2,0,0.4,0.2,0.4,0.6l-2.3,13.6h8.9
	c0.2,0,0.4,0.1,0.5,0.3C43.9,25.9,43.9,26.2,43.9,26.4z"/>
</svg>
