<?xml version="1.0" encoding="utf-8"?>
<!-- Generator: Adobe Illustrator 19.0.0, SVG Export Plug-In . SVG Version: 6.00 Build 0)  -->
<svg version="1.1" id="图层_1" xmlns="http://www.w3.org/2000/svg" xmlns:xlink="http://www.w3.org/1999/xlink" x="0px" y="0px"
	 viewBox="0 0 64 64" style="enable-background:new 0 0 64 64;" xml:space="preserve">
<style type="text/css">
	.st0{fill:#040000;}
</style>
<g id="XMLID_378_">
	<path id="XMLID_648_" class="st0" d="M63.6,16.8c-0.4-0.5-1-0.8-1.6-0.8H45.2c0,0,0,0-0.1,0H13.9L12,1.7c-0.1-1-1-1.7-2-1.7H2
		C0.9,0,0,0.9,0,2s0.9,2,2,2h6.3l2.4,17.5c0,0.1,0,0.2,0,0.3L14,46.3c0.1,1,1,1.7,2,1.7h38c1.1,0,2-0.9,2-2c0-1.1-0.9-2-2-2H17.8
		l-0.8-6H56c0.9,0,1.6-0.5,1.9-1.4l6-18C64.1,18,64,17.4,63.6,16.8z"/>
	<path id="XMLID_645_" class="st0" d="M21,54c-2.8,0-5,2.2-5,5c0,2.8,2.2,5,5,5c2.8,0,5-2.2,5-5C26,56.2,23.8,54,21,54z"/>
	<path id="XMLID_390_" class="st0" d="M49,54c-2.8,0-5,2.2-5,5c0,2.8,2.2,5,5,5c2.8,0,5-2.2,5-5C54,56.2,51.8,54,49,54z"/>
</g>
</svg>
