<?xml version="1.0" encoding="utf-8"?>
<!-- Generator: Adobe Illustrator 19.0.0, SVG Export Plug-In . SVG Version: 6.00 Build 0)  -->
<svg version="1.1" id="图层_1" xmlns="http://www.w3.org/2000/svg" xmlns:xlink="http://www.w3.org/1999/xlink" x="0px" y="0px"
	 viewBox="0 0 64 64" style="enable-background:new 0 0 64 64;" xml:space="preserve">
<g id="XMLID_1_">
	<path id="XMLID_23_" d="M55.2,7.3h-7.6V2.1c0-1.1-0.9-2-2-2s-2,0.9-2,2v5.2H20.5V2.1c0-1.1-0.9-2-2-2s-2,0.9-2,2v5.2H8.8
		C4,7.3,0,11.2,0,16.1v39c0,4.9,4,8.8,8.8,8.8h46.3c4.9,0,8.8-4,8.8-8.8v-39C64,11.2,60,7.3,55.2,7.3z M60,55.1
		c0,2.7-2.2,4.8-4.8,4.8H8.8c-2.7,0-4.8-2.2-4.8-4.8v-39c0-2.7,2.2-4.8,4.8-4.8h7.6V16c0,1.1,0.9,2,2,2s2-0.9,2-2v-4.7h23.1V16
		c0,1.1,0.9,2,2,2s2-0.9,2-2v-4.7h7.6c2.7,0,4.8,2.2,4.8,4.8V55.1z"/>
	<path id="XMLID_28_" d="M21.6,45.4c0.1-0.1,0.2-0.2,0.2-0.3c0.2-0.2,0.4-0.5,0.6-0.7c0.1-0.1,0.2-0.2,0.2-0.3
		c0.2-0.2,0.4-0.4,0.7-0.6c0.1-0.1,0.2-0.2,0.3-0.3c0.2-0.2,0.4-0.3,0.6-0.5c0.1-0.1,0.3-0.2,0.4-0.3c0.2-0.1,0.4-0.2,0.6-0.3
		c0.2-0.1,0.4-0.2,0.6-0.3c0.1-0.1,0.3-0.1,0.4-0.2c0.3-0.1,0.5-0.2,0.8-0.3c0.1,0,0.2-0.1,0.3-0.1c0.3-0.1,0.6-0.2,0.9-0.3
		c0.1,0,0.2-0.1,0.3-0.1c0.3-0.1,0.6-0.1,0.9-0.2c0.1,0,0.2,0,0.4-0.1c0.3,0,0.6-0.1,0.9-0.1c0.2,0,0.3,0,0.5,0
		c2.4-0.1,4.9,0.4,7.2,1.7c1,0.6,2.2,0.2,2.7-0.7c0.6-1,0.2-2.2-0.7-2.7c-0.6-0.4-1.3-0.7-2-1c2.7-2,4.5-5.3,4.5-9
		c0-6.2-5-11.2-11.2-11.2s-11.2,5-11.2,11.2c0,3.7,1.8,6.9,4.5,8.9c-0.2,0.1-0.4,0.2-0.6,0.3c-0.2,0.1-0.4,0.2-0.6,0.3
		c-0.3,0.1-0.5,0.3-0.8,0.4c-0.2,0.1-0.5,0.3-0.7,0.4c-0.2,0.1-0.4,0.3-0.6,0.4c-0.3,0.2-0.6,0.4-0.8,0.6c-0.1,0.1-0.3,0.2-0.4,0.3
		c-0.3,0.3-0.6,0.5-0.9,0.8c-0.1,0.1-0.2,0.2-0.3,0.3c-0.3,0.3-0.5,0.6-0.8,0.9c-0.1,0.1-0.2,0.3-0.3,0.4c-0.2,0.3-0.5,0.6-0.7,0.9
		c-0.1,0.2-0.3,0.4-0.4,0.6c-0.1,0.2-0.3,0.4-0.4,0.6c0,0,0,0.1-0.1,0.1c-1.4,2.5-2.2,5.4-2.2,8.5c0,1.1,0.9,2,2,2s2-0.9,2-2
		c0-2.6,0.8-5,2.1-7.1c0.1-0.1,0.2-0.3,0.3-0.4C21.3,45.9,21.4,45.6,21.6,45.4z M32,21.6c4,0,7.2,3.2,7.2,7.2c0,4-3.2,7.2-7.2,7.2
		s-7.2-3.2-7.2-7.2C24.8,24.8,28,21.6,32,21.6z"/>
	<path id="XMLID_29_" d="M49.7,46.7h-3.2v-3.2c0-1.1-0.9-2-2-2s-2,0.9-2,2v3.2h-3.2c-1.1,0-2,0.9-2,2s0.9,2,2,2h3.2v3.2
		c0,1.1,0.9,2,2,2s2-0.9,2-2v-3.2h3.2c1.1,0,2-0.9,2-2S50.8,46.7,49.7,46.7z"/>
</g>
</svg>
