<?xml version="1.0" encoding="utf-8"?>
<!-- Generator: Adobe Illustrator 19.0.0, SVG Export Plug-In . SVG Version: 6.00 Build 0)  -->
<svg version="1.1" id="图层_1" xmlns="http://www.w3.org/2000/svg" xmlns:xlink="http://www.w3.org/1999/xlink" x="0px" y="0px"
	 viewBox="0 0 64 64" style="enable-background:new 0 0 64 64;" xml:space="preserve">
<style type="text/css">
	.st0{fill:#040000;}
</style>
<g id="XMLID_1529_">
	<circle id="XMLID_1539_" class="st0" cx="14.9" cy="32" r="4.3"/>
	<path id="XMLID_1532_" class="st0" d="M22.3,21.4c-1.2-0.8-2.9-0.5-3.7,0.7c-0.3,0.4-0.5,1-0.5,1.5c0,0.9,0.4,1.7,1.2,2.2
		c2,1.4,3.3,3.7,3.3,6.2c0,2.5-1.2,4.8-3.3,6.2c-1.2,0.9-1.5,2.5-0.7,3.7c0.9,1.2,2.5,1.5,3.7,0.7c3.5-2.4,5.5-6.3,5.5-10.6
		C27.8,27.8,25.8,23.8,22.3,21.4z"/>
	<path id="XMLID_1531_" class="st0" d="M36.8,0.5c-1.2-0.9-2.9-0.5-3.8,0.7c-0.3,0.4-0.5,1-0.5,1.5c0,0.9,0.4,1.7,1.2,2.2
		C42.6,11,47.9,21.2,47.9,32c0,10.8-5.3,21-14.2,27.1c-1.2,0.9-1.5,2.5-0.7,3.7c0.9,1.2,2.5,1.5,3.7,0.7c10.3-7.1,16.5-19,16.5-31.5
		C53.3,19.5,47.1,7.7,36.8,0.5z"/>
	<path id="XMLID_1530_" class="st0" d="M40.5,32c0-8.4-4.1-16.3-11-21c-1.2-0.8-2.9-0.5-3.7,0.7c-0.3,0.4-0.5,1-0.5,1.5
		c0,0.9,0.4,1.7,1.2,2.2c5.5,3.8,8.7,10,8.7,16.6c0,6.7-3.3,12.9-8.7,16.6c-1.2,0.9-1.5,2.5-0.7,3.7c0.9,1.2,2.5,1.5,3.7,0.7
		C36.4,48.3,40.5,40.4,40.5,32z"/>
</g>
</svg>
