<?xml version="1.0" encoding="utf-8"?>
<!-- Generator: Adobe Illustrator 19.0.0, SVG Export Plug-In . SVG Version: 6.00 Build 0)  -->
<svg version="1.1" id="图层_1" xmlns="http://www.w3.org/2000/svg" xmlns:xlink="http://www.w3.org/1999/xlink" x="0px" y="0px"
	 viewBox="0 0 64 64" style="enable-background:new 0 0 64 64;" xml:space="preserve">
<style type="text/css">
	.st0{fill:#040000;}
</style>
<path id="XMLID_1245_" class="st0" d="M47.9,62.8c-1,0-1.9-0.2-2.8-0.7l-12.3-6.6c-0.7-0.4-1.5-0.4-2.2,0l-12.4,6.4
	c-2.9,1.5-6.4,0.4-7.9-2.5c-0.6-1.2-0.8-2.5-0.6-3.7l2.4-13.7c0.1-0.8-0.1-1.5-0.7-2.1l-9.9-9.8c-2.3-2.3-2.3-6,0-8.3
	c0.9-0.9,2.1-1.5,3.4-1.7l13.8-1.9c0.8-0.1,1.4-0.6,1.8-1.3l6.2-12.4c1-2,3-3.3,5.3-3.2c0,0,0,0,0,0c2.2,0,4.3,1.3,5.3,3.3l6.1,12.5
	c0.3,0.7,1,1.2,1.8,1.3L59,20.4c3.2,0.5,5.4,3.5,4.9,6.7c-0.2,1.3-0.8,2.5-1.7,3.4l-10,9.6c-0.6,0.5-0.8,1.3-0.7,2.1l2.3,13.7
	c0.5,3.2-1.7,6.2-4.9,6.8C48.6,62.7,48.2,62.8,47.9,62.8L47.9,62.8z M31.8,51.7c1,0,1.9,0.2,2.8,0.7l12.3,6.6c1.1,0.6,2.6,0.2,3.2-1
	c0.2-0.5,0.3-1,0.2-1.5L48,42.8c-0.3-1.9,0.3-3.9,1.7-5.2l10-9.6c0.9-0.9,1-2.4,0.1-3.3C59.4,24.3,59,24,58.5,24l-13.7-2.1
	c-1.9-0.3-3.6-1.5-4.4-3.3L34.2,6.1c-0.4-0.8-1.2-1.3-2.1-1.3h0c-0.9,0-1.7,0.5-2.1,1.3l-6.2,12.4c-0.9,1.7-2.5,2.9-4.5,3.2
	L5.6,23.6c-1.3,0.2-2.2,1.4-2,2.6c0.1,0.5,0.3,1,0.7,1.3l9.9,9.8c1.4,1.4,2,3.3,1.7,5.2l-2.4,13.7c-0.2,1.3,0.6,2.5,1.9,2.7
	c0.5,0.1,1,0,1.5-0.2l12.4-6.4C29.9,51.9,30.8,51.7,31.8,51.7z"/>
</svg>
