<?xml version="1.0" encoding="utf-8"?>
<!-- Generator: Adobe Illustrator 19.0.0, SVG Export Plug-In . SVG Version: 6.00 Build 0)  -->
<svg version="1.1" id="图层_1" xmlns="http://www.w3.org/2000/svg" xmlns:xlink="http://www.w3.org/1999/xlink" x="0px" y="0px"
	 viewBox="0 0 64 64" style="enable-background:new 0 0 64 64;" xml:space="preserve">
<style type="text/css">
	.st0{fill:#040000;}
</style>
<g id="XMLID_3_">
	<path id="XMLID_4_" class="st0" d="M35.6,32L8,4.4c-1-1-1-2.7,0-3.7s2.7-1,3.7,0l29.4,29.4c0,0,0,0,0,0l0.1,0.1c1,1,1,2.6,0,3.6
		L11.7,63.3c-1,1-2.6,1-3.6,0l-0.1-0.1c-1-1-1-2.6,0-3.6L35.6,32z"/>
	<path id="XMLID_6_" class="st0" d="M54.7,0c1.1,0,2,0.9,2,2v60c0,1.1-0.9,2-2,2c-1.1,0-2-0.9-2-2V2C52.7,0.9,53.6,0,54.7,0z"/>
</g>
</svg>
