<?xml version="1.0" encoding="utf-8"?>
<!-- Generator: Adobe Illustrator 19.0.0, SVG Export Plug-In . SVG Version: 6.00 Build 0)  -->
<svg version="1.1" id="图层_1" xmlns="http://www.w3.org/2000/svg" xmlns:xlink="http://www.w3.org/1999/xlink" x="0px" y="0px"
	 viewBox="0 0 64 64" style="enable-background:new 0 0 64 64;" xml:space="preserve">
<style type="text/css">
	.st0{fill:#040000;}
</style>
<g id="XMLID_343_">
	<path id="XMLID_605_" class="st0" d="M32,0C14.3,0,0,14.3,0,32s14.3,32,32,32c17.7,0,32-14.3,32-32S49.7,0,32,0z M32,59.3
		C16.9,59.3,4.7,47.1,4.7,32S16.9,4.7,32,4.7c15.1,0,27.3,12.2,27.3,27.3S47.1,59.3,32,59.3z"/>
	<path id="XMLID_606_" class="st0" d="M38.3,21.8H25.7c-1.8,0-3.3,1.5-3.3,3.3v13.6c0,1.8,1.5,3.3,3.3,3.3h12.6
		c1.8,0,3.3-1.5,3.3-3.3V25.2C41.7,23.3,40.1,21.8,38.3,21.8z"/>
</g>
</svg>
