<?xml version="1.0" encoding="utf-8"?>
<!-- Generator: Adobe Illustrator 19.0.0, SVG Export Plug-In . SVG Version: 6.00 Build 0)  -->
<svg version="1.1" id="图层_1" xmlns="http://www.w3.org/2000/svg" xmlns:xlink="http://www.w3.org/1999/xlink" x="0px" y="0px"
	 viewBox="0 0 64 64" style="enable-background:new 0 0 64 64;" xml:space="preserve">
<style type="text/css">
	.st0{fill:#040000;}
</style>
<g id="XMLID_775_">
	<path id="XMLID_780_" class="st0" d="M63.5,1.9L63.5,1.9L63.5,1.9l0-0.3c0,0,0-0.1,0-0.1v0c0,0,0-0.1,0-0.1c0,0,0,0,0-0.1
		c0,0,0-0.1,0-0.1c0,0,0-0.1,0-0.1s0,0,0,0c0,0,0-0.1-0.1-0.1c0,0,0,0,0,0c0,0,0-0.1-0.1-0.1l0,0c0,0,0-0.1-0.1-0.1l0,0l-0.1-0.1
		l0,0c0,0-0.1,0-0.1-0.1l0,0c0,0-0.1,0-0.1-0.1h0c0,0-0.1,0-0.1,0c0,0,0,0,0,0c0,0-0.1,0-0.1,0h0c0,0-0.1,0-0.1,0h-0.2H13.7
		c-0.5,0-0.9,0.2-1.3,0.5L0.9,10.1c0,0-0.1,0-0.1,0.1l0,0c0,0-0.1,0.1-0.1,0.1l0,0v0l0,0l0,0c0,0,0,0.1-0.1,0.2v0c0,0,0,0.1,0,0.1v0
		c0,0,0,0.1,0,0.1v0c0,0,0,0.1,0,0.1V62c0,1.1,0.9,2,2,2h50.4c0,0,0.1,0,0.1,0c0,0,0,0,0.1,0c0,0,0,0,0.1,0c0,0,0.1,0,0.1,0l0.1,0
		c0,0,0.1,0,0.1,0l0,0c0,0,0.1,0,0.1-0.1c0,0,0,0,0,0c0.1-0.1,0.3-0.2,0.3-0.3l0,0l0,0l9.2-12c0.3-0.3,0.4-0.8,0.4-1.2L63.5,1.9z
		 M14.4,3.9h18.2l-5.5,5.8H7.6L14.4,3.9z M50.3,60H4.2V13.6h46.1V60z M51.4,9.6H32.6l5.5-5.8h18.8L51.4,9.6z M59.5,49.4l-5.3,6.9
		V12.4l5.3-5.5V49.4z"/>
	<path id="XMLID_776_" class="st0" d="M11.2,38.8c0.3,0,0.7-0.1,1.1-0.2l0.3-0.1l0.2-0.2l0.5-0.6v15l0.1,0.2
		c0.5,0.9,1.1,1.4,1.8,1.4s1.3-0.5,1.8-1.4l0.1-0.2V42.2c0.1,0,0.2,0.1,0.3,0.2l0.3,0.2h7.6L25,42.7c-1.7,2.7-4,5.2-6.7,7.2L18,50.1
		l-0.1,0.3c-0.3,0.6-0.6,1.6-0.1,2.4c0.2,0.3,0.6,0.7,1.5,0.7c0.2,0,0.3,0,0.6,0l0.3,0l0.2-0.1c3.3-2.4,6-5.3,7.8-8.7l0.1-0.3v-0.3
		c0-0.8-0.2-1.3-0.5-1.6h4.8l-0.2,0.2c-0.4,0.5-0.5,1.1-0.4,1.9l0,0.3l0.2,0.3c2.3,2.5,4.5,5.2,6.6,8l0.1,0.2l0.2,0.1
		c0.5,0.3,0.9,0.4,1.3,0.4c0.3,0,1.7-0.1,1.7-2.2v-0.4l-0.2-0.3c-2-2.9-4.3-5.7-6.8-8.4l0,0h7.4l0.3-0.2c0.8-0.5,1.2-1.1,1.2-1.7
		s-0.4-1.3-1.2-1.7l-0.3-0.2h-5.1v-7.5h4l0.3-0.2c0.8-0.5,1.2-1.1,1.2-1.7s-0.4-1.2-1.2-1.7l-0.3-0.2h-4v-5.9l-0.2-0.3
		c-0.5-0.8-1.1-1.2-1.7-1.2s-1.2,0.4-1.7,1.2l-0.2,0.3v5.9h-7.1v-5.9l-0.2-0.3C26,20.4,25.4,20,24.7,20s-1.2,0.4-1.7,1.2l-0.2,0.3
		v5.9H19l-0.2,0.2c-0.6,0.3-0.9,0.7-1.1,1.2c0.8-2.5,1.4-4.9,1.7-7.1l0-0.4l-0.2-0.3c-0.5-0.8-1.1-1.2-1.7-1.2s-1.3,0.4-1.7,1.2
		l-0.1,0.2l0,0.3C15,26,13,31,9.5,36.2l-0.2,0.3v0.3C9.4,38.3,10.3,38.8,11.2,38.8z M26.6,31.2h6.9v7.5h-6.9V31.2z M16.9,30.8
		c0.3-0.7,0.5-1.3,0.7-2c0,0.1-0.1,0.3-0.1,0.5c0,0.7,0.4,1.2,1.2,1.7h0l0.3,0.2h3.8v7.5h-5.4l-0.3,0.2c-0.1,0-0.2,0.1-0.3,0.2V30.8
		z"/>
</g>
</svg>
