<?xml version="1.0" encoding="utf-8"?>
<!-- Generator: Adobe Illustrator 19.0.0, SVG Export Plug-In . SVG Version: 6.00 Build 0)  -->
<svg version="1.1" id="图层_1" xmlns="http://www.w3.org/2000/svg" xmlns:xlink="http://www.w3.org/1999/xlink" x="0px" y="0px"
	 viewBox="0 0 64 64" style="enable-background:new 0 0 64 64;" xml:space="preserve">
<style type="text/css">
	.st0{fill:#040000;}
</style>
<g id="XMLID_287_">
	<path id="XMLID_304_" class="st0" d="M13.8,18.3c-1.3,1.3-2,3-2,4.8s0.7,3.5,2,4.8c1.3,1.3,3.1,2,4.8,2c1.7,0,3.5-0.7,4.8-2
		c1.3-1.3,2-3,2-4.8s-0.7-3.5-2-4.8C20.7,15.6,16.4,15.6,13.8,18.3z M20.7,25.2c-1.2,1.2-3.1,1.2-4.3,0c-0.6-0.6-0.9-1.3-0.9-2.1
		c0-0.8,0.3-1.6,0.9-2.1c0.6-0.6,1.4-0.9,2.1-0.9c0.8,0,1.6,0.3,2.1,0.9c0.6,0.6,0.9,1.3,0.9,2.1C21.6,23.9,21.3,24.7,20.7,25.2z"/>
	<path id="XMLID_305_" class="st0" d="M61.8,31.1c-0.1-0.1-0.2-0.2-0.3-0.3L38.7,7.9c-0.7-0.7-1.9-0.7-2.7,0c-0.7,0.7-0.7,1.9,0,2.7
		L58.5,33c2.4,2.4,2.4,6.2,0,8.6L43.8,56.3c-0.7,0.7-0.7,1.9,0,2.7c0.4,0.4,0.8,0.6,1.3,0.6s1-0.2,1.3-0.6l14.7-14.7
		C64.7,40.6,64.9,34.9,61.8,31.1z"/>
	<path id="XMLID_308_" class="st0" d="M54.3,40.9c0.8-1.1,1.3-2.3,1.3-3.7c0-1.6-0.6-3.1-1.8-4.2L26,5.1c0,0,0,0,0,0
		c-0.1-0.1-0.1-0.1-0.2-0.1c0,0-0.1-0.1-0.1-0.1c-0.1,0-0.1-0.1-0.2-0.1c-0.1,0-0.1,0-0.2-0.1c-0.1,0-0.1,0-0.2-0.1
		c-0.1,0-0.1,0-0.2,0c-0.1,0-0.1,0-0.2,0c-0.1,0-0.1,0-0.2,0c0,0,0,0-0.1,0L7.2,5.9c0,0,0,0,0,0C4,5.9,1.4,8.5,1.3,11.7c0,0,0,0,0,0
		L0,29c0,0,0,0,0,0.1c0,0.1,0,0.1,0,0.2c0,0.1,0,0.1,0,0.2c0,0.1,0,0.1,0,0.2c0,0.1,0,0.1,0.1,0.2c0,0.1,0,0.1,0.1,0.2
		c0,0.1,0.1,0.1,0.1,0.2c0,0,0.1,0.1,0.1,0.1c0,0.1,0.1,0.1,0.1,0.2c0,0,0,0,0,0.1l26.8,26.8c1.5,1.5,3.4,2.2,5.4,2.2
		c1.9,0,3.9-0.7,5.4-2.2l16-16C54.2,41.1,54.3,41,54.3,40.9z M30,54.6L3.8,28.4L5.1,12c0,0,0,0,0-0.1c0,0,0,0,0-0.1
		c0-1.2,1-2.2,2.2-2.2l0,0c0,0,0.1,0,0.1,0l16.4-1.3l27.3,27.3c0.4,0.4,0.7,1,0.7,1.6s-0.2,1.2-0.7,1.6c0,0,0,0,0,0L35.4,54.6
		C33.9,56.1,31.5,56.1,30,54.6z"/>
</g>
</svg>
