<?xml version="1.0" encoding="utf-8"?>
<!-- Generator: Adobe Illustrator 19.0.0, SVG Export Plug-In . SVG Version: 6.00 Build 0)  -->
<svg version="1.1" id="图层_1" xmlns="http://www.w3.org/2000/svg" xmlns:xlink="http://www.w3.org/1999/xlink" x="0px" y="0px"
	 viewBox="0 0 64 64" style="enable-background:new 0 0 64 64;" xml:space="preserve">
<style type="text/css">
	.st0{fill:#040000;}
</style>
<g id="XMLID_7_">
	<path id="XMLID_283_" class="st0" d="M62.3,47.1L51.6,36.4c-2.2-2.2-5.8-2.2-8.1,0l-5.3,5.3c-0.4,0.4-1,0.4-1.5,0.1
		C30.9,38,26,33.1,22.2,27.3c-0.3-0.5-0.3-1.1,0.1-1.5l5.3-5.3c2.2-2.2,2.2-5.8,0-8.1L16.9,1.7c-2.2-2.2-5.8-2.2-8.1,0L2.4,8
		c-2,2-2.9,4.9-2.2,7.6C3,27.3,9,38,17.5,46.5C26,55,36.7,61,48.3,63.8c0.6,0.1,1.2,0.2,1.8,0.2c2.2,0,4.3-0.9,5.8-2.4l6.4-6.4
		C64.6,53,64.6,49.4,62.3,47.1z"/>
	<path id="XMLID_285_" class="st0" d="M44.8,16.6c0.7,0.1,1.3,0.5,1.7,1.1c0.4,0.6,0.6,1.3,0.4,2c-0.2,1,0.5,1.9,1.5,2.1
		c0.1,0,0.2,0,0.3,0c0.9,0,1.6-0.6,1.8-1.5c0.3-1.7-0.1-3.3-1-4.7c-1-1.4-2.4-2.3-4.1-2.6c-1-0.2-1.9,0.5-2.1,1.5
		C43.1,15.4,43.8,16.4,44.8,16.6z"/>
	<path id="XMLID_286_" class="st0" d="M47.7,3.6c4,0.7,7.6,3,9.9,6.4c2.3,3.4,3.2,7.5,2.5,11.5c-0.2,1,0.5,1.9,1.5,2.1
		c0.1,0,0.2,0,0.3,0h0c0.9,0,1.6-0.6,1.8-1.5c0.9-5-0.2-10.1-3.1-14.3c-2.9-4.2-7.2-7-12.2-7.9c-1-0.2-1.9,0.5-2.1,1.5
		C46.1,2.5,46.7,3.4,47.7,3.6z"/>
	<path id="XMLID_292_" class="st0" d="M47.1,10.9c4,0.7,6.7,4.6,6,8.7c-0.2,1,0.5,1.9,1.5,2.1c0.1,0,0.2,0,0.3,0
		c0.9,0,1.6-0.6,1.8-1.5c1.1-6-2.9-11.8-8.9-12.9c-1-0.2-1.9,0.5-2.1,1.5C45.4,9.8,46.1,10.7,47.1,10.9z"/>
</g>
</svg>
