<?xml version="1.0" encoding="utf-8"?>
<!-- Generator: Adobe Illustrator 19.0.0, SVG Export Plug-In . SVG Version: 6.00 Build 0)  -->
<svg version="1.1" id="图层_1" xmlns="http://www.w3.org/2000/svg" xmlns:xlink="http://www.w3.org/1999/xlink" x="0px" y="0px"
	 viewBox="0 0 64 64" style="enable-background:new 0 0 64 64;" xml:space="preserve">
<style type="text/css">
	.st0{fill:#040000;}
</style>
<g id="XMLID_1294_">
	<path id="XMLID_13_" class="st0" d="M12.8,4c0.3,0,0.8,0.1,1.2,0.5l10.8,10.8c0.7,0.7,0.7,1.8,0,2.4L19.5,23
		c-1.7,1.7-2,4.5-0.6,6.5c4.1,6.3,9.4,11.6,15.6,15.6c0.9,0.6,1.9,0.9,2.9,0.9c1.4,0,2.7-0.5,3.6-1.5l5.3-5.3c0.4-0.4,1-0.5,1.2-0.5
		c0.3,0,0.8,0.1,1.2,0.5l10.7,10.8c0.7,0.7,0.7,1.8,0,2.4l-6.4,6.4c-0.8,0.8-1.9,1.3-3,1.3c-0.3,0-0.6,0-0.8-0.1
		c-10.9-2.6-20.9-8.2-28.9-16.2c-8-8-13.6-18-16.2-28.9c-0.3-1.4,0.1-2.8,1.2-3.9l6.4-6.4C12.1,4.1,12.6,4,12.8,4 M12.8,0
		c-1.5,0-2.9,0.6-4,1.7L2.4,8c-2,2-2.9,4.9-2.2,7.6C3,27.3,9,38,17.5,46.5C26,55,36.7,61,48.3,63.8c0.6,0.1,1.2,0.2,1.8,0.2
		c0,0,0,0,0,0c2.2,0,4.3-0.9,5.8-2.4l6.4-6.4c2.2-2.2,2.2-5.8,0-8.1L51.6,36.4c-1.1-1.1-2.6-1.7-4-1.7s-2.9,0.6-4,1.7l-5.3,5.3
		C38,41.9,37.7,42,37.4,42c-0.2,0-0.5-0.1-0.7-0.2C30.9,38,26,33.1,22.2,27.3c-0.3-0.5-0.3-1.1,0.1-1.5l5.3-5.3
		c2.2-2.2,2.2-5.8,0-8.1L16.9,1.7C15.8,0.6,14.3,0,12.8,0L12.8,0z"/>
</g>
</svg>
