<?xml version="1.0" encoding="utf-8"?>
<!-- Generator: Adobe Illustrator 19.0.0, SVG Export Plug-In . SVG Version: 6.00 Build 0)  -->
<svg version="1.1" id="图层_1" xmlns="http://www.w3.org/2000/svg" xmlns:xlink="http://www.w3.org/1999/xlink" x="0px" y="0px"
	 viewBox="0 0 64 64" style="enable-background:new 0 0 64 64;" xml:space="preserve">
<g id="XMLID_1301_">
	<path id="XMLID_1308_" d="M58.7,9.5H5.3c-2.2,0-4,1.8-4,4v8.5c0,2.2,1.8,4,4,4h5c0,0.1,0,0.2,0,0.3V60c0,2.2,1.8,4,4,4h35.4
		c2.2,0,4-1.8,4-4V26.3c0-0.1,0-0.2,0-0.3h5c2.2,0,4-1.8,4-4v-8.5C62.7,11.3,60.9,9.5,58.7,9.5z M50,26.3V60c0,0.1-0.1,0.3-0.3,0.3
		H14.3c-0.1,0-0.3-0.1-0.3-0.3V26.3c0-0.1,0.1-0.3,0.3-0.3h35.4C49.9,26.1,50,26.2,50,26.3z M59,22.1c0,0.1-0.1,0.3-0.3,0.3h-9H14.3
		h-9c-0.1,0-0.3-0.1-0.3-0.3v-8.5c0-0.1,0.1-0.3,0.3-0.3h53.4c0.1,0,0.3,0.1,0.3,0.3V22.1z"/>
	<path id="XMLID_1307_" d="M21.6,3.8h20.9c1,0,1.9-0.8,1.9-1.9S43.5,0,42.4,0H21.6c-1,0-1.9,0.8-1.9,1.9S20.5,3.8,21.6,3.8z"/>
	<path id="XMLID_1306_" d="M22.8,53.7c1,0,1.9-0.8,1.9-1.9v-16c0-1-0.8-1.9-1.9-1.9s-1.9,0.8-1.9,1.9v16
		C20.9,52.9,21.7,53.7,22.8,53.7z"/>
	<path id="XMLID_1305_" d="M32,53.7c1,0,1.9-0.8,1.9-1.9v-16c0-1-0.8-1.9-1.9-1.9c-1,0-1.9,0.8-1.9,1.9v16
		C30.1,52.9,31,53.7,32,53.7z"/>
	<path id="XMLID_1304_" d="M41.2,53.7c1,0,1.9-0.8,1.9-1.9v-16c0-1-0.8-1.9-1.9-1.9c-1,0-1.9,0.8-1.9,1.9v16
		C39.4,52.9,40.2,53.7,41.2,53.7z"/>
</g>
</svg>
