<?xml version="1.0" encoding="utf-8"?>
<!-- Generator: Adobe Illustrator 19.0.0, SVG Export Plug-In . SVG Version: 6.00 Build 0)  -->
<svg version="1.1" id="图层_1" xmlns="http://www.w3.org/2000/svg" xmlns:xlink="http://www.w3.org/1999/xlink" x="0px" y="0px"
	 viewBox="0 0 64 64" style="enable-background:new 0 0 64 64;" xml:space="preserve">
<style type="text/css">
	.st0{fill:#040000;}
</style>
<g id="XMLID_1950_">
	<path id="XMLID_1981_" class="st0" d="M63.3,2.8c-0.7-0.7-1.8-0.9-2.7-0.4l-18,9.1c-0.7,0.3-1.1,1-1.3,1.7c-0.1,0.7,0.1,1.5,0.7,2
		l3,3L32.8,30.5l-5.4-5.4c-0.5-0.5-1.1-0.7-1.7-0.7c0,0,0,0,0,0c-0.2,0-0.5,0.1-0.7,0.1c-0.1,0-0.2,0.1-0.3,0.2
		c-0.2,0.1-0.4,0.2-0.6,0.4l0,0h0L10.9,38.3c-0.9,0.9-0.9,2.4,0,3.3c0.5,0.5,1.1,0.7,1.7,0.7c0.6,0,1.2-0.2,1.7-0.7l11.6-11.6
		l5.4,5.4c0.5,0.5,1.1,0.7,1.7,0.7c0.6,0,1.2-0.2,1.7-0.7l13.9-13.9l2.6,2.6c0.4,0.4,1,0.7,1.7,0.7c0.1,0,0.2,0,0.4,0
		c0.7-0.1,1.4-0.6,1.7-1.3l9.1-18C64.2,4.6,64,3.5,63.3,2.8z M51.9,18.5l-4.3-4.3l8.8-4.4L51.9,18.5z"/>
	<path id="XMLID_1982_" class="st0" d="M53.7,27.5c-1.3,0-2.3,1-2.3,2.3v25.1c0,1.3-1,2.3-2.3,2.3H7c-1.3,0-2.3-1-2.3-2.3v-42
		c0-1.3,1-2.3,2.3-2.3h29.7c1.3,0,2.3-1,2.3-2.3c0-1.3-1-2.3-2.3-2.3H7c-3.9,0-7,3.1-7,7v42c0,3.9,3.1,7,7,7h42c3.9,0,7-3.1,7-7
		V29.8C56.1,28.6,55,27.5,53.7,27.5z"/>
</g>
</svg>
