<?xml version="1.0" encoding="utf-8"?>
<!-- Generator: Adobe Illustrator 19.0.0, SVG Export Plug-In . SVG Version: 6.00 Build 0)  -->
<svg version="1.1" id="图层_1" xmlns="http://www.w3.org/2000/svg" xmlns:xlink="http://www.w3.org/1999/xlink" x="0px" y="0px"
	 viewBox="0 0 64 64" style="enable-background:new 0 0 64 64;" xml:space="preserve">
<style type="text/css">
	.st0{fill:#040000;}
</style>
<path id="XMLID_663_" class="st0" d="M64,14.7c0-4.7-3.8-8.5-8.5-8.5h-24c-4.7,0-8.5,3.8-8.5,8.5v0.8h-8.5c-2.3,0-4.4,1-5.8,2.8
	l-6.4,8.1c-1.4,1.8-2.2,4-2.2,6.3V50h4.9c0.2,4.4,3.8,7.9,8.3,7.9s8-3.5,8.3-7.9h17.8c0.2,4.4,3.8,7.9,8.3,7.9
	c4.4,0,8.1-3.5,8.3-7.9c4.6-0.1,8.3-3.9,8.3-8.5L64,14.7z M13.1,54.2c-2.6,0-4.6-2.1-4.6-4.6s2.1-4.6,4.6-4.6s4.6,2.1,4.6,4.6
	S15.7,54.2,13.1,54.2z M20.2,32.4H9.5c-1,0-1.8-0.8-1.8-1.8c0-1,0.8-1.8,1.8-1.8h7v-7c0-1,0.8-1.8,1.8-1.8l0,0c1,0,1.8,0.8,1.8,1.8
	V32.4z M47.5,54.2c-2.6,0-4.6-2.1-4.6-4.6s2.1-4.6,4.6-4.6v0c2.6,0,4.6,2.1,4.6,4.6C52.1,52.2,50,54.2,47.5,54.2z"/>
</svg>
