<?xml version="1.0" encoding="utf-8"?>
<!-- Generator: Adobe Illustrator 19.0.0, SVG Export Plug-In . SVG Version: 6.00 Build 0)  -->
<svg version="1.1" id="图层_1" xmlns="http://www.w3.org/2000/svg" xmlns:xlink="http://www.w3.org/1999/xlink" x="0px" y="0px"
	 viewBox="0 0 64 64" style="enable-background:new 0 0 64 64;" xml:space="preserve">
<style type="text/css">
	.st0{fill:#070001;}
</style>
<path id="XMLID_1354_" class="st0" d="M40.5,32.4c5.4-3.1,8.8-8.8,8.8-15.1C49.3,7.8,41.5,0,32,0S14.7,7.8,14.7,17.3
	c0,6.3,3.3,12,8.8,15.1C12.8,35.7,5.6,44.9,5.6,55.6c0,3.5,1.9,6,5.6,7.2c3,1,7.1,1.2,11,1.2h16.1l0,0c1.9,0,3.6,0,5.3,0
	c5.5,0,14.7,0,14.7-8.4C58.4,44.9,51.2,35.7,40.5,32.4z M18.4,17.3c0-7.5,6.1-13.6,13.6-13.6s13.6,6.1,13.6,13.6S39.5,30.9,32,30.9
	S18.4,24.8,18.4,17.3z M51.7,59.4c-2.4,0.8-5.6,0.8-7.9,0.8c-1.6,0-3.4,0-5.2-0.1h-0.1C36.4,60,34.3,60,32.1,60c-1.8,0-3.5,0-5.2,0
	h-0.1c-1.5,0-3,0-4.4,0c-3.7,0-7.4-0.1-9.9-0.9c-2.6-0.9-3-2.2-3-3.6C9.4,44,19.3,34.9,32,34.9S54.6,44,54.6,55.6
	C54.6,57.7,53.8,58.7,51.7,59.4z"/>
</svg>
