<?xml version="1.0" encoding="utf-8"?>
<!-- Generator: Adobe Illustrator 19.0.0, SVG Export Plug-In . SVG Version: 6.00 Build 0)  -->
<svg version="1.1" id="图层_1" xmlns="http://www.w3.org/2000/svg" xmlns:xlink="http://www.w3.org/1999/xlink" x="0px" y="0px"
	 viewBox="0 0 64 64" style="enable-background:new 0 0 64 64;" xml:space="preserve">
<style type="text/css">
	.st0{fill:#070001;}
</style>
<g id="XMLID_1039_">
	<path id="XMLID_1149_" class="st0" d="M53,54.9l5.7-5.7c0.8-0.8,0.8-2,0-2.8s-2-0.8-2.8,0l-5.7,5.7l-5.7-5.7c-0.8-0.8-2-0.8-2.8,0
		s-0.8,2,0,2.8l5.7,5.7l-5.7,5.7c-0.8,0.8-0.8,2,0,2.8s2,0.8,2.8,0l5.7-5.7l5.7,5.7c0.8,0.8,2,0.8,2.8,0s0.8-2,0-2.8L53,54.9z"/>
	<path id="XMLID_1658_" class="st0" d="M39.6,58.5l2.2-2.2l0,0c0.3-0.4,0.6-0.8,0.6-1.4c0-0.6-0.3-1.1-0.7-1.5l0,0l-2-2
		c-0.9-0.9-1.5-2.2-1.5-3.5c0-1.3,0.5-2.6,1.5-3.5s2.2-1.5,3.5-1.5c1.3,0,2.6,0.5,3.5,1.5l2.1,2.1c0.4,0.4,0.9,0.6,1.4,0.6
		c0.5,0,1-0.2,1.4-0.6l0,0l0,0c0,0,0,0,0,0l1.5-1.5c0,0,0,0,0,0l0,0v0c0.4-0.4,0.6-0.9,0.6-1.4c0-0.5-0.2-1-0.5-1.4
		c-3.1-4.5-7.8-8-13.6-9.7c5.4-3.1,8.8-8.8,8.8-15.1C48.4,7.8,40.6,0,31.1,0S13.8,7.8,13.8,17.3c0,6.3,3.3,12,8.8,15.1
		C11.9,35.7,4.7,44.9,4.7,55.6c0,3.5,1.9,6,5.6,7.2c3,1,7.1,1.2,11,1.2h14.8c1.1,0,2-0.9,2-2c0,0,0,0,0,0l0,0
		C38.1,60.7,38.6,59.4,39.6,58.5z"/>
</g>
</svg>
