<?xml version="1.0" encoding="utf-8"?>
<!-- Generator: Adobe Illustrator 19.0.0, SVG Export Plug-In . SVG Version: 6.00 Build 0)  -->
<svg version="1.1" id="图层_1" xmlns="http://www.w3.org/2000/svg" xmlns:xlink="http://www.w3.org/1999/xlink" x="0px" y="0px"
	 viewBox="0 0 64 64" style="enable-background:new 0 0 64 64;" xml:space="preserve">
<style type="text/css">
	.st0{fill:#070001;}
</style>
<g id="XMLID_1169_">
	<path id="XMLID_1939_" class="st0" d="M58.7,49.4h-8v-8c0-1.1-0.9-2-2-2s-2,0.9-2,2v8h-8c-1.1,0-2,0.9-2,2s0.9,2,2,2h8v8
		c0,1.1,0.9,2,2,2s2-0.9,2-2v-8h8c1.1,0,2-0.9,2-2S59.8,49.4,58.7,49.4z"/>
	<path id="XMLID_1947_" class="st0" d="M37.8,60.2L37.8,60.2c-0.5,0-1,0-1.5-0.1h-0.1C34.1,60,32,60,29.8,60c-1.8,0-3.5,0-5.2,0
		h-0.1c-1.5,0-3,0-4.4,0c-3.7,0-7.4-0.1-9.9-0.9c-2.6-0.9-3-2.2-3-3.6C7.1,44,17,34.9,29.7,34.9c4.8,0,9.1,1.3,12.7,3.5l0,0
		c0.8,0.6,2,0.5,2.7-0.3c0.6-0.8,0.5-2-0.3-2.7l0,0c-2-1.3-4.2-2.3-6.5-3c5.4-3.1,8.8-8.8,8.8-15.1C47,7.8,39.2,0,29.7,0
		S12.4,7.8,12.4,17.3c0,6.3,3.3,12,8.8,15.1C10.5,35.7,3.3,44.9,3.3,55.6c0,3.5,1.9,6,5.6,7.2c3,1,7.1,1.2,11,1.2H36
		c0.6,0,1.2,0,1.8,0v0c1.1,0,1.9-0.9,1.9-1.9C39.7,61,38.9,60.2,37.8,60.2z M16.1,17.3c0-7.5,6.1-13.6,13.6-13.6s13.6,6.1,13.6,13.6
		s-6.1,13.6-13.6,13.6S16.1,24.8,16.1,17.3z"/>
</g>
</svg>
