<?xml version="1.0" encoding="utf-8"?>
<!-- Generator: Adobe Illustrator 19.0.0, SVG Export Plug-In . SVG Version: 6.00 Build 0)  -->
<svg version="1.1" id="图层_1" xmlns="http://www.w3.org/2000/svg" xmlns:xlink="http://www.w3.org/1999/xlink" x="0px" y="0px"
	 viewBox="0 0 64 64" style="enable-background:new 0 0 64 64;" xml:space="preserve">
<style type="text/css">
	.st0{fill:#040000;}
</style>
<g id="XMLID_1407_">
	<path id="XMLID_1430_" class="st0" d="M54.1,6H9.9C4.5,6,0,10.4,0,15.9v32.2C0,53.6,4.5,58,9.9,58h44.2c5.4,0,9.9-4.4,9.9-9.9V15.9
		C64,10.4,59.5,6,54.1,6z M60,22H32c-3.3,0-6,2.7-6,6v4c0,3.3,2.7,6,6,6h28v0v4H32c-5.5,0-10-4.5-10-10v-4c0-5.5,4.5-10,10-10h28V22
		z M38,30c0,2.2-1.8,4-4,4s-4-1.8-4-4c0-2.2,1.8-4,4-4S38,27.8,38,30z"/>
</g>
</svg>
