<?xml version="1.0" encoding="utf-8"?>
<!-- Generator: Adobe Illustrator 19.0.0, SVG Export Plug-In . SVG Version: 6.00 Build 0)  -->
<svg version="1.1" id="图层_1" xmlns="http://www.w3.org/2000/svg" xmlns:xlink="http://www.w3.org/1999/xlink" x="0px" y="0px"
	 viewBox="0 0 64 64" style="enable-background:new 0 0 64 64;" xml:space="preserve">
<style type="text/css">
	.st0{fill:#040000;}
</style>
<g id="XMLID_1259_">
	<path id="XMLID_1287_" class="st0" d="M62.9,20.3L33.1,2.5c-0.7-0.5-1.6-0.5-2.3,0L1.1,20.3c-1.1,0.7-1.4,2.1-0.7,3.3
		c0.7,1.1,2.1,1.4,3.3,0.7l2.6-1.6v36.9c0,1.4,0.9,2.3,2.3,2.3c1.4,0,2.3-0.9,2.3-2.3V19.9L32,7.1l21.1,12.8v39.7
		c0,1.4,0.9,2.3,2.3,2.3c1.4,0,2.3-0.9,2.3-2.3V22.7l2.8,1.6c0.5,0.2,0.7,0.2,1.1,0.2c0.7,0,1.6-0.5,2.1-1.1
		C64.2,22.4,64,20.8,62.9,20.3z"/>
	<path id="XMLID_1286_" class="st0" d="M43.6,49.1H20.4C19,49.1,18,50,18,51.4s0.9,2.3,2.3,2.3h23.2c1.4,0,2.3-0.9,2.3-2.3
		S44.8,49.1,43.6,49.1z"/>
	<path id="XMLID_1282_" class="st0" d="M43.6,37.5H20.4c-1.4,0-2.3,0.9-2.3,2.3s0.9,2.3,2.3,2.3h23.2c1.4,0,2.3-0.9,2.3-2.3
		S44.8,37.5,43.6,37.5z"/>
</g>
</svg>
