<?xml version="1.0" encoding="utf-8"?>
<!-- Generator: Adobe Illustrator 19.0.0, SVG Export Plug-In . SVG Version: 6.00 Build 0)  -->
<svg version="1.1" id="图层_1" xmlns="http://www.w3.org/2000/svg" xmlns:xlink="http://www.w3.org/1999/xlink" x="0px" y="0px"
	 viewBox="0 0 64 64" style="enable-background:new 0 0 64 64;" xml:space="preserve">
<style type="text/css">
	.st0{fill:#040000;}
</style>
<path id="XMLID_1254_" class="st0" d="M32,0C14.3,0,0,14.3,0,32s14.3,32,32,32s32-14.3,32-32S49.7,0,32,0z M29.7,18.8
	c0-1.3,1-2.3,2.3-2.3h0c1.3,0,2.3,1,2.3,2.3v15.3c0,1.3-1,2.3-2.3,2.3h0c-1.3,0-2.3-1-2.3-2.3V18.8z M32,47.5L32,47.5
	c-2,0-3.7-1.7-3.7-3.7s1.6-3.7,3.7-3.7h0c2,0,3.7,1.7,3.7,3.7S34,47.5,32,47.5z"/>
</svg>
