<?xml version="1.0" encoding="utf-8"?>
<!-- Generator: Adobe Illustrator 19.0.0, SVG Export Plug-In . SVG Version: 6.00 Build 0)  -->
<svg version="1.1" id="图层_1" xmlns="http://www.w3.org/2000/svg" xmlns:xlink="http://www.w3.org/1999/xlink" x="0px" y="0px"
	 viewBox="0 0 360 240" style="enable-background:new 0 0 360 240;" xml:space="preserve">
<style type="text/css">
	.st0{fill:#FFFFFF;}
	.st1{fill:#878787;}
</style>
<rect id="XMLID_1_" class="st0" width="360" height="240"/>
<g id="XMLID_51_">
	<polygon id="XMLID_91_" class="st1" points="360,0 40,0 0,0 0,15 0,240 40,240 40,15 360,15 	"/>
	<g id="XMLID_2_">
		<rect id="XMLID_3_" x="54.5" y="28.8" class="st1" width="22.5" height="10.7"/>
		<rect id="XMLID_90_" x="80.1" y="28.8" class="st1" width="22.5" height="10.7"/>
		<rect id="XMLID_92_" x="105.8" y="28.8" class="st1" width="22.5" height="10.7"/>
	</g>
	<g id="XMLID_4_">
		<path id="XMLID_26_" class="st1" d="M54.5,52.8V101h288.6V52.8H54.5z M341.1,99H56.5V54.8h284.6V99z"/>
		<rect id="XMLID_29_" x="65.9" y="70.5" class="st1" width="76.2" height="12.8"/>
		<rect id="XMLID_30_" x="160.7" y="70.5" class="st1" width="76.2" height="12.8"/>
		<rect id="XMLID_31_" x="255.5" y="70.5" class="st1" width="76.2" height="12.8"/>
	</g>
	<path id="XMLID_16_" class="st1" d="M341.1,117H56.5h-2v2v21v2v25v2v25v2v25v2h2H150h2h93.5h2h93.5h2v-2v-25v-2v-25v-2v-25v-2v-21
		v-2H341.1z M150,221H56.5v-25H150V221z M150,194H56.5v-25H150V194z M150,167H56.5v-25H150V167z M245.6,221H152v-25h93.5V221z
		 M245.6,194H152v-25h93.5V194z M245.6,167H152v-25h93.5V167z M341.1,221h-93.5v-25h93.5V221z M341.1,194h-93.5v-25h93.5V194z
		 M341.1,167h-93.5v-25h93.5V167z"/>
</g>
</svg>
