<?xml version="1.0" encoding="utf-8"?>
<!-- Generator: Adobe Illustrator 19.0.0, SVG Export Plug-In . SVG Version: 6.00 Build 0)  -->
<svg version="1.1" id="图层_1" xmlns="http://www.w3.org/2000/svg" xmlns:xlink="http://www.w3.org/1999/xlink" x="0px" y="0px"
	 viewBox="0 0 360 240" style="enable-background:new 0 0 360 240;" xml:space="preserve">
<style type="text/css">
	.st0{fill:#FFFFFF;}
	.st1{fill:#878787;}
</style>
<rect id="XMLID_1_" class="st0" width="360" height="240"/>
<g id="XMLID_76_">
	<polygon id="XMLID_299_" class="st1" points="360,0 40,0 0,0 0,15 0,240 40,240 40,15 360,15 	"/>
	<path id="XMLID_280_" class="st1" d="M341.1,31.2H146.5h-2v2v20v2v24v2v24v2v24v2h2H210h2h63.5h2h63.5h2v-2v-24v-2v-24v-2v-24v-2
		v-20v-2H341.1z M210,131.2h-63.5v-24H210V131.2z M210,105.2h-63.5v-24H210V105.2z M210,79.2h-63.5v-24H210V79.2z M275.6,131.2H212
		v-24h63.5V131.2z M275.6,105.2H212v-24h63.5V105.2z M275.6,79.2H212v-24h63.5V79.2z M341.1,131.2h-63.5v-24h63.5V131.2z
		 M341.1,105.2h-63.5v-24h63.5V105.2z M341.1,79.2h-63.5v-24h63.5V79.2z"/>
	<path id="XMLID_106_" class="st1" d="M341.1,146.2H146.5h-2V225h2H210h2h63.5h2h63.5h2v-1v-0.8v-25v-2v-25v-2v-21v-2H341.1z
		 M210,223.2h-63.5v-25H210V223.2z M210,196.2h-63.5v-25H210V196.2z M275.6,223.2H212v-25h63.5V223.2z M275.6,196.2H212v-25h63.5
		V196.2z M341.1,223.2h-63.5v-25h63.5V223.2z M341.1,196.2h-63.5v-25h63.5V196.2z"/>
	<g id="XMLID_274_">
		<g id="XMLID_276_">
			<path id="XMLID_277_" class="st1" d="M132.7,225.2H57V31.7h75.7V225.2z M59,223.2h71.7V33.7H59V223.2z"/>
		</g>
		<polygon id="XMLID_275_" class="st1" points="111.3,80.4 111.3,70 89.7,70 89.7,74.5 79,74.5 79,54.5 89.7,54.5 89.7,44.2 
			68,44.2 68,54.5 77,54.5 77,74.5 77,75 77,76.5 77,94.9 77,96.9 79,96.9 89.7,96.9 89.7,100.8 111.3,100.8 111.3,90.5 89.7,90.5 
			89.7,94.9 79,94.9 79,76.5 89.7,76.5 89.7,80.4 		"/>
	</g>
</g>
</svg>
