<?xml version="1.0" encoding="utf-8"?>
<!-- Generator: Adobe Illustrator 19.0.0, SVG Export Plug-In . SVG Version: 6.00 Build 0)  -->
<svg version="1.1" id="图层_1" xmlns="http://www.w3.org/2000/svg" xmlns:xlink="http://www.w3.org/1999/xlink" x="0px" y="0px"
	 viewBox="0 0 360 240" style="enable-background:new 0 0 360 240;" xml:space="preserve">
<style type="text/css">
	.st0{fill:#FFFFFF;}
	.st1{fill:#878787;}
</style>
<rect id="XMLID_1_" class="st0" width="360" height="240"/>
<g id="XMLID_52_">
	<polygon id="XMLID_203_" class="st1" points="360,0 40,0 0,0 0,15 0,240 40,240 40,15 360,15 	"/>
	<path id="XMLID_444_" class="st1" d="M341.1,46H146.5h-2v2v21v2v25v2v25v2v25v2h2H210h2h63.5h2h63.5h2v-2v-25v-2V98v-2V71v-2V48v-2
		H341.1z M210,150h-63.5v-25H210V150z M210,123h-63.5V98H210V123z M210,96h-63.5V71H210V96z M275.6,150H212v-25h63.5V150z
		 M275.6,123H212V98h63.5V123z M275.6,96H212V71h63.5V96z M341.1,150h-63.5v-25h63.5V150z M341.1,123h-63.5V98h63.5V123z M341.1,96
		h-63.5V71h63.5V96z"/>
	<g id="XMLID_440_">
		<rect id="XMLID_443_" x="144.5" y="31.5" class="st1" width="22.5" height="10.7"/>
		<rect id="XMLID_442_" x="170.1" y="31.5" class="st1" width="22.5" height="10.7"/>
		<rect id="XMLID_441_" x="195.8" y="31.5" class="st1" width="22.5" height="10.7"/>
	</g>
	<path id="XMLID_190_" class="st1" d="M218.3,176.3v-10.8h-22.5v10.8h-3.1v-10.8h-22.5v10.8H167v-10.8h-22.5v10.8v48.4h198.6v-48.4
		H218.3z M341.1,222.7H146.5v-44.4h194.6V222.7z"/>
	<g id="XMLID_357_">
		<g id="XMLID_181_">
			<path id="XMLID_372_" class="st1" d="M132.7,225H57V31.5h75.7V225z M59,223h71.7V33.5H59V223z"/>
		</g>
		<polygon id="XMLID_258_" class="st1" points="111.3,80.2 111.3,69.8 89.7,69.8 89.7,74.3 79,74.3 79,54.3 89.7,54.3 89.7,44 
			68,44 68,54.3 77,54.3 77,74.3 77,74.8 77,76.3 77,94.7 77,96.7 79,96.7 89.7,96.7 89.7,100.6 111.3,100.6 111.3,90.3 89.7,90.3 
			89.7,94.7 79,94.7 79,76.3 89.7,76.3 89.7,80.2 		"/>
	</g>
</g>
</svg>
