<?xml version="1.0" encoding="utf-8"?>
<!-- Generator: Adobe Illustrator 19.0.0, SVG Export Plug-In . SVG Version: 6.00 Build 0)  -->
<svg version="1.1" id="图层_1" xmlns="http://www.w3.org/2000/svg" xmlns:xlink="http://www.w3.org/1999/xlink" x="0px" y="0px"
	 viewBox="0 0 360 240" style="enable-background:new 0 0 360 240;" xml:space="preserve">
<style type="text/css">
	.st0{fill:#FFFFFF;}
	.st1{fill:#878787;}
</style>
<rect id="XMLID_1_" class="st0" width="360" height="240"/>
<g id="XMLID_176_">
	<polygon id="XMLID_219_" class="st1" points="360,0 40,0 0,0 0,15 0,240 40,240 40,15 360,15 	"/>
	<g id="XMLID_206_">
		<path id="XMLID_207_" class="st1" d="M132.7,225H57V31.5h75.7V225z M59,223h71.7V33.5H59V223z"/>
	</g>
	<polygon id="XMLID_205_" class="st1" points="111.3,81.2 111.3,70.8 89.7,70.8 89.7,75.3 79,75.3 79,55.3 89.7,55.3 89.7,45 68,45 
		68,55.3 77,55.3 77,75.3 77,75.8 77,77.3 77,95.7 77,97.7 79,97.7 89.7,97.7 89.7,101.6 111.3,101.6 111.3,91.3 89.7,91.3 
		89.7,95.7 79,95.7 79,77.3 89.7,77.3 89.7,81.2 	"/>
	<g id="XMLID_291_">
		<path id="XMLID_295_" class="st1" d="M146.7,31.5v193.3h198.6V31.5H146.7z M343.3,222.8H148.7V33.5h194.6V222.8z"/>
		<rect id="XMLID_294_" x="158.1" y="49.3" class="st1" width="52.1" height="12.8"/>
		<rect id="XMLID_341_" x="219.6" y="49.3" class="st1" width="52.1" height="12.8"/>
		<rect id="XMLID_342_" x="280.9" y="49.3" class="st1" width="52.1" height="12.8"/>
		<rect id="XMLID_17_" x="158.1" y="71.3" class="st1" width="52.1" height="12.8"/>
		<rect id="XMLID_6_" x="219.6" y="71.3" class="st1" width="52.1" height="12.8"/>
		<rect id="XMLID_5_" x="280.9" y="71.3" class="st1" width="52.1" height="12.8"/>
		<rect id="XMLID_40_" x="158.1" y="92.3" class="st1" width="52.1" height="12.8"/>
		<rect id="XMLID_38_" x="158.1" y="113.3" class="st1" width="52.1" height="12.8"/>
		<rect id="XMLID_39_" x="219.6" y="92.3" class="st1" width="113.4" height="12.8"/>
	</g>
</g>
</svg>
