<?xml version="1.0" encoding="utf-8"?>
<!-- Generator: Adobe Illustrator 19.0.0, SVG Export Plug-In . SVG Version: 6.00 Build 0)  -->
<svg version="1.1" id="图层_1" xmlns="http://www.w3.org/2000/svg" xmlns:xlink="http://www.w3.org/1999/xlink" x="0px" y="0px"
	 viewBox="0 0 360 240" style="enable-background:new 0 0 360 240;" xml:space="preserve">
<style type="text/css">
	.st0{fill:#FFFFFF;}
	.st1{fill:#878787;}
</style>
<rect id="XMLID_1_" class="st0" width="360" height="240"/>
<g id="XMLID_177_">
	<polygon id="XMLID_75_" class="st1" points="360,0 40,0 0,0 0,15 0,240 40,240 40,15 360,15 	"/>
	<g id="XMLID_54_">
		<path id="XMLID_67_" class="st1" d="M147,109.5v115.2h198.6V109.5H147z M343.6,223H149V111.5h194.6V223z"/>
		<rect id="XMLID_66_" x="158.4" y="127.3" class="st1" width="52.1" height="12.8"/>
		<rect id="XMLID_65_" x="219.9" y="127.3" class="st1" width="52.1" height="12.8"/>
		<rect id="XMLID_64_" x="281.2" y="127.3" class="st1" width="52.1" height="12.8"/>
		<rect id="XMLID_63_" x="158.4" y="149.3" class="st1" width="52.1" height="12.8"/>
		<rect id="XMLID_59_" x="219.9" y="149.3" class="st1" width="52.1" height="12.8"/>
		<rect id="XMLID_58_" x="281.2" y="149.3" class="st1" width="52.1" height="12.8"/>
		<rect id="XMLID_57_" x="158.4" y="170.3" class="st1" width="52.1" height="12.8"/>
		<rect id="XMLID_56_" x="158.4" y="191.3" class="st1" width="52.1" height="12.8"/>
		<rect id="XMLID_55_" x="219.9" y="170.3" class="st1" width="113.4" height="12.8"/>
	</g>
	<g id="XMLID_367_">
		<rect id="XMLID_370_" x="57" y="31" class="st1" width="22.5" height="10.7"/>
		<rect id="XMLID_369_" x="82.6" y="31" class="st1" width="22.5" height="10.7"/>
		<rect id="XMLID_368_" x="108.3" y="31" class="st1" width="22.5" height="10.7"/>
	</g>
	<g id="XMLID_89_">
		<path id="XMLID_96_" class="st1" d="M57,47.7v48.3h288.6V47.7H57z M343.6,93.9H59V49.7h284.6V93.9z"/>
		<rect id="XMLID_95_" x="68.4" y="65.4" class="st1" width="76.2" height="12.8"/>
		<rect id="XMLID_94_" x="163.2" y="65.4" class="st1" width="76.2" height="12.8"/>
		<rect id="XMLID_93_" x="258" y="65.4" class="st1" width="76.2" height="12.8"/>
	</g>
	<path id="XMLID_172_" class="st1" d="M57,109.5v115.3h75.7V109.5H57z M130.7,222.9H59v-35.7h71.7V222.9z M130.7,185.2H59v-35.7
		h71.7V185.2z M130.7,147.5H59v-36.2h71.7V147.5z"/>
</g>
</svg>
