<?xml version="1.0" encoding="utf-8"?>
<!-- Generator: Adobe Illustrator 19.0.0, SVG Export Plug-In . SVG Version: 6.00 Build 0)  -->
<svg version="1.1" id="图层_1" xmlns="http://www.w3.org/2000/svg" xmlns:xlink="http://www.w3.org/1999/xlink" x="0px" y="0px"
	 viewBox="0 0 360 240" style="enable-background:new 0 0 360 240;" xml:space="preserve">
<style type="text/css">
	.st0{fill:#FFFFFF;}
	.st1{fill:#878787;}
</style>
<rect id="XMLID_1_" class="st0" width="360" height="240"/>
<g id="XMLID_115_">
	<polygon id="XMLID_505_" class="st1" points="360,0 40,0 0,0 0,15 0,240 40,240 40,15 360,15 	"/>
	<path id="XMLID_544_" class="st1" d="M341.1,31H56.5h-2v2v21v2v25v2v25v2v25v2h2H150h2h93.5h2h93.5h2v-2v-25v-2V83v-2V56v-2V33v-2
		H341.1z M150,135H56.5v-25H150V135z M150,108H56.5V83H150V108z M150,81H56.5V56H150V81z M245.6,135H152v-25h93.5V135z M245.6,108
		H152V83h93.5V108z M245.6,81H152V56h93.5V81z M341.1,135h-93.5v-25h93.5V135z M341.1,108h-93.5V83h93.5V108z M341.1,81h-93.5V56
		h93.5V81z"/>
	<path id="XMLID_60_" class="st1" d="M128.3,159.7V149h-22.5v10.7h-3.1V149H80.1v10.7H77V149H54.5v10.7v64.8h288.6v-64.8H128.3z
		 M341.1,222.5H56.5v-60.8h284.6V222.5z"/>
</g>
</svg>
