<?xml version="1.0" encoding="utf-8"?>
<!-- Generator: Adobe Illustrator 19.0.0, SVG Export Plug-In . SVG Version: 6.00 Build 0)  -->
<svg version="1.1" id="图层_1" xmlns="http://www.w3.org/2000/svg" xmlns:xlink="http://www.w3.org/1999/xlink" x="0px" y="0px"
	 viewBox="0 0 360 240" style="enable-background:new 0 0 360 240;" xml:space="preserve">
<style type="text/css">
	.st0{fill:#FFFFFF;}
	.st1{fill:#878787;}
</style>
<rect id="XMLID_1_" class="st0" width="360" height="240"/>
<g id="XMLID_178_">
	<polygon id="XMLID_233_" class="st1" points="360,0 40,0 0,0 0,15 0,240 40,240 40,15 360,15 	"/>
	<g id="XMLID_200_">
		<rect id="XMLID_204_" x="57" y="31" class="st1" width="22.5" height="10.7"/>
		<rect id="XMLID_202_" x="82.6" y="31" class="st1" width="22.5" height="10.7"/>
		<rect id="XMLID_201_" x="108.3" y="31" class="st1" width="22.5" height="10.7"/>
	</g>
	<g id="XMLID_193_">
		<path id="XMLID_197_" class="st1" d="M57,47.7v58.3h288.6V47.7H57z M343.6,103.9H59V49.7h284.6V103.9z"/>
		<rect id="XMLID_196_" x="68.4" y="59.4" class="st1" width="76.2" height="12.8"/>
		<rect id="XMLID_195_" x="163.2" y="59.4" class="st1" width="76.2" height="12.8"/>
		<rect id="XMLID_194_" x="258" y="59.4" class="st1" width="76.2" height="12.8"/>
		<rect id="XMLID_35_" x="68.4" y="80.4" class="st1" width="76.2" height="12.8"/>
		<rect id="XMLID_34_" x="163.2" y="80.4" class="st1" width="76.2" height="12.8"/>
		<rect id="XMLID_8_" x="258" y="80.4" class="st1" width="76.2" height="12.8"/>
	</g>
	<path id="XMLID_180_" class="st1" d="M343.6,118.5H149h-2v2v21v2v25v2v25v2v25v2h2h63.5h2h63.5h2h63.5h2v-2v-25v-2v-25v-2v-25v-2
		v-21v-2H343.6z M212.5,222.5H149v-25h63.5V222.5z M212.5,195.5H149v-25h63.5V195.5z M212.5,168.5H149v-25h63.5V168.5z M278.1,222.5
		h-63.5v-25h63.5V222.5z M278.1,195.5h-63.5v-25h63.5V195.5z M278.1,168.5h-63.5v-25h63.5V168.5z M343.6,222.5h-63.5v-25h63.5V222.5
		z M343.6,195.5h-63.5v-25h63.5V195.5z M343.6,168.5h-63.5v-25h63.5V168.5z"/>
	<path id="XMLID_11_" class="st1" d="M128,118.5H59.3h-2v2v21v2v25v2v25v2v25v2h2h17.5h2H128h0.5h2v-2v-25v-2v-25v-2v-25v-2v-21v-2
		H128z M76.9,222.5H59.3v-25h17.5V222.5z M76.9,195.5H59.3v-25h17.5V195.5z M76.9,168.5H59.3v-25h17.5V168.5z M128.4,222.5H78.9v-25
		h49.5V222.5z M128.4,195.5H78.9v-25h49.5V195.5z M128.4,168.5H78.9v-25h49.5V168.5z"/>
</g>
</svg>
