<?xml version="1.0" encoding="utf-8"?>
<!-- Generator: Adobe Illustrator 19.0.0, SVG Export Plug-In . SVG Version: 6.00 Build 0)  -->
<svg version="1.1" id="图层_1" xmlns="http://www.w3.org/2000/svg" xmlns:xlink="http://www.w3.org/1999/xlink" x="0px" y="0px"
	 viewBox="0 0 360 240" style="enable-background:new 0 0 360 240;" xml:space="preserve">
<style type="text/css">
	.st0{fill:#FFFFFF;}
	.st1{fill:#878787;}
</style>
<rect id="XMLID_1_" class="st0" width="360" height="240"/>
<g id="XMLID_77_">
	<polygon id="XMLID_403_" class="st1" points="360,0 40,0 0,0 0,15 0,240 40,240 40,15 360,15 	"/>
	<g id="XMLID_138_">
		<path id="XMLID_142_" class="st1" d="M54.8,31.7V80h288.6V31.7H54.8z M341.4,78H56.8V33.7h284.6V78z"/>
		<rect id="XMLID_141_" x="66.2" y="49.5" class="st1" width="76.2" height="12.8"/>
		<rect id="XMLID_140_" x="161" y="49.5" class="st1" width="76.2" height="12.8"/>
		<rect id="XMLID_139_" x="255.7" y="49.5" class="st1" width="76.2" height="12.8"/>
	</g>
	<path id="XMLID_112_" class="st1" d="M341.4,91.9H56.8h-2v2v19v2v23v2v23v2v-2v2h2h93.5h2h93.5h2h93.5h2v-2v2v-2v-23v-2v-23v-2v-19
		v-2H341.4z M150.3,162.9H56.8v-23h93.5V162.9z M150.3,137.9H56.8v-23h93.5V137.9z M245.8,162.9h-93.5v-23h93.5V162.9z M245.8,137.9
		h-93.5v-23h93.5V137.9z M341.4,162.9h-93.5v-23h93.5V162.9z M341.4,137.9h-93.5v-23h93.5V137.9z"/>
	<path id="XMLID_133_" class="st1" d="M341.4,176.9H56.8h-2v2v19v2v23v2V223v2v-2v2h2h93.5h2h93.5h2h93.5h2v-2v2v-2v1.9v-2v-23v-2
		v-19v-2H341.4z M150.3,222.9H56.8v-23h93.5V222.9z M245.8,222.9h-93.5v-23h93.5V222.9z M341.4,222.9h-93.5v-23h93.5V222.9z"/>
</g>
</svg>
